<?xml version="1.0" encoding="UTF-8"?><svg id="Layer_2" xmlns="http://www.w3.org/2000/svg" viewBox="0 0 541.089 649.123"><defs><style>.cls-1{fill:#dd9f14;}.cls-2{fill:none;}.cls-2,.cls-3,.cls-4,.cls-5{stroke:#000;stroke-miterlimit:10;}.cls-6{fill:#819900;}.cls-7{fill:#637e2d;}.cls-8{fill:#efbd23;}.cls-9,.cls-3{fill:#536422;}.cls-10{fill:#b07e89;}.cls-11{fill:#abc537;}.cls-12{fill:#697a13;}.cls-13,.cls-4{fill:#d8c86a;}.cls-14{fill:#f4ba00;}.cls-15{fill:#526321;}.cls-5{fill:#fccc44;}</style></defs><g id="Layer_2-2"><g><g><g><path class="cls-9" d="M497.454,366.709c87.16,76.61,16.67,164.87,8.28,169.7-1.65,34.97-39.96,61.83-64.67,75.59v-.01c-86.05,43.11-143.93,1.36-145.12,.49-.01-.01-.02-.01-.02-.01-58.77-55.11-7.77-59.57-7.77-59.57,30.6,25.77,59.82,38.16,59.82,38.16,47.61,1.82,88.77-32.33,88.77-32.33,0,0,41.67-31.83,40.07-81.11,3.52-.25,7.37,.45,11.58,2.36,46.99,21.3-48.91-85.89-48.91-85.89l57.97-27.38Z"/><path class="cls-13" d="M439.484,394.089s95.9,107.19,48.91,85.89c-4.21-1.91-8.06-2.61-11.58-2.36-21.75,1.53-30.88,39.45-33.64,54.45,9.32-65.57-26.14-128.03-31.09-133.77-3.44-3.99-24.02-4.02-39.46-3.44,1.14-8.15-2.34-16-9.69-23.62,6.99,.98,14.57,1.32,22.77,.87,44.8-1.72,61.94-16.01,75.25-31.13,14.46,8.33,26.52,16.95,36.5,25.73l-57.97,27.38Z"/><path class="cls-8" d="M476.814,477.619c1.6,49.28-40.07,81.11-40.07,81.11,2.39-6.85,4.18-13.76,5.45-20.64,0,0,0-.03,.01-.1,.01-.04,.02-.09,.02-.13s.01-.08,.02-.13c.36-1.89,.66-3.78,.93-5.66,2.76-15,11.89-52.92,33.64-54.45Z"/><path class="cls-11" d="M412.084,398.299c4.95,5.74,40.41,68.2,31.09,133.77-.06,.36-.13,.7-.18,1.03-.21,1.18-.38,2.19-.5,2.98-.03,.21-.06,.4-.09,.57-.07,.48-.13,.84-.16,1.08-.01,.05-.02,.09-.02,.13s-.01,.09-.02,.13c-.01,.07-.01,.1-.01,.1-1.27,6.88-3.06,13.79-5.45,20.64,0,0-41.16,34.15-88.77,32.33,0,0-29.22-12.39-59.82-38.16-22.48-18.92-45.72-45.06-58.67-78.81-3.62-9.42-6.44-19.44-8.21-30.05,0,0-.63-3.51-.04-9.96,.82-8.9,3.95-23.39,14.21-42.01,31.03-63.52,13.62-124.35-19.74-162.72-22.53-25.91-52.34-41.59-79.42-40.93h-.01c-11.42,.28-22.38,3.46-32.08,10.02,0,0-27.16,17.67-11.04,61.1,0,0,13.9,35.58,39.36,58.89,4.12,3.77,8.55,7.23,13.27,10.15,17.92,11.12,40.07,14.67,65.91-.49-3.07,7.76-10.78,13.99-24.8,17.15-5.1,1.15-10.11,1.55-15.02,1.3-58.2-2.91-101.92-96.1-101.92-96.1-.21-.57-.41-1.13-.6-1.69-10.35-30.3,4.23-49.25,4.23-49.25,0,0-2.16-45.97,77.28-37.29,.73,.09,1.47,.17,2.22,.26,62.29,7.47,107.37,63.56,125.71,113.97v.01c3.31,9.09,5.75,18,7.26,26.4,.36,2.02,.76,4.56,1.1,7.57,0,0,0,.02,.01,.04,1.25,10.95,1.87,27.95-1.89,47.32-4.39,22.58-14.23,49.07-14.75,59.06-.3,5.68-.52,13.52,3.31,25.55-.02,.09-.04,.15-.05,.19,.02-.04,.03-.09,.05-.16,2.01,6.27,5.11,13.69,9.88,22.54,0,0,95.15,12.56,123.3,75.45,0,0,41.62-82.13-51.71-144.46l-.18-.12s7.72-.61,17.5-.97c15.44-.58,36.02-.55,39.46,3.44Z"/><path class="cls-12" d="M441.064,611.989v.01c-11.89,6.62-20.64,10.21-20.64,10.21-28.99,16.13-55.76,24.22-80.04,26.02-19.17-13.81-33.65-25.63-44.44-35.75,1.19,.87,59.07,42.62,145.12-.49Z"/><path class="cls-7" d="M406.794,315.779c20.99,7.96,38.91,16.41,54.16,25.2-13.31,15.12-30.45,29.41-75.25,31.13,0,0-1.08-11.36,9.75-13.46-45.16-18.76-32.67-37.04,6.33-10.79,0,0,.92-13.01,17.97-13.19,0,0-5.16-12.11-12.96-18.89Z"/><path class="cls-13" d="M406.794,315.779c7.8,6.78,12.96,18.89,12.96,18.89-17.05,.18-17.97,13.19-17.97,13.19-39-26.25-51.49-7.97-6.33,10.79-10.83,2.1-9.75,13.46-9.75,13.46-8.2,.45-15.78,.11-22.77-.87-57.5-8.07-75.18-59.05-75.77-60.78-.01-.02-.01-.04-.01-.04-.34-3.01-.74-5.55-1.1-7.57-1.51-8.4-3.95-17.31-7.26-26.4v-.01c.43-10.73,6.59-19.54,11.26-24.71,.91-1.01,1.76-1.88,2.5-2.59-.58,.75-1.07,1.55-1.46,2.39-.13,.27-.25,.54-.35,.81-.47,1.26-.71,2.52-.77,3.75-.19,3.58,3.96,5.68,6.72,3.39l19.68-16.37c5.11,.5,10.69,1.08,12.58,1.42,38.7,8.8,34.36,56.82,34.36,56.82,15.78,4.58,30.24,9.41,43.48,14.43Zm-80.57,1.84c1.76-.23,12.74-32.35-11.17-42.31-13.85-5.77-10.66,5.88-10.66,5.88,0,0,20.06,36.66,21.83,36.43Z"/><path class="cls-8" d="M355.304,395.949c93.33,62.33,51.71,144.46,51.71,144.46-28.15-62.89-123.3-75.45-123.3-75.45-4.77-8.85-7.87-16.27-9.88-22.54,1.12-3.93,18.2-59.88,81.47-46.47Zm21.02,75.54c7.75-31.21-45.76-79.64-69.78-31.65,0,0,48.9,1.71,69.78,31.65Z"/><path class="cls-9" d="M306.544,439.839c24.02-47.99,77.53,.44,69.78,31.65-20.88-29.94-69.78-31.65-69.78-31.65Z"/><path class="cls-7" d="M362.934,371.239c7.35,7.62,10.83,15.47,9.69,23.62-9.78,.36-17.5,.97-17.5,.97l.18,.12c-63.27-13.41-80.35,42.54-81.47,46.47v-.03c-3.83-12.03-3.61-19.87-3.31-25.55,.52-9.99,10.36-36.48,14.75-59.06,3.76-19.37,3.14-36.37,1.89-47.32,.59,1.73,18.27,52.71,75.77,60.78Z"/><path class="cls-12" d="M340.384,648.229c-28.51,2.12-53.58-4.43-74.76-16.8-60.49-65.91-36.14-157.34-36.14-157.34,12.95,33.75,36.19,59.89,58.67,78.81,0,0-51,4.46,7.77,59.57,0,0,.01,0,.02,.01,10.79,10.12,25.27,21.94,44.44,35.75Z"/><path class="cls-9" d="M315.054,275.309c23.91,9.96,12.93,42.08,11.17,42.31-1.77,.23-21.83-36.43-21.83-36.43,0,0-3.19-11.65,10.66-5.88Z"/><path class="cls-9" d="M260.634,181.309c-.11-.08-.21-.16-.31-.22-.11-.09-.22-.16-.33-.23-.33-.21-.65-.39-.97-.53-.11-.05-.22-.09-.32-.14-.07-.02-.14-.05-.21-.07-.12-.04-.24-.08-.36-.11-.33-.1-.66-.16-.98-.18-1.55-.14-2.98,.4-4.26,1.32-.33,.23-.65,.49-.96,.77-.16,.14-.31,.28-.45,.43-3.3,3.25-5.32,8.42-5.32,8.42-.77-11.92-22.29-16.68-22.29-16.68,0,0,14.52-6.7,20.27-4.31,.79,.33,1.68,.79,2.64,1.35,.27,.16,.54,.32,.82,.49,.63,.39,1.28,.81,1.94,1.25l.66,.45c.28,.18,.55,.38,.83,.57,.36,.26,.72,.51,1.09,.77,3.69,2.67,7.2,5.54,8.51,6.65Z"/><path class="cls-12" d="M215.704,229.349c33.36,38.37,50.77,99.2,19.74,162.72,0,0-28.35,7.25-51.45-23.92-4.3-5.78-8.41-12.89-12.12-21.61,4.91,.25,9.92-.15,15.02-1.3,14.02-3.16,21.73-9.39,24.8-17.15l.01-.01c.24-.61,.45-1.22,.63-1.85,.05-.15,.1-.31,.14-.47,.16-.58,.29-1.17,.4-1.77,.86-4.55,.39-9.49-1.12-14.57,0,0,52.5-12.82,3.95-80.07Z"/><path class="cls-15" d="M183.994,368.149c23.1,31.17,51.45,23.92,51.45,23.92-10.26,18.62-13.39,33.11-14.21,42.01-9.58-39.98-55.68-23.85-56.59-23.52h-.01c-3.76-2.67-6.48-3.61-6.48-3.61-30.41-15.12-51.87-36.61-66.51-56.41,2.44,2.57,55.75,58.07,92.35,17.61Z"/><path class="cls-15" d="M221.274,444.039c1.77,10.61,4.59,20.63,8.21,30.05,0,0-24.35,91.43,36.14,157.34-53.81-31.41-82.59-100.38-78.99-160.42,2.26-37.55-12.91-54.02-21.99-60.45,.91-.33,47.01-16.46,56.59,23.52-.59,6.45,.04,9.96,.04,9.96Z"/><path class="cls-6" d="M215.704,229.349c48.55,67.25-3.95,80.07-3.95,80.07-5.26-17.64-23.15-36.79-41.53-46.32,35.24-40.26-26.01-65.29-35.17-60.42,2.26-1.47,13.75-9.5,1.23-14.26,27.08-.66,56.89,15.02,79.42,40.93Z"/><path class="cls-12" d="M171.874,346.539c3.71,8.72,7.82,15.83,12.12,21.61-36.6,40.46-89.91-15.04-92.35-17.61-.02-.03-.05-.05-.06-.07l-.02-.02c-20.09-27.18-27.35-51.18-27.35-51.18,0,0,8.77-32.31,5.14-50.52,.19,.56,.39,1.12,.6,1.69,0,0,43.72,93.19,101.92,96.1Z"/><path class="cls-1" d="M135.054,202.679c9.16-4.87,70.41,20.16,35.17,60.42-4.79-2.5-9.62-4.33-14.27-5.32-16.21-3.43-30.62,11.41-26.11,27.36,2.03,7.18,6.91,15.88,16.98,25.9,.66,.66,1.35,1.33,2.06,2,.88,.75,1.76,1.4,2.64,1.95,.59,4.61-.61,9.02-3.4,11.82-.69,.69-1.47,1.28-2.34,1.77-4.72-2.92-9.15-6.38-13.27-10.15-25.46-23.31-39.36-58.89-39.36-58.89-16.12-43.43,11.04-61.1,11.04-61.1,9.7-6.56,20.66-9.74,32.08-10.02h.01c12.52,4.76,1.03,12.79-1.23,14.26-.11,.05-.2,.11-.29,.18,.07-.04,.16-.1,.29-.18Z"/><path class="cls-14" d="M125.694,155.919c-14.39-2.17-34.47,6.77-45.12,14.05l-.19-.28c-16.1-3.09-30.8-9.89-43.07-19.47-14.54-11.36-25.66-26.63-31.61-44.32C-3.846,77.499-1.926,37.379,25.824,12.249c3.6-3.26,7.47-6.14,11.57-8.63,3.84-2.34,8.33-3.4,12.81-3.05,8.6,.67,9.83,3.4,3.07,8.38-2.3,1.7-5.06,2.48-7.75,3.44-4.18,1.48-7.9,3.83-11.2,6.83-8.42,7.67-14.05,19.64-17.41,32.55-5.8,22.27-4.85,47.35,.19,58.06,31.64,67.25,106.29,33.08,107.48,32.53-8.55,8.89-1.28,12.79,1.11,13.56Z"/><path class="cls-10" d="M89.994,30.749c7.2,37.83-32.01,23.12-33.12,22.7-.01-.01-.02-.01-.02-.01-9.21-10.41-15.6-22.74-13.24-28.4,.91,.58,1.9,1.2,2.99,1.88,12.62,7.92,11.92-8.05,19.53-7.29,7.6,.77,10.17,5.52,10.17,5.52l-2.82,9.23,16.51-3.63Z"/><path class="cls-14" d="M80.384,169.689l.19,.28c-.67,.46-1.29,.91-1.88,1.35-10.15,7.58-11.01,25.3-11.01,25.3-7.82,3.98-8.13,26.22-8.13,26.22-6.09-4.56-13.54-31.2-11.83-44.64,1.71-13.45-10.41-27.98-10.41-27.98,12.27,9.58,26.97,16.38,43.07,19.47Z"/><path class="cls-10" d="M56.874,53.449c6.76,7.64,15.05,14.25,22.5,16.42,0,0-9.62,5.5-15.19,3.06l-3.86-4.78-.94,3.44s-5.67,1.74-9.6-6.36c-3.92-8.1-8.14-12.14-8.14-12.14,0,0-9.7-11.2-24.73-1.32,3.36-12.91,8.99-24.88,17.41-32.55,.7,.44,2.83,1.77,9.29,5.82-2.36,5.66,4.03,17.99,13.24,28.4,0,0,.01,0,.02,.01Z"/></g><g><path class="cls-2" d="M145.784,328.579c-4.72-2.92-9.15-6.38-13.27-10.15-25.46-23.31-39.36-58.89-39.36-58.89-16.12-43.43,11.04-61.1,11.04-61.1,9.7-6.56,20.66-9.74,32.08-10.02"/><path class="cls-2" d="M442.189,538.085c-1.27,6.88-3.06,13.79-5.45,20.64,0,0-41.16,34.15-88.77,32.33,0,0-29.22-12.39-59.82-38.16-22.48-18.92-45.72-45.06-58.67-78.81-3.62-9.42-6.44-19.44-8.21-30.05,0,0-.63-3.51-.04-9.96,.82-8.9,3.95-23.39,14.21-42.01,31.03-63.52,13.62-124.35-19.74-162.72-22.53-25.91-52.34-41.59-79.42-40.93"/><path class="cls-2" d="M287.159,310.455c1.25,10.95,1.87,27.95-1.89,47.32-4.39,22.58-14.23,49.07-14.75,59.06-.3,5.68-.52,13.52,3.31,25.55v.03c2.01,6.27,5.11,13.69,9.88,22.54,0,0,95.15,12.56,123.3,75.45,0,0,41.62-82.13-51.71-144.46l-.18-.12s7.72-.61,17.5-.97c15.44-.58,36.02-.55,39.46,3.44,4.95,5.74,40.41,68.2,31.09,133.77-.28,1.97-.6,3.94-.97,5.92"/><path class="cls-2" d="M278.789,276.445c3.31,9.09,5.75,18,7.26,26.4,.36,2.02,.76,4.56,1.1,7.57"/><path class="cls-5" d="M212.874,323.989c-.11,.59-.24,1.19-.4,1.77-.04,.16-.09,.32-.14,.47-.18,.63-.4,1.24-.63,1.85l-.01,.01c-25.84,15.16-47.99,11.61-65.91,.49,.87-.49,1.65-1.08,2.34-1.77,2.79-2.8,3.99-7.21,3.4-11.82-.88-.55-1.76-1.2-2.64-1.95-.71-.67-1.4-1.34-2.06-2-10.07-10.02-14.95-18.72-16.98-25.9-4.51-15.95,9.9-30.79,26.11-27.36,4.65,.99,9.48,2.82,14.27,5.32,18.38,9.53,36.27,28.68,41.53,46.32,1.51,5.08,1.98,10.02,1.12,14.57Z"/><path class="cls-2" d="M167.684,298.329c10.61,11.45-2.56,25.28-16.16,16.66"/><path class="cls-2" d="M212.874,323.989c-.11,.6-.24,1.19-.4,1.77"/><path class="cls-2" d="M212.334,326.229c-.18,.63-.39,1.24-.63,1.85"/><path class="cls-2" d="M211.694,328.089c-3.07,7.76-10.78,13.99-24.8,17.15-5.1,1.15-10.11,1.55-15.02,1.3-58.2-2.91-101.92-96.1-101.92-96.1-.21-.57-.41-1.13-.6-1.69-10.35-30.3,4.23-49.25,4.23-49.25,0,0-2.16-45.97,77.28-37.29"/><path class="cls-2" d="M273.779,442.575c.02-.04,.03-.09,.05-.16,1.12-3.93,18.2-59.88,81.47-46.47,.31,.06,.63,.13,.94,.2"/><path class="cls-2" d="M273.829,442.375v.01c-.02,.09-.04,.15-.05,.19v.02c-.01,.03-.01,.04-.01,.04"/><path class="cls-2" d="M306.539,439.835s48.9,1.71,69.78,31.65c7.75-31.21-45.76-79.64-69.78-31.65Z"/><path class="cls-2" d="M91.559,350.445c-20.09-27.18-27.35-51.18-27.35-51.18,0,0,8.77-32.31,5.14-50.52"/><path class="cls-2" d="M164.629,410.555c-3.76-2.67-6.48-3.61-6.48-3.61-30.45-15.14-51.92-36.66-66.57-56.48"/><path class="cls-4" d="M150.864,162.209c.73,.09,1.47,.17,2.22,.26,62.29,7.47,107.37,63.56,125.71,113.97,.43-10.73,6.59-19.54,11.26-24.71,.91-1.01,1.76-1.88,2.5-2.59q0-.01,.01-.01c.75-.98,1.65-1.88,2.68-2.68-.02-.12-.05-.29-.08-.51-.66-4.28-4.9-25.93-24.87-45.52,0,0,9.06-5.66,15.14,.76,6.06,6.39,16.76,27.45,21.17,40.9l.03,.09c0,.01,.01,.03,.01,.04,0,0,4.21,.37,9.02,.83,.24,.02,.47,.05,.71,.07,5.11,.5,10.69,1.08,12.58,1.42,0,0-12.06-141.35-178.09-82.32Zm109.46,18.88c-.11-.09-.22-.16-.33-.23-.33-.21-.65-.39-.97-.53-.11-.05-.22-.09-.32-.14-.07-.02-.14-.05-.21-.07-.12-.04-.24-.08-.36-.11-.33-.09-.66-.15-.98-.18-1.55-.14-2.98,.4-4.26,1.32-.33,.23-.65,.49-.96,.77-.16,.14-.31,.28-.45,.43-3.3,3.25-5.32,8.42-5.32,8.42-.77-11.92-22.29-16.68-22.29-16.68,0,0,14.52-6.7,20.27-4.31,.79,.33,1.68,.79,2.64,1.35,.27,.16,.54,.32,.82,.49,.63,.38,1.28,.8,1.94,1.25,.22,.15,.44,.3,.66,.45,.28,.18,.55,.38,.83,.57,.36,.26,.72,.51,1.09,.77,3.69,2.67,7.2,5.54,8.51,6.65-.11-.08-.21-.16-.31-.22Z"/><path class="cls-2" d="M150.864,162.209q-.01,.01-.02,.01"/><path class="cls-2" d="M164.644,410.559c9.08,6.43,24.25,22.9,21.99,60.45-3.6,60.04,25.18,129.01,78.99,160.42,21.18,12.37,46.25,18.92,74.76,16.8,24.28-1.8,51.05-9.89,80.04-26.02,0,0,8.75-3.59,20.64-10.21,24.71-13.76,63.02-40.62,64.67-75.59,8.39-4.83,78.88-93.09-8.28-169.7-9.98-8.78-22.04-17.4-36.5-25.73-15.25-8.79-33.17-17.24-54.16-25.2-13.24-5.02-27.7-9.85-43.48-14.43,0,0,4.34-48.02-34.36-56.82"/><path class="cls-2" d="M260.634,181.309c-.11-.08-.21-.16-.31-.22-.11-.09-.22-.16-.33-.23-.33-.21-.65-.39-.97-.53-.11-.05-.22-.09-.32-.14-.07-.02-.14-.05-.21-.07-.12-.04-.24-.08-.36-.11-.33-.1-.66-.16-.98-.18-1.55-.14-2.98,.4-4.26,1.32-.33,.23-.65,.49-.96,.77-.16,.14-.31,.28-.45,.43-3.3,3.25-5.32,8.42-5.32,8.42-.77-11.92-22.29-16.68-22.29-16.68,0,0,14.52-6.7,20.27-4.31,.79,.33,1.68,.79,2.64,1.35,.27,.16,.54,.32,.82,.49,.63,.39,1.28,.81,1.94,1.25,.22,.15,.44,.3,.66,.45,.28,.18,.55,.38,.83,.57,.36,.26,.72,.51,1.09,.77,3.69,2.67,7.2,5.54,8.51,6.65Z"/><path class="cls-2" d="M261.049,181.645c.04,.03,.09,.07,.13,.11"/><path class="cls-3" d="M306.604,242.079c-.89,.09-1.76,.24-2.61,.42-2.97,.64-5.62,1.76-7.79,3.24-.33,.23-.65,.46-.96,.71-.02-.12-.05-.29-.08-.51-.66-4.28-4.9-25.93-24.87-45.52,0,0,9.06-5.66,15.14,.76,6.06,6.39,16.76,27.45,21.17,40.9Z"/><path class="cls-3" d="M306.634,242.169c-.9,.07-1.78,.18-2.64,.33,.85-.18,1.72-.33,2.61-.42l.03,.09Z"/><line class="cls-2" x1="278.794" y1="276.449" x2="278.794" y2="276.439"/><path class="cls-2" d="M304.389,281.185s20.06,36.66,21.83,36.43c1.76-.23,12.74-32.35-11.17-42.31-13.85-5.77-10.66,5.88-10.66,5.88Z"/><path class="cls-2" d="M287.149,310.415s0,.02,.01,.04c.59,1.73,18.27,52.71,75.77,60.78,6.99,.98,14.57,1.32,22.77,.87,0,0-1.08-11.36,9.75-13.46-45.16-18.76-32.67-37.04,6.33-10.79,0,0,.92-13.01,17.97-13.19,0,0-5.16-12.11-12.96-18.89"/><path class="cls-2" d="M460.949,340.975c-13.31,15.12-30.45,29.41-75.25,31.13"/><path class="cls-2" d="M497.449,366.705l-57.97,27.38s95.9,107.19,48.91,85.89c-4.21-1.91-8.06-2.61-11.58-2.36-21.75,1.53-30.88,39.45-33.64,54.45-.6,3.27-.9,5.45-.97,5.92-.01,.07-.01,.1-.01,.1"/><path class="cls-2" d="M362.919,371.225l.01,.01c7.35,7.62,10.83,15.47,9.69,23.62"/><path class="cls-2" d="M235.439,392.065s-28.35,7.25-51.45-23.92c-4.3-5.78-8.41-12.89-12.12-21.61"/><path class="cls-2" d="M124.589,142.345l-.01,.01c-1.19,.55-75.84,34.72-107.48-32.53-5.04-10.71-5.99-35.79-.19-58.06,3.36-12.91,8.99-24.88,17.41-32.55,3.3-3,7.02-5.35,11.2-6.83,2.69-.96,5.45-1.74,7.75-3.44,6.76-4.98,5.53-7.71-3.07-8.38-4.48-.35-8.97,.71-12.81,3.05-4.1,2.49-7.97,5.37-11.57,8.63C-1.931,37.375-3.851,77.495,5.699,105.895c5.95,17.69,17.07,32.96,31.61,44.32,12.27,9.58,26.97,16.38,43.07,19.47"/><path class="cls-2" d="M125.689,155.915c-2.39-.77-9.66-4.67-1.11-13.56"/><path class="cls-2" d="M125.689,155.915c.23,.03,.46,.07,.69,.11,.06,.08-.22,.04-.69-.11Z"/><path class="cls-2" d="M37.309,150.215s12.12,14.53,10.41,27.98c-1.71,13.44,5.74,40.08,11.83,44.64,0,0,.31-22.24,8.13-26.22,0,0,.86-17.72,11.01-25.3,.59-.44,1.21-.89,1.88-1.35,10.65-7.28,30.73-16.22,45.12-14.05"/><path class="cls-2" d="M56.869,53.445c6.76,7.64,15.05,14.25,22.5,16.42,0,0-9.62,5.5-15.19,3.06l-3.86-4.78-.94,3.44s-5.67,1.74-9.6-6.36c-3.92-8.1-8.14-12.14-8.14-12.14,0,0-9.7-11.2-24.73-1.32"/><path class="cls-2" d="M43.649,24.935c-.01,.03-.03,.06-.04,.1-2.36,5.66,4.03,17.99,13.24,28.4"/><path class="cls-2" d="M56.849,53.435s.01,0,.02,.01c1.11,.42,40.32,15.13,33.12-22.7l-16.51,3.63,2.82-9.23s-2.57-4.75-10.17-5.52c-7.61-.76-6.91,15.21-19.53,7.29-1.09-.68-2.08-1.3-2.99-1.88-6.46-4.05-8.59-5.38-9.29-5.82l-.35-.22"/><path class="cls-2" d="M164.629,410.555h.01c.91-.33,47.01-16.46,56.59,23.52q.01,.01,.01,.02"/><path class="cls-2" d="M91.559,350.445l.02,.02c1.25,1.33,55.38,58.61,92.41,17.68"/><path class="cls-2" d="M134.679,202.905s.03-.02,.08-.05c.07-.04,.16-.1,.29-.18,2.26-1.47,13.75-9.5,1.23-14.26h-.01"/><path class="cls-2" d="M170.219,263.095c35.24-40.26-26.01-65.29-35.17-60.42-.11,.05-.2,.11-.29,.18"/><path class="cls-2" d="M211.749,309.415s52.5-12.82,3.95-80.07"/><path class="cls-2" d="M229.479,474.085s-24.35,91.43,36.14,157.34l.02,.02"/><path class="cls-2" d="M295.939,612.475c10.79,10.12,25.27,21.94,44.44,35.75,.09,.07,.18,.13,.27,.2"/><path class="cls-2" d="M288.149,552.895s-51,4.46,7.77,59.57"/><path class="cls-2" d="M295.919,612.465s.01,0,.02,.01c1.19,.87,59.07,42.62,145.12-.49"/><path class="cls-2" d="M436.739,558.725s41.67-31.83,40.07-81.11"/></g></g><path class="cls-3" d="M316.374,243.109l-19.68,16.37c-2.76,2.29-6.91,.19-6.72-3.39,.06-1.23,.3-2.49,.77-3.75,.1-.27,.22-.54,.35-.81,.39-.84,.88-1.64,1.46-2.39q0-.01,.01-.01c.75-.98,1.65-1.88,2.68-2.68,.31-.25,.63-.48,.96-.71,2.17-1.48,4.82-2.6,7.79-3.24,.86-.15,1.74-.26,2.64-.33,0,.01,.01,.03,.01,.04,0,0,4.21,.37,9.02,.83,.24,.02,.47,.05,.71,.07Z"/><path class="cls-3" d="M306.634,242.169c-.9,.07-1.78,.18-2.64,.33,.85-.18,1.72-.33,2.61-.42l.03,.09Z"/></g></g></svg>