<?xml version="1.0" encoding="UTF-8"?><svg id="Layer_2" xmlns="http://www.w3.org/2000/svg" viewBox="0 0 820.037 752.964"><defs><style>.cls-1{fill:#5af2c3;}.cls-1,.cls-2,.cls-3,.cls-4,.cls-5,.cls-6,.cls-7,.cls-8,.cls-9,.cls-10,.cls-11,.cls-12,.cls-13,.cls-14,.cls-15,.cls-16{stroke:#000;stroke-miterlimit:10;}.cls-2{fill:#b26810;}.cls-3{fill:#6cce34;}.cls-17{fill:#e1f200;}.cls-4,.cls-13{fill:#cc6100;}.cls-5{fill:#96964c;}.cls-6{fill:#e87a28;}.cls-7{fill:#e87700;}.cls-8{fill:#ea7300;}.cls-9{fill:#ffac01;}.cls-10{fill:#ff9e03;}.cls-11{fill:#ff9700;}.cls-12{fill:#ea7202;}.cls-13{stroke-width:2px;}.cls-14{fill:#c5882d;}.cls-15{fill:#ffb600;}.cls-18{fill:#cd6601;}.cls-16{fill:#ffae39;}</style></defs><g id="Layer_2-2"><g><path class="cls-4" d="M502.782,697.661c-.16,5.78-.66,11.4-1.48,16.81-1.97,13.26-5.78,25.33-10.95,35.8-16.33,.11-32.24-1.09-47.36-3.14-35.35-4.8-66.37-14.29-88.07-22.82-22.84-8.97-47.69-11.23-71.75-6.67l37.36-14.11-.01-.01c-.03-.02-.13-.09-.28-.2-.04-.03-.08-.06-.13-.09-.08-.06-.18-.13-.29-.21-.05-.04-.1-.07-.15-.11s-.11-.09-.17-.13h-.01v-.01c-.11-.08-.23-.17-.36-.26-.01,0-.03-.01-.04-.03-2.69-2.04-8.94-6.93-16.97-14.24-.72-.65-1.45-1.32-2.19-2.01-.41-.39-.82-.77-1.24-1.16-.4-.38-.81-.76-1.22-1.15-.16-.16-.32-.32-.49-.47-.46-.43-.91-.88-1.38-1.32-.92-.9-1.86-1.82-2.81-2.76-.48-.48-.96-.95-1.44-1.44-.07-.08-.15-.16-.24-.24-.87-.88-1.75-1.78-2.65-2.7-.49-.53-1-1.05-1.51-1.59-.53-.57-1.08-1.15-1.63-1.74-.23-.25-.45-.49-.68-.74,1.35,1.06,16.22,12.61,29.47,12.61,20.49,.01,59.01-27.2,93.75-65.34,25.75,19.42,54.55,30.7,82.43,32.64-11.34,21.12-25.16,43.21-41.84,66.28,0,0,7.08,4.14,20.54,4.14,.49,0,.98-.01,1.48-.02,.51-.01,1.02-.03,1.54-.05,.35-.02,.72-.03,1.08-.06,.48-.03,.97-.06,1.46-.1l28.23-23.36Z"/><path class="cls-9" d="M295.602,682.131c-.92-.89-1.86-1.82-2.81-2.76,.95,.94,1.89,1.86,2.81,2.76Z"/><path class="cls-6" d="M515.372,595.65c-6.5,17.58-14.76,35.98-25.08,55.18-27.88-1.94-56.68-13.22-82.43-32.64,7.57-8.31,14.96-17.14,21.95-26.33,49.7-65.34,78.83-148.42,5.93-188.45,0,0,40.22-19.78,27.6-92.32,4.05,12.54,117.35,107.71,52.03,284.56Z"/><path class="cls-13" d="M805.815,529.088c-45.5,173.77-153.28,218.02-247.65,218.65,5.17-10.47,8.98-22.54,10.95-35.8,32.37-12.8,78.73-47.46,136.54-133.85,110.78-165.54-15.96-385.6-91.77-310.42-5.58,5.53-10.88,12.66-15.79,21.53,0,0-4.69,9.77-4.34,13.4-.14-.17-.29-.34-.45-.5-1.8-3.97-9.67-21.64-36.22-40.59-4.02-2.87-8.47-5.77-13.39-8.66,9.65-2.2,18.93-7.38,27.38-16.6,0,0,24.95,10.37,63.93-28.19l.8-.8c.73-.73,1.46-1.48,2.2-2.24,10.08-10.43,25.12-14.43,38.98-10.18,.18,.06,.37,.11,.55,.17,.01,0,.02,.01,.03,.01,27.09,11.27,30.05,12.51,30.38,12.64,.01,0,.01,.01,.02,.01l.02,.01c73.88,51.11,140.1,159.95,97.83,321.41Z"/><path class="cls-1" d="M578.203,584.305c-.64,2.28-1.3,4.58-1.98,6.89,.68-2.31,1.35-4.61,1.98-6.89Z"/><path class="cls-2" d="M635.805,207.258l-.8,.8c-4.17-1.74-11.68-4.87-25.25-10.51-.01,0-.02-.01-.03-.01-3.88-1.61-8.26-3.44-13.2-5.49-43.11-17.94-99.2,16.98-100.59,17.85-.02,.01-.03,.02-.03,.02-3.14,1.47-4.28,3.47,0,5.58,8.12,4.01-18.25,23.92-32.01,24.52,0,0,29.3-17.39,18.62-19.82l-2.64-.58c18.6-30.86,54.28-47.62,89.86-40.66,20.68,4.05,43.64,13.53,66.07,28.3Z"/><path class="cls-17" d="M609.722,197.541c-.18-.06-.37-.11-.55-.17-13.86-4.25-28.9-.25-38.98,10.18-40.69,42.13-66.93,31.23-66.93,31.23,2.65-2.89,5.21-6.18,7.68-9.89,0,0,10.55-16.6,.56-20.98-2.61-1.15-11.1-.1-15.57,1.99,1.39-.87,57.48-35.79,100.59-17.85,4.94,2.05,9.32,3.88,13.2,5.49Z"/><path class="cls-14" d="M525.492,304.631c.16,.16,.31,.33,.45,.5,.06,.58-.05,.37-.45-.5Z"/><path class="cls-14" d="M551.029,31.379c3.19,5.09,2.01,11.78-2.49,15.76-18.19,16.1-76.94,71.71-70.94,113.6,0,0,4.48,4.1,17.81,5.73,13.33,1.63,17.61,8.14,17.61,8.14,0,0-11.92,13.08-28.22,8.96,0,0-7.48,7.16-18.38,3.29,0,0-3.27,8.46-9.76,6.17-4.74-1.68-11.34-9.85-16.45-14.49l-.04-.04c-13.58-17.11-28.82-29.77-44.65-39.02-2.85-3.6-7.02-7.79-11.39-8.52,0,0,6.49-3.13,15.35,0,36.33,12.87,99.47-76.74,127.18-96.88,.43-.32,.86-.62,1.28-.91,.31-.21,.61-.42,.91-.62l18.02-4.89h.01c1.82,.8,3.16,2.15,4.15,3.72Z"/><path class="cls-14" d="M518.325,32.785l-18.02,4.89c7.97-5.35,13.41-6.36,17.1-5.22,.29,.12,.59,.23,.92,.33Z"/><path class="cls-5" d="M517.405,32.455c-3.69-1.14-9.13-.13-17.1,5.22,.4-7.16,1.49-18.59,2.29-26.53v-.03c.52-5.21,.92-8.91,.92-8.91,0,0,6.67,1.65,8.12,5.13l-.31,3.8,1.9-1.14s3.29,1.65,1.58,6.97c-1.71,5.31-1.54,8.93-1.54,8.93,0,0-.13,4.72,4.14,6.56Z"/><path class="cls-7" d="M475.882,255.381c-43.62,9.95-94.59-41.09-108.37-55.99-4.49-4.85-10.24-9.43-15.02-12.83-62.34-44.28-227.23-41.6-289.53,171.84-41.28,141.39,10.19,230.93,60.76,281.24-6.49-6.79-12.07-26.86-12.07-26.86,0,0,46.79-18.26,55-11.86,1.07,.83-4.24,10.31-4.24,10.31l-1.85,12.92c.19-.63,3.57-11.55,6.73-9.62,3.16,1.92,7.68,12.22,7.96,12.86-7.84-48.59,0-115.99,51.64-202.91,0,0,12.2-42.94,38.61-85.21,2.97-4.77,6.13-9.52,9.47-14.21,.08-.11,.15-.22,.23-.33,.03-.04,.05-.07,.08-.11,.31-.43,.62-.86,.93-1.28,25.86-35.66,62.45-66.73,111.04-65.31,0,0,59.39,1.23,76.09,53.06,0,0,38.62-32.96,62.15-6.46-2.07-4.57-12.2-27.31-49.61-49.25ZM91.392,393.871c6.47-4.62-7.73-59.34-7.73-59.34-4.65-24.82,38.14,19.5,39.19,20.59-26.07-32.51-13.87-98.29-6.51-88.92,47.76,60.75,71.45,78,65.15,77.32-6.3-.68-9.77,34.96-12.16,40.6-2.39,5.65-14.95-10.31-23.06-14.98-8.12-4.66-2.18,18.52-2.18,18.52,0,0,31.19,30.78,18.1,22.09-13.09-8.7-11.3,18.14-11.3,18.14,0,0-57.42-18.14-69.61-24.57-12.2-6.42,3.64-4.83,10.11-9.45Zm-.23,194.35c-12.35-3.65-14.37-43.53-14.37-43.53,0,0,33.43-9.02,39.17-10.36-5.02,.14-28.21-6.81-28.21-6.81,0,0-8.28-18.11,3.71-12.24,12,5.88,64.06,11.76,64.06,11.76,0,0,4.08,26.03,.96,29.51s-18.89,9.61-18.89,9.61c6.41,10.85,25.04,1.1,25.04,1.1l10.02,20.96s-69.14,3.64-81.49,0Zm56.4-72.79l1.08-19.05s-43.64-22.86-55.18-24.23c-11.54-1.37-.71,1.4,1.12,17.53s-41.47-.94-29.81-11.1c11.66-10.17,4.44-34.19,4.27-42.3s21.93-.39,21.93-.39c0,0-2.88,7.85,.77,14.6,3.64,6.76,61.07,1.39,61.33-2.16,.27-3.56-3.37-16.32-3.37-16.32,0,0,22.29-7.1,26.54,2.53,4.24,9.63,6.87,62.3,6.87,62.3-3.54,39.81-35.55,18.59-35.55,18.59Zm80.4-206.14c-6.94,8.1-37.3-1.13-44.24,6.68-6.95,7.81,16.78,20.83,4.05,20.54s-56.7-85.92-56.7-85.92c0,0,35.68-14.93,36.38,1.12,.7,16.04,86.13,31.13,86.13,31.13,0,0-18.68,18.35-25.62,26.45Zm33.75-30.88c-22.02-1.05-58.01-35.64-62.9-48.58-4.9-12.93-20.97,21.32-18.84,12.94,2.14-8.39-28.38-17.6-22.75-17.48,16.92,.37,32.37-15.6,38.64-23.03,3.33-3.95,7.43-7.2,12.13-9.34,4.53-2.06,9.83-3.32,13.66-.7,0,0-5.72,15.75-.21,16.19l-6.05,2.43s-4.23,3.57-5.57,12.03c-1.34,8.46,82.66,40.08,82.66,40.08-15.75-.42-30.77,15.46-30.77,15.46Zm79.05-28.76c-5.99-4.07-36.4,7.19-36.4,7.19,0,0-2.64-5.03-44.32-28.75-41.67-23.71-23.71-37.35-23.71-37.35,0,0-1.99-.74,12.88-7.79,14.86-7.05,37.45,0,37.45,0,0,0-18.59,3.24-29.07,10.29-10.48,7.05,9.15,17.34,9.15,17.34,0,0,11.96-3.13,10.37-11.11-5.33-26.91,44.5,17.02,44.5,17.02,0,0-15.81-3.05-23.43,1.14-7.63,4.19,11.43,14.67,11.43,14.67,0,0-.01-6.77,19.05-5.9,14.46,.65,12.1,23.25,12.1,23.25Zm20.59-2.49c-.48,0-12.34,9.61-6.73-13.78,5.61-23.39-49.67-47.11-49.67-47.11,25.12,3.22,46.25,10.75,62.14,23.94,17.65,15.21-5.26,36.95-5.74,36.95Z"/><path class="cls-18" d="M635.002,208.061c-38.98,38.56-63.93,28.19-63.93,28.19-8.45,9.22-17.73,14.4-27.38,16.6,4.92,2.89,9.37,5.79,13.39,8.66-9.65,5.81-18.75,15.68-26.8,30.22,0,0-4.69,9.77-4.34,13.4-.14-.17-.29-.34-.45-.5-2.07-4.57-12.2-27.31-49.61-49.25,9.65-2.2,18.93-7.38,27.38-16.6,0,0,26.24,10.9,66.93-31.23,10.08-10.43,25.12-14.43,38.98-10.18,.18,.06,.37,.11,.55,.17,.01,0,.02,.01,.03,.01,13.57,5.64,21.08,8.77,25.25,10.51Z"/><path class="cls-4" d="M510.942,228.891c-2.47,3.71-5.03,7-7.68,9.89-8.45,9.22-17.73,14.4-27.38,16.6-43.62,9.95-94.59-41.09-108.37-55.99-4.49-4.85-10.24-9.43-15.02-12.83-62.34-44.28-227.23-41.6-289.53,171.84-41.28,141.39,10.19,230.93,60.76,281.24l.31,.31c.02,.01,.04,.03,.06,.05,4.19,4.16,8.38,8.05,12.51,11.65,.27,.24,.48,.43,.63,.57,.04,.03,.07,.06,.1,.09,.11,.1,.17,.15,.17,.15,31.48,27.42,61.96,41.01,61.96,41.01,12.28,19.91,24.15,29.71,24.15,29.71-55.16-2.57-98.8-27.45-131.7-57.25C40.852,619.671,9.772,555.521,3.172,486.941-25.488,189.041,185.192,135.031,216.282,128.701c1.95-.39,81.8-24.4,150.69,15.9,2.31,2.91,3.77,5.44,3.77,5.44-20.91,1.52-27.4,16.46-27.4,16.46,7.79,8.24,38.02,.98,38.02,.98,7.25,10.29,26.39,13.31,26.39,13.31,1.12,.52,2.44,1.53,3.87,2.83l.04,.04c8.97,11.3,17.22,24.54,24.44,40.03,7.76,16.67,31.05,17.6,40.41,1.77,.57-.95,1.12-1.91,1.64-2.86,.56-1.01,1.13-2,1.72-2.98l2.64,.58c10.68,2.43-18.62,19.82-18.62,19.82,13.76-.6,40.13-20.51,32.01-24.52-4.28-2.11-3.14-4.11,0-5.58,0,0,.01-.01,.03-.021,4.47-2.09,12.96-3.14,15.57-1.99,9.99,4.38-.56,20.98-.56,20.98Z"/><path class="cls-5" d="M502.595,11.145l-3.2,27.15-2.28-8.96c-2.28-8.96-8.8-1.49-11.89-5.09-3.08-3.6-2.2-6.83-2.2-6.83l5.22-2.94-8.97-5.44c13.15-20.35,23.32,2.08,23.32,2.08v.03Z"/><path class="cls-11" d="M429.812,591.861c-6.99,9.19-14.38,18.02-21.95,26.33-34.74,38.14-73.26,65.35-93.75,65.34-13.42,0-29.61-13.05-30.61-13.84-19.29-21.24-41.47-52.08-54.27-91.35,22.98,2.24,46.04,1.36,67.83-2.29,6.13-1.02,12.17-2.26,18.07-3.71,69.39-17.05,120.79-63.1,105.75-124.71-16.18-37.67-76.39-11.56-77.49-11.08,33.96-33.5,86.32-88.9,59.89-135.34-9.14-16.05-45.89-16.39-66.38,0-3.85,3.08-7.71,7.2-10.94,11.98-18.23,20.78-26.41,50.68-29.8,67.87-1.63,8.23-2.15,13.55-2.15,13.55-.16,.06-.34,.13-.55,.22-7.06,3.13-43.2,26.83-54.79,34.46,.5-2.8,9.79-54.41,26.83-90.02,2.97-4.77,6.13-9.52,9.47-14.21,.08-.11,.15-.22,.23-.33,.03-.04,.05-.07,.08-.11,.31-.43,.62-.86,.93-1.28,25.86-35.66,62.45-66.73,111.04-65.31,0,0,59.39,1.23,76.09,53.06,12.62,72.54-27.6,92.32-27.6,92.32,72.9,40.03,43.77,123.11-5.93,188.45Z"/><path class="cls-12" d="M297.062,576.051c-21.79,3.65-44.85,4.53-67.83,2.29-12.13-37.19-15.84-81.94-.7-133.25l10.12-15.68s.01-.04,.02-.12c11.59-7.63,47.73-31.33,54.79-34.46-4.9,39.53-14.36,136.31,3.6,181.22Z"/><path class="cls-10" d="M315.132,572.341c-5.9,1.45-11.94,2.69-18.07,3.71-17.96-44.91-8.5-141.69-3.6-181.22,.21-.09,.39-.16,.55-.22,0,0,.52-5.32,2.15-13.55,3.39-17.19,11.57-47.09,29.8-67.87-6.96,10.27-11.04,23.56-5.9,35.94,8.32,20.06,29.61,30.88,45.98,21.05,9.32-5.6,12.44-26.5-3.89-31.73-7.91-2.54-19.34,1.68-13.75,13.53-15.16,4.08-23.14-7.73-22.44-38.79,3.23-4.78,7.09-8.9,10.94-11.98,20.49-16.39,57.24-16.05,66.38,0,26.43,46.44-25.93,101.84-59.89,135.34,1.1-.48,61.31-26.59,77.49,11.08,15.04,61.61-36.36,107.66-105.75,124.71Z"/><path class="cls-14" d="M411.625,183.625c-1.43-1.3-2.75-2.31-3.87-2.83,0,0-19.14-3.02-26.39-13.31,0,0-30.23,7.26-38.02-.98,0,0,6.49-14.94,27.4-16.46,0,0-1.46-2.53-3.77-5.44,15.83,9.25,31.07,21.91,44.65,39.02Z"/><path class="cls-17" d="M367.092,210.211c-15.89-13.19-37.02-20.72-62.14-23.94,0,0,55.28,23.72,49.67,47.11-5.61,23.39,6.25,13.78,6.73,13.78s23.39-21.74,5.74-36.95Zm-7.62,7.44c-5.13-2.42-7.67-9.5-7.67-9.5,21.17,7.19,16.93,15.37,16.93,15.37,0,0-4.13-3.46-9.26-5.87Z"/><path class="cls-7" d="M368.732,223.521s-4.13-3.46-9.26-5.87c-5.13-2.42-7.67-9.5-7.67-9.5,21.17,7.19,16.93,15.37,16.93,15.37Z"/><path class="cls-17" d="M366.045,370.185c-16.37,9.83-37.66-.99-45.98-21.05-5.14-12.38-1.06-25.67,5.9-35.94-.7,31.06,7.28,42.87,22.44,38.79,.53,1.14,1.23,2.35,2.1,3.63l-2.1-3.63c-5.59-11.85,5.84-16.07,13.75-13.53,16.33,5.23,13.21,26.13,3.89,31.73Z"/><path class="cls-14" d="M348.405,351.985l2.1,3.63c-.87-1.28-1.57-2.49-2.1-3.63Z"/><path class="cls-16" d="M328.665,226.405c14.46,.65,12.1,23.25,12.1,23.25-5.99-4.07-36.4,7.19-36.4,7.19,0,0-2.64-5.03-44.32-28.75-41.67-23.71-23.71-37.35-23.71-37.35,0,0-1.99-.74,12.88-7.79,14.86-7.05,37.45,0,37.45,0,0,0-18.59,3.24-29.07,10.29-10.48,7.05,9.15,17.34,9.15,17.34,0,0,11.96-3.13,10.37-11.11-5.33-26.91,44.5,17.02,44.5,17.02,0,0-15.81-3.05-23.43,1.14-7.63,4.19,11.43,14.67,11.43,14.67,0,0-.01-6.77,19.05-5.9Z"/><path class="cls-4" d="M320.532,703.531l-37.36,14.11h-.01c-1.04,.2-2.08,.41-3.12,.63-20,4.29-38.8,5.74-56.43,4.91,0,0-11.87-9.8-24.15-29.71-6.39-10.35-12.89-23.43-17.88-39.29-2.58-8.18-4.76-17.1-6.32-26.76,0-.01,0-.021-.01-.03-7.84-48.59,0-115.99,51.64-202.91,0,0,12.2-42.94,38.61-85.21-17.04,35.61-26.33,87.22-26.83,90.02-.01,.08-.02,.12-.02,.12l-10.12,15.68c-15.14,51.31-11.43,96.06,.7,133.25,12.8,39.27,34.98,70.11,54.27,91.35,.08,.08,.15,.16,.22,.24,.28,.31,.55,.61,.83,.91l.01,.01,.06,.06c.23,.25,.46,.5,.7,.75,.55,.59,1.1,1.17,1.63,1.74,.51,.54,1.02,1.06,1.51,1.59,14.03,14.72,25.85,23.95,30.24,27.21,.14,.1,.26,.2,.39,.28,.01,.02,.03,.03,.04,.03,.11,.08,.21,.16,.3,.23,.02,.01,.04,.03,.06,.04,.01,0,.01,.01,.01,.01,.06,.04,.12,.08,.17,.12s.1,.07,.15,.11c.11,.08,.21,.15,.29,.21,.05,.03,.09,.06,.13,.09,.15,.11,.25,.18,.28,.2l.01,.01Z"/><path class="cls-14" d="M302.122,688.241c8.03,7.31,14.28,12.2,16.97,14.24-.13-.08-.25-.18-.39-.28-4.39-3.26-16.21-12.49-30.24-27.21,.9,.92,1.78,1.82,2.65,2.7,.09,.08,.17,.16,.24,.24,.48,.49,.96,.96,1.44,1.44,.95,.94,1.89,1.86,2.81,2.76,.47,.44,.92,.89,1.38,1.32,.17,.15,.33,.31,.49,.47,.41,.39,.82,.77,1.22,1.15,.42,.39,.83,.77,1.24,1.16,.74,.69,1.47,1.36,2.19,2.01Z"/><path class="cls-14" d="M319.492,702.771v.01c-.02-.01-.04-.03-.06-.04-.09-.07-.19-.15-.3-.23,.13,.09,.25,.18,.36,.26Z"/><path class="cls-14" d="M319.672,702.911c-.05-.04-.11-.08-.17-.12v-.01c.06,.04,.12,.09,.17,.13Z"/><path class="cls-16" d="M292.485,262.955c-15.75-.42-30.77,15.46-30.77,15.46-22.02-1.05-58.01-35.64-62.9-48.58-4.9-12.93-20.97,21.32-18.84,12.94,2.14-8.39-28.38-17.6-22.75-17.48,16.92,.37,32.37-15.6,38.64-23.03,3.33-3.95,7.43-7.2,12.13-9.34,4.53-2.06,9.83-3.32,13.66-.7,0,0-5.72,15.75-.21,16.19l-6.05,2.43s-4.23,3.57-5.57,12.03,82.66,40.08,82.66,40.08Z"/><path class="cls-14" d="M285.322,671.661c-.24-.25-.47-.5-.7-.75,.01,.01,.02,.01,.02,.01,.23,.25,.45,.49,.68,.74Z"/><path class="cls-16" d="M196.095,285.075c-.19-.09-.55-.24-1.07-.46-.16-.07-.33-.14-.52-.22-.36-.15-.77-.32-1.22-.51-.2-.08-.4-.16-.61-.25-.28-.11-.56-.23-.86-.35-.37-.16-.77-.32-1.18-.48-1.73-.7-3.76-1.5-5.91-2.32-.28-.1-.55-.2-.83-.31-.68-.26-1.38-.51-2.08-.77-.17-.06-.34-.12-.51-.19-.08-.03-.17-.06-.26-.09-.78-.28-1.57-.56-2.35-.83-.34-.11-.67-.23-1.01-.34-.23-.08-.47-.16-.7-.23-.26-.09-.51-.18-.76-.25-.41-.14-.82-.27-1.22-.39-.39-.13-.78-.25-1.17-.36h-.01c-.19-.06-.39-.12-.58-.17-.23-.08-.46-.14-.69-.2-.17-.05-.34-.1-.5-.14-.16-.05-.33-.09-.49-.13-.18-.05-.36-.1-.54-.14-.09-.03-.19-.05-.28-.07-.04-.01-.07-.02-.11-.03s-.09-.02-.14-.04l-.51-.12c-.34-.08-.67-.15-.98-.21-.29-.07-.58-.12-.85-.17-.32-.05-.63-.1-.93-.13-.14-.02-.27-.04-.39-.05-.13-.02-.26-.03-.39-.03-.04-.01-.08-.01-.12-.01-.05-.01-.09-.01-.13,0-.04-.01-.07-.01-.1-.01-.24-.02-.46-.02-.66,0-.06,0-.11,0-.17,.01-.03,0-.06,0-.08,.01-.07,0-.13,.01-.2,.02-.08,.01-.15,.02-.21,.04-.08,.01-.16,.03-.23,.06-.09,.02-.18,.05-.25,.09-.04,.01-.08,.03-.11,.05-.03,.01-.06,.03-.08,.05-.06,.03-.11,.07-.16,.12-.06,.05-.1,.11-.14,.17s-.07,.13-.09,.2c0,0,4.97,16.17,5.68,16.07,.65-.09,12.37-9.53,23.72-7.66,.06,.01,.13,.02,.19,.04,.06,0,.12,.01,.18,.03,.14,.02,.27,.05,.4,.08,.06,.01,.12,.02,.17,.04,.16,.03,.31,.06,.47,.11,.1,.02,.19,.04,.29,.07,.15,.04,.29,.08,.44,.12,.07,.03,.15,.05,.22,.07,.03,.01,.07,.02,.1,.03,.17,.06,.35,.12,.52,.18Zm57.49-2.23s-18.68,18.35-25.62,26.45-37.3-1.13-44.24,6.68c-6.95,7.81,16.78,20.83,4.05,20.54-12.73-.29-56.7-85.92-56.7-85.92,0,0,35.68-14.93,36.38,1.12,.7,16.04,86.13,31.13,86.13,31.13Z"/><path class="cls-7" d="M196.095,285.075c-.17-.06-.35-.12-.52-.18-.03-.01-.07-.02-.1-.03-.07-.02-.15-.04-.22-.07-.15-.04-.29-.08-.44-.12-.1-.03-.19-.05-.29-.07-.16-.05-.31-.08-.47-.11-.05-.02-.11-.03-.17-.04-.13-.03-.27-.06-.4-.08-.06-.02-.12-.03-.18-.03-.07-.02-.13-.03-.19-.04-11.35-1.87-23.07,7.57-23.72,7.66-.71,.1-5.68-16.07-5.68-16.07,.02-.07,.05-.14,.09-.2s.09-.12,.14-.17,.1-.09,.16-.12c.06-.04,.12-.07,.19-.1,.08-.04,.16-.07,.25-.09,.07-.03,.15-.05,.23-.06,.06-.02,.13-.03,.21-.04,.06-.01,.13-.02,.2-.02,.02-.01,.05-.01,.08-.01,.06-.01,.11-.01,.17-.01,.2-.02,.42-.02,.66,0,.03,0,.06,0,.1,.01,.04-.01,.08-.01,.13,0,.04,0,.08,0,.12,.01,.13,0,.26,.01,.39,.03,.13,.01,.26,.03,.39,.05,.3,.03,.61,.08,.93,.13,.27,.05,.56,.11,.85,.17,.31,.06,.64,.13,.98,.21l.48,.12c.06,.01,.12,.03,.17,.04,.04,.01,.07,.02,.11,.03,.09,.02,.19,.04,.28,.07,.18,.04,.36,.09,.54,.14,.16,.04,.33,.08,.49,.13,.16,.04,.33,.09,.5,.14,.23,.06,.46,.12,.69,.2,.19,.05,.39,.11,.58,.17h.01c.39,.11,.78,.23,1.17,.36,.4,.13,.81,.25,1.22,.39,.25,.07,.5,.16,.76,.25,.23,.07,.46,.15,.7,.23,.33,.11,.67,.23,1.01,.34,.78,.27,1.57,.55,2.35,.83l.15,.06c.03,.01,.07,.02,.11,.04l.51,.18c.7,.26,1.4,.51,2.08,.77,.28,.11,.56,.21,.83,.31,2.15,.82,4.18,1.62,5.91,2.32,.41,.17,.81,.33,1.18,.48,.3,.12,.58,.24,.86,.35,.21,.09,.41,.17,.61,.25,.45,.19,.86,.36,1.22,.51,.19,.08,.36,.16,.52,.22,.52,.22,.88,.37,1.07,.46Z"/><path class="cls-14" d="M195.575,284.895c-.03-.01-.07-.02-.1-.03,.03,.01,.07,.02,.1,.03Z"/><path class="cls-14" d="M195.255,284.795c-.15-.04-.29-.08-.44-.12,.15,.04,.29,.08,.44,.12Z"/><path class="cls-14" d="M194.505,284.395c.19,.08,.36,.15,.52,.22-.16-.06-.33-.14-.52-.22Z"/><path class="cls-14" d="M194.525,284.605c-.16-.05-.31-.08-.47-.11,.16,.03,.31,.06,.47,.11Z"/><path class="cls-14" d="M193.885,284.455c-.13-.03-.26-.06-.4-.08,.13,.02,.27,.05,.4,.08Z"/><path class="cls-14" d="M193.305,284.345c-.06-.02-.13-.03-.19-.04,.06,.01,.12,.02,.19,.04Z"/><path class="cls-14" d="M192.675,283.635c.21,.09,.41,.17,.61,.25-.2-.08-.4-.16-.61-.25Z"/><path class="cls-14" d="M190.635,282.805c.41,.16,.81,.32,1.18,.48-.37-.15-.77-.31-1.18-.48Z"/><path class="cls-8" d="M181.585,654.185c4.99,15.86,11.49,28.94,17.88,39.29,0,0-30.48-13.59-61.96-41.01l44.08,1.72Z"/><path class="cls-14" d="M183.895,280.175c.28,.11,.55,.21,.83,.31-.27-.1-.55-.2-.83-.31Z"/><path class="cls-16" d="M116.345,266.205c47.76,60.75,71.45,78,65.15,77.32s-9.77,34.96-12.16,40.6c-2.39,5.65-14.95-10.31-23.06-14.98-8.12-4.66-2.18,18.52-2.18,18.52,0,0,31.19,30.78,18.1,22.09-13.09-8.7-11.3,18.14-11.3,18.14,0,0-57.42-18.14-69.61-24.57-12.2-6.42,3.64-4.83,10.11-9.45,6.47-4.62-7.73-59.34-7.73-59.34-4.65-24.82,38.14,19.5,39.19,20.59-26.07-32.51-13.87-98.29-6.51-88.92Z"/><path class="cls-14" d="M181.815,279.405l-.51-.18v-.01c.17,.07,.34,.13,.51,.19Z"/><path class="cls-16" d="M160.565,624.155c.19-.63,3.57-11.55,6.73-9.62,3.16,1.92,7.68,12.22,7.96,12.86,.01,.01,.01,.02,.01,.03,1.56,9.66,3.74,18.58,6.32,26.76l-44.08-1.72s-.06-.05-.17-.15c-.03-.03-.06-.06-.1-.09-.15-.14-.36-.33-.63-.57-2.06-1.87-7.32-6.67-12.51-11.65-.02-.02-.04-.04-.06-.05l-.31-.31c-6.49-6.79-12.07-26.86-12.07-26.86,0,0,46.79-18.26,55-11.86,1.07,.83-4.24,10.31-4.24,10.31l-1.85,12.92Z"/><path class="cls-16" d="M176.245,434.545c4.24,9.63,6.87,62.3,6.87,62.3-3.54,39.81-35.55,18.59-35.55,18.59l1.08-19.05s-43.64-22.86-55.18-24.23c-11.54-1.37-.71,1.4,1.12,17.53,1.83,16.13-41.47-.94-29.81-11.1,11.66-10.17,4.44-34.19,4.27-42.3-.17-8.11,21.93-.39,21.93-.39,0,0-2.88,7.85,.77,14.6,3.64,6.76,61.07,1.39,61.33-2.16,.27-3.56-3.37-16.32-3.37-16.32,0,0,22.29-7.1,26.54,2.53Z"/><path class="cls-14" d="M181.305,279.215v.01c-.04-.02-.08-.03-.11-.04,.03,.01,.07,.02,.11,.03Z"/><path class="cls-14" d="M181.305,279.215c-.04-.01-.08-.02-.11-.03l-.15-.06c.09,.03,.18,.06,.26,.09Z"/><path class="cls-14" d="M178.695,278.295c-.34-.11-.68-.23-1.01-.34,.34,.11,.67,.23,1.01,.34Z"/><path class="cls-14" d="M177.685,277.955c-.24-.08-.47-.16-.7-.23,.23,.07,.47,.15,.7,.23Z"/><path class="cls-14" d="M176.225,277.475c-.41-.14-.82-.26-1.22-.39,.4,.12,.81,.25,1.22,.39Z"/><path class="cls-14" d="M175.005,277.085c-.39-.13-.78-.25-1.17-.36,.39,.11,.78,.23,1.17,.36Z"/><path class="cls-14" d="M173.245,276.555c.19,.05,.39,.11,.58,.17-.19-.06-.39-.12-.58-.17Z"/><path class="cls-16" d="M162.635,567.265l10.02,20.96s-69.14,3.64-81.49,0c-12.35-3.65-14.37-43.53-14.37-43.53,0,0,33.43-9.02,39.17-10.36,.3,0,.54-.03,.7-.09,.33-.12,.05-.08-.7,.09-5.02,.14-28.21-6.81-28.21-6.81,0,0-8.28-18.11,3.71-12.24,12,5.88,64.06,11.76,64.06,11.76,0,0,4.08,26.03,.96,29.51s-18.89,9.61-18.89,9.61c6.41,10.85,25.04,1.1,25.04,1.1Z"/><path class="cls-14" d="M172.555,276.355c-.17-.05-.34-.1-.5-.14,.16,.04,.33,.09,.5,.14Z"/><path class="cls-14" d="M171.025,275.945c-.09-.03-.19-.05-.28-.07,.09,.02,.19,.04,.28,.07Z"/><path class="cls-14" d="M170.635,275.845c-.05-.01-.11-.03-.17-.04h.03c.05,.02,.1,.03,.14,.04Z"/><path class="cls-14" d="M170.495,275.805h-.03l-.48-.12,.51,.12Z"/><path class="cls-14" d="M168.155,275.305c.27,.05,.56,.1,.85,.17-.29-.06-.58-.12-.85-.17Z"/><path class="cls-14" d="M166.445,275.095c-.04-.01-.08-.01-.12-.01,.04,0,.08,0,.12,.01Z"/><path class="cls-14" d="M166.195,275.085c-.04-.01-.07-.01-.1-.01,.03,0,.06,0,.1,.01Z"/><path class="cls-14" d="M165.435,275.075c-.06,0-.11,0-.17,.01,.06-.01,.11-.01,.17-.01Z"/><path class="cls-14" d="M164.775,275.155c-.08,.01-.16,.03-.23,.06,.07-.03,.15-.05,.23-.06Z"/><path class="cls-14" d="M164.545,275.215c-.09,.02-.17,.05-.25,.09,.07-.04,.16-.07,.25-.09Z"/><path class="cls-14" d="M164.295,275.305c-.07,.03-.13,.06-.19,.1,.03-.02,.05-.04,.08-.05,.03-.02,.07-.04,.11-.05Z"/><path class="cls-14" d="M164.185,275.355c-.03,.01-.05,.03-.08,.05,.02-.02,.05-.04,.08-.05Z"/><path class="cls-14" d="M124.095,640.005c5.19,4.98,10.45,9.78,12.51,11.65-4.13-3.6-8.32-7.49-12.51-11.65Z"/><path class="cls-14" d="M115.965,534.335c.75-.17,1.03-.21,.7-.09-.16,.06-.4,.09-.7,.09Z"/><path class="cls-15" d="M613.883,267.675c-18.61-13.67-38.67-17.08-56.8-6.16-9.65,5.81-18.75,15.68-26.8,30.22,0,0-4.69,9.77-4.34,13.4,.06,.58-.05,.37-.45-.5-23.53-26.5-62.15,6.46-62.15,6.46,4.05,12.54,117.35,107.71,52.03,284.55-6.5,17.59-14.76,35.99-25.08,55.19-11.34,21.12-25.16,43.21-41.84,66.28,0,0,7.08,4.14,20.54,4.14,.49,0,.98-.01,1.48-.02,.51-.01,1.02-.03,1.54-.05,.35-.02,.72-.04,1.08-.06,.48-.03,.97-.06,1.46-.1l28.23-23.36c-.16,5.78-.66,11.4-1.48,16.81,32.37-12.8,78.73-47.46,136.54-133.85,80.45-120.21,35.64-269.17-23.96-312.95Zm11.93,181.47c-11.19,38.24-23.45,54.52-34.63,60.49,6.91-120.09-65.24-166.32-65.24-166.32,0,0,19.78-20.99,40.99-5.12,0,0-13.53-27.73,7.85-34.91,21.38-7.18,79.27,49.34,51.03,145.86Z"/><path class="cls-3" d="M573.043,285.622c26.094-7.629,93.126,63.209,54.508,178.131-15.301,45.514-30.845,64.538-44.595,71.195,14.05-144.317-70.649-203.44-70.649-203.44,0,0,24.826-24.339,49.616-4.212,0,0-14.974-34.045,11.12-41.674Z"/><path class="cls-7" d="M728.242,536.531c-6.05,14.09-13.52,28.01-22.59,41.56-57.81,86.39-104.17,121.05-136.54,133.85-1.97,13.26-5.78,25.33-10.95,35.8-34.93,7.75-61.75,3.96-67.81,2.53,5.17-10.47,8.98-22.54,10.95-35.8,32.37-12.8,78.73-47.46,136.54-133.85,2.93-4.37,5.69-8.79,8.29-13.23,25.56,2.02,54.92-8.86,82.11-30.86Z"/><path class="cls-6" d="M742.042,494.681c-3.31,14-7.87,28.01-13.8,41.85-27.19,22-56.55,32.88-82.11,30.86,10.5-17.94,18.39-36.4,24-54.95,31.24-103.11-7.57-209.01-56.25-244.77,63.51-62.98,162.75,81.229,128.16,227.01Z"/></g></g></svg>