<?xml version="1.0" encoding="UTF-8"?><svg id="Layer_2" xmlns="http://www.w3.org/2000/svg" xmlns:xlink="http://www.w3.org/1999/xlink" viewBox="0 0 1989.409 1178.395"><defs><style>.cls-1{fill:#cc6100;}.cls-1,.cls-2,.cls-3,.cls-4,.cls-5,.cls-6,.cls-7,.cls-8,.cls-9,.cls-10,.cls-11,.cls-12,.cls-13,.cls-14,.cls-15,.cls-16,.cls-17,.cls-18,.cls-19,.cls-20,.cls-21{stroke:#000;stroke-miterlimit:10;}.cls-1,.cls-4,.cls-5,.cls-6,.cls-7,.cls-8,.cls-9,.cls-10,.cls-11,.cls-12,.cls-14,.cls-15,.cls-17,.cls-18,.cls-19,.cls-20,.cls-21{stroke-width:.5px;}.cls-22,.cls-2{fill:#a28c77;}.cls-23{fill:#af723f;}.cls-24{fill:#947467;}.cls-25,.cls-16{fill:#a08069;}.cls-26{fill:#898176;}.cls-3,.cls-27{fill:none;}.cls-28{fill:#d2ab5e;}.cls-4{fill:#82490b;}.cls-29{fill:#dbb723;}.cls-5{fill:#fdca01;}.cls-6{fill:#fb9800;}.cls-7{fill:#e87700;}.cls-8{fill:#e87a28;}.cls-30{fill:#ad7248;}.cls-9{fill:#ff9e03;}.cls-31{fill:#c4755c;}.cls-32{fill:#b07e89;}.cls-33{fill:#73473c;}.cls-34{fill:#878a51;}.cls-35{fill:#af7037;}.cls-36{opacity:.48;}.cls-37{fill:#8f8c7d;}.cls-38{fill:#a55939;}.cls-10{fill:#ea7202;}.cls-39{fill:#ad9d59;}.cls-11{fill:#f7930f;}.cls-12{fill:#cd6601;}.cls-13{fill:#bc8f3f;}.cls-40{fill:url(#New_Pattern_2);}.cls-41{fill:#d7c08a;}.cls-42{fill:#786ba3;}.cls-14{fill:#c5882d;}.cls-43{fill:#b98146;}.cls-15{fill:#fd9a01;}.cls-44{fill:#ddb263;}.cls-45{fill:#61a8c4;}.cls-16{stroke-width:3px;}.cls-46{fill:#bcbcbc;}.cls-47{fill:#304442;}.cls-48{fill:#ba773a;}.cls-49{fill:#e0ba7e;}.cls-17{fill:#96964c;}.cls-50{fill:#bf783d;}.cls-51{fill:#847b6f;}.cls-18{fill:#fbca04;}.cls-52{fill:#cfa10e;}.cls-53{fill:#c0c0fc;}.cls-19{fill:#ffac01;}.cls-54{fill:#6a6095;}.cls-20{fill:#ea7300;}.cls-21{fill:#b26810;}</style><pattern id="New_Pattern_2" x="0" y="0" width="756.912" height="746.887" patternTransform="translate(-8233.133 -2846.234)" patternUnits="userSpaceOnUse" viewBox="0 0 756.912 746.887"><g><rect class="cls-27" width="756.912" height="746.887"/><g><path d="M1135.188,632.982c-2.123,.238-4.245,.675-6.37,.684-60.984,.273-121.967,.523-182.951,.734-47.819,.165-95.638,.53-143.456,.352-106.462-.397-212.923-1.267-319.385-1.53-32.476-.08-64.956,1.191-97.434,1.836-1.808,.036-3.618,.005-5.466-.791,5.932-.29,11.861-.736,17.797-.848,82.958-1.562,165.913-3.414,248.877-4.491,56.474-.733,113.001-1.76,169.436-.185,102.961,2.874,205.912,2.715,308.88,2.344,3.278-.012,6.556-.001,9.834-.001l.239,1.896Z"/><path d="M1135.089,703.551v4.858H378.873l-.124-1.268c1.091-.15,2.182-.432,3.273-.432,70.655,.006,141.313,.356,211.966-.022,81.153-.434,162.3-1.987,243.452-2.172,75.49-.172,150.983,1.016,226.475,1.167,22.646,.045,45.295-1.381,67.943-2.128,.964-.032,1.93-.004,3.23-.004Z"/><path d="M567.055,608.721c-62.672,2.201-125.344,4.401-188.35,6.613v-7.833h188.287l.063,1.219Z"/><path d="M392.698,675.35c-4.43,1.032-8.86,2.064-13.293,3.097-1.103-4.951,1.643-5.661,13.293-3.097Z"/></g><g><path d="M378.276,632.982c-2.123,.238-4.245,.675-6.37,.684-60.984,.273-121.967,.523-182.951,.734-47.819,.165-95.638,.53-143.456,.352-106.462-.397-212.923-1.267-319.385-1.53-32.476-.08-64.956,1.191-97.434,1.836-1.808,.036-3.618,.005-5.466-.791,5.932-.29,11.861-.736,17.797-.848,82.958-1.562,165.913-3.414,248.877-4.491,56.474-.733,113.001-1.76,169.436-.185,102.961,2.874,205.912,2.715,308.88,2.344,3.278-.012,6.556-.001,9.834-.001l.239,1.896Z"/><path d="M378.177,703.551v4.858H-378.04l-.124-1.268c1.091-.15,2.182-.432,3.273-.432,70.655,.006,141.313,.356,211.966-.022,81.153-.434,162.3-1.987,243.452-2.172,75.49-.172,150.983,1.016,226.475,1.167,22.646,.045,45.295-1.381,67.943-2.128,.964-.032,1.93-.004,3.23-.004Z"/><path d="M162.838,565.465c23.283-.517,46.567-.977,69.848-1.565,45.93-1.159,91.859-2.39,137.788-3.584,1.83-.048,3.747-.36,5.461,.083,1.021,.264,2.409,1.785,2.378,2.698-.032,.956-1.482,1.972-2.484,2.736-.428,.327-1.292,.096-1.957,.097-68.926,.088-137.853,.175-206.779,.25-1.422,.002-2.844-.131-4.267-.201l.011-.514Z"/><path d="M328.712,670.386c15.398,0,30.796-.039,46.192,.078,1.157,.009,2.306,1.126,3.458,1.728-1.171,.585-2.362,1.716-3.509,1.671-15.384-.597-30.761-1.359-46.14-2.08,0-.466,0-.932-.001-1.398Z"/></g><g><path d="M756.31,488.41c-10.542,0-21.164,.026-31.786-.004-73.649-.212-147.298-.466-220.947-.517-2.416-.002-5.246,1.554-7.156,3.218-2.979,2.595-5.335,5.905-8.504,9.543-3.045-3.291-6.181-6.203-8.72-9.567-2.223-2.945-4.89-3.388-8.24-3.385-87.813,.092-175.627,.126-263.44,.14-67.818,.011-135.637-.006-203.455-.123-1.356-.002-2.709-1.375-4.063-2.109,1.334-.984,2.663-2.815,4.004-2.825,19.661-.142,39.323,0,58.985-.006,107.475-.031,214.949-.121,322.424-.122,121.805-.001,243.611,.069,365.416,.118,3.39,.001,7.681-.852,5.481,5.64Z"/><path d="M378.45,403.641c123.808-.002,247.616-.014,371.423,.095,2.333,.002,5.765-1.971,7.012,2.165-2.319,.611-4.637,1.756-6.956,1.757-247.783,.08-495.566,.08-743.349-.031-2.141,0-5.718,2.12-6.218-2.199-.041-.352,4.012-1.708,6.163-1.709,123.975-.085,247.95-.076,371.925-.077Z"/><path d="M756.732,259.539c-2.123,.238-4.245,.675-6.37,.684-60.984,.273-121.967,.523-182.951,.734-47.819,.165-95.638,.53-143.456,.352-106.462-.397-212.923-1.267-319.385-1.53-32.476-.08-64.956,1.191-97.434,1.836-1.808,.036-3.618,.005-5.466-.791,5.932-.29,11.861-.736,17.797-.848,82.958-1.562,165.913-3.414,248.877-4.491,56.474-.733,113.001-1.76,169.436-.185,102.961,2.874,205.912,2.715,308.88,2.344,3.278-.012,6.556-.001,9.834-.001l.239,1.896Z"/><path d="M756.633,330.108v4.858H.416l-.124-1.268c1.091-.15,2.182-.432,3.273-.432,70.655,.006,141.313,.356,211.966-.022,81.153-.434,162.3-1.987,243.452-2.172,75.49-.172,150.983,1.016,226.475,1.167,22.646,.045,45.295-1.381,67.943-2.128,.964-.032,1.93-.004,3.23-.004Z"/><path d="M188.599,235.278c-62.672,2.201-125.344,4.401-188.35,6.613v-7.833H188.536l.063,1.219Z"/><path d="M541.294,192.022c23.283-.517,46.567-.977,69.848-1.565,45.93-1.159,91.859-2.39,137.788-3.584,1.83-.048,3.747-.36,5.461,.083,1.021,.264,2.409,1.785,2.378,2.698-.032,.956-1.482,1.972-2.484,2.736-.428,.327-1.292,.096-1.957,.097-68.926,.088-137.853,.175-206.779,.25-1.422,.002-2.844-.131-4.267-.201l.011-.514Z"/><path d="M578.435,560.165c57.249-5.374,117.57-1.015,177.876-1.487,.002,.496,.005,.991,.007,1.487h-177.883Z"/><path d="M707.168,296.943c15.398,0,30.796-.039,46.192,.078,1.157,.009,2.306,1.126,3.458,1.728-1.171,.585-2.362,1.716-3.509,1.671-15.384-.597-30.761-1.359-46.14-2.08,0-.466,0-.932-.001-1.398Z"/><path d="M14.242,301.906c-4.43,1.032-8.86,2.064-13.293,3.097-1.103-4.951,1.643-5.661,13.293-3.097Z"/></g><g><path d="M1134.767,114.967c-10.542,0-21.164,.026-31.786-.004-73.649-.212-147.298-.466-220.947-.517-2.416-.002-5.246,1.554-7.156,3.218-2.979,2.595-5.335,5.905-8.504,9.543-3.045-3.291-6.181-6.203-8.72-9.567-2.223-2.945-4.89-3.388-8.24-3.385-87.813,.092-175.627,.126-263.44,.14-67.818,.011-135.637-.006-203.455-.123-1.356-.002-2.709-1.375-4.063-2.109,1.334-.984,2.663-2.815,4.004-2.825,19.661-.142,39.323,0,58.985-.006,107.475-.031,214.949-.121,322.424-.122,121.805-.001,243.611,.069,365.416,.118,3.39,.001,7.681-.852,5.481,5.64Z"/><path d="M756.906,30.197c123.808-.002,247.616-.014,371.423,.095,2.333,.002,5.765-1.971,7.012,2.165-2.319,.611-4.637,1.756-6.956,1.757-247.783,.08-495.566,.08-743.349-.031-2.141,0-5.718,2.12-6.218-2.199-.041-.352,4.012-1.708,6.163-1.709,123.975-.085,247.95-.076,371.925-.077Z"/></g><g><path d="M377.854,114.967c-10.542,0-21.164,.026-31.786-.004-73.649-.212-147.298-.466-220.947-.517-2.416-.002-5.246,1.554-7.156,3.218-2.979,2.595-5.335,5.905-8.504,9.543-3.045-3.291-6.181-6.203-8.72-9.567-2.223-2.945-4.89-3.388-8.24-3.385-87.813,.092-175.627,.126-263.44,.14-67.818,.011-135.637-.006-203.455-.123-1.356-.002-2.709-1.375-4.063-2.109,1.334-.984,2.663-2.815,4.004-2.825,19.661-.142,39.323,0,58.985-.006,107.475-.031,214.949-.121,322.424-.122,121.805-.001,243.611,.069,365.416,.118,3.39,.001,7.681-.852,5.481,5.64Z"/><path d="M-.006,30.197c123.808-.002,247.616-.014,371.423,.095,2.333,.002,5.765-1.971,7.012,2.165-2.319,.611-4.637,1.756-6.956,1.757-247.783,.08-495.566,.08-743.349-.031-2.141,0-5.718,2.12-6.218-2.199-.041-.352,4.012-1.708,6.163-1.709,123.975-.085,247.95-.076,371.925-.077Z"/><path d="M199.979,186.722c57.249-5.374,117.57-1.015,177.876-1.487,.002,.496,.005,.991,.007,1.487H199.979Z"/></g></g></pattern></defs><g id="Layer_3"><g><g><path class="cls-1" d="M1449.16,536.07c-.064,2.307-.263,4.551-.591,6.71-.786,5.293-2.307,10.111-4.371,14.29-6.519,.044-12.869-.435-18.905-1.253-14.111-1.916-26.493-5.704-35.155-9.109-9.117-3.58-19.037-4.483-28.641-2.662l14.913-5.632-.004-.004c-.012-.008-.052-.036-.112-.08-.016-.012-.032-.024-.052-.036-.032-.024-.072-.052-.116-.084-.02-.016-.04-.028-.06-.044s-.044-.036-.068-.052h-.004v-.004c-.044-.032-.092-.068-.144-.104-.004,0-.012-.004-.016-.012-1.074-.814-3.569-2.766-6.774-5.684-.287-.259-.579-.527-.874-.802-.164-.156-.327-.307-.495-.463-.16-.152-.323-.303-.487-.459-.064-.064-.128-.128-.196-.188-.184-.172-.363-.351-.551-.527-.367-.359-.742-.727-1.122-1.102-.192-.192-.383-.379-.575-.575-.028-.032-.06-.064-.096-.096-.347-.351-.699-.71-1.058-1.078-.196-.212-.399-.419-.603-.635-.212-.227-.431-.459-.651-.694-.092-.1-.18-.195-.271-.295,.539,.423,6.475,5.034,11.764,5.034,8.179,.004,23.555-10.858,37.423-26.082,10.279,7.752,21.775,12.255,32.904,13.029-4.527,8.431-10.043,17.248-16.702,26.457,0,0,2.826,1.652,8.199,1.652,.196,0,.391-.004,.591-.008,.204-.004,.407-.012,.615-.02,.14-.008,.287-.012,.431-.024,.192-.012,.387-.024,.583-.04l11.269-9.325Z"/><path class="cls-19" d="M1366.459,529.871c-.367-.355-.742-.727-1.122-1.102,.379,.375,.754,.742,1.122,1.102Z"/><path class="cls-8" d="M1454.185,495.35c-2.595,7.018-5.892,14.363-10.011,22.027-11.129-.774-22.625-5.277-32.904-13.029,3.022-3.317,5.972-6.842,8.762-10.51,19.839-26.082,31.467-59.246,2.367-75.225,0,0,16.055-7.896,11.017-36.852,1.617,5.006,46.843,42.995,20.769,113.589Z"/><path class="cls-12" d="M1570.122,468.781c-18.162,69.365-61.186,87.028-98.856,87.28,2.064-4.179,3.585-8.997,4.371-14.291,12.921-5.109,31.427-18.945,54.503-53.429,44.221-66.08-6.371-153.922-36.632-123.912-2.227,2.207-4.343,5.053-6.303,8.594,0,0-1.872,3.9-1.732,5.349-.056-.068-.116-.136-.18-.2-.719-1.585-3.86-8.638-14.458-16.202-1.605-1.146-3.381-2.303-5.345-3.457,3.852-.878,7.556-2.946,10.929-6.626,0,0,9.959,4.139,25.519-11.253l.319-.319c.291-.291,.583-.591,.878-.894,4.024-4.163,10.027-5.76,15.56-4.063,.072,.024,.148,.044,.22,.068l.012,.004c10.814,4.499,11.995,4.994,12.127,5.046l.008,.004,.008,.004c29.491,20.402,55.924,63.848,39.051,128.299Z"/><path class="cls-18" d="M1493.508,364.429c-7.429-5.457-15.436-6.818-22.673-2.459-3.852,2.319-7.485,6.259-10.698,12.063,0,0-1.872,3.9-1.732,5.349,.024,.231-.02,.148-.18-.2-9.393-10.578-24.809,2.579-24.809,2.579,1.617,5.006,46.843,42.995,20.769,113.589-2.595,7.018-5.892,14.363-10.011,22.027-4.527,8.431-10.043,17.248-16.702,26.457,0,0,2.826,1.652,8.199,1.652,.196,0,.391-.004,.591-.008,.204-.004,.407-.012,.615-.02,.14-.008,.287-.012,.431-.024,.192-.012,.387-.024,.583-.04l11.269-9.325c-.064,2.307-.263,4.551-.591,6.71,12.921-5.109,34.769-15.265,57.845-49.75,32.114-47.985,10.885-111.126-12.906-128.601Zm4.762,72.442c-4.467,15.261-9.361,21.759-13.823,24.142-.024,.447-.056,.894-.084,1.345-.024,.331-.048,.663-.076,.998-.032,.415-.064,.83-.1,1.245-.036,.379-.068,.762-.108,1.146-.032,.351-.068,.702-.108,1.058-.008,.084-.016,.168-.028,.256-.068,.655-.144,1.313-.228,1.976l-.004,.016c-.036,.307-.076,.615-.116,.922-.008,.068-.02,.14-.028,.212-.044,.319-.088,.639-.132,.958-.22,1.569-.471,3.165-.758,4.79-.144,.802-.291,1.613-.451,2.431-.024,.12-.048,.243-.072,.367-.144,.743-.299,1.489-.459,2.243-.116,.527-.232,1.062-.351,1.597-.084,.379-.172,.762-.259,1.15-.016,.052-.028,.108-.04,.164-.1,.427-.2,.858-.307,1.293-.088,.367-.18,.742-.275,1.114-.132,.535-.267,1.07-.411,1.613-.092,.355-.184,.711-.279,1.07-.06,.211-.116,.427-.176,.639-.108,.399-.216,.802-.331,1.206-.511,1.824-1.058,3.68-1.653,5.564-.184,.587-.371,1.174-.563,1.764-.02,.056-.036,.112-.056,.168-.212,.647-.427,1.297-.651,1.952-.184,.547-.371,1.098-.567,1.653-.263,.766-.539,1.537-.818,2.315l1.732-7.892,7.756-35.331c2.758-47.937-26.042-66.391-26.042-66.391,0,0,7.896-8.379,16.362-2.044,0,0-5.401-11.069,3.134-13.935,8.534-2.866,31.643,19.695,20.37,58.228Z"/><path class="cls-21" d="M1503.971,341.476c-.1-.04-.483-.2-2.032-.842-1.665-.694-4.662-1.944-10.079-4.195l-.012-.004c-1.549-.643-3.297-1.373-5.269-2.191-17.208-7.161-39.598,6.778-40.153,7.125l-.012,.008c-1.253,.587-1.708,1.385,0,2.227,3.241,1.601-7.285,9.548-12.778,9.788,0,0,11.696-6.942,7.433-7.912l-1.054-.232c7.425-12.318,21.667-19.009,35.87-16.231,8.255,1.617,17.42,5.401,26.374,11.297,.571,.379,1.142,.766,1.712,1.162Z"/><path class="cls-11" d="M1477.902,378.645c8.534-2.866,31.643,19.695,20.37,58.228-4.467,15.26-9.361,21.759-13.823,24.142,2.758-47.937-26.042-66.391-26.042-66.391,0,0,7.896-8.379,16.362-2.044,0,0-5.401-11.069,3.134-13.935Z"/><path class="cls-4" d="M1491.848,336.435c-.072-.024-.148-.044-.22-.068-5.533-1.696-11.536-.1-15.56,4.064-16.242,16.817-26.717,12.466-26.717,12.466,1.058-1.154,2.08-2.467,3.066-3.948,0,0,4.211-6.626,.224-8.375-1.042-.459-4.431-.04-6.215,.794,.555-.347,22.945-14.286,40.153-7.125,1.972,.818,3.72,1.549,5.269,2.191Z"/><path class="cls-21" d="M1474.96,504.238l9.488-43.223c-.711,12.378-3.525,26.721-9.488,43.223Z"/><path class="cls-14" d="M1458.225,379.183c.064,.064,.124,.132,.18,.2,.024,.231-.02,.148-.18-.2Z"/><path class="cls-14" d="M1468.419,270.107c1.273,2.032,.802,4.702-.994,6.291-7.261,6.427-30.713,28.625-28.318,45.346,0,0,1.788,1.637,7.109,2.287,5.321,.651,7.029,3.249,7.029,3.249,0,0-4.758,5.221-11.265,3.577,0,0-2.986,2.858-7.337,1.313,0,0-1.305,3.377-3.896,2.463-1.892-.671-4.527-3.932-6.566-5.784l-.016-.016c-5.421-6.83-11.504-11.883-17.823-15.576-1.138-1.437-2.802-3.11-4.547-3.401,0,0,2.591-1.249,6.127,0,14.502,5.137,39.706-30.633,50.767-38.672,.172-.128,.343-.247,.511-.363,.124-.084,.243-.168,.363-.247l7.193-1.952h.004c.726,.319,1.261,.858,1.657,1.485Z"/><path class="cls-14" d="M1455.364,270.668l-7.193,1.952c3.181-2.136,5.353-2.539,6.826-2.084,.116,.048,.236,.092,.367,.132Z"/><path class="cls-17" d="M1454.997,270.537c-1.473-.455-3.644-.052-6.826,2.084,.16-2.858,.595-7.421,.914-10.59v-.012c.208-2.08,.367-3.557,.367-3.557,0,0,2.662,.659,3.241,2.048l-.124,1.517,.758-.455s1.313,.659,.631,2.782c-.683,2.12-.615,3.565-.615,3.565,0,0-.052,1.884,1.653,2.619Z"/><path class="cls-7" d="M1438.422,359.523c-17.412,3.972-37.758-16.402-43.259-22.35-1.792-1.936-4.088-3.764-5.996-5.121-24.885-17.675-90.705-16.606-115.573,68.594-16.478,56.439,4.068,92.182,24.254,112.264-2.591-2.71-4.818-10.722-4.818-10.722,0,0,18.677-7.289,21.955-4.734,.427,.331-1.692,4.115-1.692,4.115l-.738,5.157c.076-.251,1.425-4.61,2.686-3.84,1.261,.766,3.066,4.878,3.177,5.133-3.13-19.396,0-46.3,20.613-80.997,0,0,4.87-17.141,15.412-34.014,1.186-1.904,2.447-3.8,3.78-5.672,.032-.044,.06-.088,.092-.132l.032-.044c.124-.172,.247-.343,.371-.511,10.323-14.235,24.929-26.637,44.324-26.07,0,0,23.707,.491,30.373,21.18,0,0,15.416-13.157,24.809-2.579-.826-1.824-4.87-10.902-19.803-19.659Zm-153.479,55.282c2.583-1.844-3.086-23.687-3.086-23.687-1.856-9.908,15.225,7.784,15.644,8.219-10.407-12.977-5.537-39.235-2.599-35.495,19.065,24.25,28.521,31.136,26.006,30.864-2.515-.271-3.9,13.955-4.854,16.207-.954,2.255-5.968-4.116-9.205-5.98-3.241-1.86-.87,7.393-.87,7.393,0,0,12.45,12.287,7.225,8.818-5.225-3.473-4.511,7.241-4.511,7.241,0,0-22.921-7.241-27.787-9.808-4.87-2.563,1.453-1.928,4.036-3.772Zm-.092,77.58c-4.93-1.457-5.736-17.376-5.736-17.376,0,0,13.344-3.6,15.636-4.135-2.004,.056-11.261-2.718-11.261-2.718,0,0-3.305-7.229,1.481-4.886,4.79,2.347,25.571,4.694,25.571,4.694,0,0,1.629,10.391,.383,11.78s-7.54,3.836-7.54,3.836c2.559,4.331,9.995,.439,9.995,.439l4,8.367s-27.599,1.453-32.529,0Zm22.513-29.056l.431-7.604s-17.42-9.125-22.026-9.672c-4.606-.547-.283,.559,.447,6.998,.73,6.439-16.554-.375-11.899-4.431,4.654-4.06,1.772-13.648,1.704-16.885-.068-3.237,8.754-.156,8.754-.156,0,0-1.15,3.134,.307,5.828,1.453,2.698,24.378,.555,24.481-.862,.108-1.421-1.345-6.514-1.345-6.514,0,0,8.898-2.834,10.594,1.01,1.692,3.844,2.742,24.869,2.742,24.869-1.413,15.891-14.191,7.421-14.191,7.421Zm32.094-82.286c-2.77,3.233-14.889-.451-17.66,2.667-2.774,3.118,6.698,8.315,1.617,8.199-5.081-.116-22.633-34.297-22.633-34.297,0,0,14.243-5.96,14.522,.447,.279,6.403,34.381,12.426,34.381,12.426,0,0-7.457,7.325-10.227,10.558Zm13.472-12.326c-8.79-.419-23.156-14.227-25.108-19.392-1.956-5.161-8.371,8.51-7.52,5.165,.854-3.349-11.329-7.025-9.081-6.978,6.754,.148,12.921-6.227,15.424-9.193,1.329-1.577,2.966-2.874,4.842-3.728,1.808-.822,3.924-1.325,5.453-.28,0,0-2.283,6.287-.084,6.463l-2.415,.97s-1.689,1.425-2.223,4.802c-.535,3.377,32.996,15.999,32.996,15.999-6.287-.168-12.283,6.171-12.283,6.171Zm31.555-11.48c-2.391-1.625-14.53,2.87-14.53,2.87,0,0-1.054-2.008-17.691-11.476-16.634-9.464-9.464-14.909-9.464-14.909,0,0-.794-.295,5.141-3.11,5.932-2.814,14.949,0,14.949,0,0,0-7.421,1.293-11.604,4.108-4.183,2.814,3.652,6.922,3.652,6.922,0,0,4.774-1.249,4.139-4.435-2.128-10.742,17.763,6.794,17.763,6.794,0,0-6.311-1.218-9.353,.455-3.046,1.673,4.563,5.856,4.563,5.856,0,0-.004-2.702,7.604-2.355,5.772,.26,4.83,9.281,4.83,9.281Zm8.219-.994c-.192,0-4.926,3.836-2.686-5.501,2.239-9.337-19.827-18.805-19.827-18.805,10.027,1.285,18.462,4.291,24.805,9.556,7.045,6.072-2.1,14.75-2.291,14.75Z"/><path class="cls-19" d="M1501.939,340.634c-15.56,15.392-25.519,11.253-25.519,11.253-3.373,3.68-7.077,5.748-10.929,6.626,1.964,1.154,3.74,2.311,5.345,3.457-3.852,2.319-7.485,6.259-10.698,12.063,0,0-1.872,3.9-1.732,5.349-.056-.068-.116-.136-.18-.2-.826-1.824-4.87-10.902-19.803-19.659,3.852-.878,7.556-2.946,10.929-6.626,0,0,10.474,4.351,26.717-12.466,4.024-4.163,10.027-5.76,15.56-4.064,.072,.024,.148,.044,.22,.068l.012,.004c5.417,2.251,8.415,3.501,10.079,4.195Z"/><path class="cls-12" d="M1452.417,348.949c-.986,1.481-2.008,2.794-3.066,3.948-3.373,3.68-7.077,5.748-10.929,6.626-17.412,3.972-37.758-16.402-43.259-22.35-1.792-1.936-4.088-3.764-5.996-5.121-24.885-17.675-90.705-16.606-115.573,68.594-16.478,56.439,4.068,92.182,24.254,112.264l.124,.124c.008,.004,.016,.012,.024,.02,1.673,1.661,3.345,3.213,4.994,4.65,.108,.096,.192,.172,.251,.228,.016,.012,.028,.024,.04,.036,.044,.04,.068,.06,.068,.06,12.566,10.946,24.733,16.37,24.733,16.37,4.902,7.948,9.64,11.859,9.64,11.859-22.019-1.026-39.439-10.957-52.571-22.853-20.382-18.466-32.788-44.073-35.423-71.448-11.44-118.914,72.658-140.474,85.068-143,.778-.156,32.653-9.74,60.152,6.347,.922,1.162,1.505,2.171,1.505,2.171-8.347,.607-10.937,6.57-10.937,6.57,3.11,3.289,15.177,.391,15.177,.391,2.894,4.108,10.534,5.313,10.534,5.313,.447,.208,.974,.611,1.545,1.13l.016,.016c3.581,4.511,6.874,9.796,9.756,15.979,3.098,6.654,12.394,7.026,16.131,.707,.228-.379,.447-.762,.655-1.142,.224-.403,.451-.798,.687-1.19l1.054,.232c4.263,.97-7.433,7.912-7.433,7.912,5.493-.239,16.019-8.187,12.778-9.788-1.708-.842-1.253-1.641,0-2.227l.012-.008c1.784-.834,5.173-1.253,6.215-.794,3.988,1.748-.224,8.375-.224,8.375Z"/><path class="cls-17" d="M1449.085,262.03l-1.277,10.838-.91-3.577c-.91-3.577-3.513-.595-4.746-2.032-1.229-1.437-.878-2.726-.878-2.726l2.084-1.174-3.581-2.172c5.249-8.123,9.309,.83,9.309,.83v.012Z"/><path class="cls-5" d="M1420.032,493.838c-2.79,3.668-5.74,7.193-8.762,10.51-13.867,15.225-29.244,26.086-37.423,26.082-5.357,0-11.82-5.209-12.219-5.525-7.7-8.478-16.554-20.789-21.663-36.465,9.173,.894,18.378,.543,27.076-.914,2.447-.407,4.858-.902,7.213-1.481,27.699-6.806,48.216-25.188,42.213-49.781-6.459-15.037-30.493-4.614-30.932-4.423,13.556-13.372,34.457-35.487,23.907-54.025-3.648-6.407-18.318-6.542-26.497,0-1.537,1.229-3.078,2.874-4.367,4.782-7.277,8.295-10.542,20.23-11.895,27.092-.651,3.285-.858,5.409-.858,5.409-.064,.024-.136,.052-.22,.088-2.818,1.249-17.244,10.71-21.871,13.756,.2-1.118,3.908-21.719,10.71-35.934,1.186-1.904,2.447-3.8,3.78-5.672,.032-.044,.06-.088,.092-.132l.032-.044c.124-.172,.247-.343,.371-.511,10.323-14.235,24.929-26.637,44.324-26.07,0,0,23.707,.491,30.373,21.18,5.038,28.956-11.017,36.852-11.017,36.852,29.1,15.979,17.472,49.142-2.367,75.225Z"/><path class="cls-10" d="M1367.041,487.527c-8.698,1.457-17.903,1.808-27.076,.914-4.842-14.846-6.323-32.709-.279-53.19l4.04-6.259s.004-.016,.008-.048c4.626-3.046,19.053-12.506,21.871-13.756-1.956,15.78-5.732,54.412,1.437,72.339Z"/><path class="cls-9" d="M1374.254,486.046c-2.355,.579-4.766,1.074-7.213,1.481-7.169-17.927-3.393-56.559-1.437-72.339,.084-.036,.156-.064,.22-.088,0,0,.208-2.124,.858-5.409,1.353-6.862,4.618-18.797,11.895-27.092-2.778,4.1-4.407,9.405-2.355,14.347,3.321,8.007,11.82,12.326,18.354,8.403,3.72-2.235,4.966-10.578-1.553-12.666-3.157-1.014-7.72,.671-5.489,5.401-6.051,1.629-9.237-3.086-8.957-15.484,1.289-1.908,2.83-3.553,4.367-4.782,8.179-6.542,22.849-6.407,26.497,0,10.55,18.538-10.351,40.652-23.907,54.025,.439-.192,24.473-10.614,30.932,4.423,6.004,24.593-14.514,42.975-42.213,49.781Z"/><path class="cls-14" d="M1412.772,330.88c-.571-.519-1.098-.922-1.545-1.13,0,0-7.64-1.206-10.534-5.313,0,0-12.067,2.898-15.177-.391,0,0,2.591-5.964,10.937-6.57,0,0-.583-1.01-1.505-2.172,6.319,3.692,12.402,8.746,17.823,15.576Z"/><path class="cls-15" d="M1394.996,341.492c-6.343-5.265-14.777-8.271-24.805-9.556,0,0,22.066,9.469,19.827,18.805-2.239,9.337,2.495,5.501,2.686,5.501s9.337-8.678,2.291-14.75Zm-3.042,2.97c-2.048-.966-3.062-3.792-3.062-3.792,8.451,2.87,6.758,6.135,6.758,6.135,0,0-1.649-1.381-3.696-2.343Z"/><path class="cls-7" d="M1395.65,346.805s-1.649-1.381-3.696-2.343c-2.048-.966-3.062-3.792-3.062-3.792,8.451,2.87,6.758,6.135,6.758,6.135Z"/><path class="cls-1" d="M1394.578,405.35c-6.534,3.924-15.033-.395-18.354-8.403-2.052-4.942-.423-10.247,2.355-14.346-.279,12.398,2.906,17.113,8.957,15.484,.212,.455,.491,.938,.838,1.449l-.838-1.449c-2.231-4.73,2.331-6.415,5.489-5.401,6.519,2.088,5.273,10.431,1.553,12.666Z"/><path class="cls-14" d="M1387.536,398.085l.838,1.449c-.347-.511-.627-.994-.838-1.449Z"/><path class="cls-15" d="M1379.657,347.957c5.772,.259,4.83,9.281,4.83,9.281-2.391-1.625-14.53,2.87-14.53,2.87,0,0-1.054-2.008-17.691-11.476-16.634-9.464-9.464-14.909-9.464-14.909,0,0-.794-.295,5.141-3.11,5.932-2.814,14.949,0,14.949,0,0,0-7.421,1.293-11.604,4.108-4.183,2.814,3.652,6.922,3.652,6.922,0,0,4.774-1.249,4.139-4.435-2.128-10.742,17.763,6.794,17.763,6.794,0,0-6.311-1.217-9.353,.455-3.046,1.673,4.563,5.856,4.563,5.856,0,0-.004-2.702,7.604-2.355Z"/><path class="cls-1" d="M1376.41,538.414l-14.913,5.632h-.004c-.415,.08-.83,.164-1.245,.251-7.984,1.712-15.488,2.291-22.525,1.96,0,0-4.738-3.912-9.64-11.859-2.551-4.132-5.145-9.353-7.137-15.684-1.03-3.265-1.9-6.826-2.523-10.682,0-.004,0-.008-.004-.012-3.13-19.396,0-46.3,20.613-80.997,0,0,4.87-17.141,15.412-34.014-6.802,14.215-10.51,34.816-10.71,35.934-.004,.032-.008,.048-.008,.048l-4.04,6.259c-6.044,20.482-4.563,38.345,.279,53.19,5.109,15.676,13.963,27.986,21.663,36.465,.032,.032,.06,.064,.088,.096,.112,.124,.22,.243,.331,.363l.004,.004,.024,.024c.092,.1,.184,.2,.279,.299,.22,.235,.439,.467,.651,.694,.204,.216,.407,.423,.603,.635,5.6,5.876,10.319,9.56,12.071,10.862,.056,.04,.104,.08,.156,.112,.004,.008,.012,.012,.016,.012,.044,.032,.084,.064,.12,.092,.008,.004,.016,.012,.024,.016l.004,.004c.024,.016,.048,.032,.068,.048s.04,.028,.06,.044c.044,.032,.084,.06,.116,.084,.02,.012,.036,.024,.052,.036,.06,.044,.1,.072,.112,.08l.004,.004Z"/><path class="cls-14" d="M1369.061,532.31c3.205,2.918,5.7,4.87,6.774,5.684-.052-.032-.1-.072-.156-.112-1.752-1.301-6.471-4.986-12.071-10.862,.359,.367,.711,.726,1.058,1.078,.036,.032,.068,.064,.096,.096,.192,.196,.383,.383,.575,.575,.379,.375,.754,.742,1.122,1.102,.188,.176,.367,.355,.551,.527,.068,.06,.132,.124,.196,.188,.164,.156,.327,.307,.487,.459,.168,.156,.331,.307,.495,.463,.295,.276,.587,.543,.874,.802Z"/><path class="cls-14" d="M1375.995,538.11v.004c-.008-.004-.016-.012-.024-.016-.036-.028-.076-.06-.12-.092,.052,.036,.1,.072,.144,.104Z"/><path class="cls-14" d="M1376.067,538.166c-.02-.016-.044-.032-.068-.048v-.004c.024,.016,.048,.036,.068,.052Z"/><path class="cls-6" d="M1365.215,362.547c-6.287-.168-12.283,6.171-12.283,6.171-8.79-.419-23.156-14.227-25.108-19.392-1.956-5.161-8.371,8.51-7.52,5.165,.854-3.349-11.329-7.025-9.081-6.978,6.754,.148,12.921-6.227,15.424-9.193,1.329-1.577,2.966-2.874,4.842-3.728,1.808-.822,3.924-1.325,5.453-.279,0,0-2.283,6.287-.084,6.463l-2.415,.97s-1.689,1.425-2.223,4.802,32.996,15.999,32.996,15.999Z"/><path class="cls-14" d="M1362.355,525.692c-.096-.1-.188-.2-.279-.299l.008,.004c.092,.1,.18,.195,.271,.295Z"/><path class="cls-9" d="M1326.738,371.376c-.076-.036-.22-.096-.427-.184-.064-.028-.132-.056-.208-.088-.144-.06-.307-.128-.487-.204-.08-.032-.16-.064-.243-.1-.112-.044-.224-.092-.343-.14-.148-.064-.307-.128-.471-.192-.691-.279-1.501-.599-2.359-.926-.112-.04-.22-.08-.331-.124-.271-.104-.551-.204-.83-.307-.068-.024-.136-.048-.204-.076-.032-.012-.068-.024-.104-.036-.311-.112-.627-.224-.938-.331-.136-.044-.267-.092-.403-.136-.092-.032-.188-.064-.279-.092-.104-.036-.204-.072-.303-.1-.164-.056-.327-.108-.487-.156-.156-.052-.311-.1-.467-.144h-.004c-.076-.024-.156-.048-.232-.068-.092-.032-.184-.056-.275-.08-.068-.02-.136-.04-.2-.056-.064-.02-.132-.036-.196-.052-.072-.02-.144-.04-.216-.056-.036-.012-.076-.02-.112-.028l-.044-.012c-.016-.004-.036-.008-.056-.016l-.204-.048c-.136-.032-.267-.06-.391-.084-.116-.028-.232-.048-.339-.068-.128-.02-.251-.04-.371-.052-.056-.008-.108-.016-.156-.02-.052-.008-.104-.012-.156-.012-.016-.004-.032-.004-.048-.004-.02-.004-.036-.004-.052,0-.016-.004-.028-.004-.04-.004-.096-.008-.184-.008-.263,0-.024,0-.044,0-.068,.004-.012,0-.024,0-.032,.004-.028,0-.052,.004-.08,.008-.032,.004-.06,.008-.084,.016-.032,.004-.064,.012-.092,.024-.036,.008-.072,.02-.1,.036-.016,.004-.032,.012-.044,.02-.012,.004-.024,.012-.032,.02-.024,.012-.044,.028-.064,.048-.024,.02-.04,.044-.056,.068s-.028,.052-.036,.08c0,0,1.984,6.455,2.267,6.415,.259-.036,4.938-3.804,9.468-3.058,.024,.004,.052,.008,.076,.016,.024,0,.048,.004,.072,.012,.056,.008,.108,.02,.16,.032,.024,.004,.048,.008,.068,.016,.064,.012,.124,.024,.188,.044,.04,.008,.076,.016,.116,.028,.06,.016,.116,.032,.176,.048,.028,.012,.06,.02,.088,.028l.04,.012c.068,.024,.14,.048,.208,.072Zm22.949-.89s-7.457,7.325-10.227,10.558c-2.77,3.233-14.889-.451-17.66,2.666-2.774,3.118,6.698,8.315,1.617,8.199s-22.633-34.297-22.633-34.297c0,0,14.243-5.96,14.522,.447,.279,6.403,34.381,12.426,34.381,12.426Z"/><path class="cls-7" d="M1326.738,371.376c-.068-.024-.14-.048-.208-.072l-.04-.012c-.028-.008-.06-.016-.088-.028-.06-.016-.116-.032-.176-.048-.04-.012-.076-.02-.116-.028-.064-.02-.124-.032-.188-.044-.02-.008-.044-.012-.068-.016-.052-.012-.108-.024-.16-.032-.024-.008-.048-.012-.072-.012-.028-.008-.052-.012-.076-.016-4.531-.746-9.209,3.022-9.468,3.058-.283,.04-2.267-6.415-2.267-6.415,.008-.028,.02-.056,.036-.08s.036-.048,.056-.068,.04-.036,.064-.048c.024-.016,.048-.028,.076-.04,.032-.016,.064-.028,.1-.036,.028-.012,.06-.02,.092-.024,.024-.008,.052-.012,.084-.016,.024-.004,.052-.008,.08-.008,.008-.004,.02-.004,.032-.004,.024-.004,.044-.004,.068-.004,.08-.008,.168-.008,.263,0,.012,0,.024,0,.04,.004,.016-.004,.032-.004,.052,0,.016,0,.032,0,.048,.004,.052,0,.104,.004,.156,.012,.052,.004,.104,.012,.156,.02,.12,.012,.243,.032,.371,.052,.108,.02,.224,.044,.339,.068,.124,.024,.255,.052,.391,.084l.192,.048c.024,.004,.048,.012,.068,.016l.044,.012c.036,.008,.076,.016,.112,.028,.072,.016,.144,.036,.216,.056,.064,.016,.132,.032,.196,.052,.064,.016,.132,.036,.2,.056,.092,.024,.184,.048,.275,.08,.076,.02,.156,.044,.232,.068h.004c.156,.044,.311,.092,.467,.144,.16,.052,.323,.1,.487,.156,.1,.028,.2,.064,.303,.1,.092,.028,.184,.06,.279,.092,.132,.044,.267,.092,.403,.136,.311,.108,.627,.22,.938,.331l.06,.024c.012,.004,.028,.008,.044,.016l.204,.072c.279,.104,.559,.204,.83,.307,.112,.044,.224,.084,.331,.124,.858,.327,1.669,.647,2.359,.926,.164,.068,.323,.132,.471,.192,.12,.048,.232,.096,.343,.14,.084,.036,.164,.068,.243,.1,.18,.076,.343,.144,.487,.204,.076,.032,.144,.064,.208,.088,.208,.088,.351,.148,.427,.184Z"/><path class="cls-14" d="M1326.53,371.304l-.04-.012,.04,.012Z"/><path class="cls-14" d="M1326.403,371.265c-.06-.016-.116-.032-.176-.048,.06,.016,.116,.032,.176,.048Z"/><path class="cls-14" d="M1326.103,371.105c.076,.032,.144,.06,.208,.088-.064-.024-.132-.056-.208-.088Z"/><path class="cls-14" d="M1326.111,371.189c-.064-.02-.124-.032-.188-.044,.064,.012,.124,.024,.188,.044Z"/><path class="cls-14" d="M1325.856,371.129c-.052-.012-.104-.024-.16-.032,.052,.008,.108,.02,.16,.032Z"/><path class="cls-14" d="M1325.624,371.085c-.024-.008-.052-.012-.076-.016,.024,.004,.048,.008,.076,.016Z"/><path class="cls-14" d="M1325.373,370.802c.084,.036,.164,.068,.243,.1-.08-.032-.16-.064-.243-.1Z"/><path class="cls-14" d="M1324.558,370.47c.164,.064,.323,.128,.471,.192-.148-.06-.307-.124-.471-.192Z"/><path class="cls-20" d="M1320.946,518.716c1.992,6.331,4.587,11.552,7.137,15.684,0,0-12.167-5.425-24.733-16.37l17.596,.687Z"/><path class="cls-14" d="M1321.868,369.42c.112,.044,.22,.084,.331,.124-.108-.04-.22-.08-.331-.124Z"/><path class="cls-9" d="M1294.904,363.844c19.065,24.25,28.521,31.136,26.006,30.864s-3.9,13.955-4.854,16.207c-.954,2.255-5.968-4.115-9.205-5.98-3.241-1.86-.87,7.393-.87,7.393,0,0,12.45,12.287,7.225,8.818-5.225-3.473-4.511,7.241-4.511,7.241,0,0-22.921-7.241-27.787-9.808-4.87-2.563,1.453-1.928,4.036-3.772s-3.086-23.687-3.086-23.687c-1.856-9.908,15.225,7.784,15.644,8.219-10.407-12.977-5.537-39.235-2.599-35.495Z"/><path class="cls-14" d="M1321.038,369.113l-.204-.072v-.004c.068,.028,.136,.052,.204,.076Z"/><path class="cls-9" d="M1312.555,506.729c.076-.251,1.425-4.61,2.686-3.84,1.261,.766,3.066,4.878,3.177,5.133,.004,.004,.004,.008,.004,.012,.623,3.856,1.493,7.417,2.523,10.682l-17.596-.687s-.024-.02-.068-.06c-.012-.012-.024-.024-.04-.036-.06-.056-.144-.132-.251-.228-.822-.746-2.922-2.662-4.994-4.65-.008-.008-.016-.016-.024-.02l-.124-.124c-2.591-2.71-4.818-10.722-4.818-10.722,0,0,18.677-7.289,21.955-4.734,.427,.331-1.693,4.115-1.693,4.115l-.738,5.157Z"/><path class="cls-9" d="M1318.814,431.041c1.693,3.844,2.742,24.869,2.742,24.869-1.413,15.891-14.191,7.421-14.191,7.421l.431-7.604s-17.42-9.125-22.026-9.672c-4.606-.547-.283,.559,.447,6.998,.73,6.439-16.554-.375-11.899-4.431,4.654-4.06,1.772-13.648,1.704-16.885-.068-3.237,8.754-.156,8.754-.156,0,0-1.15,3.134,.307,5.828,1.453,2.698,24.378,.555,24.481-.862,.108-1.421-1.345-6.515-1.345-6.515,0,0,8.898-2.834,10.594,1.01Z"/><path class="cls-14" d="M1320.834,369.037v.004c-.016-.008-.032-.012-.044-.016,.012,.004,.028,.008,.044,.012Z"/><path class="cls-14" d="M1320.834,369.037c-.016-.004-.032-.008-.044-.012l-.06-.024c.036,.012,.072,.024,.104,.036Z"/><path class="cls-14" d="M1319.792,368.67c-.136-.044-.271-.092-.403-.136,.136,.044,.267,.092,.403,.136Z"/><path class="cls-14" d="M1319.389,368.534c-.096-.032-.188-.064-.279-.092,.092,.028,.188,.06,.279,.092Z"/><path class="cls-14" d="M1318.806,368.343c-.164-.056-.327-.104-.487-.156,.16,.048,.323,.1,.487,.156Z"/><path class="cls-14" d="M1318.319,368.187c-.156-.052-.311-.1-.467-.144,.156,.044,.311,.092,.467,.144Z"/><path class="cls-14" d="M1317.617,367.975c.076,.02,.156,.044,.232,.068-.076-.024-.156-.048-.232-.068Z"/><path class="cls-9" d="M1313.382,484.02l4,8.367s-27.599,1.453-32.529,0c-4.93-1.457-5.736-17.376-5.736-17.376,0,0,13.344-3.601,15.636-4.135,.12,0,.216-.012,.279-.036,.132-.048,.02-.032-.279,.036-2.004,.056-11.261-2.718-11.261-2.718,0,0-3.305-7.229,1.481-4.886,4.79,2.347,25.571,4.694,25.571,4.694,0,0,1.629,10.391,.383,11.78s-7.54,3.836-7.54,3.836c2.559,4.331,9.995,.439,9.995,.439Z"/><path class="cls-14" d="M1317.341,367.896c-.068-.02-.136-.04-.2-.056,.064,.016,.132,.036,.2,.056Z"/><path class="cls-14" d="M1316.731,367.732c-.036-.012-.076-.02-.112-.028,.036,.008,.076,.016,.112,.028Z"/><path class="cls-14" d="M1316.575,367.692c-.02-.004-.044-.012-.068-.016h.012c.02,.008,.04,.012,.056,.016Z"/><path class="cls-14" d="M1316.519,367.676h-.012l-.192-.048,.204,.048Z"/><path class="cls-14" d="M1315.585,367.476c.108,.02,.224,.04,.339,.068-.116-.024-.232-.048-.339-.068Z"/><path class="cls-14" d="M1314.902,367.393c-.016-.004-.032-.004-.048-.004,.016,0,.032,0,.048,.004Z"/><path class="cls-14" d="M1314.803,367.389c-.016-.004-.028-.004-.04-.004,.012,0,.024,0,.04,.004Z"/><path class="cls-14" d="M1314.499,367.385c-.024,0-.044,0-.068,.004,.024-.004,.044-.004,.068-.004Z"/><path class="cls-14" d="M1314.236,367.416c-.032,.004-.064,.012-.092,.024,.028-.012,.06-.02,.092-.024Z"/><path class="cls-14" d="M1314.144,367.44c-.036,.008-.068,.02-.1,.036,.028-.016,.064-.028,.1-.036Z"/><path class="cls-14" d="M1314.044,367.476c-.028,.012-.052,.024-.076,.04,.012-.008,.02-.016,.032-.02,.012-.008,.028-.016,.044-.02Z"/><path class="cls-14" d="M1314,367.496c-.012,.004-.02,.012-.032,.02,.008-.008,.02-.016,.032-.02Z"/><path class="cls-14" d="M1297.997,513.056c2.072,1.988,4.171,3.904,4.994,4.65-1.649-1.437-3.321-2.99-4.994-4.65Z"/><path class="cls-14" d="M1294.752,470.875c.299-.068,.411-.084,.279-.036-.064,.024-.16,.036-.279,.036Z"/></g><path class="cls-7" d="M1539.158,471.751c-2.415,5.624-5.397,11.181-9.017,16.59-23.076,34.485-41.582,48.32-54.503,53.429-.786,5.293-2.307,10.111-4.371,14.291-13.943,3.094-24.649,1.581-27.068,1.01,2.064-4.179,3.585-8.997,4.371-14.29,12.921-5.109,31.427-18.945,54.503-53.43,1.17-1.744,2.271-3.509,3.309-5.281,10.203,.806,21.923-3.537,32.776-12.318Z"/><path class="cls-9" d="M1544.666,455.046c-1.321,5.588-3.142,11.181-5.509,16.706-10.854,8.782-22.573,13.125-32.776,12.318,4.191-7.161,7.341-14.53,9.58-21.935,12.47-41.159-3.022-83.432-22.454-97.706,25.352-25.14,64.966,32.425,51.158,90.617Z"/></g><g><g><path class="cls-53" d="M1327.329,520.193c54.023,47.484,10.332,102.189,5.132,105.182-1.023,21.675-24.768,38.323-40.083,46.852v-.006c-53.335,26.72-89.21,.843-89.947,.304-.006-.006-.012-.006-.012-.006-36.426-34.158-4.816-36.922-4.816-36.922,18.966,15.973,37.077,23.652,37.077,23.652,29.509,1.128,55.021-20.039,55.021-20.039,0,0,25.828-19.729,24.836-50.273,2.182-.155,4.568,.279,7.177,1.463,29.125,13.202-30.315-53.236-30.315-53.236l35.931-16.971Z"/><path class="cls-39" d="M1291.398,537.164s59.44,66.438,30.315,53.236c-2.609-1.184-4.996-1.618-7.177-1.463-13.481,.948-19.14,24.452-20.851,33.749,5.777-40.641-16.202-79.355-19.27-82.912-2.132-2.473-14.888-2.492-24.458-2.132,.707-5.051-1.45-9.917-6.006-14.64,4.332,.607,9.031,.818,14.113,.539,27.768-1.066,38.391-9.923,46.641-19.295,8.963,5.163,16.437,10.506,22.623,15.948l-35.931,16.971Z"/><path class="cls-42" d="M1314.536,588.937c.992,30.544-24.836,50.273-24.836,50.273,1.481-4.246,2.591-8.529,3.378-12.793,0,0,0-.019,.006-.062,.229-1.227,.428-2.448,.601-3.669,1.711-9.297,7.37-32.801,20.851-33.749Z"/><path class="cls-53" d="M1112.507,393.441c.452,.056,.911,.105,1.376,.161,38.608,4.63,66.549,39.395,77.917,70.64v.006c2.052,5.634,3.564,11.157,4.5,16.363,.223,1.252,.471,2.826,.682,4.692,0,0,0,.012,.006,.025,.775,6.787,1.159,17.324-1.171,29.33-2.721,13.995-8.82,30.414-9.142,36.606-.186,3.521-.322,8.38,2.052,15.836-.012,.056-.025,.093-.031,.118,.012-.025,.019-.056,.031-.099,1.246,3.886,3.167,8.485,6.124,13.971,0,0,58.975,7.785,76.423,46.765,0,0,25.797-50.905-32.051-89.538l-.112-.074s4.785-.378,10.847-.601c9.57-.359,22.326-.341,24.458,2.132,3.068,3.558,25.047,42.271,19.27,82.912-.372,2.027-.558,3.378-.601,3.669-.006,.043-.006,.062-.006,.062-.787,4.264-1.897,8.547-3.378,12.793,0,0-25.512,21.167-55.021,20.039,0,0-18.111-7.679-37.077-23.652-13.933-11.727-28.338-27.929-36.364-48.848-2.244-5.839-3.992-12.049-5.089-18.625,0,0-.39-2.176-.025-6.173,.508-5.516,2.448-14.497,8.808-26.038,19.233-39.371,8.442-77.074-12.235-100.856-13.964-16.059-32.441-25.778-49.226-25.369h-.006c-7.078,.174-13.871,2.145-19.884,6.211,0,0-16.834,10.952-6.843,37.871,0,0,27.197,69.636,73.473,42.488-1.903,4.81-6.682,8.671-15.371,10.63-3.161,.713-6.266,.961-9.31,.806-36.073-1.804-63.171-59.564-63.171-59.564-.13-.353-.254-.7-.372-1.047-6.415-18.78,2.622-30.526,2.622-30.526,0,0-1.339-28.493,47.899-23.113Z"/><path class="cls-32" d="M1292.377,672.221v.006c-7.37,4.103-12.793,6.328-12.793,6.328-17.968,9.998-34.561,15.012-49.61,16.128-11.882-8.56-20.857-15.886-27.545-22.158,.738,.539,36.612,26.416,89.947-.304Z"/><path class="cls-53" d="M1304.705,504.245c-8.25,9.372-18.873,18.229-46.641,19.295,0,0-.669-7.041,6.043-8.343-27.991-11.628-20.249-22.958,3.923-6.688,0,0,.57-8.064,11.138-8.175,0,0-3.198-7.506-8.033-11.708,13.01,4.934,24.117,10.171,33.569,15.619Z"/><path class="cls-29" d="M1243.951,523.001c-35.639-5.002-46.598-36.6-46.963-37.672-.006-.012-.006-.025-.006-.025-.211-1.866-.459-3.44-.682-4.692-.936-5.206-2.448-10.729-4.5-16.363v-.006c.428-10.791,10.215-18.433,10.215-18.433,0,0-1.673-15.136-15.483-28.685,0,0,5.616-3.508,9.384,.471,3.768,3.973,10.431,17.094,13.146,25.431,0,0,11.479,1.016,13.828,1.438,23.987,5.454,21.297,35.218,21.297,35.218,9.781,2.839,18.743,5.832,26.95,8.944,4.835,4.202,8.033,11.708,8.033,11.708-10.568,.112-11.138,8.175-11.138,8.175-24.173-16.27-31.914-4.94-3.923,6.688-6.713,1.302-6.043,8.343-6.043,8.343-5.082,.279-9.781,.068-14.113-.539Zm-22.753-33.234c1.091-.143,7.896-20.051-6.923-26.224-8.584-3.576-6.607,3.645-6.607,3.645,0,0,12.433,22.722,13.531,22.58Z"/><path class="cls-52" d="M1239.222,538.316c57.847,38.633,32.051,89.538,32.051,89.538-17.448-38.98-76.423-46.765-76.423-46.765-2.957-5.485-4.878-10.084-6.124-13.971,.694-2.436,11.281-37.114,50.496-28.803Zm13.028,46.821c4.804-19.344-28.363-49.362-43.251-19.617,0,0,30.309,1.06,43.251,19.617Z"/><path class="cls-42" d="M1209,565.52c14.888-29.745,48.054,.273,43.251,19.617-12.942-18.557-43.251-19.617-43.251-19.617Z"/><path class="cls-53" d="M1188.726,567.101c-2.374-7.456-2.238-12.316-2.052-15.836,.322-6.192,6.421-22.611,9.142-36.606,2.331-12.006,1.946-22.543,1.171-29.33,.366,1.072,11.324,32.67,46.963,37.672,4.556,4.723,6.713,9.589,6.006,14.64-6.062,.223-10.847,.601-10.847,.601l.112,.074c-39.216-8.312-49.802,26.367-50.496,28.803v-.019Z"/><path class="cls-34" d="M1229.974,694.683c-17.671,1.314-33.21-2.746-46.337-10.413-37.493-40.852-22.4-97.522-22.4-97.522,8.027,20.919,22.431,37.121,36.364,48.848,0,0-31.611,2.764,4.816,36.922,0,0,.006,0,.012,.006,6.688,6.273,15.663,13.599,27.545,22.158Z"/><path class="cls-54" d="M1214.275,463.542c14.82,6.173,8.014,26.082,6.923,26.224-1.097,.143-13.531-22.58-13.531-22.58,0,0-1.977-7.221,6.607-3.645Z"/><path class="cls-46" d="M1180.805,405.49c-.781-.657-7.134-5.963-10.481-7.357-3.564-1.481-12.564,2.671-12.564,2.671,0,0,13.338,2.95,13.816,10.338,0,0,3.961-10.134,9.229-5.653Zm42.085,38.974c-2.349-.421-13.828-1.438-13.828-1.438-2.715-8.336-9.378-21.458-13.146-25.431-3.768-3.979-9.384-.471-9.384-.471,13.809,13.549,15.483,28.685,15.483,28.685,0,0-9.787,7.642-10.215,18.433-11.367-31.245-39.309-66.01-77.917-70.64-.465-.056-.924-.105-1.376-.161,102.908-36.588,110.383,51.023,110.383,51.023Z"/><path class="cls-42" d="M1180.805,405.49c-5.268-4.481-9.229,5.653-9.229,5.653-.477-7.388-13.816-10.338-13.816-10.338,0,0,9-4.153,12.564-2.671,3.347,1.395,9.7,6.7,10.481,7.357Z"/><path class="cls-32" d="M1150.211,496.256c1.382-3.483,1.264-7.456,.037-11.572,0,0,32.54-7.946,2.448-49.628,20.677,23.782,31.468,61.486,12.235,100.856,0,0-17.572,4.494-31.889-14.826-2.665-3.583-5.213-7.989-7.512-13.394,3.043,.155,6.149-.093,9.31-.806,8.69-1.959,13.469-5.82,15.371-10.63Z"/><path class="cls-34" d="M1133.042,521.086c14.318,19.32,31.889,14.826,31.889,14.826-6.359,11.541-8.299,20.522-8.808,26.038-5.938-24.78-34.511-14.783-35.075-14.578h-.006c-2.331-1.655-4.016-2.238-4.016-2.238-18.873-9.384-32.181-22.722-41.261-35.007,.775,.824,34.325,36.327,57.277,10.958Z"/><path class="cls-47" d="M1183.637,684.27c-33.352-19.468-51.19-62.217-48.959-99.431,1.401-23.274-8.002-33.482-13.63-37.468,.564-.205,29.137-10.202,35.075,14.578-.366,3.998,.025,6.173,.025,6.173,1.097,6.576,2.845,12.787,5.089,18.625,0,0-15.092,56.67,22.4,97.522Z"/><path class="cls-32" d="M1152.696,435.056c30.092,41.682-2.448,49.628-2.448,49.628-3.26-10.934-14.349-22.803-25.741-28.71,21.842-24.954-16.121-40.468-21.799-37.449,1.401-.911,8.522-5.888,.762-8.839,16.785-.409,35.261,9.31,49.226,25.369Z"/><path class="cls-52" d="M1102.528,418.637c.043-.025,.099-.062,.18-.112,5.677-3.018,43.641,12.495,21.799,37.449,11.392,5.907,22.481,17.776,25.741,28.71,1.227,4.116,1.345,8.089-.037,11.572-46.275,27.148-73.473-42.488-73.473-42.488-9.991-26.919,6.843-37.871,6.843-37.871,6.012-4.066,12.805-6.037,19.884-6.211h.006c7.76,2.95,.638,7.927-.762,8.839-.068,.031-.124,.068-.18,.112Z"/><path class="cls-34" d="M1125.53,507.691c2.3,5.405,4.847,9.812,7.512,13.394-22.952,25.369-56.502-10.134-57.277-10.958l-.012-.012c-12.452-16.847-16.952-31.722-16.952-31.722,0,0,5.436-20.026,3.186-31.313,.118,.347,.242,.694,.372,1.047,0,0,27.098,57.76,63.171,59.564Z"/><path class="cls-42" d="M1040.274,304.814c-5.219,4.754-8.708,12.173-10.791,20.175-3.595,13.803-3.006,29.348,.118,35.986,19.611,41.682,65.88,20.503,66.618,20.163-5.299,5.51-.793,7.927,.688,8.405-8.919-1.345-21.365,4.196-27.966,8.708l-.118-.174c-9.979-1.915-19.09-6.13-26.695-12.068-9.012-7.041-15.904-16.506-19.592-27.47-5.919-17.603-4.729-42.47,12.471-58.046,2.231-2.021,4.63-3.806,7.171-5.349,2.38-1.45,5.163-2.107,7.94-1.89,5.33,.415,6.093,2.107,1.903,5.194-1.426,1.054-3.136,1.537-4.804,2.132-2.591,.917-4.897,2.374-6.942,4.233Z"/><path class="cls-32" d="M1074.779,311.96c4.463,23.448-19.84,14.33-20.528,14.07-.006-.006-.012-.006-.012-.006-5.708-6.452-9.669-14.095-8.206-17.603,.564,.359,1.178,.744,1.853,1.165,7.822,4.909,7.388-4.99,12.105-4.518,4.711,.477,6.304,3.421,6.304,3.421l-1.748,5.721,10.233-2.25Z"/><path class="cls-42" d="M1068.823,398.077l.118,.174c-.415,.285-.8,.564-1.165,.837-6.291,4.698-6.824,15.681-6.824,15.681-4.847,2.467-5.039,16.252-5.039,16.252-3.775-2.826-8.392-19.338-7.332-27.668,1.06-8.336-6.452-17.342-6.452-17.342,7.605,5.938,16.716,10.153,26.695,12.068Z"/><path class="cls-32" d="M1068.197,336.208s-5.963,3.409-9.415,1.897l-2.392-2.963-.583,2.132s-3.514,1.078-5.95-3.942c-2.43-5.02-5.045-7.525-5.045-7.525,0,0-6.012-6.942-15.328-.818,2.083-8.002,5.572-15.421,10.791-20.175,.434,.273,1.754,1.097,5.758,3.607-1.463,3.508,2.498,11.15,8.206,17.603,0,0,.006,0,.012,.006,4.19,4.735,9.328,8.832,13.946,10.177Z"/></g><g><path class="cls-3" d="M1103.464,409.687c-7.078,.174-13.871,2.145-19.884,6.211,0,0-16.834,10.952-6.843,37.871,0,0,27.197,69.636,73.473,42.488,0-.006,.006-.006,.006-.006"/><path class="cls-3" d="M1293.078,626.417c-.787,4.264-1.897,8.547-3.378,12.793,0,0-25.512,21.167-55.021,20.039,0,0-18.111-7.679-37.077-23.652-13.933-11.727-28.338-27.929-36.364-48.848-2.244-5.839-3.992-12.049-5.089-18.625,0,0-.39-2.176-.025-6.173,.508-5.516,2.448-14.497,8.808-26.038,19.233-39.371,8.442-77.074-12.235-100.856-13.964-16.059-32.441-25.778-49.226-25.369"/><path class="cls-3" d="M1196.988,485.329c.775,6.787,1.159,17.324-1.171,29.33-2.721,13.995-8.82,30.414-9.142,36.606-.186,3.521-.322,8.38,2.052,15.836v.019c1.246,3.886,3.167,8.485,6.124,13.971,0,0,58.975,7.785,76.423,46.765,0,0,25.797-50.905-32.051-89.538l-.112-.074s4.785-.378,10.847-.601c9.57-.359,22.326-.341,24.458,2.132,3.068,3.558,25.047,42.271,19.27,82.912-.174,1.221-.372,2.442-.601,3.669"/><path class="cls-3" d="M1191.8,464.249c2.052,5.634,3.564,11.157,4.5,16.363,.223,1.252,.471,2.826,.682,4.692"/><path class="cls-3" d="M1122.933,477.81c7.004,7.556-2.702,16.778-11.653,9.117-7.109-6.737-10.462-12.551-11.801-17.293-2.795-9.886,6.136-19.084,16.183-16.958,2.882,.614,5.876,1.748,8.845,3.297,11.392,5.907,22.481,17.776,25.741,28.71,1.227,4.116,1.345,8.089-.037,11.572-1.903,4.81-6.682,8.671-15.371,10.63-3.161,.713-6.266,.961-9.31,.806-36.073-1.804-63.171-59.564-63.171-59.564-.13-.353-.254-.7-.372-1.047-6.415-18.78,2.622-30.526,2.622-30.526,0,0-1.339-28.493,47.899-23.113,.452,.056,.911,.105,1.376,.161,38.608,4.63,66.549,39.395,77.917,70.64"/><path class="cls-3" d="M1188.695,567.218c.012-.025,.019-.056,.031-.099,.694-2.436,11.281-37.114,50.496-28.803,.192,.037,.39,.081,.583,.124"/><path class="cls-3" d="M1188.726,567.094v.006c-.012,.056-.025,.093-.031,.118v.012c-.006,.019-.006,.025-.006,.025"/><path class="cls-3" d="M1209,565.52s30.309,1.06,43.251,19.617c4.804-19.344-28.363-49.362-43.251-19.617Z"/><path class="cls-3" d="M1075.752,510.115c-12.452-16.847-16.952-31.722-16.952-31.722,0,0,5.436-20.026,3.186-31.313"/><path class="cls-3" d="M1121.042,547.372c-2.331-1.655-4.016-2.238-4.016-2.238-18.873-9.384-32.181-22.722-41.261-35.007"/><path class="cls-3" d="M1112.495,393.447q.006,0,.012-.006c102.908-36.588,110.383,51.023,110.383,51.023,23.987,5.454,21.297,35.218,21.297,35.218,9.781,2.839,18.743,5.832,26.95,8.944,13.01,4.934,24.117,10.171,33.569,15.619,8.963,5.163,16.437,10.506,22.623,15.948,54.023,47.484,10.332,102.189,5.132,105.182-1.023,21.675-24.768,38.323-40.083,46.852-7.37,4.103-12.793,6.328-12.793,6.328-17.968,9.998-34.561,15.012-49.61,16.128-17.671,1.314-33.21-2.746-46.337-10.413-33.352-19.468-51.19-62.217-48.959-99.431,1.401-23.274-8.002-33.482-13.63-37.468"/><path class="cls-3" d="M1180.805,405.49c-5.268-4.481-9.229,5.653-9.229,5.653-.477-7.388-13.816-10.338-13.816-10.338,0,0,9-4.153,12.564-2.671,3.347,1.395,9.7,6.7,10.481,7.357Z"/><path class="cls-3" d="M1180.805,405.49c.025,.019,.056,.043,.081,.068"/><path class="cls-3" d="M1191.8,464.249v-.006c.428-10.791,10.215-18.433,10.215-18.433,0,0-1.673-15.136-15.483-28.685,0,0,5.616-3.508,9.384,.471,3.768,3.973,10.431,17.094,13.146,25.431,0,0,11.479,1.016,13.828,1.438"/><path class="cls-3" d="M1207.667,467.187s12.433,22.722,13.531,22.58c1.091-.143,7.896-20.051-6.923-26.224-8.584-3.576-6.607,3.645-6.607,3.645Z"/><path class="cls-3" d="M1196.982,485.304s0,.012,.006,.025c.366,1.072,11.324,32.67,46.963,37.672,4.332,.607,9.031,.818,14.113,.539,0,0-.669-7.041,6.043-8.343-27.991-11.628-20.249-22.958,3.923-6.688,0,0,.57-8.064,11.138-8.175,0,0-3.198-7.506-8.033-11.708"/><path class="cls-3" d="M1304.705,504.245c-8.25,9.372-18.873,18.229-46.641,19.295"/><path class="cls-3" d="M1327.329,520.193l-35.931,16.971s59.44,66.438,30.315,53.236c-2.609-1.184-4.996-1.618-7.177-1.463-13.481,.948-19.14,24.452-20.851,33.749-.372,2.027-.558,3.378-.601,3.669-.006,.043-.006,.062-.006,.062"/><path class="cls-3" d="M1243.945,522.995l.006,.006c4.556,4.723,6.713,9.589,6.006,14.64"/><path class="cls-3" d="M1164.931,535.912s-17.572,4.494-31.889-14.826c-2.665-3.583-5.213-7.989-7.512-13.394"/><path class="cls-3" d="M1096.225,381.132l-.006,.006c-.738,.341-47.007,21.52-66.618-20.163-3.124-6.638-3.713-22.183-.118-35.986,2.083-8.002,5.572-15.421,10.791-20.175,2.045-1.859,4.351-3.316,6.942-4.233,1.667-.595,3.378-1.078,4.804-2.132,4.19-3.087,3.428-4.779-1.903-5.194-2.777-.217-5.56,.44-7.94,1.89-2.541,1.543-4.94,3.328-7.171,5.349-17.2,15.576-18.39,40.443-12.471,58.046,3.688,10.965,10.58,20.429,19.592,27.47,7.605,5.938,16.716,10.153,26.695,12.068"/><path class="cls-3" d="M1096.907,389.543c-1.481-.477-5.987-2.895-.688-8.405"/><path class="cls-3" d="M1096.907,389.543c.143,.019,.285,.043,.428,.068,.037,.05-.136,.025-.428-.068Z"/><path class="cls-3" d="M1042.127,386.01s7.512,9.006,6.452,17.342c-1.06,8.33,3.558,24.842,7.332,27.668,0,0,.192-13.785,5.039-16.252,0,0,.533-10.983,6.824-15.681,.366-.273,.75-.552,1.165-.837,6.601-4.512,19.047-10.053,27.966-8.708"/><path class="cls-3" d="M1054.251,326.03c4.19,4.735,9.328,8.832,13.946,10.177,0,0-5.963,3.409-9.415,1.897l-2.392-2.963-.583,2.132s-3.514,1.078-5.95-3.942c-2.43-5.02-5.045-7.525-5.045-7.525,0,0-6.012-6.942-15.328-.818"/><path class="cls-3" d="M1046.057,308.359c-.006,.019-.019,.037-.025,.062-1.463,3.508,2.498,11.15,8.206,17.603"/><path class="cls-3" d="M1054.239,326.024s.006,0,.012,.006c.688,.26,24.991,9.378,20.528-14.07l-10.233,2.25,1.748-5.721s-1.593-2.944-6.304-3.421c-4.717-.471-4.283,9.427-12.105,4.518-.676-.421-1.289-.806-1.853-1.165-4.004-2.51-5.324-3.335-5.758-3.607l-.217-.136"/><path class="cls-3" d="M1121.042,547.372h.006c.564-.205,29.137-10.202,35.075,14.578q.006,.006,.006,.012"/><path class="cls-3" d="M1075.752,510.115l.012,.012c.775,.824,34.325,36.327,57.277,10.958"/><path class="cls-3" d="M1102.479,418.668s.019-.012,.05-.031c.043-.025,.099-.062,.18-.112,1.401-.911,8.522-5.888,.762-8.839h-.006"/><path class="cls-3" d="M1124.507,455.974c21.842-24.954-16.121-40.468-21.799-37.449-.068,.031-.124,.068-.18,.112"/><path class="cls-3" d="M1150.248,484.684s32.54-7.946,2.448-49.628"/><path class="cls-3" d="M1161.237,586.749s-15.092,56.67,22.4,97.522l.012,.012"/><path class="cls-3" d="M1202.43,672.525c6.688,6.273,15.663,13.599,27.545,22.158,.056,.043,.112,.081,.167,.124"/><path class="cls-3" d="M1197.602,635.596s-31.611,2.764,4.816,36.922"/><path class="cls-3" d="M1202.418,672.519s.006,0,.012,.006c.738,.539,36.612,26.416,89.947-.304"/><path class="cls-3" d="M1289.7,639.21s25.828-19.729,24.836-50.273"/></g></g><g><g><path class="cls-53" d="M1777.818,596.999c1.293,71.913-68.57,76.469-74.285,74.642-16.709,13.844-45.008,7.507-61.628,1.932l.005-.004c-55.675-21.423-60.713-65.368-60.811-66.277,0-.009-.004-.013-.004-.013,.711-49.931,24.046-28.43,24.046-28.43,.97,24.777,7.493,43.336,7.493,43.336,19.043,22.571,51.872,27.169,51.872,27.169,0,0,31.979,5.801,53.887-15.506,1.584,1.508,2.871,3.564,3.753,6.29,9.86,30.419,18.928-58.265,18.928-58.265l36.745,15.126Z"/><path class="cls-39" d="M1741.073,581.873s-9.068,88.684-18.928,58.265c-.883-2.726-2.169-4.782-3.753-6.29-9.781-9.325-30.965,2.324-38.989,7.322,33.93-23.105,47.739-65.427,48.302-70.091,.392-3.242-8.187-12.682-14.898-19.513,4.21-2.88,6.353-7.752,6.775-14.3,2.469,3.611,5.478,7.226,9.108,10.794,19.492,19.805,33.194,21.691,45.677,21.476,2.221,10.102,3.307,19.226,3.451,27.463l-36.745-15.126Z"/><path class="cls-42" d="M1718.392,633.848c-21.908,21.307-53.887,15.506-53.887,15.506,4.136-1.765,8.049-3.83,11.731-6.12,0,0,.014-.013,.05-.037,1.062-.657,2.098-1.333,3.117-2.027,8.024-4.998,29.207-16.647,38.989-7.322Z"/><path class="cls-53" d="M1649.68,526.208c.027-.008,.054-.024,.094-.044-2.033,3.538-4.138,8.056-6.201,13.936,0,0,33.971,48.833,16.912,87.985,0,0,55.001-15.222,44.59-84l-.02-.133s3.503,3.282,7.751,7.612c6.712,6.831,15.29,16.272,14.898,19.513-.563,4.664-14.372,46.985-48.302,70.091-1.749,1.09-2.872,1.863-3.117,2.027-.036,.025-.05,.037-.05,.037-3.682,2.291-7.595,4.355-11.731,6.12,0,0-32.829-4.599-51.872-27.169,0,0-6.523-18.559-7.493-43.336-.718-18.197,1.555-39.757,11.61-59.78,2.804-5.591,6.217-11.066,10.339-16.307,0,0,1.345-1.754,4.546-4.177,4.42-3.34,12.364-7.956,25.178-11.029,42.054-12.304,62.653-45.676,66.303-76.978,2.464-21.139-2.799-41.341-14.407-53.471l-.004-.005c-4.896-5.115-10.929-8.808-17.984-10.513,0,0-19.434-5.065-32.6,20.451,0,0-33.149,67.007,18.086,82.924-4.837,1.833-10.91,.902-18.21-4.201-2.656-1.856-4.931-3.984-6.866-6.338-22.965-27.877,1.474-86.812,1.474-86.812,.173-.334,.346-.66,.524-.98,9.56-17.392,24.328-18.624,24.328-18.624,0,0,20.158-20.182,49.347,19.835,.264,.372,.536,.744,.808,1.126,22.584,31.655,15.709,75.724,.272,105.171l-.005,.004c-2.782,5.311-5.845,10.149-9.063,14.348-.775,1.008-1.772,2.252-3.009,3.664,0,0-.009,.008-.014,.021-4.494,5.144-12.024,12.526-22.467,18.89-12.177,7.416-28.421,13.967-33.214,17.9-2.727,2.234-6.411,5.406-10.323,12.183-.05,.028-.085,.044-.108,.056Z"/><path class="cls-32" d="M1641.91,673.569l-.005,.004c-7.997-2.683-13.294-5.193-13.294-5.193-19.493-6.547-34.375-15.433-45.336-25.804-1.677-14.548-2.307-26.116-2.176-35.284,.098,.908,5.137,44.854,60.811,66.277Z"/><path class="cls-53" d="M1774.367,569.536c-12.484,.215-26.186-1.671-45.677-21.476,0,0,4.753-5.237,10.237-1.153-10.26-28.521,3.329-30.431,7.586-1.605,0,0,6.344-5.01,13.545,2.726,0,0,3.393-7.42,3.243-13.824,5.117,12.939,8.727,24.676,11.067,35.332Z"/><path class="cls-29" d="M1719.582,537.265c-20.309-29.711-4.336-59.094-3.789-60.087,.005-.013,.014-.021,.014-.021,1.237-1.412,2.234-2.656,3.009-3.664,3.218-4.199,6.281-9.036,9.063-14.348l.005-.004c8.264-6.952,20.505-4.867,20.505-4.867,0,0,10.06-11.432,10.772-30.765,0,0,6.375,1.787,5.973,7.253-.398,5.461-5.608,19.225-9.941,26.846,0,0,6.981,9.169,8.251,11.189,12.126,21.403-11.685,39.463-11.685,39.463,4.49,9.141,8.314,17.782,11.542,25.943,.15,6.404-3.243,13.824-3.243,13.824-7.201-7.736-13.545-2.726-13.545-2.726-4.257-28.826-17.846-26.916-7.586,1.605-5.483-4.085-10.237,1.153-10.237,1.153-3.63-3.569-6.638-7.183-9.108-10.794Zm9.238-39.203c.84,.71,20.139-7.67,14.719-22.781-3.139-8.754-7.144-2.429-7.144-2.429,0,0-8.42,24.495-7.575,25.21Z"/><path class="cls-52" d="M1705.076,544.086c10.41,68.778-44.59,84-44.59,84,17.058-39.152-16.912-87.985-16.912-87.985,2.063-5.88,4.168-10.398,6.201-13.936,2.268-1.128,35.03-16.662,55.302,17.922Zm-25.83,41.167c17.533-9.48,17.38-54.212-14.633-45.181,0,0,19.632,23.116,14.633,45.181Z"/><path class="cls-42" d="M1664.613,540.072c32.013-9.032,32.167,35.701,14.633,45.181,4.999-22.065-14.633-45.181-14.633-45.181Z"/><path class="cls-53" d="M1649.788,526.152c3.912-6.777,7.596-9.949,10.323-12.183,4.794-3.933,21.037-10.484,33.214-17.9,10.443-6.364,17.973-13.746,22.467-18.89-.546,.993-16.52,30.376,3.789,60.087-.422,6.548-2.566,11.42-6.775,14.3-4.248-4.33-7.751-7.612-7.751-7.612l.02,.133c-20.272-34.583-53.034-19.049-55.302-17.922l.014-.013Z"/><path class="cls-34" d="M1583.274,642.576c-12.874-12.176-20.34-26.395-23.516-41.262,4.94-55.228,56.991-82.245,56.991-82.245-10.055,20.023-12.327,41.583-11.61,59.78,0,0-23.335-21.502-24.046,28.43,0,0,.004,.005,.004,.013-.131,9.168,.499,20.736,2.176,35.284Z"/><path class="cls-54" d="M1743.539,475.28c5.419,15.112-13.879,23.492-14.719,22.781-.844-.715,7.575-25.21,7.575-25.21,0,0,4.005-6.325,7.144,2.429Z"/><path class="cls-46" d="M1763.901,411.44c-.04-1.02-.398-9.289-1.622-12.702-1.306-3.632-10.437-7.487-10.437-7.487,0,0,6.804,11.846,1.665,17.175,0,0,10.158-3.899,10.394,3.014Zm-.458,57.358c-1.271-2.02-8.251-11.189-8.251-11.189,4.333-7.622,9.543-21.385,9.941-26.846,.403-5.466-5.973-7.253-5.973-7.253-.713,19.333-10.772,30.765-10.772,30.765,0,0-12.241-2.086-20.505,4.867,15.437-29.448,22.312-73.517-.272-105.171-.272-.381-.544-.754-.808-1.126,96.359,51.416,36.64,115.954,36.64,115.954Z"/><path class="cls-42" d="M1763.901,411.44c-.237-6.912-10.394-3.014-10.394-3.014,5.139-5.329-1.665-17.175-1.665-17.175,0,0,9.131,3.855,10.437,7.487,1.224,3.413,1.582,11.683,1.622,12.702Z"/><path class="cls-32" d="M1676.208,449.965c3.506-1.325,6.363-4.088,8.578-7.767,0,0,27.791,18.699,38.33-31.619-3.65,31.302-24.249,64.674-66.303,76.978,0,0-15.157-9.961-10.522-33.556,.853-4.383,2.394-9.234,4.84-14.574,1.935,2.354,4.21,4.482,6.866,6.338,7.301,5.103,13.374,6.035,18.21,4.201Z"/><path class="cls-34" d="M1646.291,454c-4.635,23.596,10.522,33.556,10.522,33.556-12.814,3.073-20.758,7.689-25.178,11.029,14.316-21.08-12.32-35.465-12.851-35.744l-.004-.005c-.347-2.837-1.052-4.476-1.052-4.476-5.777-20.27-4.882-39.091-1.918-54.077-.087,1.128-3.729,49.84,30.481,49.716Z"/><path class="cls-47" d="M1559.759,601.314c-8.076-37.765,11.505-79.744,40.513-103.161,18.146-14.642,19.357-28.467,18.512-35.311,.531,.279,27.167,14.664,12.851,35.744-3.201,2.423-4.546,4.177-4.546,4.177-4.122,5.24-7.535,10.716-10.339,16.307,0,0-52.051,27.016-56.991,82.245Z"/><path class="cls-32" d="M1723.116,410.579c-10.539,50.318-38.33,31.619-38.33,31.619,5.885-9.774,7.189-25.965,3.881-38.364,33.156-.664,19.051-39.174,12.996-41.337,1.617,.422,10.093,2.333,7.046-5.39,11.608,12.13,16.87,32.333,14.407,53.471Z"/><path class="cls-52" d="M1701.459,362.44c.048,.015,.113,.032,.204,.058,6.055,2.163,20.16,40.672-12.996,41.337,3.308,12.399,2.004,28.59-3.881,38.364-2.215,3.679-5.072,6.442-8.578,7.767-51.235-15.917-18.086-82.924-18.086-82.924,13.166-25.517,32.6-20.451,32.6-20.451,7.055,1.705,13.087,5.398,17.984,10.513l.004,.005c3.046,7.723-5.429,5.812-7.046,5.39-.069-.03-.134-.046-.204-.058Z"/><path class="cls-34" d="M1651.131,439.426c-2.446,5.34-3.987,10.191-4.84,14.574-34.21,.124-30.569-48.588-30.481-49.716v-.018c4.065-20.551,12.029-33.897,12.029-33.897,0,0,18.463-9.472,25.29-18.737-.177,.321-.35,.646-.524,.98,0,0-24.439,58.935-1.474,86.812Z"/><path class="cls-42" d="M1743.654,239.758c-7.029-.655-14.863,1.763-22.18,5.614-12.624,6.641-23.717,17.546-26.519,24.327-17.599,42.571,29.221,62.504,29.97,62.819-7.642-.205-6.394,4.753-5.749,6.17-5.014-7.498-17.492-12.965-25.274-14.804l.049-.204c-5.306-8.666-8.328-18.239-9.062-27.86-.866-11.404,1.487-22.873,7.107-32.984,9.023-16.232,28.204-32.102,51.302-29.881,2.996,.288,5.931,.859,8.784,1.697,2.675,.782,5.035,2.397,6.745,4.595,3.284,4.219,2.546,5.923-2.557,4.905-1.739-.344-3.249-1.283-4.811-2.114-2.423-1.297-5.053-2.02-7.805-2.279Z"/><path class="cls-32" d="M1761.614,270.075c-14.324,19.092-23.956-5.012-24.227-5.696,0-.009-.004-.013-.004-.013,.924-8.565,3.905-16.64,7.483-17.922,.114,.659,.244,1.371,.387,2.155,1.641,9.088,8.664,2.1,11.493,5.903,2.82,3.803,1.717,6.964,1.717,6.964l-5.406,2.562,8.556,6.048Z"/><path class="cls-42" d="M1693.952,323.679l-.049,.204c-.49-.115-.955-.211-1.403-.298-7.71-1.485-16.187,5.519-16.187,5.519-5.088-1.921-15.406,7.222-15.406,7.222-.454-4.694,8.64-19.229,15.511-24.056,6.876-4.832,8.472-16.45,8.472-16.45,.734,9.621,3.756,19.194,9.062,27.86Z"/><path class="cls-32" d="M1739.259,281.542s-6.536-2.111-7.744-5.681l.578-3.764-1.968,1.006s-3.164-1.871-1.094-7.053c2.074-5.178,2.163-8.797,2.163-8.797,0,0,1.081-9.12-9.72-11.88,7.317-3.851,15.151-6.269,22.18-5.614,.091,.504,.371,2.035,1.212,6.686-3.578,1.282-6.559,9.357-7.483,17.922,0,0,.004,.005,.004,.013-.678,6.287-.245,12.844,1.871,17.163Z"/></g><g><path class="cls-3" d="M1708.705,357.103c-4.896-5.115-10.929-8.808-17.984-10.513,0,0-19.434-5.065-32.6,20.451,0,0-33.149,67.007,18.086,82.924,.005-.004,.009,0,.009,0"/><path class="cls-3" d="M1676.236,643.234c-3.682,2.291-7.595,4.355-11.731,6.12,0,0-32.829-4.599-51.872-27.169,0,0-6.523-18.559-7.493-43.336-.718-18.197,1.555-39.757,11.61-59.78,2.804-5.591,6.217-11.066,10.339-16.307,0,0,1.345-1.754,4.546-4.177,4.42-3.34,12.364-7.956,25.178-11.029,42.054-12.304,62.653-45.676,66.303-76.978,2.464-21.139-2.799-41.341-14.407-53.471"/><path class="cls-3" d="M1715.792,477.179c-4.494,5.144-12.024,12.526-22.467,18.89-12.177,7.416-28.421,13.967-33.214,17.9-2.727,2.234-6.411,5.406-10.323,12.183l-.014,.013c-2.033,3.538-4.138,8.056-6.201,13.936,0,0,33.971,48.833,16.912,87.985,0,0,55.001-15.222,44.59-84l-.02-.133s3.503,3.282,7.751,7.612c6.712,6.831,15.29,16.272,14.898,19.513-.563,4.664-14.372,46.985-48.302,70.091-1.019,.694-2.055,1.37-3.117,2.027"/><path class="cls-3" d="M1727.878,459.145c-2.782,5.311-5.845,10.149-9.063,14.348-.775,1.008-1.772,2.252-3.009,3.664"/><path class="cls-3" d="M1671.467,417.379c-.867,10.266-14.221,9.304-14.588-2.471,.191-9.793,2.23-16.187,4.832-20.371,5.424-8.725,18.239-8.319,23.435,.539,1.488,2.544,2.666,5.52,3.52,8.758,3.308,12.399,2.004,28.59-3.881,38.364-2.215,3.679-5.072,6.442-8.578,7.767-4.837,1.833-10.91,.902-18.21-4.201-2.656-1.856-4.931-3.984-6.866-6.338-22.965-27.877,1.474-86.812,1.474-86.812,.173-.334,.346-.66,.524-.98,9.56-17.392,24.328-18.624,24.328-18.624,0,0,20.158-20.182,49.347,19.835,.264,.372,.536,.744,.808,1.126,22.584,31.655,15.709,75.724,.272,105.171"/><path class="cls-3" d="M1649.68,526.208c.027-.008,.054-.024,.094-.044,2.268-1.128,35.03-16.662,55.302,17.922,.102,.167,.203,.343,.301,.514"/><path class="cls-3" d="M1649.793,526.148l-.005,.004c-.05,.028-.085,.044-.108,.056l-.009,.008c-.018,.008-.022,.012-.022,.012"/><path class="cls-3" d="M1664.613,540.072s19.632,23.116,14.633,45.181c17.533-9.48,17.38-54.212-14.633-45.181Z"/><path class="cls-3" d="M1615.811,404.267c4.064-20.551,12.028-33.897,12.028-33.897,0,0,18.463-9.472,25.29-18.737"/><path class="cls-3" d="M1618.78,462.837c-.347-2.837-1.052-4.476-1.052-4.476-5.777-20.27-4.882-39.091-1.918-54.077"/><path class="cls-3" d="M1726.79,352.839s.004,.005,.013,.005c96.359,51.416,36.64,115.954,36.64,115.954,12.126,21.403-11.685,39.463-11.685,39.463,4.49,9.141,8.314,17.782,11.542,25.943,5.117,12.939,8.727,24.676,11.067,35.332,2.221,10.102,3.307,19.226,3.451,27.463,1.293,71.913-68.57,76.469-74.285,74.642-16.709,13.844-45.008,7.507-61.628,1.932-7.997-2.683-13.294-5.193-13.294-5.193-19.493-6.547-34.375-15.433-45.336-25.804-12.874-12.176-20.34-26.395-23.516-41.262-8.076-37.765,11.505-79.744,40.513-103.161,18.146-14.642,19.357-28.467,18.512-35.311"/><path class="cls-3" d="M1763.901,411.44c-.237-6.912-10.394-3.014-10.394-3.014,5.139-5.329-1.665-17.175-1.665-17.175,0,0,9.131,3.855,10.437,7.487,1.224,3.413,1.582,11.683,1.622,12.702Z"/><path class="cls-3" d="M1763.901,411.44c.003,.031,.006,.07,.004,.105"/><path class="cls-3" d="M1727.878,459.145l.005-.004c8.264-6.952,20.505-4.867,20.505-4.867,0,0,10.06-11.432,10.772-30.765,0,0,6.375,1.787,5.973,7.253-.398,5.461-5.608,19.225-9.941,26.846,0,0,6.981,9.169,8.251,11.189"/><path class="cls-3" d="M1736.395,472.852s-8.42,24.495-7.575,25.21c.84,.71,20.139-7.67,14.719-22.781-3.139-8.754-7.144-2.429-7.144-2.429Z"/><path class="cls-3" d="M1715.807,477.157s-.009,.008-.014,.021c-.546,.993-16.52,30.376,3.789,60.087,2.469,3.611,5.478,7.226,9.108,10.794,0,0,4.753-5.237,10.237-1.153-10.26-28.521,3.329-30.431,7.586-1.605,0,0,6.344-5.01,13.545,2.726,0,0,3.393-7.42,3.243-13.824"/><path class="cls-3" d="M1774.367,569.536c-12.484,.215-26.186-1.671-45.677-21.476"/><path class="cls-3" d="M1777.818,596.999l-36.745-15.126s-9.068,88.684-18.928,58.265c-.883-2.726-2.169-4.782-3.753-6.29-9.781-9.325-30.965,2.324-38.989,7.322-1.749,1.09-2.872,1.863-3.117,2.027-.036,.025-.05,.037-.05,.037"/><path class="cls-3" d="M1719.582,537.256v.009c-.423,6.548-2.566,11.42-6.776,14.3"/><path class="cls-3" d="M1656.813,487.557s-15.157-9.961-10.522-33.556c.853-4.383,2.394-9.234,4.84-14.574"/><path class="cls-3" d="M1724.934,332.518h-.009c-.749-.316-47.568-20.248-29.97-62.82,2.802-6.78,13.895-17.686,26.519-24.327,7.317-3.851,15.151-6.269,22.18-5.614,2.752,.259,5.382,.982,7.805,2.279,1.563,.832,3.072,1.77,4.811,2.114,5.104,1.018,5.841-.686,2.557-4.905-1.71-2.198-4.07-3.813-6.745-4.595-2.852-.839-5.787-1.409-8.784-1.697-23.098-2.221-42.279,13.649-51.302,29.881-5.62,10.111-7.973,21.581-7.107,32.984,.734,9.621,3.756,19.194,9.062,27.86"/><path class="cls-3" d="M1719.177,338.687c-.645-1.416-1.894-6.375,5.749-6.17"/><path class="cls-3" d="M1719.177,338.687c.082,.118,.16,.24,.238,.362-.012,.061-.11-.084-.238-.362Z"/><path class="cls-3" d="M1684.89,295.82s-1.596,11.619-8.472,16.45c-6.871,4.828-15.965,19.363-15.511,24.056,0,0,10.318-9.143,15.406-7.222,0,0,8.477-7.004,16.187-5.519,.448,.087,.913,.183,1.403,.298,7.781,1.84,20.26,7.306,25.274,14.804"/><path class="cls-3" d="M1737.388,264.379c-.678,6.287-.245,12.844,1.871,17.163,0,0-6.536-2.111-7.744-5.681l.578-3.764-1.968,1.006s-3.164-1.871-1.094-7.053c2.074-5.178,2.163-8.797,2.163-8.797,0,0,1.081-9.12-9.72-11.88"/><path class="cls-3" d="M1744.929,246.42c-.018,.008-.04,.011-.063,.023-3.578,1.282-6.559,9.357-7.483,17.922"/><path class="cls-3" d="M1737.384,264.366s.004,.005,.004,.013c.271,.684,9.902,24.788,24.227,5.696l-8.556-6.048,5.406-2.562s1.103-3.16-1.717-6.964c-2.829-3.804-9.853,3.185-11.493-5.903-.144-.783-.273-1.496-.387-2.155-.842-4.65-1.122-6.181-1.212-6.686l-.045-.252"/><path class="cls-3" d="M1618.78,462.837l.004,.005c.531,.279,27.167,14.664,12.851,35.744q0,.009-.005,.013"/><path class="cls-3" d="M1615.811,404.267v.018c-.088,1.128-3.73,49.84,30.48,49.716"/><path class="cls-3" d="M1701.403,362.424s.022,.005,.056,.016c.048,.015,.113,.032,.204,.058,1.617,.422,10.093,2.333,7.046-5.39l-.004-.005"/><path class="cls-3" d="M1688.667,403.834c33.156-.664,19.051-39.174,12.996-41.337-.069-.03-.134-.046-.204-.058"/><path class="cls-3" d="M1684.786,442.198s27.791,18.699,38.33-31.619"/><path class="cls-3" d="M1616.75,519.069s-52.051,27.016-56.991,82.245v.018"/><path class="cls-3" d="M1581.099,607.292c-.131,9.168,.499,20.736,2.176,35.284,.006,.07,.016,.137,.021,.207"/><path class="cls-3" d="M1605.141,578.849s-23.335-21.502-24.046,28.43"/><path class="cls-3" d="M1581.095,607.279s.004,.005,.004,.013c.098,.908,5.137,44.854,60.811,66.277"/><path class="cls-3" d="M1664.505,649.354s31.979,5.801,53.887-15.506"/></g></g><polygon class="cls-16" points="992.464 785.965 487.653 951.825 88.473 1082.975 20.703 1105.245 1.893 1048.005 388.983 920.825 711.943 814.715 973.653 728.735 992.464 785.965"/><polygon class="cls-31" points="711.943 814.715 487.653 951.825 88.472 1082.975 388.983 920.825 711.943 814.715"/><polygon class="cls-25" points="388.983 920.825 88.472 1082.975 20.703 1105.245 1.892 1048.005 388.983 920.825"/><polygon class="cls-25" points="992.463 785.965 487.653 951.825 711.943 814.715 973.653 728.735 992.463 785.965"/><path class="cls-45" d="M1765.353,33.965c95.55-2.88,250.92-3.94,219.41,21.33-44.94,36.01-49.63,132.78-49.63,132.78-154.65-30.99-283.33-18.26-283.33-18.26l.91-12.21c-1.28-.62-2.64-1.17-4.07-1.65,0,0,6.66-90.38,116.71-121.98v-.01Z"/><path class="cls-38" d="M1946.793,595.525c-.55,1.52-1.11,3.03-1.68,4.55-42.31,114.15-115.71,236.47-115.71,236.47-33.92-4.51-95.08-6.57-169.2-7.09l-12.55-91.86,10.39-167.79c34.84-4.23,140.73,7.13,214.11,16.08,4.66,.57,9.19,1.13,13.57,1.67,35.84,4.46,61.07,7.97,61.07,7.97Z"/><path class="cls-37" d="M1765.353,33.965v.01c-110.05,31.6-116.71,121.98-116.71,121.98-6.1-2.07-13.33-2.86-20.21-3.01,3.82-46.14,16.49-74.07,29.75-90.9,17.8-22.65,36.69-25.29,36.69-25.29,0,0,29.82-1.55,70.48-2.79Z"/><path class="cls-38" d="M1001.763,760.705l-35.97-197.18,90.35-3.45,106.05-4.05,97.96-3.74,100.46-3.83,49.97-1.91,95.85-3.65,53.07-2.02,68.19-2.61,8.7-.33,22.72-.87-1.07,32.74-10.39,167.79,12.55,91.86c-248.72-1.73-643.34,14.05-643.34,14.05l-15.1-82.8Z"/><path class="cls-45" d="M1658.183,62.045c-13.26,16.83-25.93,44.76-29.75,90.9-13.4-.3-25.49,1.84-25.49,1.84-8.54-6.83-7.11,6.46-7.11,6.46-69.93-20.15-201.36-1.73-201.36-1.73-2.44-.97-4.87-1.89-7.3-2.77,2.53-7.76,5.57-14.92,9.04-19.25l-15.54-6.93s50.73-106.25,154.85-116.7c74.89,12.87,122.66,48.18,122.66,48.18Z"/><path class="cls-26" d="M1652.713,157.605l-.91,12.21-2.38,31.86-20.99-2.15-12.49,.37c-7.18-2.96-3.75-32.62-3.75-32.62,0,0-.69-5.64-9.25-12.49,0,0,12.09-2.14,25.49-1.84,6.88,.15,14.11,.94,20.21,3.01,1.43,.48,2.79,1.03,4.07,1.65Z"/><polygon class="cls-50" points="1636.393 537.925 1636.393 537.935 1627.693 538.265 1588.463 200.695 1597.103 200.445 1615.943 199.895 1628.433 199.525 1636.393 537.925"/><path class="cls-48" d="M1588.463,200.695l39.23,337.57-68.19,2.61v-.02l4.91-26.99-34.45-11.88-10.45-57.57c13.74,.38,25.93,1.61,32.86,4.32l24.83-161.67-30.91-17.34-50.06,3.3-12.59-69.29,104.82-3.04Z"/><path class="cls-44" d="M1615.943,199.895l-18.84,.55,4.69-37.34c-1.93-.65-3.92-1.28-5.96-1.86,0,0-1.43-13.29,7.11-6.46,8.56,6.85,9.25,12.49,9.25,12.49,0,0-3.43,29.66,3.75,32.62Z"/><path class="cls-49" d="M1588.463,200.695l-104.82,3.04-11.89,.35c-26.63-20.48-52.63-34.81-77.28-44.57,0,0,131.43-18.42,201.36,1.73,2.04,.58,4.03,1.21,5.96,1.86l-4.69,37.34-8.64,.25Z"/><polygon class="cls-38" points="1564.413 513.865 1559.503 540.855 1559.503 540.875 1506.433 542.895 1509.253 522.275 1512.573 495.985 1529.963 501.985 1564.413 513.865"/><path class="cls-43" d="M1444.503,447.385s42.01-3.91,75.01-2.97l10.45,57.57-17.39-6-3.32,26.29c-19.1-8.35-47.89-2.95-47.89-2.95-25.56,1.57-53.26,4.38-53.26,4.38l-30.09-277.69h10.03c6.39-20.87,9.32-33.58,8.51-39.75l75.2-2.18,11.89-.35,12.59,69.29-79.38,5.23,27.65,169.13Z"/><path class="cls-38" d="M1509.253,522.275l-2.82,20.62-95.85,3.65-2.48-22.84s27.7-2.81,53.26-4.38c0,0,28.79-5.4,47.89,2.95Z"/><path class="cls-37" d="M1388.903,23.115c54.9-16.65,104.97-16.42,146.62-9.25-104.12,10.45-154.85,116.7-154.85,116.7l-22.45-10.02c-5.67-18.89,30.68-97.43,30.68-97.43Z"/><path class="cls-44" d="M1471.753,204.085l-75.2,2.18c-.72-5.58-4.49-5.82-11.5-1.92l-6.4-11.54s3.1-19.4,8.52-36.06c2.43,.88,4.86,1.8,7.3,2.77,24.65,9.76,50.65,24.09,77.28,44.57Z"/><polygon class="cls-38" points="1408.103 523.705 1410.583 546.545 1360.613 548.455 1349.013 246.015 1378.013 246.015 1408.103 523.705"/><path class="cls-38" d="M1396.553,206.265c.81,6.17-2.12,18.88-8.51,39.75h-39.03l3.73-32.55-8.42-12.06c12.14,1.17,24.64,2.89,37.29,5.3l3.51-.1,11.43-.34Z"/><path class="cls-26" d="M1396.553,206.265l-11.43,.34-.07-2.26c7.01-3.9,10.78-3.66,11.5,1.92Z"/><path class="cls-26" d="M1385.053,204.345l.07,2.26-3.51,.1c-12.65-2.41-25.15-4.13-37.29-5.3l-1.52-2.19c-6.93-4.44-3.26-32.16,.96-54.23,13.83,2.48,28.35,6.27,43.41,11.76-5.42,16.66-8.52,36.06-8.52,36.06l6.4,11.54Z"/><path class="cls-45" d="M1349.483,12.095c24.54,5.56,39.42,11.02,39.42,11.02,0,0-36.35,78.54-30.68,97.43l-8.32-3.7s-3.21,12.69-6.14,28.14c-10.1-1.82-19.82-2.94-29.12-3.5,1.34-12.97,2.49-22.8,2.49-22.8,0,0-.38-2.21-6.61-4.49-.44-97.73,38.07-102.01,38.95-102.1h.01Z"/><path class="cls-35" d="M1349.013,246.015l11.6,302.44-100.46,3.83-7.08-83.22h60.73l-7.95-21.68v-181.19l-61.69,3.49-3.87-67.16c8.93-1.02,19.52-1.98,31.36-2.6,.33,40.17,18,30.57,18,30.57,0,0-3.33,20.73,4.08,23.26l31.8-14.43s-11.43-19.25-14.25-39.93c10.57,.26,21.65,.9,33.04,2.01l8.42,12.06-3.73,32.55Z"/><path class="cls-44" d="M1342.803,199.215l1.52,2.19c-11.39-1.11-22.47-1.75-33.04-2.01-.53-3.78-.76-7.61-.58-11.38,.63-12.98,2.41-31.78,3.94-46.53,9.3,.56,19.02,1.68,29.12,3.5-4.22,22.07-7.89,49.79-.96,54.23Z"/><path class="cls-37" d="M1349.473,12.095c-.88,.09-39.39,4.37-38.95,102.1-5.69-2.08-16.23-4.21-35.82-4.79,0,0-4.85-95.19,8.27-107.48,25.9,2.07,48.73,6.15,66.5,10.17Z"/><path class="cls-38" d="M1325.533,239.325l-31.8,14.43c-7.41-2.53-4.08-23.26-4.08-23.26,0,0-17.67,9.6-18-30.57,12.04-.64,25.39-.91,39.63-.53,2.82,20.68,14.25,39.93,14.25,39.93Z"/><path class="cls-24" d="M1147.473,463.395c-30.65-2.12-64.56,8.6-64.56,8.6l-18.23-12.46s10-5.33,25.38-10.38c20.82-6.85,51.49-13.18,80.41-5.02,50.26,14.19,135.38,3.25,135.38,3.25l7.95,21.68h-141.35c-7.44-3.36-16.07-5.06-24.98-5.67Z"/><path class="cls-26" d="M1314.643,141.485c-1.53,14.75-3.31,33.55-3.94,46.53-.18,3.77,.05,7.6,.58,11.38-14.24-.38-27.59-.11-39.63,.53-.03-2.17,0-4.5,.09-6.98,.94-26.47-2.35-41.47-5.52-49.6,14.23-1.99,30.52-2.96,48.42-1.86Z"/><path class="cls-45" d="M1274.703,109.405l-13.59,25.19s2.51,2.07,5.11,8.75c-37.98,5.29-61.25,17.82-61.25,17.82l-1.84-18.97-11.58,8.05,1.11,9.38c-.79-.22-1.66-.46-2.6-.71l-.33-.09c-24-6.63-111.57-27.08-187.81,4.1-3.16,1.28-6.3,2.67-9.42,4.14,0,0-51.79-56.91,111.16-135.7C1164.873,1.765,1230.263-2.285,1282.973,1.925c-13.12,12.29-8.27,107.48-8.27,107.48Z"/><path class="cls-49" d="M1266.223,143.345c3.17,8.13,6.46,23.13,5.52,49.6-.09,2.48-.12,4.81-.09,6.98-11.84,.62-22.43,1.58-31.36,2.6-19.27,2.21-30.86,4.7-30.86,4.7l-4.46-46.06s23.27-12.53,61.25-17.82Z"/><path class="cls-23" d="M1253.073,469.065l7.08,83.22-97.96,3.74-14.72-92.63c8.91,.61,17.54,2.31,24.98,5.67h80.62Z"/><path class="cls-43" d="M1240.293,202.525l3.87,67.16-115.43,6.52-.03-.61-12.62-70.14c18.24-3.25,33.49-5.41,40.35-4.62l40.03,2.7,.01-.23,1.36,.08,.65,5.49,10.95-1.65s11.59-2.49,30.86-4.7Z"/><path class="cls-51" d="M1204.973,161.165l4.46,46.06-10.95,1.65-.65-5.49-.97-8.22-3.99-33.83s.32-.47-.13-1.06l-.08-.65-1.11-9.38,11.58-8.05,1.84,18.97Z"/><polygon class="cls-43" points="1196.863 195.165 1197.833 203.385 1196.473 203.305 1196.863 195.165"/><path class="cls-44" d="M1192.743,160.275l4.12,34.89-.39,8.14-40.04-2.47c-6.86-.79-22.11,1.37-40.35,4.62-45.31,8.06-109.11,22.82-108.86,15.58,.36-10.16-15.71-53.5-14.72-53.97,3.12-1.47,6.26-2.86,9.42-4.14,73.9-30.09,160.44-11.37,187.81-4.1l.33,.09c1.59,.43,2.34,.93,2.68,1.36Z"/><polygon class="cls-44" points="1196.473 203.305 1196.463 203.535 1156.433 200.835 1196.473 203.305"/><path class="cls-44" d="M1192.663,159.625l.08,.65c-.34-.43-1.09-.93-2.68-1.36,.94,.25,1.81,.49,2.6,.71Z"/><path class="cls-35" d="M1147.473,463.395l14.72,92.63-106.05,4.05-16.52-49.51s-22.04-121.67-30.97-208.73c-3.86-37.57-5.27-68.68-1.43-80.8-.25,7.24,63.55-7.52,108.86-15.58l12.62,70.14,.03,.61-82.15,4.64-13.52,.76,31.62,177.93,18.23,12.46s33.91-10.72,64.56-8.6Z"/><path class="cls-45" d="M1001.923,162.925c76.24-31.18,163.81-10.73,187.81-4.1-27.37-7.27-113.91-25.99-187.81,4.1Z"/><path class="cls-38" d="M1046.583,281.221l43.48,168.31c-15.38,5.05-25.38,10.38-25.38,10.38l-31.62-177.93,13.52-.76Z"/><path class="cls-30" d="M1039.623,456.994l16.52,49.51-90.35,3.45,35.97,197.18-51.75,21.6-85.18-509.2c8.43-19.88,22.85-26.88,39.39-26.52,.82,.01,1.67,.05,2.5,.1l-.15,2.76,33.95,138.28,48.44-3.6-4.08-101.33c14.26,10.43,23.76,19.04,23.76,19.04h.01c8.93,87.06,30.97,208.73,30.97,208.73Z"/><path class="cls-33" d="M984.883,229.224l4.08,101.33-48.44,3.6-33.95-138.28,.15-2.76c26.27,1.69,57.31,20.84,78.16,36.11Z"/><polygon class="cls-28" points="864.833 219.534 950.013 728.734 924.393 738.674 836.823 223.194 864.833 219.534"/><path class="cls-41" d="M904.223,193.014c-16.54-.36-30.96,6.64-39.39,26.52l-28.01,3.66s15.78-39.66,67.4-30.18Z"/><g><path class="cls-40" d="M1829.403,837.045c-.021,0-.044,0-.065-.004-31.085-4.133-87.991-6.518-169.139-7.086-.275-.002-.498-.228-.496-.504,.002-.274,.226-.496,.5-.496h.004c80.905,.567,137.739,2.939,168.936,7.051,3.959-6.642,74.667-125.936,115.503-236.104,.496-1.326,.984-2.644,1.467-3.966-4.076-.562-28.068-3.855-60.451-7.885l-2.445-.302c-3.615-.445-7.326-.903-11.123-1.368-78.841-9.614-179.962-20.207-213.989-16.08-.279,.038-.523-.162-.557-.436-.033-.274,.162-.523,.436-.557,34.128-4.147,135.336,6.458,214.231,16.08,3.799,.465,7.51,.922,11.123,1.368l2.447,.302c35.436,4.409,60.826,7.937,61.078,7.972,.15,.021,.281,.107,.359,.237,.078,.129,.094,.286,.043,.428-.553,1.521-1.113,3.033-1.682,4.555-41.842,112.886-115.017,235.328-115.751,236.552-.091,.152-.255,.243-.429,.243Z"/><path d="M1016.863,844.005c-.24,0-.448-.172-.492-.41l-15.1-82.8c-.049-.271,.131-.532,.402-.582,.265-.04,.532,.131,.582,.402l15.021,82.373c15.201-.602,400.693-15.712,642.93-14.033,.275,.002,.498,.228,.496,.504-.002,.274-.226,.496-.5,.496h-.004c-245.846-1.714-639.37,13.892-643.316,14.05h-.02Z"/><path d="M1658.043,570.305h-.017c-.275-.01-.492-.24-.483-.517l1.053-32.202-22.183,.85c-.314,.029-.509-.206-.52-.48-.01-.276,.205-.509,.48-.52l22.72-.87c.165-.012,.274,.048,.372,.146,.099,.098,.151,.232,.147,.371l-1.07,32.739c-.009,.271-.231,.483-.5,.483Z"/><path d="M1410.583,547.045c-.268,0-.489-.212-.5-.481-.01-.275,.205-.508,.481-.519l148.92-5.67c.28,.004,.508,.207,.519,.481,.01,.275-.205,.508-.481,.519l-148.92,5.67h-.019Z"/><path d="M1559.503,541.375c-.268,0-.489-.212-.5-.48-.01-.276,.205-.509,.48-.52l76.892-2.939c.271,.026,.508,.206,.519,.481,.01,.275-.205,.508-.481,.519l-76.89,2.939h-.02Z"/><path d="M1360.613,548.955c-.268,0-.489-.212-.5-.48-.01-.276,.205-.509,.48-.52l49.97-1.91c.314-.015,.509,.206,.52,.48,.01,.276-.205,.509-.48,.52l-49.97,1.91h-.02Z"/><path d="M1056.143,560.575c-.268,0-.489-.212-.5-.48-.01-.276,.205-.509,.48-.52l304.47-11.62h.02c.268,0,.489,.212,.5,.48,.01,.276-.205,.509-.481,.52l-304.469,11.62h-.02Z"/><polygon points="1659.708 829.522 1647.158 737.662 1657.544 569.773 1658.542 569.836 1648.152 737.626 1660.698 829.388 1659.708 829.522"/><path d="M1055.669,560.233l-16.521-49.51c-.238-1.286-22.163-122.754-30.992-208.838-4.399-42.814-4.873-70.067-1.409-81.002l.953,.303c-3.423,10.803-2.935,37.92,1.45,80.598,8.826,86.046,30.744,207.476,30.965,208.692l16.503,49.44-.949,.316Z"/><polygon points="1635.893 537.936 1627.945 200.04 1588.478 201.195 1381.628 207.205 1381.598 206.205 1483.629 203.235 1628.922 199.011 1628.933 199.513 1636.893 537.913 1635.893 537.936"/><polygon points="1872.653 585.893 1871.653 585.876 1873.335 490.214 1933.118 231.114 1929.212 230.712 1649.373 202.172 1628.383 200.022 1628.484 199.028 1649.474 201.178 1929.313 229.718 1934.348 230.235 1934.22 230.787 1874.331 490.337 1872.653 585.893"/><path d="M1064.311,460.3l-31.839-179.162,14.082-.792,.057,.998-12.957,.729,31.403,176.706c2.401-1.221,11.724-5.789,24.85-10.099,20.748-6.827,51.595-13.24,80.702-5.027,49.584,14.001,134.33,3.346,135.181,3.235l.127,.992c-.853,.109-85.796,10.789-135.579-3.265-28.869-8.146-59.502-1.769-80.118,5.014-15.157,4.977-25.201,10.293-25.301,10.347l-.607,.323Z"/><path d="M1082.832,472.545l-.201-.137-18.229-12.46,.564-.826,18.03,12.324c3.068-.938,35.451-10.561,64.512-8.55,9.73,.666,18.158,2.573,25.053,5.669h140.527l-7.704-21.009,.939-.344,8.196,22.353-142.272-.044c-6.804-3.073-15.15-4.967-24.808-5.627-30.195-2.091-64.037,8.471-64.376,8.577l-.231,.073Z"/><rect x="1067.823" y="278.082" width="1" height="173.836" transform="translate(-57.337 278.814) rotate(-14.485)"/><path d="M1552.772,449.429l-.581-.228c-6.176-2.415-17.175-3.857-32.691-4.286-32.586-.928-74.531,2.929-74.951,2.968l-.464,.043-27.813-170.134,130.137-8.576,.13,.072,31.212,17.511-24.978,162.63Zm-44.029-5.658c3.663,0,7.275,.045,10.785,.145,15.159,.419,26.068,1.81,32.444,4.135l24.684-160.718-30.479-17.099-128.742,8.484,27.485,168.127c4.163-.372,35.348-3.074,63.822-3.074Z"/><rect x="1412.663" y="446.885" width="31.84" height="1"/><polygon points="1947.284 595.624 1946.303 595.427 1957.942 537.521 1900.352 533.215 1886.208 587.68 1885.239 587.429 1899.595 532.156 1900.011 532.186 1959.145 536.609 1947.284 595.624"/><path d="M1945.335,600.528l-.422-.906c11.705-5.476,17.664-10.627,17.232-14.896-.559-5.528-11.43-8.208-11.539-8.234l.234-.973c.477,.114,11.67,2.875,12.299,9.105,.486,4.799-5.504,10.149-17.805,15.904Z"/><path d="M1013.347,223.44c-3.046,0-5.123-.338-6.012-1.097-.418-.356-.63-.815-.612-1.326,.228-6.428-6.361-26.784-10.722-40.255-4.465-13.792-4.379-13.833-3.714-14.149,3.256-1.534,6.434-2.931,9.448-4.152,75.947-31.062,163.197-11.006,188.13-4.118l.329,.09c1.459,.395,2.449,.91,2.94,1.533,.437,.571,.39,1.122,.252,1.46l3.972,33.681-.992,.117-4.013-34.016,.105-.154c.018-.033,.089-.209-.114-.475-.239-.304-.857-.761-2.413-1.182l-.331-.09c-24.855-6.865-111.826-26.864-187.488,4.08-2.92,1.183-5.994,2.531-9.143,4.01,.17,1.278,2.025,7.01,3.982,13.057,4.382,13.538,11.004,33.995,10.771,40.599-.005,.139,.021,.324,.262,.53,4.027,3.438,38.842-3.342,72.509-9.896,11.983-2.333,24.374-4.745,35.501-6.725,21.604-3.85,34.468-5.316,40.496-4.625l41.371,2.548-.059,.998-1.359-.08-40.042-2.47c-5.95-.685-18.726,.781-40.231,4.613-11.12,1.979-23.507,4.39-35.485,6.722-28.289,5.507-55.328,10.771-67.338,10.771Z"/><path d="M1198.048,209.446l-7.026-59.44,12.527-8.708,6.428,66.351-11.929,1.798Zm-5.962-58.962l6.833,57.819,9.972-1.503-6.172-63.708-10.633,7.392Z"/><path d="M1293.76,254.292l-.188-.063c-6.895-2.354-5.105-18.803-4.544-22.912-1.562,.592-5.005,1.449-8.513-.616-6.074-3.579-9.224-13.932-9.362-30.771-.03-2.161,0-4.518,.09-7.002,.951-26.763-2.458-41.636-5.485-49.4-2.507-6.439-4.939-8.526-4.964-8.547l-.312-.262,.191-.36,13.736-25.461,.309,.009c16.456,.487,28.561,2.109,35.978,4.82,6.318,2.312,6.888,4.619,6.932,4.875l.012,.071-.008,.072c-.012,.098-1.166,9.974-2.49,22.793-1.441,13.894-3.295,33.238-3.938,46.502-.169,3.557,.024,7.354,.576,11.287,2.774,20.346,14.071,39.552,14.185,39.744l.285,.479-32.488,14.742Zm-3.453-24.717l-.159,.999c-.033,.201-3.125,19.987,3.566,22.641l31.111-14.117c-1.772-3.124-11.481-20.896-14.037-39.635-.561-3.992-.757-7.853-.584-11.472,.645-13.287,2.499-32.651,3.942-46.558,1.254-12.14,2.355-21.643,2.479-22.707-.118-.306-1.02-2.139-6.274-4.062-7.27-2.657-19.164-4.256-35.354-4.751l-13.262,24.581c.762,.773,2.83,3.213,4.954,8.668,3.062,7.853,6.511,22.865,5.554,49.8-.09,2.468-.12,4.808-.09,6.955,.168,20.493,4.909,27.578,8.857,29.913,4.159,2.46,8.364,.248,8.404,.225l.892-.48Z"/><path d="M1388.413,246.514h-39.96l3.771-32.919-9.776-14.017c-7.05-4.756-3.45-32.337,.824-54.688,2.898-15.287,6.114-28.042,6.146-28.17l.146-.575,47.444,21.156-.404,.505c-3.056,3.812-6.068,10.235-8.955,19.093-5.079,15.609-8.154,33.863-8.475,35.813l6.074,10.953c4.359-2.364,7.314-3.004,9.271-2.019,1.397,.706,2.226,2.194,2.53,4.552,.779,5.942-1.771,17.894-8.528,39.961l-.108,.354Zm-38.839-1h38.099c6.633-21.696,9.141-33.424,8.385-39.185h0c-.259-2.005-.909-3.244-1.988-3.788-1.675-.847-4.544-.113-8.772,2.239l-.438,.244-6.727-12.129,.026-.171c.031-.194,3.168-19.629,8.539-36.135,2.801-8.594,5.735-14.946,8.729-18.899l-45.183-20.147c-.656,2.652-3.444,14.115-5.989,27.534-5.984,31.294-6.404,50.37-1.182,53.716l.142,.136,10.047,14.404-3.688,32.181Z"/><path d="M1471.448,204.481c-24.81-19.08-50.77-34.053-77.159-44.502-2.369-.941-4.82-1.871-7.285-2.765-14.219-5.183-28.797-9.132-43.328-11.737-9.643-1.737-19.42-2.913-29.062-3.493-16.15-.992-32.409-.368-48.32,1.855-37.459,5.218-60.851,17.641-61.082,17.766l-.475-.881c.233-.126,23.784-12.633,61.418-17.875,15.977-2.234,32.302-2.861,48.52-1.863,9.681,.582,19.498,1.763,29.179,3.507,14.588,2.615,29.221,6.579,43.492,11.782,2.475,.896,4.936,1.829,7.313,2.774,26.476,10.483,52.517,25.503,77.399,44.639l-.609,.793Z"/><path d="M1209.538,207.714l-.21-.979c.116-.024,11.835-2.52,30.908-4.707,10.281-1.175,20.843-2.051,31.391-2.603,13.215-.703,26.559-.881,39.67-.53,11.033,.271,22.162,.948,33.075,2.012,12.734,1.228,25.296,3.013,37.335,5.307l-.188,.982c-12.009-2.288-24.539-4.069-37.244-5.293-10.89-1.062-21.993-1.737-33.005-2.008-13.082-.351-26.4-.173-39.591,.528-10.528,.552-21.069,1.426-31.33,2.599-19.02,2.181-30.695,4.666-30.812,4.691Z"/><path d="M1597.599,200.508l-.992-.125,4.639-36.934c-1.959-.654-3.778-1.22-5.55-1.724-69.03-19.889-199.841-1.899-201.153-1.716l-.139-.99c1.313-.186,132.333-18.203,201.567,1.745,1.901,.541,3.858,1.151,5.981,1.867l.387,.131-4.74,37.745Z"/><path d="M1615.753,200.357c-7.339-3.025-4.287-31.104-4.064-33.071-.101-.576-1.223-5.841-9.058-12.11-1.414-1.131-3.367-2.329-4.643-1.631-1.919,1.052-1.848,5.877-1.658,7.646l-.994,.107c-.077-.72-.674-7.07,2.171-8.631,1.411-.771,3.346-.194,5.749,1.727,8.619,6.897,9.404,12.581,9.434,12.82l.008,.059-.007,.06c-.942,8.146-2.158,29.791,3.443,32.101l-.381,.924Z"/><path d="M1649.923,201.712l-.998-.074,3.265-43.729c-1.159-.545-2.403-1.043-3.705-1.48-5.323-1.807-12.073-2.81-20.062-2.983-13.185-.296-25.271,1.811-25.393,1.832l-.174-.984c.121-.022,12.31-2.141,25.588-1.848,8.091,.176,14.941,1.197,20.36,3.036,1.455,.489,2.844,1.053,4.127,1.674l.306,.148-.935,12.549-2.38,31.859Z"/><path d="M1929.032,230.658c-2.104-1.095-3.488-3.216-4.121-6.303-2.193-10.735,5.193-30.095,9.342-35.946-152.457-30.422-281.116-18.224-282.4-18.097l-.098-.995c1.289-.127,130.522-12.383,283.477,18.268l.816,.164-.527,.644c-3.822,4.658-11.818,25.056-9.629,35.763,.568,2.777,1.779,4.667,3.602,5.616l-.461,.887Z"/><path d="M1935.634,188.099l-1-.049c.047-.97,5.217-97.409,49.816-133.146,3.234-2.593,4.494-4.938,3.744-6.97-4.744-12.874-83.873-17.659-222.826-13.47-40.188,1.226-70.171,2.773-70.469,2.789-.144,.022-18.869,2.892-36.322,25.1-16.418,20.839-26.392,51.332-29.646,90.633l-.996-.082c3.27-39.5,13.314-70.174,29.855-91.169,17.719-22.546,36.822-25.449,37.013-25.476,.342-.02,30.334-1.568,70.534-2.795,98.624-2.972,217.511-2.935,223.796,14.124,.914,2.479-.451,5.204-4.059,8.096-44.248,35.456-49.395,131.449-49.441,132.415Z"/><path d="M1357.745,120.688c-5.66-18.854,29.217-94.569,30.704-97.783l.095-.203,.214-.065c48.212-14.623,97.62-17.741,146.851-9.265,74.148,12.743,122.394,47.917,122.872,48.271l-.594,.805c-.478-.353-48.545-35.389-122.448-48.089-49.001-8.438-98.18-5.351-146.175,9.17-2.046,4.456-35.973,78.845-30.562,96.873l-.957,.287Z"/><path d="M1388.731,23.585c-.148-.055-15.137-5.514-39.358-11.003l.221-.975c24.291,5.504,39.333,10.983,39.481,11.038l-.344,.939Z"/><path d="M992.133,167.402c-.11-.122-11.059-12.442-7.066-33.086,4.493-23.231,28.679-60.029,118.379-103.401,51.616-24.962,112.032-34.883,179.568-29.488,22.127,1.769,44.524,5.193,66.57,10.181l-.221,.975c-22-4.976-44.35-8.394-66.43-10.159-67.357-5.379-127.6,4.509-179.053,29.393-89.295,43.176-113.36,79.656-117.825,102.656-3.912,20.151,6.71,32.139,6.817,32.258l-.74,.673Z"/><path d="M1274.204,109.43c-.199-3.896-4.711-95.563,8.428-107.871l.684,.73c-12.803,11.992-8.161,106.141-8.113,107.09l-.998,.051Z"/><path d="M1310.023,114.197c-.438-97.368,37.772-102.432,39.398-102.6l.062,.997h-.01c-1.539,.161-38.885,5.126-38.45,101.599l-1,.004Z"/><path d="M1381.125,130.781l-.902-.432c.127-.266,13.009-26.949,38.463-54.555,23.505-25.49,62.847-57.014,116.788-62.427l.09,.497v.5c-53.607,5.379-92.737,36.731-116.122,62.085-25.359,27.496-38.189,54.065-38.316,54.331Z"/><path d="M1649.142,155.992l-.998-.074c.018-.227,1.851-23.014,17.153-49.354,14.116-24.299,42.909-56.699,99.918-73.069l.275,.961c-56.663,16.271-85.277,48.443-99.304,72.567-15.203,26.147-17.028,48.744-17.045,48.97Z"/><rect x="1354.313" y="245.903" width="1.001" height="302.663" transform="translate(-14.229 52.215) rotate(-2.196)"/><polygon points="1410.086 546.598 1407.606 523.759 1377.516 246.068 1378.511 245.961 1408.6 523.651 1411.08 546.491 1410.086 546.598"/><path d="M1506.928,542.963l-.99-.135,2.768-20.244c-18.74-7.977-46.965-2.82-47.251-2.768-25.318,1.56-53.024,4.358-53.301,4.386l-.102-.994c.277-.028,28.003-2.829,53.28-4.382,.228-.047,29.102-5.323,48.12,2.991l.347,.151-2.871,20.994Z"/><polygon points="1559.995 540.945 1559.011 540.765 1563.845 514.198 1512.992 496.659 1509.749 522.338 1508.757 522.213 1512.154 495.311 1564.981 513.532 1559.995 540.945"/><path d="M949.625,729.032l-.104-.622-85.205-509.344,.058-.134c7.554-17.812,20.556-26.837,38.653-26.837,.401,0,.803,.004,1.208,.013,.822,.01,1.682,.05,2.52,.101,26.268,1.69,57.146,20.622,78.426,36.206,14.117,10.325,23.704,18.986,23.8,19.073l-.672,.74c-.095-.086-9.646-8.714-23.719-19.007-21.172-15.505-51.872-34.34-77.897-36.015-.82-.049-1.662-.089-2.474-.099-18.221-.42-31.313,8.377-38.867,26.081l85.052,508.435,51.283-21.392,.236,.971-52.297,21.829Z"/><polygon points="940.138 333.228 940.038 332.817 906.088 194.538 907.058 194.3 940.908 332.168 988.444 328.636 984.333 226.427 985.333 226.389 985.384 227.75 989.482 329.561 940.138 333.228"/><polygon points="924.003 739.361 836.243 222.765 864.768 219.038 864.897 220.03 837.403 223.623 924.784 737.986 949.833 728.268 950.194 729.2 924.003 739.361"/><path d="M837.288,223.379l-.93-.369c.159-.401,16.527-39.924,67.955-30.488l-.18,.984c-26.45-4.858-43.208,3.516-52.609,11.396-10.198,8.548-14.197,18.38-14.236,18.478Z"/><rect x="1121.893" y="204.892" width="1" height="71.266" transform="translate(-24.855 202.56) rotate(-10.2)"/><polygon points="1161.699 556.103 1146.929 463.139 1147.918 462.991 1147.968 463.321 1162.687 555.947 1161.699 556.103"/><polygon points="1259.665 552.439 1259.655 552.329 1252.575 469.107 1253.571 469.023 1260.661 552.351 1259.665 552.439"/><polygon points="1243.704 270.462 1243.664 269.712 1239.794 202.554 1240.792 202.497 1244.702 270.409 1243.704 270.462"/><rect x="1489.438" y="203.168" width="1.001" height="70.425" transform="translate(-18.614 270.197) rotate(-10.298)"/><polygon points="1627.336 539.532 1627.196 538.322 1587.816 199.463 1588.81 199.347 1588.961 200.638 1628.33 539.417 1627.336 539.532"/><path d="M1529.963,502.485c-.236,0-.447-.169-.491-.411l-10.45-57.57c-.049-.271,.131-.531,.403-.581,.254-.042,.531,.13,.581,.403l10.45,57.57c.049,.271-.131,.531-.403,.581-.029,.005-.06,.008-.09,.008Z"/></g><g><path class="cls-22" d="M1754.073,795.075c105.71,0,191.41,85.7,191.41,191.41s-85.7,191.41-191.41,191.41-191.41-85.69-191.41-191.41,85.69-191.41,191.41-191.41Zm137.39,267.33c75.37-121.63-56.69-200.38-56.69-200.38l-85.69,135.98,142.38,64.4Zm-20.58,24.69l-125.38-79.12,28.3,142.12c87.04-16.13,97.08-63,97.08-63Zm-127.92-101.19l56.69-132.46s-54.91-7.25-96.48,9.39l39.79,123.07Zm6.12,164.19l-13.42-140.2-106.43,67.31c35.31,64.24,119.85,72.89,119.85,72.89Zm-15.71-152.52l-50.43-121.24c-102.68,43.38-67.93,162.52-67.93,162.52l118.36-41.28Z"/><g><circle class="cls-3" cx="1754.073" cy="986.485" r="191.41"/><path class="cls-3" d="M1834.773,862.025s132.06,78.75,56.69,200.38l-142.38-64.4,85.69-135.98Z"/><path class="cls-3" d="M1745.503,1007.975l125.38,79.12s-10.04,46.87-97.08,63l-28.3-142.12Z"/><path class="cls-3" d="M1749.083,1150.095s-84.54-8.65-119.85-72.89l106.43-67.31,13.42,140.2Z"/><path class="cls-3" d="M1733.373,997.575l-118.36,41.28s-34.75-119.14,67.93-162.52l50.43,121.24Z"/><path class="cls-3" d="M1742.963,985.905l56.69-132.46s-54.91-7.25-96.48,9.39l39.79,123.07Z"/></g></g><line class="cls-3" x1="989.934" y1="669.031" x2="1362.408" y2="666.251"/><line class="cls-3" x1="1457.02" y1="770.66" x2="1651.188" y2="769.211"/><line class="cls-3" x1="1256.618" y1="608.957" x2="1652.752" y2="607.695"/><polygon class="cls-13" points="965.061 509.627 1008.11 509.627 1070.222 788.59 1016.867 789.935 965.061 509.627"/><path class="cls-2" d="M1484.303,877.327c-32.155-127.992-161.989-205.69-289.991-173.533-128.002,32.157-205.7,161.992-173.545,289.984,32.157,128.002,161.992,205.699,289.994,173.542,128.002-32.157,205.699-161.992,173.542-289.993Zm-168.814,240.191l-76.512-161.403,173.646,56.937s2.076,59.033-97.134,104.466Zm114.313-140.168l-189.542-34.229,61.598-188.293s181.525,54.482,127.944,222.522Zm-172.497-222.238l-27.993,175.375-84.541-135.164c44.706-32.389,112.534-40.211,112.534-40.211Zm-145.753,76.072l109.79,116.132-129.094,84.903s-85.571-121.125,19.304-201.036Zm9.208,242.621l107.02-112.434,58.157,163.57s-103.669,15.042-165.178-51.136Z"/><path class="cls-36" d="M1649.154,684.506c-8.587,0-17.24,.039-25.893-.006-59.994-.315-119.989-.694-179.983-.77-1.968-.002-4.274,2.312-5.83,4.788-2.427,3.862-4.346,8.788-6.927,14.201-2.481-4.897-5.035-9.232-7.103-14.237-1.811-4.382-3.983-5.043-6.712-5.037-71.533,.138-143.065,.187-214.598,.208-55.245,.016-110.49-.009-165.734-.182-1.104-.003-2.207-2.047-3.31-3.139,1.087-1.464,2.169-4.189,3.262-4.204,16.016-.212,32.033,0,48.05-.009,87.549-.047,175.098-.179,262.647-.181,99.223-.002,198.445,.102,297.668,.175,2.761,.002,6.257-1.268,4.465,8.393Z"/><path class="cls-36" d="M1296.98,608.001l7.006,12.344s2.254-13.913,7.427-12.344-14.433,0-14.433,0Z"/></g></svg>