<?xml version="1.0" encoding="UTF-8"?><svg id="Layer_2" xmlns="http://www.w3.org/2000/svg" viewBox="0 0 3367.796 504.312"><defs><style>.cls-1{fill:#de9e53;}.cls-2{fill:#e28069;}.cls-3{fill:#a4a67b;}.cls-4{fill:#dbc3a1;}.cls-5{fill:#f28f70;}.cls-6{fill:#922246;}.cls-7{fill:#75203f;}.cls-8{fill:#b07e89;}.cls-9{fill:#dd7a5f;}.cls-10{fill:#878a51;}.cls-11{fill:#e2a09c;}.cls-12{fill:#ac5772;}.cls-13{fill:#71453e;}.cls-14{fill:#dddcd3;}.cls-15{fill:#ef8570;}.cls-16{fill:#a4b45c;}.cls-17{fill:#d5d5d5;}.cls-18{fill:#be5757;}.cls-19{fill:#ff817c;}.cls-20{fill:#c3c3c4;}.cls-21{fill:none;}.cls-22{fill:#a22;}.cls-23{fill:#ff5a53;}.cls-24{fill:#96556d;}.cls-25{fill:#524f54;}.cls-26{fill:#b0b0b1;}.cls-27{fill:#7b797d;}.cls-28{fill:#bac683;}.cls-29{fill:#94b4a9;}.cls-30{fill:#d4801d;}.cls-31{fill:#ef8c70;}</style></defs><g id="Layer_3"><g><path class="cls-29" d="M0,484.228S1605.256,205.474,2236.642,280.725c742.736,88.522,1131.154,223.588,1131.154,223.588"/><g><g><g><g><g><polygon class="cls-21" points="2232.027 135.085 2214.072 141.99 2199.607 135.153 2209.649 128.361 2232.027 135.085"/><path class="cls-21" d="M2285.505,258.674l-.21-.396c.01,.015,.02,.029,.029,.039,.108,.157,.166,.274,.181,.357Z"/><polygon class="cls-21" points="2226.369 103.934 2216.011 85.441 2225.979 79.962 2230.768 90.547 2232.606 89.986 2229.153 79.962 2238.341 76.661 2240.123 86.873 2241.515 86.499 2241.515 75.79 2248.142 75.292 2247.362 83.947 2246.638 86.375 2236.823 92.226 2238.669 94.441 2239.744 93.728 2238.468 91.926 2246.861 87.308 2248.607 89.824 2226.369 103.934"/><path class="cls-21" d="M2341.039,38.107s-7.434-2.217-10.238-5.544c0,0,13.604-1.6,15.102-5.662,0,0,3.636,2.848-4.864,11.206Z"/><path class="cls-21" d="M2374.511,29.528c-.67,3.176-3.274,9.778-6.646,17.539-1.091-4.16-2.413-7.977-4.071-11.26-3.548-7.008-8.677-11.603-16.541-12.024,0,0-1.15-2.276-1.62-5.021,3.254-.866,7.732-1.351,11.04,1.062,5.823,4.248,4.125,2.55,4.125,2.55,0,0,16.017-3.763,13.712,7.154Z"/><path class="cls-21" d="M2313.811,42.355l17.47,9.817c-7.238,.489-4.874,7.071-4.874,7.071-3.465-.392-7.757-.47-11.755-2.775l1.566-7.292c.318-1.703-.729-4.218-2.408-6.822Z"/><path class="cls-21" d="M2336.542,46.524c-2.011-2.173-4.395-4.346-7.208-6.357-10.003-7.145-20.544-8.755-27.542-8.897-.068-3.499,14.559-7.561,24.238-1.649,0,0-.949,3.944,9.895,13.012-.333,.064,.343,1.869,.617,3.89Z"/><path class="cls-21" d="M2375.911,24.664s12.728,23.455,11.206,31.696c0,0-8.51-11.363-12.381-7.203-3.763,4.047-2.359,22.981-2.276,24.047-1.268-9.117-2.525-18.248-4.595-26.137-1.091-4.16-2.413-7.977-4.071-11.26-3.548-7.008-8.677-11.603-16.541-12.024,0,0-1.15-2.276-1.62-5.021-.411-2.427-.298-5.226,1.62-7.145,4.081-4.081,16.81-11.53,16.81-11.53,0,0-8.084,11.368-2.721,13.13,5.363,1.762,26.494-.25,27.297,4.835l-12.728,6.611Z"/></g><path class="cls-21" d="M2319.027,105.091l-14.25,5.192-16.208,5.902-25.53,9.298-20.935,7.629h-.005l-2.217-1.047-7.854,3.019-17.955,6.905-14.466-6.836-10.164-4.801,1.972-10.379,6.303,2.036h.005l1.018-1.718-4.903-2.232,.954-7.639,6.557,2.672,3.279-.563c.113-.015,.2-.064,.264-.137,.044-.049,.083-.113,.108-.191,.48-1.443-2.383-7.071-2.383-7.071,7.013-.509,11.515,.856,11.515,.856h.005c.22,.401,.455,.783,.705,1.15,.083,.122,.167,.24,.254,.357,.563,.783,1.179,1.473,1.767,2.06,1.571,1.576,2.98,2.427,2.98,2.427,0,0,.01-.005,.034-.02,.02-.01,.044-.029,.083-.049,.005-.01,.015-.015,.019-.015,.073-.049,.181-.113,.313-.196,.083-.054,.176-.113,.284-.176,.118-.073,.249-.152,.391-.24,.029-.02,.054-.039,.083-.054,.098-.064,.201-.127,.308-.191,.196-.122,.406-.254,.636-.392,.23-.147,.475-.298,.739-.455,.176-.108,.357-.22,.543-.333,.284-.176,.582-.357,.896-.548,.191-.117,.391-.24,.597-.367,.788-.48,1.649-1.003,2.584-1.561,.22-.132,.445-.269,.67-.406,.201-.122,.401-.24,.607-.367,.387-.23,.778-.465,1.184-.71,.039-.024,.078-.044,.118-.068,.631-.372,1.277-.759,1.948-1.16,.083-.049,.161-.098,.245-.142,.377-.225,.763-.45,1.155-.685,.744-.436,1.502-.886,2.281-1.336,.338-.201,.68-.401,1.027-.602,.171-.103,.347-.205,.524-.303,.347-.205,.7-.406,1.052-.612,.71-.411,1.429-.827,2.158-1.243,.338-.196,.675-.387,1.018-.582,5.53-3.156,11.505-6.445,17.113-9.288,2.78-1.409,5.471-2.711,7.977-3.832,.352-.161,.705-.313,1.052-.465,.568-.25,1.125-.489,1.669-.714,.254-.108,.504-.21,.754-.308,.387-.161,.768-.313,1.14-.455,.22-.083,.44-.171,.656-.25,.543-.205,1.072-.396,1.576-.568,.171-.059,.343-.117,.509-.166,.401-.137,.788-.259,1.16-.367,0,0,.254-.176,.724-.494,.068-.044,.142-.093,.22-.147,.289-.196,.636-.431,1.043-.7,.127-.083,.259-.171,.401-.269,.171-.113,.347-.23,.533-.352,.142-.093,.289-.191,.44-.289,.465-.303,.974-.636,1.512-.984,.22-.137,.45-.284,.68-.436,.269-.171,.543-.347,.822-.524,1.468-.935,3.117-1.962,4.864-3.01,.475-.289,.959-.577,1.449-.866,.24-.142,.489-.289,.734-.431,.896-.524,1.811-1.047,2.731-1.561,.347-.196,.69-.386,1.032-.573,.333-.181,.666-.362,.998-.543,.421-.225,.837-.445,1.248-.661,.416-.22,.827-.436,1.238-.641,.343-.176,.68-.343,1.018-.509,1.37-.675,2.711-1.297,3.993-1.83,.21-.088,.426-.176,.636-.259,.48-.196,.949-.377,1.405-.538,.24-.088,.475-.171,.71-.25,.235-.078,.46-.152,.69-.225,.132-.039,.254-.078,.382-.117,.176-.054,.347-.103,.519-.147,.132-.039,.264-.073,.396-.103,.352-.088,.695-.166,1.023-.225,.073-.015,.152-.029,.225-.039,.421-.073,.817-.122,1.189-.142,.147-.01,.289-.015,.426-.015,.245,0,.494,0,.739,.005,.245,0,.489,.005,.734,.01,.2,.005,.406,.01,.607,.02,.25,.01,.494,.02,.739,.034,.24,.015,.48,.034,.719,.054,.543,.044,1.072,.108,1.595,.186,.259,.039,.519,.083,.773,.132,.255,.049,.509,.103,.759,.161,.274,.064,.548,.137,.817,.22,.157,.044,.313,.093,.47,.147,.108,.039,.211,.073,.313,.113,.078,.029,.157,.059,.235,.088,.073,.029,.142,.059,.215,.088,.157,.064,.308,.132,.46,.201,.171,.078,.347,.166,.514,.254,.21,.113,.421,.235,.621,.362,.137,.088,.274,.176,.406,.269,.132,.093,.259,.191,.392,.289,.127,.098,.254,.205,.377,.313s.245,.22,.362,.333c.24,.23,.465,.48,.685,.739,.147,.176,.284,.357,.421,.548,.024,.039,.054,.078,.078,.122,.088,.127,.171,.254,.254,.387,.078,.132,.162,.264,.24,.401,.191,.343,.372,.71,.538,1.096,.093,.22,.181,.445,.269,.675,.039,.108,.078,.215,.113,.328,.044,.117,.083,.24,.122,.367,.029,.088,.054,.176,.078,.264,.166,.573,.308,1.179,.421,1.835,.034,.181,.064,.362,.088,.548,.029,.186,.054,.377,.078,.568,.019,.142,.034,.284,.049,.431,.025,.25,.049,.504,.069,.763,.029,.362,.049,.734,.064,1.121,.205,5.789-1.121,14.035-4.615,25.741Z"/><path class="cls-21" d="M2288.569,116.185l-25.53,9.298-17.857,6.504-3.078,1.126h-.005l-2.217-1.047-7.854,3.019-17.955,6.905-14.466-6.836-10.164-4.801,1.972-10.379,6.303,2.036,1.023-1.718-4.903-2.232,.954-7.639,6.557,2.672,3.279-.563c.113-.015,.2-.064,.264-.137,.044-.049,.083-.113,.108-.191,.48-1.443-2.383-7.071-2.383-7.071,7.013-.509,11.515,.856,11.515,.856,.22,.401,.455,.783,.709,1.15,.083,.122,.167,.24,.254,.357,.563,.783,1.179,1.473,1.767,2.06,1.571,1.576,2.98,2.427,2.98,2.427,0,0,.01-.005,.034-.02,.02-.01,.044-.029,.083-.049,.005-.01,.015-.015,.019-.015,.073-.049,.181-.113,.313-.196,.083-.054,.176-.113,.284-.176,.118-.073,.249-.157,.391-.24,.029-.02,.054-.039,.083-.054,.098-.064,.201-.127,.308-.191,.196-.122,.406-.254,.636-.392,.23-.147,.475-.298,.739-.455,.176-.108,.357-.22,.543-.333,.284-.176,.582-.357,.896-.548,.191-.117,.391-.24,.597-.367,.788-.48,1.649-1.003,2.584-1.561,.22-.132,.445-.269,.67-.406,.201-.122,.401-.24,.607-.367,.387-.23,.778-.465,1.184-.71,.039-.024,.078-.044,.118-.068,.631-.377,1.282-.763,1.948-1.16,.083-.049,.161-.098,.245-.142,.382-.225,.763-.455,1.155-.685,.744-.436,1.502-.886,2.281-1.336,.338-.201,.68-.401,1.027-.602,.171-.103,.347-.205,.524-.303,.347-.205,.7-.406,1.052-.612,.71-.411,1.429-.827,2.158-1.243,.338-.196,.675-.387,1.018-.582,5.53-3.156,11.505-6.445,17.113-9.288,2.78-1.409,5.471-2.711,7.977-3.832,.352-.161,.705-.313,1.052-.465,.568-.25,1.125-.489,1.669-.714,.254-.108,.504-.21,.754-.308,.387-.161,.768-.313,1.14-.455,.22-.083,.44-.171,.656-.25,.543-.205,1.072-.396,1.576-.568,.171-.059,.343-.117,.509-.166,.401-.137,.788-.259,1.16-.367,0,0,.254-.176,.724-.494,.068-.044,.142-.093,.22-.147,.289-.196,.636-.431,1.043-.7,.127-.083,.259-.171,.401-.269,.166-.108,.347-.225,.533-.352,.142-.093,.289-.191,.44-.289,8.549,10.937,11.902,24.126,10.262,35.68Z"/><path class="cls-21" d="M2319.028,105.091l-14.25,5.192c-.034-12.386-5.427-25.824-16.408-36.027,7.179-4.194,15.425-8.363,19.858-8.378,11.696-.039,21.581,3.112,10.8,39.213Z"/><path class="cls-21" d="M2341.039,38.107s-7.434-2.217-10.238-5.544c0,0,13.604-1.6,15.102-5.662,0,0,3.636,2.848-4.864,11.206Z"/><path class="cls-21" d="M2355.618,34.559s2.618,5.34-1.989,5.392"/><path class="cls-21" d="M2363.906,35.766s-6.707,2.108-1.763,4.177"/><path class="cls-21" d="M2352.636,45.69s6.103-8.347,8.616,0"/><circle class="cls-21" cx="2334.913" cy="34.025" r=".61"/><path class="cls-21" d="M2288.57,116.185c1.639-11.554-1.713-24.742-10.262-35.68,2.486-1.63,6.112-3.944,10.061-6.249,10.981,10.203,16.374,23.641,16.408,36.027l-16.208,5.902Z"/></g><polygon class="cls-21" points="2293.032 182.587 2290.707 186.644 2290.702 186.639 2293.032 182.587"/><path class="cls-21" d="M2285.505,258.674l-.21-.396c.01,.015,.02,.029,.029,.039,.108,.157,.166,.274,.181,.357Z"/><g><g><polygon class="cls-21" points="2232.027 135.085 2214.072 141.99 2199.607 135.153 2209.649 128.361 2232.027 135.085"/><path class="cls-21" d="M2342.61,110.411c-4.551,31.119-47.234,68.105-47.234,68.105l-2.344,4.071-2.33,4.052-27.037,46.989s13.546,13.462,21.63,24.649l.21,.396c-.015-.083-.073-.201-.181-.357,.308,.382,2.794,3.509,3.925,6.107,.005,.005,.005,.01,.005,.015,1.503,2.78,2.246,5.129,1.796,6.66-2.349,7.918-26.842,23.768-26.842,23.768l3.935-10.771,.21-.573-12.249-2.163-3.91-5.872-34.809-52.264,31.902-48.511-31.417-10.115s-1.385,.431-3.665,1.184c-5.726,1.894-17.098,5.828-26.294,10.091-5.603,2.599-10.399,5.319-12.621,7.771-7.316,8.079-17.03-41.268-17.03-41.268-.23-.558,.352-1.106,.896-.847l16.134,7.698,5.412-3.108,7.345-4.223,10.561-6.068,.998-.675,14.466,6.836,17.955-6.905,24.175,7.267,9.254-15.807s35.812-12.826,54.912-18.889c9.538-3.034,4.987-37.975,4.987-37.975,0,0,21.811,9.601,17.255,40.73Z"/><path class="cls-21" d="M2285.505,258.674l-.21-.396c.01,.015,.02,.029,.029,.039,.108,.157,.166,.274,.181,.357Z"/><polygon class="cls-21" points="2226.369 103.934 2216.011 85.441 2225.979 79.962 2230.768 90.547 2232.606 89.986 2229.153 79.962 2238.341 76.661 2240.123 86.873 2241.515 86.499 2241.515 75.79 2248.142 75.292 2247.362 83.947 2246.638 86.375 2236.823 92.226 2238.669 94.441 2239.744 93.728 2238.468 91.926 2246.861 87.308 2248.607 89.824 2226.369 103.934"/><path class="cls-21" d="M2363.794,35.807c-3.548-7.008-8.677-11.603-16.541-12.024,0,0-1.15-2.276-1.62-5.021-2.481,.661-4.248,1.546-4.248,1.546,0,0-6.308-3.157-4.972,0,1.336,3.156-5.701,6.915-8.613,9.22-2.912,2.305,3.641,6.934,8.128,11.906,4.488,4.977,.607,14.319-4.248,12.254-4.854-2.06-4.487,6.675-4.487,6.675l-3.519,.362-9.655-3.788-3.695,4.624c30.546-2.828,35.582,30.439,36.15,30.326,.406-.078,13.174-25.907,21.39-44.821-1.091-4.16-2.413-7.977-4.071-11.26Zm-22.756,2.3s-7.434-2.217-10.238-5.544c0,0,13.604-1.6,15.102-5.662,0,0,3.636,2.848-4.864,11.206Z"/><path class="cls-21" d="M2374.511,29.528c-.67,3.176-3.274,9.778-6.646,17.539-1.091-4.16-2.413-7.977-4.071-11.26-3.548-7.008-8.677-11.603-16.541-12.024,0,0-1.15-2.276-1.62-5.021,3.254-.866,7.732-1.351,11.04,1.062,5.823,4.248,4.125,2.55,4.125,2.55,0,0,16.017-3.763,13.712,7.154Z"/><path class="cls-21" d="M2313.811,42.355l17.47,9.817c-7.238,.489-4.874,7.071-4.874,7.071-3.465-.392-7.757-.47-11.755-2.775l1.566-7.292c.318-1.703-.729-4.218-2.408-6.822Z"/><path class="cls-21" d="M2336.542,46.524c-2.011-2.173-4.395-4.346-7.208-6.357-10.003-7.145-20.544-8.755-27.542-8.897-.068-3.499,14.559-7.561,24.238-1.649,0,0-.949,3.944,9.895,13.012-.333,.064,.343,1.869,.617,3.89Z"/><path class="cls-21" d="M2375.911,24.664s12.728,23.455,11.206,31.696c0,0-8.51-11.363-12.381-7.203-3.763,4.047-2.359,22.981-2.276,24.047-1.268-9.117-2.525-18.248-4.595-26.137-1.091-4.16-2.413-7.977-4.071-11.26-3.548-7.008-8.677-11.603-16.541-12.024,0,0-1.15-2.276-1.62-5.021-.411-2.427-.298-5.226,1.62-7.145,4.081-4.081,16.81-11.53,16.81-11.53,0,0-8.084,11.368-2.721,13.13,5.363,1.762,26.494-.25,27.297,4.835l-12.728,6.611Z"/></g><path class="cls-21" d="M2319.027,105.091l-14.25,5.192-16.208,5.902-25.53,9.298-20.935,7.629h-.005l-2.217-1.047-7.854,3.019-17.955,6.905-14.466-6.836-10.164-4.801,1.972-10.379,6.303,2.036h.005l1.018-1.718-4.903-2.232,.954-7.639,6.557,2.672,3.279-.563c.113-.015,.2-.064,.264-.137,.044-.049,.083-.113,.108-.191,.48-1.443-2.383-7.071-2.383-7.071,7.013-.509,11.515,.856,11.515,.856h.005c.22,.401,.455,.783,.705,1.15,.083,.122,.167,.24,.254,.357,.563,.783,1.179,1.473,1.767,2.06,1.571,1.576,2.98,2.427,2.98,2.427,0,0,.01-.005,.034-.02,.02-.01,.044-.029,.083-.049,.005-.01,.015-.015,.019-.015,.073-.049,.181-.113,.313-.196,.083-.054,.176-.113,.284-.176,.118-.073,.249-.152,.391-.24,.029-.02,.054-.039,.083-.054,.098-.064,.201-.127,.308-.191,.196-.122,.406-.254,.636-.392,.23-.147,.475-.298,.739-.455,.176-.108,.357-.22,.543-.333,.284-.176,.582-.357,.896-.548,.191-.117,.391-.24,.597-.367,.788-.48,1.649-1.003,2.584-1.561,.22-.132,.445-.269,.67-.406,.201-.122,.401-.24,.607-.367,.387-.23,.778-.465,1.184-.71,.039-.024,.078-.044,.118-.068,.631-.372,1.277-.759,1.948-1.16,.083-.049,.161-.098,.245-.142,.377-.225,.763-.45,1.155-.685,.744-.436,1.502-.886,2.281-1.336,.338-.201,.68-.401,1.027-.602,.171-.103,.347-.205,.524-.303,.347-.205,.7-.406,1.052-.612,.71-.411,1.429-.827,2.158-1.243,.338-.196,.675-.387,1.018-.582,5.53-3.156,11.505-6.445,17.113-9.288,2.78-1.409,5.471-2.711,7.977-3.832,.352-.161,.705-.313,1.052-.465,.568-.25,1.125-.489,1.669-.714,.254-.108,.504-.21,.754-.308,.387-.161,.768-.313,1.14-.455,.22-.083,.44-.171,.656-.25,.543-.205,1.072-.396,1.576-.568,.171-.059,.343-.117,.509-.166,.401-.137,.788-.259,1.16-.367,0,0,.254-.176,.724-.494,.068-.044,.142-.093,.22-.147,.289-.196,.636-.431,1.043-.7,.127-.083,.259-.171,.401-.269,.171-.113,.347-.23,.533-.352,.142-.093,.289-.191,.44-.289,.465-.303,.974-.636,1.512-.984,.22-.137,.45-.284,.68-.436,.269-.171,.543-.347,.822-.524,1.468-.935,3.117-1.962,4.864-3.01,.475-.289,.959-.577,1.449-.866,.24-.142,.489-.289,.734-.431,.896-.524,1.811-1.047,2.731-1.561,.347-.196,.69-.386,1.032-.573,.333-.181,.666-.362,.998-.543,.421-.225,.837-.445,1.248-.661,.416-.22,.827-.436,1.238-.641,.343-.176,.68-.343,1.018-.509,1.37-.675,2.711-1.297,3.993-1.83,.21-.088,.426-.176,.636-.259,.48-.196,.949-.377,1.405-.538,.24-.088,.475-.171,.71-.25,.235-.078,.46-.152,.69-.225,.132-.039,.254-.078,.382-.117,.176-.054,.347-.103,.519-.147,.132-.039,.264-.073,.396-.103,.352-.088,.695-.166,1.023-.225,.073-.015,.152-.029,.225-.039,.421-.073,.817-.122,1.189-.142,.147-.01,.289-.015,.426-.015,.245,0,.494,0,.739,.005,.245,0,.489,.005,.734,.01,.2,.005,.406,.01,.607,.02,.25,.01,.494,.02,.739,.034,.24,.015,.48,.034,.719,.054,.543,.044,1.072,.108,1.595,.186,.259,.039,.519,.083,.773,.132,.255,.049,.509,.103,.759,.161,.274,.064,.548,.137,.817,.22,.157,.044,.313,.093,.47,.147,.108,.039,.211,.073,.313,.113,.078,.029,.157,.059,.235,.088,.073,.029,.142,.059,.215,.088,.157,.064,.308,.132,.46,.201,.171,.078,.347,.166,.514,.254,.21,.113,.421,.235,.621,.362,.137,.088,.274,.176,.406,.269,.132,.093,.259,.191,.392,.289,.127,.098,.254,.205,.377,.313s.245,.22,.362,.333c.24,.23,.465,.48,.685,.739,.147,.176,.284,.357,.421,.548,.024,.039,.054,.078,.078,.122,.088,.127,.171,.254,.254,.387,.078,.132,.162,.264,.24,.401,.191,.343,.372,.71,.538,1.096,.093,.22,.181,.445,.269,.675,.039,.108,.078,.215,.113,.328,.044,.117,.083,.24,.122,.367,.029,.088,.054,.176,.078,.264,.166,.573,.308,1.179,.421,1.835,.034,.181,.064,.362,.088,.548,.029,.186,.054,.377,.078,.568,.019,.142,.034,.284,.049,.431,.025,.25,.049,.504,.069,.763,.029,.362,.049,.734,.064,1.121,.205,5.789-1.121,14.035-4.615,25.741Z"/><path class="cls-21" d="M2288.569,116.185l-25.53,9.298-17.857,6.504-3.078,1.126h-.005l-2.217-1.047-7.854,3.019-17.955,6.905-14.466-6.836-10.164-4.801,1.972-10.379,6.303,2.036,1.023-1.718-4.903-2.232,.954-7.639,6.557,2.672,3.279-.563c.113-.015,.2-.064,.264-.137,.044-.049,.083-.113,.108-.191,.48-1.443-2.383-7.071-2.383-7.071,7.013-.509,11.515,.856,11.515,.856,.22,.401,.455,.783,.709,1.15,.083,.122,.167,.24,.254,.357,.563,.783,1.179,1.473,1.767,2.06,1.571,1.576,2.98,2.427,2.98,2.427,0,0,.01-.005,.034-.02,.02-.01,.044-.029,.083-.049,.005-.01,.015-.015,.019-.015,.073-.049,.181-.113,.313-.196,.083-.054,.176-.113,.284-.176,.118-.073,.249-.157,.391-.24,.029-.02,.054-.039,.083-.054,.098-.064,.201-.127,.308-.191,.196-.122,.406-.254,.636-.392,.23-.147,.475-.298,.739-.455,.176-.108,.357-.22,.543-.333,.284-.176,.582-.357,.896-.548,.191-.117,.391-.24,.597-.367,.788-.48,1.649-1.003,2.584-1.561,.22-.132,.445-.269,.67-.406,.201-.122,.401-.24,.607-.367,.387-.23,.778-.465,1.184-.71,.039-.024,.078-.044,.118-.068,.631-.377,1.282-.763,1.948-1.16,.083-.049,.161-.098,.245-.142,.382-.225,.763-.455,1.155-.685,.744-.436,1.502-.886,2.281-1.336,.338-.201,.68-.401,1.027-.602,.171-.103,.347-.205,.524-.303,.347-.205,.7-.406,1.052-.612,.71-.411,1.429-.827,2.158-1.243,.338-.196,.675-.387,1.018-.582,5.53-3.156,11.505-6.445,17.113-9.288,2.78-1.409,5.471-2.711,7.977-3.832,.352-.161,.705-.313,1.052-.465,.568-.25,1.125-.489,1.669-.714,.254-.108,.504-.21,.754-.308,.387-.161,.768-.313,1.14-.455,.22-.083,.44-.171,.656-.25,.543-.205,1.072-.396,1.576-.568,.171-.059,.343-.117,.509-.166,.401-.137,.788-.259,1.16-.367,0,0,.254-.176,.724-.494,.068-.044,.142-.093,.22-.147,.289-.196,.636-.431,1.043-.7,.127-.083,.259-.171,.401-.269,.166-.108,.347-.225,.533-.352,.142-.093,.289-.191,.44-.289,8.549,10.937,11.902,24.126,10.262,35.68Z"/><path class="cls-21" d="M2319.028,105.091l-14.25,5.192c-.034-12.386-5.427-25.824-16.408-36.027,7.179-4.194,15.425-8.363,19.858-8.378,11.696-.039,21.581,3.112,10.8,39.213Z"/><path class="cls-21" d="M2341.039,38.107s-7.434-2.217-10.238-5.544c0,0,13.604-1.6,15.102-5.662,0,0,3.636,2.848-4.864,11.206Z"/><circle class="cls-21" cx="2334.913" cy="34.025" r=".61"/><path class="cls-21" d="M2288.57,116.185c1.639-11.554-1.713-24.742-10.262-35.68,2.486-1.63,6.112-3.944,10.061-6.249,10.981,10.203,16.374,23.641,16.408,36.027l-16.208,5.902Z"/></g></g><g><g><g><path class="cls-30" d="M2187.914,175.784c-5.603,2.599-10.399,5.319-12.621,7.771-7.316,8.079-17.03-41.268-17.03-41.268-.23-.558,.352-1.106,.896-.847l16.134,7.698,5.412-3.108c-.695,11.97,2.295,22.364,7.208,29.754Z"/><path class="cls-7" d="M2269.217,146.172l-7.522,12.18-.959,1.566-1.566,2.564-7.825,12.802-2.055-.661-31.417-10.115s-1.385,.431-3.665,1.184c-5.725,1.894-17.098,5.828-26.294,10.091-4.913-7.389-7.903-17.784-7.208-29.754l7.346-4.223,10.56-6.068,11.04-7.468,46.553,13.991,13.012,3.91Z"/><path class="cls-30" d="M2291.053,271.009c-2.349,7.918-26.842,23.768-26.842,23.768l3.935-10.771c9.107-5.549,15.944-12.978,20.637-19.281,.132-.181,.264-.357,.392-.533,.024,.049,.054,.098,.078,.142,.005,.005,.005,.01,.005,.015,1.502,2.78,2.246,5.129,1.796,6.66Z"/><path class="cls-6" d="M2285.508,258.584c.205,.974-5.701-2.873-8.647-1.938-4.698,6.416,.651,21.654-8.716,27.361l.211-.573-12.249-2.163-3.91-5.872-34.809-52.264,31.902-48.511,8.515-12.949h.005l1.36,.807,33.864,20.015-29.367,51.041s13.546,13.462,21.63,24.649c.127,.176,.196,.308,.211,.396Z"/><path class="cls-22" d="M2342.61,110.321c-4.549,31.121-47.235,68.105-47.235,68.105l-2.341,4.071-31.077-22.65-3.441,.206-8.904-6.535,15.844-27.065s35.814-12.823,54.911-18.889c9.539-3.033,4.989-37.973,4.989-37.973,0,0,21.808,9.602,17.253,40.729Z"/><polygon class="cls-26" points="2226.371 103.844 2216.013 85.351 2225.981 79.872 2230.77 90.457 2232.607 89.897 2229.155 79.872 2238.343 76.572 2240.125 86.783 2241.517 86.41 2241.517 75.7 2248.144 75.202 2247.364 83.857 2246.64 86.285 2236.825 92.136 2238.671 94.351 2239.746 93.638 2238.47 91.836 2246.863 87.219 2248.609 89.734 2226.371 103.844"/><path class="cls-23" d="M2310.33,61.471l3.691-4.624,9.656,3.789,3.519-.364s-.364-8.736,4.489-6.673c4.853,2.063,8.736-7.28,4.246-12.254s-11.042-9.6-8.13-11.905,9.949-6.066,8.614-9.221,4.974,0,4.974,0c0,0,9.464-4.732,15.287-.485,5.824,4.246,4.125,2.548,4.125,2.548,0,0,16.015-3.761,13.71,7.158-2.305,10.92-27.461,62.244-28.033,62.359s-5.604-33.153-36.149-30.328Z"/><path class="cls-26" d="M2313.813,42.265l17.47,9.817c-7.238,.489-4.874,7.071-4.874,7.071-3.465-.392-7.757-.47-11.755-2.775l1.566-7.292c.318-1.703-.729-4.218-2.408-6.822Z"/><path class="cls-26" d="M2336.544,46.434c-2.011-2.173-4.395-4.346-7.208-6.357-10.003-7.145-20.544-8.755-27.542-8.897-.068-3.499,14.559-7.561,24.238-1.649,0,0-.949,3.944,9.895,13.012-.333,.064,.343,1.869,.617,3.89Z"/><path class="cls-25" d="M2347.255,23.694s-4.082-8.085,0-12.167c4.082-4.082,16.81-11.527,16.81-11.527,0,0-8.085,11.367-2.722,13.128s26.495-.251,27.296,4.837l-12.727,6.61s12.727,23.454,11.207,31.698c0,0-8.508-11.367-12.379-7.204-3.871,4.162-2.27,24.094-2.27,24.094-3.357-24.19-6.649-48.482-25.215-49.469Z"/></g><path class="cls-4" d="M2330.802,32.471s13.603-1.599,15.101-5.661c0,0,3.637,2.848-4.862,11.207,0,0-7.435-2.216-10.239-5.546Z"/><path class="cls-21" d="M2355.62,34.469s2.618,5.34-1.989,5.392"/><path class="cls-21" d="M2363.908,35.676s-6.707,2.108-1.763,4.177"/><path class="cls-21" d="M2352.638,45.601s6.103-8.347,8.616,0"/><circle cx="2334.914" cy="33.935" r=".61"/></g><polygon class="cls-13" points="2256.242 163.956 2257.853 161.59 2293.035 182.497 2290.707 186.556 2275.244 176.291 2274.818 173.149 2256.242 163.956"/><path class="cls-14" d="M2289.252,264.334c-.024-.044-.054-.093-.078-.142-.127,.176-.259,.352-.392,.533-4.693,6.303-11.53,13.732-20.637,19.281,9.367-5.706,4.018-20.945,8.716-27.361,2.946-.935,8.853,2.912,8.647,1.938-.015-.088-.083-.22-.211-.396,0,0,2.75,3.377,3.954,6.146Z"/><path class="cls-6" d="M2285.298,258.188c.127,.176,.196,.308,.211,.396l-.211-.396Z"/><g><g><path class="cls-30" d="M2187.914,175.784c-5.603,2.599-10.399,5.319-12.621,7.771-7.316,8.079-17.03-41.268-17.03-41.268-.23-.558,.352-1.106,.896-.847l16.134,7.698,5.412-3.108c-.695,11.97,2.295,22.364,7.208,29.754Z"/><path class="cls-24" d="M2269.217,146.172l-7.522,12.18-.959,1.566-1.566,2.564-7.825,12.802-2.055-.661-31.417-10.115s-1.385,.431-3.665,1.184c-5.725,1.894-17.098,5.828-26.294,10.091-4.913-7.389-7.903-17.784-7.208-29.754l7.346-4.223,10.56-6.068,11.04-7.468,46.553,13.991,13.012,3.91Z"/><path class="cls-1" d="M2291.053,271.009c-2.349,7.918-26.842,23.768-26.842,23.768l3.935-10.771c9.107-5.549,15.944-12.978,20.637-19.281,.132-.181,.264-.357,.392-.533,.024,.049,.054,.098,.078,.142,.005,.005,.005,.01,.005,.015,1.502,2.78,2.246,5.129,1.796,6.66Z"/><path class="cls-12" d="M2285.508,258.584c.205,.974-5.701-2.873-8.647-1.938-4.698,6.416,.651,21.654-8.716,27.361l.211-.573-12.249-2.163-3.91-5.872-34.809-52.264,31.902-48.511,8.515-12.949h.005l1.36,.807,33.864,20.015-29.367,51.041s13.546,13.462,21.63,24.649c.127,.176,.196,.308,.211,.396Z"/><path class="cls-18" d="M2342.61,110.321c-4.549,31.121-47.235,68.105-47.235,68.105l-2.341,4.071-31.077-22.65-3.441,.206-8.904-6.535,15.844-27.065s35.814-12.823,54.911-18.889c9.539-3.033,4.989-37.973,4.989-37.973,0,0,21.808,9.602,17.253,40.729Z"/><polygon class="cls-17" points="2226.371 103.844 2216.013 85.351 2225.981 79.872 2230.77 90.457 2232.607 89.897 2229.155 79.872 2238.343 76.572 2240.125 86.783 2241.517 86.41 2241.517 75.7 2248.144 75.202 2247.364 83.857 2246.64 86.285 2236.825 92.136 2238.671 94.351 2239.746 93.638 2238.47 91.836 2246.863 87.219 2248.609 89.734 2226.371 103.844"/><path class="cls-19" d="M2310.33,61.471l3.691-4.624,9.656,3.789,3.519-.364s-.364-8.736,4.489-6.673c4.853,2.063,8.736-7.28,4.246-12.254s-11.042-9.6-8.13-11.905,9.949-6.066,8.614-9.221,4.974,0,4.974,0c0,0,9.464-4.732,15.287-.485,5.824,4.246,4.125,2.548,4.125,2.548,0,0,16.015-3.761,13.71,7.158-2.305,10.92-27.461,62.244-28.033,62.359s-5.604-33.153-36.149-30.328Z"/><path class="cls-20" d="M2313.813,42.265l17.47,9.817c-7.238,.489-4.874,7.071-4.874,7.071-3.465-.392-7.757-.47-11.755-2.775l1.566-7.292c.318-1.703-.729-4.218-2.408-6.822Z"/><path class="cls-20" d="M2336.544,46.434c-2.011-2.173-4.395-4.346-7.208-6.357-10.003-7.145-20.544-8.755-27.542-8.897-.068-3.499,14.559-7.561,24.238-1.649,0,0-.949,3.944,9.895,13.012-.333,.064,.343,1.869,.617,3.89Z"/><path class="cls-27" d="M2347.255,23.694s-4.082-8.085,0-12.167c4.082-4.082,16.81-11.527,16.81-11.527,0,0-8.085,11.367-2.722,13.128s26.495-.251,27.296,4.837l-12.727,6.61s12.727,23.454,11.207,31.698c0,0-8.508-11.367-12.379-7.204-3.871,4.162-2.27,24.094-2.27,24.094-3.357-24.19-6.649-48.482-25.215-49.469Z"/></g><path class="cls-4" d="M2330.802,32.471s13.603-1.599,15.101-5.661c0,0,3.637,2.848-4.862,11.207,0,0-7.435-2.216-10.239-5.546Z"/><path class="cls-21" d="M2355.62,34.469s2.618,5.34-1.989,5.392"/><path class="cls-21" d="M2363.908,35.676s-6.707,2.108-1.763,4.177"/><path class="cls-21" d="M2352.638,45.601s6.103-8.347,8.616,0"/><circle cx="2334.914" cy="33.935" r=".61"/><path class="cls-22" d="M2288.572,116.096c1.639-11.554-1.713-24.742-10.262-35.68,2.486-1.63,6.112-3.944,10.061-6.249,10.981,10.203,16.374,23.641,16.408,36.027l-16.208,5.902Z"/></g></g></g><g><g><path class="cls-5" d="M1915.139,55.817c-77.15-4.379-84.947,70.433-83.223,76.645-15.557,17.362-9.932,48.007-4.638,66.081l.005-.005c20.683,60.661,67.652,67.898,68.623,68.042,.009,0,.014,.005,.014,.005,53.634,1.314,31.521-24.632,31.521-24.632-26.559-2.072-46.212-9.847-46.212-9.847-23.439-21.383-27.01-56.818-27.01-56.818,0,0-4.897-34.572,18.889-57.206-1.553-1.763-3.707-3.23-6.597-4.291-32.247-11.851,63.338-17.896,63.338-17.896l-14.71-40.078Z"/><path class="cls-5" d="M1929.849,95.895s-95.585,6.046-63.338,17.896c2.89,1.061,5.044,2.528,6.597,4.291,9.604,10.889-3.783,33.146-9.482,41.552,26.217-35.464,72.226-48.529,77.256-48.94,3.496-.286,13.275,9.316,20.329,16.806,3.267-4.399,8.586-6.498,15.634-6.679-3.774-2.801-7.529-6.182-11.21-10.227-20.452-21.749-21.906-36.538-21.156-49.931-10.753-2.804-20.502-4.35-29.34-4.848l14.71,40.078Z"/><path class="cls-5" d="M1873.107,118.083c-23.786,22.633-18.889,57.206-18.889,57.206,2.067-4.367,4.446-8.482,7.059-12.339,0,0,.014-.014,.042-.052,.75-1.112,1.518-2.196,2.306-3.262,5.699-8.406,19.086-30.663,9.482-41.552Z"/><path class="cls-5" d="M1968.918,136.112l.141,.027s-3.378-3.897-7.85-8.637c-7.054-7.49-16.833-17.092-20.329-16.806-5.031,.41-51.04,13.475-77.256,48.94-1.243,1.832-2.12,3.006-2.306,3.262-.028,.038-.042,.052-.042,.052-2.612,3.858-4.992,7.972-7.059,12.339,0,0,3.571,35.435,27.01,56.818,0,0,19.653,7.775,46.212,9.847,19.506,1.528,42.747-.015,64.661-9.977,6.119-2.778,12.139-6.214,17.936-10.421,0,0,1.939-1.371,4.673-4.707,3.77-4.606,9.055-12.943,12.888-26.571,14.958-44.636,51.642-65.362,85.398-67.978,22.796-1.766,44.266,4.724,56.806,17.691l.005,.005c5.287,5.469,9.001,12.099,10.538,19.744,0,0,4.629,21.074-23.312,34.147,0,0-73.316,32.801-88.272-22.866-2.169,5.116-1.422,11.675,3.753,19.725,1.882,2.929,4.072,5.459,6.519,7.635,28.973,25.814,93.26,2.029,93.26,2.029,.366-.172,.723-.345,1.074-.521,19.069-9.54,21.006-25.343,21.006-25.343,0,0,1.038-.959,2.258-2.786,4.418-6.668,11.196-24.873-20.897-50.536-.199-.159-.398-.317-.602-.48-.388-.298-.777-.606-1.175-.914-33.044-25.562-80.641-20.014-112.897-4.667l-.005,.005c-5.818,2.766-11.139,5.853-15.78,9.133-1.115,.79-2.491,1.808-4.059,3.078,0,0-.009,.009-.023,.014-5.71,4.611-13.947,12.387-21.214,23.334-8.468,12.764-16.177,29.93-20.598,34.913-2.512,2.835-6.071,6.658-13.509,10.575-.033,.052-.051,.09-.065,.114,.009-.028,.028-.057,.051-.099-3.883,2.036-8.821,4.107-15.22,6.077,0,0-51.012-38.501-93.754-21.816,0,0,18.63-58.414,92.034-44.377Z"/><path class="cls-8" d="M1827.283,198.539l-.005,.005c2.548,8.697,5.022,14.488,5.022,14.488,6.217,21.199,15.138,37.546,25.817,49.745,15.548,2.405,27.941,3.563,37.789,3.804-.971-.143-47.94-7.38-68.623-68.042Z"/><path class="cls-5" d="M1944.479,60.665c-.75,13.393,.705,28.182,21.156,49.931,0,0,5.821-4.885,1.663-10.942,30.192,12.201,32.808-2.308,2.039-8.077,0,0,5.643-6.602-2.363-14.655,0,0,8.107-3.334,14.975-2.907-13.678-6.031-26.129-10.395-37.471-13.351Z"/><path class="cls-5" d="M1976.845,120.823c31.052,23.039,63.261,7.113,64.349,6.568,.014-.005,.023-.014,.023-.014,1.568-1.269,2.944-2.287,4.059-3.078,4.641-3.28,9.962-6.367,15.78-9.133l.005-.005c7.808-8.583,6.077-21.811,6.077-21.811,0,0,12.692-10.324,33.477-10.285,0,0-1.654-6.919-7.538-6.714-5.88,.2-20.872,5.221-29.235,9.556,0,0-9.553-7.876-11.669-9.324-22.473-13.908-42.852,10.903-42.852,10.903-9.627-5.2-18.744-9.665-27.372-13.47-6.869-.428-14.975,2.907-14.975,2.907,8.005,8.052,2.363,14.655,2.363,14.655,30.769,5.769,28.153,20.278-2.039,8.077,4.157,6.057-1.663,10.942-1.663,10.942,3.68,4.045,7.435,7.426,11.21,10.227Zm42.472-8.287c-.728-.932,9.071-21.301,25.069-14.855,9.267,3.734,2.31,7.771,2.31,7.771,0,0-26.647,8.02-27.38,7.084Z"/><path class="cls-5" d="M1968.918,136.112c-73.405-14.037-92.034,44.377-92.034,44.377,42.742-16.685,93.754,21.816,93.754,21.816,6.398-1.97,11.336-4.042,15.22-6.077,1.305-2.388,19.345-36.914-16.94-60.115Zm-45.27,26.018c10.906-18.429,58.923-16.403,47.896,17.589,0,0-23.999-22.038-47.896-17.589Z"/><path class="cls-5" d="M1971.544,179.719c11.028-33.992-36.989-36.018-47.896-17.589,23.896-4.449,47.896,17.589,47.896,17.589Z"/><path class="cls-5" d="M1985.872,196.213c7.438-3.918,10.997-7.74,13.509-10.575,4.421-4.983,12.13-22.149,20.598-34.913,7.267-10.947,15.505-18.723,21.214-23.334-1.088,.545-33.298,16.471-64.349-6.568-7.048,.181-12.367,2.279-15.634,6.679,4.472,4.741,7.85,8.637,7.85,8.637l-.141-.027c36.284,23.201,18.245,57.728,16.94,60.115l.014-.014Z"/><path class="cls-5" d="M1858.116,262.777c12.536,14.327,27.491,22.934,43.32,26.962,59.497-3.006,90.666-57.763,90.666-57.763-21.914,9.962-45.155,11.504-64.661,9.977,0,0,22.113,25.946-31.521,24.632,0,0-.005-.005-.014-.005-9.848-.24-22.241-1.398-37.789-3.804Z"/><path class="cls-5" d="M2044.386,97.682c-15.998-6.447-25.797,13.923-25.069,14.855,.732,.936,27.38-7.084,27.38-7.084,0,0,6.957-4.037-2.31-7.771Z"/><path class="cls-5" d="M2113.769,78.477c1.093,.086,9.956,.814,13.569,2.27,3.845,1.553,7.603,11.516,7.603,11.516,0,0-12.434-7.797-18.369-2.501,0,0,4.608-10.743-2.803-11.284Zm-61.596-1.894c2.116,1.448,11.669,9.324,11.669,9.324,8.363-4.335,23.355-9.356,29.235-9.556,5.884-.205,7.538,6.714,7.538,6.714-20.785-.039-33.477,10.285-33.477,10.285,0,0,1.73,13.228-6.077,21.811,32.256-15.347,79.853-20.895,112.897,4.667,.398,.308,.786,.616,1.175,.914-51.19-105.586-122.959-44.158-122.959-44.158Z"/><path class="cls-5" d="M2113.769,78.477c7.411,.541,2.803,11.284,2.803,11.284,5.935-5.296,18.369,2.501,18.369,2.501,0,0-3.758-9.963-7.603-11.516-3.613-1.456-12.476-2.184-13.569-2.27Z"/><path class="cls-5" d="M2068.762,171.019c1.568-3.708,4.653-6.661,8.695-8.886,0,0-18.918-30.614,35.54-39.835-33.756,2.617-70.44,23.342-85.398,67.978,0,0,10.063,16.687,35.587,12.692,4.741-.733,10.013-2.186,15.848-4.59-2.446-2.176-4.636-4.706-6.519-7.635-5.175-8.05-5.922-14.609-3.753-19.725Z"/><path class="cls-5" d="M2063.186,202.969c-25.524,3.995-35.587-12.692-35.587-12.692-3.833,13.628-9.118,21.966-12.888,26.571,23.226-14.492,37.561,14.702,37.839,15.283l.005,.005c3.032,.49,4.761,1.315,4.761,1.315,21.521,7.045,41.763,6.867,57.975,4.309-1.215,.047-53.661,1.93-52.105-34.791Z"/><path class="cls-9" d="M1901.436,289.738c40.207,10.241,86.088-9.034,112.435-39.202,16.473-18.872,31.367-19.597,38.679-18.405-.278-.582-14.613-29.775-37.839-15.283-2.734,3.336-4.673,4.707-4.673,4.707-5.797,4.207-11.817,7.643-17.936,10.421,0,0-31.169,54.757-90.666,57.763Z"/><path class="cls-5" d="M2112.997,122.298c-54.458,9.221-35.54,39.835-35.54,39.835,10.738-5.911,28.174-6.638,41.347-2.571,2.092-35.568,42.848-18.823,44.918-12.232-.385-1.753-2.085-10.932,6.08-7.34-12.54-12.967-34.01-19.456-56.806-17.691Z"/><path class="cls-5" d="M2163.777,147.551c-.015-.052-.029-.122-.053-.221-2.07-6.591-42.826-23.335-44.918,12.232-13.173-4.067-30.609-3.34-41.347,2.571-4.042,2.225-7.127,5.178-8.695,8.886,14.956,55.667,88.272,22.866,88.272,22.866,27.941-13.073,23.312-34.147,23.312-34.147-1.537-7.645-5.251-14.275-10.538-19.744l-.005-.005c-8.164-3.592-6.465,5.587-6.08,7.34,.029,.075,.043,.146,.053,.221Z"/><path class="cls-10" d="M2158.471,87.21s26.681,25.408,18.453,32.548c6.639,1.221,14.537,7.456,19.926,15.82l.066-.038c7.881-16.23,19.951-32.092,32.907-43.605-5.395,3.267-33.381,19.754-39.972,15.011-7.301-5.256-26.827-24.121-31.379-19.735Z"/><path class="cls-9" d="M2079.034,198.379c-5.835,2.404-11.107,3.857-15.848,4.59-1.556,36.722,50.89,34.838,52.105,34.791h.019c22.232-3.508,36.891-11.503,36.891-11.503,0,0,10.936-19.427,21.167-26.371-.352,.177-.708,.349-1.074,.521,0,0-64.287,23.785-93.26-2.029Z"/><path class="cls-16" d="M2229.822,91.935c-12.956,11.513-25.026,27.375-32.907,43.605l-.066,.038c6.924,10.735,9.721,24.977,.439,36.603-.047,3.151,4.245,1.517,6.953,1.633,.881,.036,1.629-.62,1.693-1.501,.843-12.282,7.467-78.577,52.275-88.506,14.121-3.131,51.414,18.923,47.939,52.896-.285,2.747-.678,5.51-.409,8.093,.797,7.617,2.777,7.221,5.844-.544,1.594-4.038,2.37-8.48,2.201-12.665-.175-4.472-.647-8.834-1.427-13.051-6.007-32.516-28.791-45.253-48.311-44.186-10.548,.575-22.73,7.364-34.226,17.585Z"/></g><g><path class="cls-5" d="M1915.139,55.817c-77.15-4.379-84.947,70.433-83.223,76.645-15.557,17.362-9.932,48.007-4.638,66.081l.005-.005c20.683,60.661,67.652,67.898,68.623,68.042,.009,0,.014,.005,.014,.005,53.634,1.314,31.521-24.632,31.521-24.632-26.559-2.072-46.212-9.847-46.212-9.847-23.439-21.383-27.01-56.818-27.01-56.818,0,0-4.897-34.572,18.889-57.206-1.553-1.763-3.707-3.23-6.597-4.291-32.247-11.851,63.338-17.896,63.338-17.896l-14.71-40.078Z"/><path class="cls-15" d="M1929.849,95.895s-95.585,6.046-63.338,17.896c2.89,1.061,5.044,2.528,6.597,4.291,9.604,10.889-3.783,33.146-9.482,41.552,26.217-35.464,72.226-48.529,77.256-48.94,3.496-.286,13.275,9.316,20.329,16.806,3.267-4.399,8.586-6.498,15.634-6.679-3.774-2.801-7.529-6.182-11.21-10.227-20.452-21.749-21.906-36.538-21.156-49.931-10.753-2.804-20.502-4.35-29.34-4.848l14.71,40.078Z"/><path class="cls-15" d="M1873.107,118.083c-23.786,22.633-18.889,57.206-18.889,57.206,2.067-4.367,4.446-8.482,7.059-12.339,0,0,.014-.014,.042-.052,.75-1.112,1.518-2.196,2.306-3.262,5.699-8.406,19.086-30.663,9.482-41.552Z"/><path class="cls-5" d="M1985.807,196.326c.009-.028,.028-.057,.051-.099-3.883,2.036-8.821,4.107-15.22,6.077,0,0-51.012-38.501-93.754-21.816,0,0,18.63-58.414,92.034-44.377l.141,.027s-3.378-3.897-7.85-8.637c-7.054-7.49-16.833-17.092-20.329-16.806-5.031,.41-51.04,13.475-77.256,48.94-1.243,1.832-2.12,3.006-2.306,3.262-.028,.038-.042,.052-.042,.052-2.612,3.858-4.992,7.972-7.059,12.339,0,0,3.571,35.435,27.01,56.818,0,0,19.653,7.775,46.212,9.847,19.506,1.528,42.747-.015,64.661-9.977,6.119-2.778,12.139-6.214,17.936-10.421,0,0,1.939-1.371,4.673-4.707,3.77-4.606,9.055-12.943,12.888-26.571,14.958-44.636,51.642-65.362,85.398-67.978,22.796-1.766,44.266,4.724,56.806,17.691l.005,.005c5.287,5.469,9.001,12.099,10.538,19.744,0,0,4.629,21.074-23.312,34.147,0,0-73.316,32.801-88.272-22.866-2.169,5.116-1.422,11.675,3.753,19.725,1.882,2.929,4.072,5.459,6.519,7.635,28.973,25.814,93.26,2.029,93.26,2.029,.366-.172,.723-.345,1.074-.521,19.069-9.54,21.006-25.343,21.006-25.343,0,0,1.038-.959,2.258-2.786,4.418-6.668,11.196-24.873-20.897-50.536-.199-.159-.398-.317-.602-.48-.388-.298-.777-.606-1.175-.914-33.044-25.562-80.641-20.014-112.897-4.667l-.005,.005c-5.818,2.766-11.139,5.853-15.78,9.133-1.115,.79-2.491,1.808-4.059,3.078,0,0-.009,.009-.023,.014-5.71,4.611-13.947,12.387-21.214,23.334-8.468,12.764-16.177,29.93-20.598,34.913-2.512,2.835-6.071,6.658-13.509,10.575-.033,.052-.051,.09-.065,.114Z"/><path class="cls-8" d="M1827.283,198.539l-.005,.005c2.548,8.697,5.022,14.488,5.022,14.488,6.217,21.199,15.138,37.546,25.817,49.745,15.548,2.405,27.941,3.563,37.789,3.804-.971-.143-47.94-7.38-68.623-68.042Z"/><path class="cls-5" d="M1944.479,60.665c-.75,13.393,.705,28.182,21.156,49.931,0,0,5.821-4.885,1.663-10.942,30.192,12.201,32.808-2.308,2.039-8.077,0,0,5.643-6.602-2.363-14.655,0,0,8.107-3.334,14.975-2.907-13.678-6.031-26.129-10.395-37.471-13.351Z"/><path class="cls-5" d="M1976.845,120.823c31.052,23.039,63.261,7.113,64.349,6.568,.014-.005,.023-.014,.023-.014,1.568-1.269,2.944-2.287,4.059-3.078,4.641-3.28,9.962-6.367,15.78-9.133l.005-.005c7.808-8.583,6.077-21.811,6.077-21.811,0,0,12.692-10.324,33.477-10.285,0,0-1.654-6.919-7.538-6.714-5.88,.2-20.872,5.221-29.235,9.556,0,0-9.553-7.876-11.669-9.324-22.473-13.908-42.852,10.903-42.852,10.903-9.627-5.2-18.744-9.665-27.372-13.47-6.869-.428-14.975,2.907-14.975,2.907,8.005,8.052,2.363,14.655,2.363,14.655,30.769,5.769,28.153,20.278-2.039,8.077,4.157,6.057-1.663,10.942-1.663,10.942,3.68,4.045,7.435,7.426,11.21,10.227Zm42.472-8.287c-.728-.932,9.071-21.301,25.069-14.855,9.267,3.734,2.31,7.771,2.31,7.771,0,0-26.647,8.02-27.38,7.084Z"/><path class="cls-5" d="M1968.918,136.112c-73.405-14.037-92.034,44.377-92.034,44.377,42.742-16.685,93.754,21.816,93.754,21.816,6.398-1.97,11.336-4.042,15.22-6.077,1.305-2.388,19.345-36.914-16.94-60.115Zm-45.27,26.018c10.906-18.429,58.923-16.403,47.896,17.589,0,0-23.999-22.038-47.896-17.589Z"/><path class="cls-15" d="M1971.544,179.719c11.028-33.992-36.989-36.018-47.896-17.589,23.896-4.449,47.896,17.589,47.896,17.589Z"/><path class="cls-15" d="M1985.872,196.213c7.438-3.918,10.997-7.74,13.509-10.575,4.421-4.983,12.13-22.149,20.598-34.913,7.267-10.947,15.505-18.723,21.214-23.334-1.088,.545-33.298,16.471-64.349-6.568-7.048,.181-12.367,2.279-15.634,6.679,4.472,4.741,7.85,8.637,7.85,8.637l-.141-.027c36.284,23.201,18.245,57.728,16.94,60.115l.014-.014Z"/><path class="cls-2" d="M1858.116,262.777c12.536,14.327,27.491,22.934,43.32,26.962,59.497-3.006,90.666-57.763,90.666-57.763-21.914,9.962-45.155,11.504-64.661,9.977,0,0,22.113,25.946-31.521,24.632,0,0-.005-.005-.014-.005-9.848-.24-22.241-1.398-37.789-3.804Z"/><path class="cls-5" d="M2044.386,97.682c-15.998-6.447-25.797,13.923-25.069,14.855,.732,.936,27.38-7.084,27.38-7.084,0,0,6.957-4.037-2.31-7.771Z"/><path class="cls-15" d="M2113.769,78.477c1.093,.086,9.956,.814,13.569,2.27,3.845,1.553,7.603,11.516,7.603,11.516,0,0-12.434-7.797-18.369-2.501,0,0,4.608-10.743-2.803-11.284Zm-61.596-1.894c2.116,1.448,11.669,9.324,11.669,9.324,8.363-4.335,23.355-9.356,29.235-9.556,5.884-.205,7.538,6.714,7.538,6.714-20.785-.039-33.477,10.285-33.477,10.285,0,0,1.73,13.228-6.077,21.811,32.256-15.347,79.853-20.895,112.897,4.667,.398,.308,.786,.616,1.175,.914-51.19-105.586-122.959-44.158-122.959-44.158Z"/><path class="cls-9" d="M2113.769,78.477c7.411,.541,2.803,11.284,2.803,11.284,5.935-5.296,18.369,2.501,18.369,2.501,0,0-3.758-9.963-7.603-11.516-3.613-1.456-12.476-2.184-13.569-2.27Z"/><path class="cls-15" d="M2068.762,171.019c1.568-3.708,4.653-6.661,8.695-8.886,0,0-18.918-30.614,35.54-39.835-33.756,2.617-70.44,23.342-85.398,67.978,0,0,10.063,16.687,35.587,12.692,4.741-.733,10.013-2.186,15.848-4.59-2.446-2.176-4.636-4.706-6.519-7.635-5.175-8.05-5.922-14.609-3.753-19.725Z"/><path class="cls-8" d="M2063.186,202.969c-25.524,3.995-35.587-12.692-35.587-12.692-3.833,13.628-9.118,21.966-12.888,26.571,23.226-14.492,37.561,14.702,37.839,15.283l.005,.005c3.032,.49,4.761,1.315,4.761,1.315,21.521,7.045,41.763,6.867,57.975,4.309-1.215,.047-53.661,1.93-52.105-34.791Z"/><path class="cls-9" d="M1901.436,289.738c40.207,10.241,86.088-9.034,112.435-39.202,16.473-18.872,31.367-19.597,38.679-18.405-.278-.582-14.613-29.775-37.839-15.283-2.734,3.336-4.673,4.707-4.673,4.707-5.797,4.207-11.817,7.643-17.936,10.421,0,0-31.169,54.757-90.666,57.763Z"/><path class="cls-5" d="M2112.997,122.298c-54.458,9.221-35.54,39.835-35.54,39.835,10.738-5.911,28.174-6.638,41.347-2.571,2.092-35.568,42.848-18.823,44.918-12.232-.385-1.753-2.085-10.932,6.08-7.34-12.54-12.967-34.01-19.456-56.806-17.691Z"/><path class="cls-31" d="M2118.805,159.562c-13.173-4.067-30.609-3.34-41.347,2.571-4.042,2.225-7.127,5.178-8.695,8.886,14.956,55.667,88.272,22.866,88.272,22.866,27.941-13.073,23.312-34.147,23.312-34.147-1.537-7.645-5.251-14.275-10.538-19.744l-.005-.005c-8.164-3.592-6.465,5.587-6.08,7.34,.029,.075,.043,.146,.053,.221-.015-.052-.029-.122-.053-.221-2.07-6.591-42.826-23.335-44.918,12.232Z"/><path class="cls-3" d="M2158.471,87.21s26.681,25.408,18.453,32.548c6.639,1.221,14.537,7.456,19.926,15.82l.066-.038c7.881-16.23,19.951-32.092,32.907-43.605-5.395,3.267-33.381,19.754-39.972,15.011-7.301-5.256-26.827-24.121-31.379-19.735Z"/><path class="cls-9" d="M2079.034,198.379c-5.835,2.404-11.107,3.857-15.848,4.59-1.556,36.722,50.89,34.838,52.105,34.791h.019c22.232-3.508,36.891-11.503,36.891-11.503,0,0,10.936-19.427,21.167-26.371-.352,.177-.708,.349-1.074,.521,0,0-64.287,23.785-93.26-2.029Z"/><path class="cls-28" d="M2229.822,91.935c-12.956,11.513-25.026,27.375-32.907,43.605l-.066,.038c6.924,10.735,9.721,24.977,.439,36.603-.047,3.151,4.245,1.517,6.953,1.633,.881,.036,1.629-.62,1.693-1.501,.843-12.282,7.467-78.577,52.275-88.506,14.121-3.131,51.414,18.923,47.939,52.896-.285,2.747-.678,5.51-.409,8.093,.797,7.617,2.777,7.221,5.844-.544,1.594-4.038,2.37-8.48,2.201-12.665-.175-4.472-.647-8.834-1.427-13.051-6.007-32.516-28.791-45.253-48.311-44.186-10.548,.575-22.73,7.364-34.226,17.585Z"/></g></g><path class="cls-17" d="M2319.03,105.002l-14.25,5.192c-.034-12.386-5.427-25.824-16.408-36.027,7.179-4.194,15.425-8.363,19.858-8.378,11.696-.039,21.581,3.112,10.8,39.213Z"/><path class="cls-11" d="M2204.632,112.44c1.64-.219-2.014-7.4-2.014-7.4,7.015-.505,11.519,.857,11.519,.857,2.094,3.808,5.712,5.997,5.712,5.997,0,0,39.16-24.541,55.099-29.229,0,0,24.365-16.849,33.284-16.877,11.696-.036,21.582,3.115,10.799,39.212l-76.928,28.025-2.219-1.051-25.81,9.927-24.629-11.639,1.974-10.38,6.304,2.038,1.019-1.719-4.903-2.229,.955-7.642,6.559,2.675,3.279-.565Z"/><path class="cls-17" d="M2278.31,80.416c8.549,10.937,11.901,24.126,10.262,35.68l-25.53,9.298-17.857,6.504-3.083,1.126-2.217-1.047-25.809,9.924-24.63-11.637,1.972-10.379,6.303,2.036,1.023-1.718-4.904-2.232,.954-7.639,6.557,2.672,3.279-.563c1.639-.22-2.011-7.399-2.011-7.399,7.013-.509,11.515,.856,11.515,.856,2.094,3.807,5.711,5.995,5.711,5.995,0,0,21.087-13.213,38.611-22.1,6.357-3.225,12.249-5.877,16.492-7.125,0,0,.729-.504,1.987-1.341,.406-.269,.866-.577,1.375-.91Z"/><path class="cls-22" d="M2288.572,116.096c1.639-11.554-1.713-24.742-10.262-35.68,2.486-1.63,6.112-3.944,10.061-6.249,10.981,10.203,16.374,23.641,16.408,36.027l-16.208,5.902Z"/></g></g></g></svg>