<?xml version="1.0" encoding="UTF-8"?><svg id="Layer_2" xmlns="http://www.w3.org/2000/svg" viewBox="0 0 362.763 381.509"><defs><style>.cls-1{fill:none;stroke:#000;stroke-miterlimit:10;}.cls-2{fill:#f28f70;}.cls-3{fill:#e1f200;}.cls-4{fill:#72c945;}.cls-5{fill:#b55e2d;}.cls-6{fill:#b75806;}.cls-7{fill:#dd5b45;}</style></defs><g id="Layer_2-2"><g><g><path class="cls-4" d="M362.017,136.779s1.28,8.13-1.99,11.34l-4.48,1.4,2.2,1.57s-.31,4.39-7.18,4.95-10.91,2.41-10.91,2.41c0,0-10.38,3.64-7.85,16.25-3.66-4.72-7.71-9.28-12.18-13.7-1.67-1.65-3.46-3.3-5.34-4.9-.44-.38-.89-.76-1.34-1.13l.24-.29,6.96-5.06c3.4,3.14,13.96,2,23.93-1.62,7.33-2.64,14.34-6.63,17.94-11.22Z"/><path class="cls-6" d="M331.807,174.699c18.25,23.49,26.87,50.72,29.58,81.41,8.63,97.93-58.36,123.24-112.93,122.17,6.49-3.72,12.57-7.49,18.26-11.3h.01c140.77-94.06,47.56-210.88,47.56-210.88,1.88,1.6,3.67,3.25,5.34,4.9,4.47,4.42,8.52,8.98,12.18,13.7Z"/><path class="cls-4" d="M336.967,119.009c29.43,5.16,7.11,28.99,7.11,28.99-9.97,3.62-20.53,4.76-23.93,1.62,.65-.48,1.37-1,2.16-1.57,9.13-6.64-2.47-10.41,.16-15.47,2.64-5.06,6.74-5.58,6.74-5.58l5.82,4.41,1.94-12.4Z"/><path class="cls-2" d="M249.657,189.309c.12,.58,4.87,24.8-11.7,34.29-.58,.33-1.18,.65-1.81,.94-22.14,10.3-45.29,53.29-2.1,111.33,0,0,15.08,7.21,24.71-2.14,0,0-29.22-31.94-12.33-46.71,0,0,3.77,3.31,8.31-.76,0,0-12.85,30.88,14.85,47.33,0,0,8.55,4.31,22.76-6.58,13.07-8.96,18.1-22.6,20.02-32.63h.01c2.35,.04,5.07-6.31,5.07-6.31,7.1-14.11-5.87-33.25-5.87-33.25-3.37-60.96-38.21-67.97-61.92-65.51Zm-21.99,5.24s-10.86-8.77-7.16-21.37c3.71-12.61,4.53-18.59,4.53-18.59,0,0,35.64-23.87,60.93-15.72,1.73,.67,3.43,1.4,5.11,2.18,.03,.02,.06,.03,.09,.05,8.01,3.73,15.41,8.6,21.78,13.87,.45,.37,.9,.75,1.34,1.13,0,0,93.21,116.82-47.56,210.88h-.01c-35.48,6.75-72.29-1.86-79.34-3.66-.39-.15-.8-.26-1.21-.32-2.47-.43-5.28,.41-7.59,1.57l-.06,.03c18-12.46,24.43-41.82,21.65-47.2-3.29-6.37-16.63-48.18-4.83-71.05,0,0,1.85-18.92-41.41-15.6,0,0-4.53-14.73-.52-23.32,5.92-12.7,54.06,7.69,54.06,7.69,0,0,1.91-10.47,20.2-20.57Z"/><path class="cls-3" d="M270.777,244.869c-2.74-8.11-4.52-16.13-4.98-22.67-1.93-27.23,21.85-17.44,19.47-15.99-2.38,1.44,7.32,25.61,7.32,25.61-22.96,17.43,13.43,40.37,18.99,23,0,0,12.97,19.14,5.87,33.25,0,0-2.72,6.35-5.07,6.31h-.01c1.44-7.49,1.13-12.96,1.13-12.96-12.23,12.09-25.73-.74-35.26-18.94-2.91-5.55-5.45-11.61-7.46-17.61Z"/><path class="cls-5" d="M313.497,281.419s.31,5.47-1.13,12.96c-1.92,10.03-6.95,23.67-20.02,32.63,0,0-33.74-22.27-14.11-64.53,9.53,18.2,23.03,31.03,35.26,18.94Z"/><path class="cls-5" d="M311.577,254.819c-5.56,17.37-41.95-5.57-18.99-23,0,0-9.7-24.17-7.32-25.61,2.38-1.45-21.4-11.24-19.47,15.99,.46,6.54,2.24,14.56,4.98,22.67-13.63-28.69-32.82-21.27-32.82-21.27,16.57-9.49,11.82-33.71,11.7-34.29,23.71-2.46,58.55,4.55,61.92,65.51Z"/><path class="cls-6" d="M285.967,138.869c-25.29-8.15-60.93,15.72-60.93,15.72,0,0-.82,5.98-4.53,18.59-3.7,12.6,7.16,21.37,7.16,21.37-18.29,10.1-20.2,20.57-20.2,20.57,0,0-48.14-20.39-54.06-7.69-4.01,8.59,.52,23.32,.52,23.32,26.96,21.12,21.18,64.96,21.18,64.96-17.49-57.6-53.02-44.26-62.34-39.58-.69,.34-.65,1.26,.02,1.63,6.51,3.61,12.34,27.26,12.52,28-9.1-10.76-16.96-14.33-23.38-14.36,7.46-28.65-1.67-36.16-1.67-36.16-40.28-34.25-57.57,23.73-58.39,26.57,11.11-71.39,75.29-35.7,75.29-35.7,8.21-.86,9.53-29.4,9.53-29.4-42.21-57.78-90.05-19.06-91.78-17.63,1.95-2.08,3.88-4.04,5.79-5.9,.33-.31,.65-.61,.96-.92,.82-.76,1.59-1.49,2.33-2.19,34.45-31.75,60.94-27.24,95.47-1.97,23.84,17.45,44.74,12.05,57.51,5.08,8.33-4.54,13.21-9.76,13.21-9.76,22.15-32.38,51.23-34.16,75.79-24.55Z"/><path class="cls-7" d="M292.347,327.009c-14.21,10.89-22.76,6.58-22.76,6.58-27.7-16.45-14.85-47.33-14.85-47.33-4.54,4.07-8.31,.76-8.31,.76-16.89,14.77,12.33,46.71,12.33,46.71-9.63,9.35-24.71,2.14-24.71,2.14-43.19-58.04-20.04-101.03,2.1-111.33,.63-.29,1.23-.61,1.81-.94,0,0,19.19-7.42,32.82,21.27,2.01,6,4.55,12.06,7.46,17.61-19.63,42.26,14.11,64.53,14.11,64.53Zm-43.75-64.86c2.02,6.58,10.14-13.37-1.94-15.34,0,0-12.29,2.45-18.9,14.38s18.82-5.62,20.84,.96Z"/><path class="cls-6" d="M284.767,132.259s-32.61-8.1-49.94-2.24c-21.06,7.12-28.28,25.99-28.28,25.99,0,0-9.95-21.12-23.13-17.54-9.17,2.49-23.07-2.45-30.56-5.64-1.65-.7-1.49-3.07,.22-3.58,5.95-1.74,15.68-5.96,23.69-15.97,21.21-26.46-7.23-49.44-3.03-67.75s27.44-11.96,27.44-11.96c6.48-7.92,2.52-20.28,2.52-20.28,0,0-6.97,1.52-15.82-5.3-8.85-6.82-18.06,44.32-21.54,26.77-3.48-17.55-29.67-13.14-29.67-13.14-21.34,10.26-6.28,27.66-6.28,27.66,0,0,26.63,9.7-2.06,20-28.68,10.3-20.88,32.36-20.88,32.36-4.12-5.88-6.88,2.36-6.88,2.36-1.11-.67-8.02-35,28.76-44.59,0,0-31.66-31.66,4.91-49.05,0,0,24.97-3.57,33.44,10.48,0,0,12.04-29.21,35.9-17.62,23.86,11.6,2.9,33.45,2.9,33.45,0,0-18.53,51.21,11.37,39.24,3.64-1.46-19.57,34.76,.17,34.23,28.54-.76,66.75,22.12,66.75,22.12Z"/><path class="cls-7" d="M266.717,366.979c-5.69,3.81-11.77,7.58-18.26,11.3-25.82-.49-48.87-6.9-59.79-14.3-.41-.28-.84-.5-1.29-.66,7.05,1.8,43.86,10.41,79.34,3.66Z"/><path class="cls-2" d="M246.657,246.809c12.08,1.97,3.96,21.92,1.94,15.34s-27.45,10.97-20.84-.96,18.9-14.38,18.9-14.38Z"/><path class="cls-7" d="M175.107,295.709s5.78-43.84-21.18-64.96c43.26-3.32,41.41,15.6,41.41,15.6-11.8,22.87,1.54,64.68,4.83,71.05,2.78,5.38-3.65,34.74-21.65,47.2-3.67,1.84-7.42,3.47-11.18,4.92-26.4,5.7-21.02-12.54-21.02-12.54,24.2-48.36-.8-65.08-.8-65.08-1.92,1.14,.73,8.87,1.47,14.59,.74,5.72-13.43,6.33-13.43,6.33,0,0,9.73-7.75-8.24-27.04,0,0,0-.01-.01-.02-.18-.74-6.01-24.39-12.52-28-.67-.37-.71-1.29-.02-1.63,9.32-4.68,44.85-18.02,62.34,39.58Z"/><path class="cls-7" d="M196.967,173.179c-12.77,6.97-33.67,12.37-57.51-5.08-34.53-25.27-61.02-29.78-95.47,1.97,15.94-15.21,14.7-15.8,14.7-15.8,55.94-57.11,105.22,0,105.22,0,0,0-9.38,18.38,33.06,18.91Z"/><path class="cls-2" d="M41.867,261.829c-.63,3.96-1.08,8.26-1.35,12.91-4.66,80.23,78.15,62.23,78.15,62.23,0,0,18.94-1.6,14.89-24.15,0,0,14.17-.61,13.43-6.33-.74-5.72-3.39-13.45-1.47-14.59,0,0,25,16.72,.8,65.08,0,0-5.38,18.24,21.02,12.54-26.18,10.12-52.59,11.49-52.59,11.49C-20.183,378.539-16.603,237.629,28.957,185.629c2-2.28,3.97-4.45,5.9-6.51,0,0,.02-.01,.05-.04,1.73-1.43,49.57-40.15,91.78,17.63,0,0-1.32,28.54-9.53,29.4,0,0-64.18-35.69-75.29,35.7v.02Z"/><path class="cls-3" d="M101.927,271.399c6.42,.03,14.28,3.6,23.38,14.36,.01,.01,.01,.02,.01,.02,17.97,19.29,8.24,27.04,8.24,27.04,4.05,22.55-14.89,24.15-14.89,24.15,0,0-37.89,1.73-48.3-28.63,0,0-6.38-26.59,12.27-24.08,0,0,6.97-12.92,19.29-12.86Zm1.17,50.7c11.95,2.5,21.17-10.69,14.16-20.4-3.91-5.4-10.24-9.68-15.29-11.31-10.76-3.48-16.36,8.91-11.19,22.26,2.25,5.83,7.32,8.4,12.32,9.45Z"/><path class="cls-7" d="M70.367,308.339c10.41,30.36,48.3,28.63,48.3,28.63,0,0-82.81,18-78.15-62.23,.27-4.65,.72-8.95,1.35-12.91v-.02c.82-2.84,18.11-60.82,58.39-26.57,0,0,9.13,7.51,1.67,36.16-12.32-.06-19.29,12.86-19.29,12.86-18.65-2.51-12.27,24.08-12.27,24.08Z"/><path class="cls-2" d="M117.257,301.699c7.01,9.71-2.21,22.9-14.16,20.4-5-1.05-10.07-3.62-12.32-9.45-5.17-13.35,.43-25.74,11.19-22.26,5.05,1.63,11.38,5.91,15.29,11.31Z"/></g><g><path class="cls-1" d="M291.077,141.049c-1.68-.78-3.38-1.51-5.11-2.18-24.56-9.61-53.64-7.83-75.79,24.55,0,0-4.88,5.22-13.21,9.76-12.77,6.97-33.67,12.37-57.51-5.08-34.53-25.27-61.02-29.78-95.47,1.97-.77,.71-1.55,1.44-2.33,2.19"/><path class="cls-1" d="M34.857,179.119c-1.93,2.06-3.9,4.23-5.9,6.51-45.56,52-49.14,192.91,85.79,195.38,0,0,26.41-1.37,52.59-11.49,3.76-1.45,7.51-3.08,11.18-4.92l.06-.03c2.31-1.16,5.12-2,7.59-1.57,.41,.06,.82,.17,1.21,.32,.45,.16,.88,.38,1.29,.66,10.92,7.4,33.97,13.81,59.79,14.3,54.57,1.07,121.56-24.24,112.93-122.17-2.71-30.69-11.33-57.92-29.58-81.41-3.66-4.72-7.71-9.28-12.18-13.7-1.67-1.65-3.46-3.3-5.34-4.9-.44-.38-.89-.76-1.34-1.13-6.37-5.27-13.77-10.14-21.78-13.87"/><path class="cls-1" d="M40.697,173.179c-1.91,1.86-3.84,3.82-5.79,5.9"/><path class="cls-1" d="M40.697,173.179c.33-.31,.65-.61,.96-.92,.82-.76,1.59-1.49,2.33-2.19,15.94-15.21,14.7-15.8,14.7-15.8,55.94-57.11,105.22,0,105.22,0,0,0-9.38,18.38,33.06,18.91"/><path class="cls-1" d="M125.317,285.779s0-.01-.01-.02c-.18-.74-6.01-24.39-12.52-28-.67-.37-.71-1.29-.02-1.63,9.32-4.68,44.85-18.02,62.34,39.58,0,0,5.78-43.84-21.18-64.96,0,0-4.53-14.73-.52-23.32,5.92-12.7,54.06,7.69,54.06,7.69,0,0,1.91-10.47,20.2-20.57,0,0-10.86-8.77-7.16-21.37,3.71-12.61,4.53-18.59,4.53-18.59,0,0,35.64-23.87,60.93-15.72,1.76,.56,3.47,1.28,5.11,2.18,.03,.02,.06,.03,.09,.05"/><path class="cls-1" d="M41.867,261.829c-.63,3.96-1.08,8.26-1.35,12.91-4.66,80.23,78.15,62.23,78.15,62.23,0,0-37.89,1.73-48.3-28.63,0,0-6.38-26.59,12.27-24.08,0,0,6.97-12.92,19.29-12.86,6.42,.03,14.28,3.6,23.38,14.36"/><path class="cls-1" d="M34.857,179.119s.02-.01,.05-.04c1.73-1.43,49.57-40.15,91.78,17.63,0,0-1.32,28.54-9.53,29.4,0,0-64.18-35.69-75.29,35.7"/><path class="cls-1" d="M266.717,366.979c-5.69,3.81-11.77,7.58-18.26,11.3"/><path class="cls-1" d="M314.287,156.099s93.21,116.82-47.56,210.88"/><path class="cls-1" d="M118.667,336.969s18.94-1.6,14.89-24.15c0,0,9.73-7.75-8.24-27.04"/><path class="cls-1" d="M133.557,312.819s14.17-.61,13.43-6.33c-.74-5.72-3.39-13.45-1.47-14.59,0,0,25,16.72,.8,65.08,0,0-5.38,18.24,21.02,12.54,.01,0,.03-.01,.04-.01,4.12-.89,7.82-2.61,11.14-4.91,18-12.46,24.43-41.82,21.65-47.2-3.29-6.37-16.63-48.18-4.83-71.05,0,0,1.85-18.92-41.41-15.6"/><path class="cls-1" d="M117.257,301.699c7.01,9.71-2.21,22.9-14.16,20.4-5-1.05-10.07-3.62-12.32-9.45-5.17-13.35,.43-25.74,11.19-22.26,5.05,1.63,11.38,5.91,15.29,11.31Z"/><path class="cls-1" d="M175.107,295.709s9.92,31.34,5.42,36.4"/><path class="cls-1" d="M227.667,194.549s9.44-3.95,21.99-5.24c23.71-2.46,58.55,4.55,61.92,65.51-5.56,17.37-41.95-5.57-18.99-23,0,0-9.7-24.17-7.32-25.61,2.38-1.45-21.4-11.24-19.47,15.99,.46,6.54,2.24,14.56,4.98,22.67,2.01,6,4.55,12.06,7.46,17.61,9.53,18.2,23.03,31.03,35.26,18.94,0,0,.31,5.47-1.13,12.96-1.92,10.03-6.95,23.67-20.02,32.63,0,0-33.74-22.27-14.11-64.53"/><path class="cls-1" d="M249.657,189.299v.01c.12,.58,4.87,24.8-11.7,34.29-.58,.33-1.18,.65-1.81,.94-22.14,10.3-45.29,53.29-2.1,111.33,0,0,15.08,7.21,24.71-2.14,0,0-29.22-31.94-12.33-46.71,0,0,3.77,3.31,8.31-.76,0,0-12.85,30.88,14.85,47.33,0,0,8.55,4.31,22.76-6.58"/><path class="cls-1" d="M237.957,223.599s19.19-7.42,32.82,21.27c1.55,3.26,3.03,7,4.4,11.26"/><path class="cls-1" d="M246.657,246.809s-12.29,2.45-18.9,14.38,18.82-5.62,20.84,.96,10.14-13.37-1.94-15.34Z"/><path class="cls-1" d="M41.837,261.919l.03-.09v-.02c.82-2.84,18.11-60.82,58.39-26.57,0,0,9.13,7.51,1.67,36.16v.01"/><path class="cls-1" d="M186.167,362.999s.42,.12,1.21,.32c7.05,1.8,43.86,10.41,79.34,3.66h.01"/><path class="cls-1" d="M311.577,254.819s12.97,19.14,5.87,33.25c0,0-2.72,6.35-5.07,6.31"/><path class="cls-1" d="M320.087,149.559l.06,.06c3.4,3.14,13.96,2,23.93-1.62,7.33-2.64,14.34-6.63,17.94-11.22,0,0,1.28,8.13-1.99,11.34l-4.48,1.4,2.2,1.57s-.31,4.39-7.18,4.95-10.91,2.41-10.91,2.41c0,0-10.38,3.64-7.85,16.25,.03,.17,.07,.35,.11,.53"/><path class="cls-1" d="M344.077,147.999s22.32-23.83-7.11-28.99l-1.94,12.4-5.82-4.41s-4.1,.52-6.74,5.58c-2.63,5.06,8.97,8.83-.16,15.47-.79,.57-1.51,1.09-2.16,1.57l-6.96,5.06"/><path class="cls-1" d="M217.847,75.909c-29.9,11.97-11.37-39.24-11.37-39.24,0,0,20.96-21.85-2.9-33.45-23.86-11.59-35.9,17.62-35.9,17.62-8.47-14.05-33.44-10.48-33.44-10.48-36.57,17.39-4.91,49.05-4.91,49.05-36.78,9.59-29.87,43.92-28.76,44.59,0,0,2.76-8.24,6.88-2.36,0,0-7.8-22.06,20.88-32.36,28.69-10.3,2.06-20,2.06-20,0,0-15.06-17.4,6.28-27.66,0,0,26.19-4.41,29.67,13.14,3.48,17.55,12.69-33.59,21.54-26.77,8.85,6.82,15.82,5.3,15.82,5.3,0,0,3.96,12.36-2.52,20.28,0,0-23.24-6.35-27.44,11.96s24.24,41.29,3.03,67.75c-8.01,10.01-17.74,14.23-23.69,15.97-1.71,.51-1.87,2.88-.22,3.58,7.49,3.19,21.39,8.13,30.56,5.64,13.18-3.58,23.13,17.54,23.13,17.54,0,0,7.22-18.87,28.28-25.99,17.33-5.86,49.94,2.24,49.94,2.24,0,0-38.21-22.88-66.75-22.12-19.74,.53,3.47-35.69-.17-34.23Z"/><path class="cls-1" d="M189.027,45.709s5.94,72.01,33.64,77.1"/><path class="cls-1" d="M195.137,112.539c16.49,19.09,10.71,28.63,10.71,28.63"/></g></g></g></svg>