<?xml version="1.0" encoding="UTF-8"?><svg id="Layer_2" xmlns="http://www.w3.org/2000/svg" viewBox="0 0 1164.117 616.561"><defs><style>.cls-1,.cls-2,.cls-3,.cls-4,.cls-5,.cls-6,.cls-7{stroke-miterlimit:10;}.cls-1,.cls-2,.cls-3,.cls-4,.cls-6{fill:none;}.cls-1,.cls-3,.cls-5,.cls-6,.cls-7{stroke:#000;}.cls-1,.cls-7{stroke-width:4px;}.cls-8{fill:#e28069;}.cls-9{fill:#f28f70;}.cls-10{fill:#922246;}.cls-2{stroke:red;}.cls-2,.cls-4{stroke-width:2px;}.cls-3{stroke-width:6px;}.cls-11{fill:#75203f;}.cls-4{stroke:#840808;}.cls-5{fill:#dbc3a1;}.cls-12{fill:#b07e89;}.cls-13{fill:#dd7a5f;}.cls-14{fill:#878a51;}.cls-15{fill:#71453e;}.cls-16{fill:#ef8570;}.cls-17{fill:#a4b45c;}.cls-18{fill:#d5d5d5;}.cls-6{stroke-width:5px;}.cls-19{fill:#a22;}.cls-20{fill:#ff5a53;}.cls-21{fill:#524f54;}.cls-22{fill:#b0b0b1;}.cls-23{fill:#d4801d;}.cls-24{fill:#fbfae8;}.cls-7{fill:#e2a09c;}</style></defs><g id="Layer_3"><g><g><g><g><polygon class="cls-6" points="841.337 283.896 804.647 298.006 775.087 284.036 795.607 270.155 841.337 283.896"/><path class="cls-6" d="M950.617,536.446l-.43-.81c.02,.03,.04,.06,.06,.08,.22,.32,.34,.56,.37,.73Z"/><polygon class="cls-6" points="829.774 220.24 808.609 182.451 828.978 171.254 838.764 192.884 842.519 191.739 835.464 171.254 854.239 164.51 857.88 185.377 860.725 184.614 860.725 162.729 874.266 161.711 872.673 179.397 871.194 184.359 851.137 196.316 854.91 200.842 857.105 199.384 854.498 195.702 871.65 186.267 875.217 191.406 829.774 220.24"/><path class="cls-6" d="M1064.097,85.726s-15.19-4.53-20.92-11.33c0,0,27.8-3.27,30.86-11.57,0,0,7.43,5.82-9.94,22.9Z"/><path class="cls-6" d="M1132.497,68.196c-1.37,6.49-6.69,19.98-13.58,35.84-2.23-8.5-4.93-16.3-8.32-23.01-7.25-14.32-17.73-23.71-33.8-24.57,0,0-2.35-4.65-3.31-10.26,6.65-1.77,15.8-2.76,22.56,2.17,11.9,8.68,8.43,5.21,8.43,5.21,0,0,32.73-7.69,28.02,14.62Z"/><path class="cls-6" d="M1008.459,94.405l35.7,20.06c-14.79,1-9.96,14.45-9.96,14.45-7.08-.8-15.85-.96-24.02-5.67l3.2-14.9c.65-3.48-1.49-8.62-4.92-13.94Z"/><path class="cls-6" d="M1054.91,102.926c-4.11-4.44-8.98-8.88-14.73-12.99-20.44-14.6-41.98-17.89-56.28-18.18-.14-7.15,29.75-15.45,49.53-3.37,0,0-1.94,8.06,20.22,26.59-.68,.13,.7,3.82,1.26,7.95Z"/><path class="cls-6" d="M1135.357,58.256s26.01,47.93,22.9,64.77c0,0-17.39-23.22-25.3-14.72-7.69,8.27-4.82,46.96-4.65,49.14-2.59-18.63-5.16-37.29-9.39-53.41-2.23-8.5-4.93-16.3-8.32-23.01-7.25-14.32-17.73-23.71-33.8-24.57,0,0-2.35-4.65-3.31-10.26-.84-4.96-.61-10.68,3.31-14.6,8.34-8.34,34.35-23.56,34.35-23.56,0,0-16.52,23.23-5.56,26.83,10.96,3.6,54.14-.51,55.78,9.88l-26.01,13.51Z"/></g><path class="cls-6" d="M1019.117,222.606l-29.12,10.61-33.12,12.06-52.17,19-42.78,15.59h-.01l-4.53-2.14-16.05,6.17-36.69,14.11-29.56-13.97-20.77-9.81,4.03-21.21,12.88,4.16h.01l2.08-3.51-10.02-4.56,1.95-15.61,13.4,5.46,6.7-1.15c.23-.03,.41-.13,.54-.28,.09-.1,.17-.23,.22-.39,.98-2.95-4.87-14.45-4.87-14.45,14.33-1.04,23.53,1.75,23.53,1.75h.01c.45,.82,.93,1.6,1.44,2.35,.17,.25,.34,.49,.52,.73,1.15,1.6,2.41,3.01,3.61,4.21,3.21,3.22,6.09,4.96,6.09,4.96,0,0,.02-.01,.07-.04,.04-.02,.09-.06,.17-.1,.01-.02,.03-.03,.04-.03,.15-.1,.37-.23,.64-.4,.17-.11,.36-.23,.58-.36,.24-.15,.51-.31,.8-.49,.06-.04,.11-.08,.17-.11,.2-.13,.41-.26,.63-.39,.4-.25,.83-.52,1.3-.8,.47-.3,.97-.61,1.51-.93,.36-.22,.73-.45,1.11-.68,.58-.36,1.19-.73,1.83-1.12,.39-.24,.8-.49,1.22-.75,1.61-.98,3.37-2.05,5.28-3.19,.45-.27,.91-.55,1.37-.83,.41-.25,.82-.49,1.24-.75,.79-.47,1.59-.95,2.42-1.45,.08-.05,.16-.09,.24-.14,1.29-.76,2.61-1.55,3.98-2.37,.17-.1,.33-.2,.5-.29,.77-.46,1.56-.92,2.36-1.4,1.52-.89,3.07-1.81,4.66-2.73,.69-.41,1.39-.82,2.1-1.23,.35-.21,.71-.42,1.07-.62,.71-.42,1.43-.83,2.15-1.25,1.45-.84,2.92-1.69,4.41-2.54,.69-.4,1.38-.79,2.08-1.19,11.3-6.45,23.51-13.17,34.97-18.98,5.68-2.88,11.18-5.54,16.3-7.83,.72-.33,1.44-.64,2.15-.95,1.16-.51,2.3-1,3.41-1.46,.52-.22,1.03-.43,1.54-.63,.79-.33,1.57-.64,2.33-.93,.45-.17,.9-.35,1.34-.51,1.11-.42,2.19-.81,3.22-1.16,.35-.12,.7-.24,1.04-.34,.82-.28,1.61-.53,2.37-.75,0,0,.52-.36,1.48-1.01,.14-.09,.29-.19,.45-.3,.59-.4,1.3-.88,2.13-1.43,.26-.17,.53-.35,.82-.55,.35-.23,.71-.47,1.09-.72,.29-.19,.59-.39,.9-.59,.95-.62,1.99-1.3,3.09-2.01,.45-.28,.92-.58,1.39-.89,.55-.35,1.11-.71,1.68-1.07,3-1.91,6.37-4.01,9.94-6.15,.97-.59,1.96-1.18,2.96-1.77,.49-.29,1-.59,1.5-.88,1.83-1.07,3.7-2.14,5.58-3.19,.71-.4,1.41-.79,2.11-1.17,.68-.37,1.36-.74,2.04-1.11,.86-.46,1.71-.91,2.55-1.35,.85-.45,1.69-.89,2.53-1.31,.7-.36,1.39-.7,2.08-1.04,2.8-1.38,5.54-2.65,8.16-3.74,.43-.18,.87-.36,1.3-.53,.98-.4,1.94-.77,2.87-1.1,.49-.18,.97-.35,1.45-.51,.479-.16,.94-.31,1.41-.46,.27-.08,.52-.16,.78-.24,.36-.11,.71-.21,1.06-.3,.27-.08,.54-.15,.81-.21,.72-.18,1.42-.34,2.09-.46,.15-.03,.31-.06,.46-.08,.86-.15,1.67-.25,2.43-.29,.3-.02,.59-.03,.87-.03,.5,0,1.01,0,1.51,.01,.5,0,1,.01,1.5,.02,.41,.01,.83,.02,1.24,.04,.51,.02,1.01,.04,1.51,.07,.49,.03,.98,.07,1.47,.11,1.11,.09,2.19,.22,3.26,.38,.53,.08,1.06,.17,1.58,.27,.521,.1,1.04,.21,1.55,.33,.56,.13,1.12,.28,1.67,.45,.32,.09,.64,.19,.96,.3,.22,.08,.43,.15,.64,.23,.16,.06,.32,.12,.48,.18,.15,.06,.29,.12,.44,.18,.32,.13,.63,.27,.94,.41,.35,.16,.71,.34,1.05,.52,.43,.23,.86,.48,1.27,.74,.28,.18,.561,.36,.83,.55,.27,.19,.53,.39,.8,.59,.26,.2,.52,.42,.77,.64s.5,.45,.74,.68c.49,.47,.95,.98,1.4,1.51,.3,.36,.58,.73,.86,1.12,.05,.08,.11,.16,.16,.25,.18,.26,.35,.52,.52,.79,.16,.27,.33,.54,.49,.82,.39,.7,.76,1.45,1.1,2.24,.19,.45,.37,.91,.55,1.38,.08,.22,.16,.44,.23,.67,.09,.24,.17,.49,.25,.75,.06,.18,.11,.36,.16,.54,.34,1.17,.63,2.41,.86,3.75,.07,.37,.13,.74,.18,1.12,.06,.38,.11,.77,.16,1.16,.04,.29,.07,.58,.1,.88,.05,.51,.1,1.03,.14,1.56,.06,.74,.1,1.5,.13,2.29,.42,11.83-2.29,28.68-9.43,52.6Z"/><path class="cls-6" d="M956.877,245.276l-52.17,19-36.49,13.29-6.29,2.3h-.01l-4.53-2.14-16.05,6.17-36.69,14.11-29.56-13.97-20.77-9.81,4.03-21.21,12.88,4.16,2.09-3.51-10.02-4.56,1.95-15.61,13.4,5.46,6.7-1.15c.23-.03,.41-.13,.54-.28,.09-.1,.17-.23,.22-.39,.98-2.95-4.87-14.45-4.87-14.45,14.33-1.04,23.53,1.75,23.53,1.75,.45,.82,.93,1.6,1.45,2.35,.17,.25,.34,.49,.52,.73,1.15,1.6,2.41,3.01,3.61,4.21,3.21,3.22,6.09,4.96,6.09,4.96,0,0,.02-.01,.07-.04,.04-.02,.09-.06,.17-.1,.01-.02,.03-.03,.04-.03,.15-.1,.37-.23,.64-.4,.17-.11,.36-.23,.58-.36,.24-.15,.51-.32,.8-.49,.06-.04,.11-.08,.17-.11,.2-.13,.41-.26,.63-.39,.4-.25,.83-.52,1.3-.8,.47-.3,.97-.61,1.51-.93,.36-.22,.73-.45,1.11-.68,.58-.36,1.19-.73,1.83-1.12,.39-.24,.8-.49,1.22-.75,1.61-.98,3.37-2.05,5.28-3.19,.45-.27,.91-.55,1.37-.83,.41-.25,.82-.49,1.24-.75,.79-.47,1.59-.95,2.42-1.45,.08-.05,.16-.09,.24-.14,1.29-.77,2.62-1.56,3.98-2.37,.17-.1,.33-.2,.5-.29,.78-.46,1.56-.93,2.36-1.4,1.52-.89,3.07-1.81,4.66-2.73,.69-.41,1.39-.82,2.1-1.23,.35-.21,.71-.42,1.07-.62,.71-.42,1.43-.83,2.15-1.25,1.45-.84,2.92-1.69,4.41-2.54,.69-.4,1.38-.79,2.08-1.19,11.3-6.45,23.51-13.17,34.97-18.98,5.68-2.88,11.18-5.54,16.3-7.83,.72-.33,1.44-.64,2.15-.95,1.16-.51,2.3-1,3.41-1.46,.52-.22,1.03-.43,1.54-.63,.79-.33,1.57-.64,2.33-.93,.45-.17,.9-.35,1.34-.51,1.11-.42,2.19-.81,3.22-1.16,.35-.12,.7-.24,1.04-.34,.82-.28,1.61-.53,2.37-.75,0,0,.52-.36,1.48-1.01,.14-.09,.29-.19,.45-.3,.59-.4,1.3-.88,2.13-1.43,.26-.17,.53-.35,.82-.55,.34-.22,.71-.46,1.09-.72,.29-.19,.59-.39,.9-.59,17.47,22.35,24.32,49.3,20.97,72.91Z"/><path class="cls-6" d="M1019.12,222.606l-29.12,10.61c-.07-25.31-11.09-52.77-33.53-73.62,14.67-8.57,31.52-17.09,40.58-17.12,23.9-.08,44.1,6.36,22.07,80.13Z"/><path class="cls-6" d="M1064.097,85.726s-15.19-4.53-20.92-11.33c0,0,27.8-3.27,30.86-11.57,0,0,7.43,5.82-9.94,22.9Z"/><path class="cls-6" d="M1093.89,78.475s5.349,10.912-4.065,11.019"/><path class="cls-6" d="M1110.825,80.942s-13.705,4.307-3.602,8.536"/><path class="cls-6" d="M1087.795,101.222s12.472-17.057,17.607,0"/><circle class="cls-6" cx="1051.579" cy="77.384" r="1.246"/><path class="cls-6" d="M956.879,245.276c3.35-23.61-3.5-50.56-20.97-72.91,5.08-3.33,12.49-8.06,20.56-12.77,22.44,20.85,33.46,48.31,33.53,73.62l-33.12,12.06Z"/></g><polygon class="cls-6" points="965.997 380.966 961.247 389.256 961.237 389.246 965.997 380.966"/><path class="cls-6" d="M950.617,536.446l-.43-.81c.02,.03,.04,.06,.06,.08,.22,.32,.34,.56,.37,.73Z"/><g><g><polygon class="cls-6" points="841.337 283.896 804.647 298.006 775.087 284.036 795.607 270.155 841.337 283.896"/><path class="cls-6" d="M1067.307,233.476c-9.3,63.59-96.52,139.17-96.52,139.17l-4.79,8.32-4.76,8.28-55.25,96.02s27.68,27.51,44.2,50.37l.43,.81c-.03-.17-.15-.41-.37-.73,.63,.78,5.71,7.17,8.02,12.48,.01,.01,.01,.02,.01,.03,3.07,5.68,4.59,10.48,3.67,13.61-4.8,16.18-54.85,48.57-54.85,48.57l8.04-22.01,.43-1.17-25.03-4.42-7.99-12-71.13-106.8,65.19-99.13-64.2-20.67s-2.83,.88-7.49,2.42c-11.7,3.87-34.94,11.91-53.73,20.62-11.45,5.31-21.25,10.87-25.79,15.88-14.95,16.51-34.8-84.33-34.8-84.33-.47-1.14,.72-2.26,1.83-1.73l32.97,15.73,11.06-6.35,15.01-8.63,21.58-12.4,2.04-1.38,29.56,13.97,36.69-14.11,49.4,14.85,18.91-32.3s73.18-26.21,112.21-38.6c19.49-6.2,10.19-77.6,10.19-77.6,0,0,44.57,19.62,35.26,83.23Z"/><path class="cls-6" d="M950.617,536.446l-.43-.81c.02,.03,.04,.06,.06,.08,.22,.32,.34,.56,.37,.73Z"/><polygon class="cls-6" points="829.774 220.24 808.609 182.451 828.978 171.254 838.764 192.884 842.519 191.739 835.464 171.254 854.239 164.51 857.88 185.377 860.725 184.614 860.725 162.729 874.266 161.711 872.673 179.397 871.194 184.359 851.137 196.316 854.91 200.842 857.105 199.384 854.498 195.702 871.65 186.267 875.217 191.406 829.774 220.24"/><path class="cls-6" d="M1110.597,81.026c-7.25-14.32-17.73-23.71-33.8-24.57,0,0-2.35-4.65-3.31-10.26-5.07,1.35-8.68,3.16-8.68,3.16,0,0-12.89-6.45-10.16,0,2.73,6.45-11.65,14.13-17.6,18.84-5.95,4.71,7.44,14.17,16.61,24.33,9.17,10.17,1.24,29.26-8.68,25.04-9.92-4.21-9.17,13.64-9.17,13.64l-7.19,.74-19.729-7.74-7.55,9.45c62.42-5.78,72.71,62.2,73.87,61.97,.83-.16,26.92-52.94,43.71-91.59-2.23-8.5-4.93-16.3-8.32-23.01Zm-46.5,4.7s-15.19-4.53-20.92-11.33c0,0,27.8-3.27,30.86-11.57,0,0,7.43,5.82-9.94,22.9Z"/><path class="cls-6" d="M1132.497,68.196c-1.37,6.49-6.69,19.98-13.58,35.84-2.23-8.5-4.93-16.3-8.32-23.01-7.25-14.32-17.73-23.71-33.8-24.57,0,0-2.35-4.65-3.31-10.26,6.65-1.77,15.8-2.76,22.56,2.17,11.9,8.68,8.43,5.21,8.43,5.21,0,0,32.73-7.69,28.02,14.62Z"/><path class="cls-6" d="M1008.459,94.405l35.7,20.06c-14.79,1-9.96,14.45-9.96,14.45-7.08-.8-15.85-.96-24.02-5.67l3.2-14.9c.65-3.48-1.49-8.62-4.92-13.94Z"/><path class="cls-6" d="M1054.91,102.926c-4.11-4.44-8.98-8.88-14.73-12.99-20.44-14.6-41.98-17.89-56.28-18.18-.14-7.15,29.75-15.45,49.53-3.37,0,0-1.94,8.06,20.22,26.59-.68,.13,.7,3.82,1.26,7.95Z"/><path class="cls-6" d="M1135.357,58.256s26.01,47.93,22.9,64.77c0,0-17.39-23.22-25.3-14.72-7.69,8.27-4.82,46.96-4.65,49.14-2.59-18.63-5.16-37.29-9.39-53.41-2.23-8.5-4.93-16.3-8.32-23.01-7.25-14.32-17.73-23.71-33.8-24.57,0,0-2.35-4.65-3.31-10.26-.84-4.96-.61-10.68,3.31-14.6,8.34-8.34,34.35-23.56,34.35-23.56,0,0-16.52,23.23-5.56,26.83,10.96,3.6,54.14-.51,55.78,9.88l-26.01,13.51Z"/></g><path class="cls-6" d="M1019.117,222.606l-29.12,10.61-33.12,12.06-52.17,19-42.78,15.59h-.01l-4.53-2.14-16.05,6.17-36.69,14.11-29.56-13.97-20.77-9.81,4.03-21.21,12.88,4.16h.01l2.08-3.51-10.02-4.56,1.95-15.61,13.4,5.46,6.7-1.15c.23-.03,.41-.13,.54-.28,.09-.1,.17-.23,.22-.39,.98-2.95-4.87-14.45-4.87-14.45,14.33-1.04,23.53,1.75,23.53,1.75h.01c.45,.82,.93,1.6,1.44,2.35,.17,.25,.34,.49,.52,.73,1.15,1.6,2.41,3.01,3.61,4.21,3.21,3.22,6.09,4.96,6.09,4.96,0,0,.02-.01,.07-.04,.04-.02,.09-.06,.17-.1,.01-.02,.03-.03,.04-.03,.15-.1,.37-.23,.64-.4,.17-.11,.36-.23,.58-.36,.24-.15,.51-.31,.8-.49,.06-.04,.11-.08,.17-.11,.2-.13,.41-.26,.63-.39,.4-.25,.83-.52,1.3-.8,.47-.3,.97-.61,1.51-.93,.36-.22,.73-.45,1.11-.68,.58-.36,1.19-.73,1.83-1.12,.39-.24,.8-.49,1.22-.75,1.61-.98,3.37-2.05,5.28-3.19,.45-.27,.91-.55,1.37-.83,.41-.25,.82-.49,1.24-.75,.79-.47,1.59-.95,2.42-1.45,.08-.05,.16-.09,.24-.14,1.29-.76,2.61-1.55,3.98-2.37,.17-.1,.33-.2,.5-.29,.77-.46,1.56-.92,2.36-1.4,1.52-.89,3.07-1.81,4.66-2.73,.69-.41,1.39-.82,2.1-1.23,.35-.21,.71-.42,1.07-.62,.71-.42,1.43-.83,2.15-1.25,1.45-.84,2.92-1.69,4.41-2.54,.69-.4,1.38-.79,2.08-1.19,11.3-6.45,23.51-13.17,34.97-18.98,5.68-2.88,11.18-5.54,16.3-7.83,.72-.33,1.44-.64,2.15-.95,1.16-.51,2.3-1,3.41-1.46,.52-.22,1.03-.43,1.54-.63,.79-.33,1.57-.64,2.33-.93,.45-.17,.9-.35,1.34-.51,1.11-.42,2.19-.81,3.22-1.16,.35-.12,.7-.24,1.04-.34,.82-.28,1.61-.53,2.37-.75,0,0,.52-.36,1.48-1.01,.14-.09,.29-.19,.45-.3,.59-.4,1.3-.88,2.13-1.43,.26-.17,.53-.35,.82-.55,.35-.23,.71-.47,1.09-.72,.29-.19,.59-.39,.9-.59,.95-.62,1.99-1.3,3.09-2.01,.45-.28,.92-.58,1.39-.89,.55-.35,1.11-.71,1.68-1.07,3-1.91,6.37-4.01,9.94-6.15,.97-.59,1.96-1.18,2.96-1.77,.49-.29,1-.59,1.5-.88,1.83-1.07,3.7-2.14,5.58-3.19,.71-.4,1.41-.79,2.11-1.17,.68-.37,1.36-.74,2.04-1.11,.86-.46,1.71-.91,2.55-1.35,.85-.45,1.69-.89,2.53-1.31,.7-.36,1.39-.7,2.08-1.04,2.8-1.38,5.54-2.65,8.16-3.74,.43-.18,.87-.36,1.3-.53,.98-.4,1.94-.77,2.87-1.1,.49-.18,.97-.35,1.45-.51,.479-.16,.94-.31,1.41-.46,.27-.08,.52-.16,.78-.24,.36-.11,.71-.21,1.06-.3,.27-.08,.54-.15,.81-.21,.72-.18,1.42-.34,2.09-.46,.15-.03,.31-.06,.46-.08,.86-.15,1.67-.25,2.43-.29,.3-.02,.59-.03,.87-.03,.5,0,1.01,0,1.51,.01,.5,0,1,.01,1.5,.02,.41,.01,.83,.02,1.24,.04,.51,.02,1.01,.04,1.51,.07,.49,.03,.98,.07,1.47,.11,1.11,.09,2.19,.22,3.26,.38,.53,.08,1.06,.17,1.58,.27,.521,.1,1.04,.21,1.55,.33,.56,.13,1.12,.28,1.67,.45,.32,.09,.64,.19,.96,.3,.22,.08,.43,.15,.64,.23,.16,.06,.32,.12,.48,.18,.15,.06,.29,.12,.44,.18,.32,.13,.63,.27,.94,.41,.35,.16,.71,.34,1.05,.52,.43,.23,.86,.48,1.27,.74,.28,.18,.561,.36,.83,.55,.27,.19,.53,.39,.8,.59,.26,.2,.52,.42,.77,.64s.5,.45,.74,.68c.49,.47,.95,.98,1.4,1.51,.3,.36,.58,.73,.86,1.12,.05,.08,.11,.16,.16,.25,.18,.26,.35,.52,.52,.79,.16,.27,.33,.54,.49,.82,.39,.7,.76,1.45,1.1,2.24,.19,.45,.37,.91,.55,1.38,.08,.22,.16,.44,.23,.67,.09,.24,.17,.49,.25,.75,.06,.18,.11,.36,.16,.54,.34,1.17,.63,2.41,.86,3.75,.07,.37,.13,.74,.18,1.12,.06,.38,.11,.77,.16,1.16,.04,.29,.07,.58,.1,.88,.05,.51,.1,1.03,.14,1.56,.06,.74,.1,1.5,.13,2.29,.42,11.83-2.29,28.68-9.43,52.6Z"/><path class="cls-6" d="M956.877,245.276l-52.17,19-36.49,13.29-6.29,2.3h-.01l-4.53-2.14-16.05,6.17-36.69,14.11-29.56-13.97-20.77-9.81,4.03-21.21,12.88,4.16,2.09-3.51-10.02-4.56,1.95-15.61,13.4,5.46,6.7-1.15c.23-.03,.41-.13,.54-.28,.09-.1,.17-.23,.22-.39,.98-2.95-4.87-14.45-4.87-14.45,14.33-1.04,23.53,1.75,23.53,1.75,.45,.82,.93,1.6,1.45,2.35,.17,.25,.34,.49,.52,.73,1.15,1.6,2.41,3.01,3.61,4.21,3.21,3.22,6.09,4.96,6.09,4.96,0,0,.02-.01,.07-.04,.04-.02,.09-.06,.17-.1,.01-.02,.03-.03,.04-.03,.15-.1,.37-.23,.64-.4,.17-.11,.36-.23,.58-.36,.24-.15,.51-.32,.8-.49,.06-.04,.11-.08,.17-.11,.2-.13,.41-.26,.63-.39,.4-.25,.83-.52,1.3-.8,.47-.3,.97-.61,1.51-.93,.36-.22,.73-.45,1.11-.68,.58-.36,1.19-.73,1.83-1.12,.39-.24,.8-.49,1.22-.75,1.61-.98,3.37-2.05,5.28-3.19,.45-.27,.91-.55,1.37-.83,.41-.25,.82-.49,1.24-.75,.79-.47,1.59-.95,2.42-1.45,.08-.05,.16-.09,.24-.14,1.29-.77,2.62-1.56,3.98-2.37,.17-.1,.33-.2,.5-.29,.78-.46,1.56-.93,2.36-1.4,1.52-.89,3.07-1.81,4.66-2.73,.69-.41,1.39-.82,2.1-1.23,.35-.21,.71-.42,1.07-.62,.71-.42,1.43-.83,2.15-1.25,1.45-.84,2.92-1.69,4.41-2.54,.69-.4,1.38-.79,2.08-1.19,11.3-6.45,23.51-13.17,34.97-18.98,5.68-2.88,11.18-5.54,16.3-7.83,.72-.33,1.44-.64,2.15-.95,1.16-.51,2.3-1,3.41-1.46,.52-.22,1.03-.43,1.54-.63,.79-.33,1.57-.64,2.33-.93,.45-.17,.9-.35,1.34-.51,1.11-.42,2.19-.81,3.22-1.16,.35-.12,.7-.24,1.04-.34,.82-.28,1.61-.53,2.37-.75,0,0,.52-.36,1.48-1.01,.14-.09,.29-.19,.45-.3,.59-.4,1.3-.88,2.13-1.43,.26-.17,.53-.35,.82-.55,.34-.22,.71-.46,1.09-.72,.29-.19,.59-.39,.9-.59,17.47,22.35,24.32,49.3,20.97,72.91Z"/><path class="cls-6" d="M1019.12,222.606l-29.12,10.61c-.07-25.31-11.09-52.77-33.53-73.62,14.67-8.57,31.52-17.09,40.58-17.12,23.9-.08,44.1,6.36,22.07,80.13Z"/><path class="cls-6" d="M1064.097,85.726s-15.19-4.53-20.92-11.33c0,0,27.8-3.27,30.86-11.57,0,0,7.43,5.82-9.94,22.9Z"/><circle class="cls-6" cx="1051.579" cy="77.384" r="1.246"/><path class="cls-6" d="M956.879,245.276c3.35-23.61-3.5-50.56-20.97-72.91,5.08-3.33,12.49-8.06,20.56-12.77,22.44,20.85,33.46,48.31,33.53,73.62l-33.12,12.06Z"/></g></g><g><g><g><path class="cls-23" d="M751.193,367.062c-11.45,5.31-21.25,10.87-25.79,15.88-14.95,16.51-34.8-84.33-34.8-84.33-.47-1.14,.72-2.26,1.83-1.73l32.97,15.73,11.06-6.35c-1.42,24.46,4.69,45.7,14.73,60.8Z"/><path class="cls-11" d="M917.333,306.552l-15.37,24.89-1.96,3.2-3.2,5.24-15.99,26.16-4.2-1.35-64.2-20.67s-2.83,.88-7.49,2.42c-11.7,3.87-34.94,11.91-53.73,20.62-10.04-15.1-16.15-36.34-14.73-60.8l15.01-8.63,21.58-12.4,22.561-15.26,95.13,28.59,26.59,7.99Z"/><path class="cls-23" d="M961.954,561.652c-4.8,16.18-54.85,48.57-54.85,48.57l8.04-22.01c18.61-11.34,32.58-26.52,42.17-39.4,.27-.37,.54-.73,.8-1.09,.05,.1,.11,.2,.16,.29,.01,.01,.01,.02,.01,.03,3.07,5.68,4.59,10.48,3.67,13.61Z"/><path class="cls-10" d="M950.624,536.262c.42,1.99-11.65-5.87-17.67-3.96-9.6,13.11,1.33,44.25-17.81,55.91l.43-1.17-25.03-4.42-7.99-12-71.13-106.8,65.19-99.13,17.4-26.46h.01l2.78,1.65,69.2,40.9-60.01,104.3s27.68,27.51,44.2,50.37c.26,.36,.4,.63,.43,.81Z"/><path class="cls-19" d="M1067.308,233.292c-9.296,63.594-96.522,139.171-96.522,139.171l-4.783,8.319-63.505-46.284-7.032,.421-18.195-13.353,32.377-55.307s73.185-26.204,112.208-38.598c19.492-6.197,10.196-77.596,10.196-77.596,0,0,44.565,19.621,35.255,83.227Z"/><polygon class="cls-22" points="829.778 220.057 808.613 182.267 828.982 171.07 838.768 192.701 842.523 191.556 835.468 171.07 854.243 164.327 857.884 185.194 860.729 184.43 860.729 162.545 874.27 161.528 872.677 179.214 871.198 184.176 851.141 196.133 854.914 200.659 857.109 199.201 854.502 195.519 871.654 186.083 875.221 191.223 829.778 220.057"/><path class="cls-20" d="M1001.345,133.469l7.542-9.448,19.733,7.743,7.19-.744s-.744-17.851,9.173-13.636c9.917,4.215,17.851-14.876,8.677-25.041s-22.564-19.616-16.613-24.327c5.95-4.711,20.33-12.396,17.603-18.843-2.727-6.446,10.165,0,10.165,0,0,0,19.338-9.669,31.239-.992,11.901,8.677,8.43,5.206,8.43,5.206,0,0,32.727-7.686,28.016,14.628-4.711,22.314-56.116,127.193-57.284,127.427s-11.451-67.747-73.87-61.974Z"/><path class="cls-22" d="M1008.463,94.222l35.7,20.06c-14.79,1-9.96,14.45-9.96,14.45-7.08-.8-15.85-.96-24.02-5.67l3.2-14.9c.65-3.48-1.49-8.62-4.92-13.94Z"/><path class="cls-22" d="M1054.914,102.742c-4.11-4.44-8.98-8.88-14.73-12.99-20.44-14.6-41.98-17.89-56.28-18.18-.14-7.15,29.75-15.45,49.53-3.37,0,0-1.94,8.06,20.22,26.59-.68,.13,.7,3.82,1.26,7.95Z"/><path class="cls-21" d="M1076.8,56.273s-8.342-16.521,0-24.863c8.342-8.342,34.35-23.554,34.35-23.554,0,0-16.521,23.227-5.561,26.826,10.959,3.599,54.142-.514,55.778,9.884l-26.008,13.506s26.008,47.927,22.9,64.774c0,0-17.387-23.227-25.296-14.721-7.909,8.506-4.638,49.235-4.638,49.235-6.861-49.432-13.586-99.071-51.525-101.087Z"/></g><path class="cls-5" d="M1043.179,74.209s27.797-3.268,30.859-11.567c0,0,7.431,5.819-9.935,22.9,0,0-15.192-4.528-20.924-11.333Z"/><path class="cls-4" d="M1093.894,78.291s5.349,10.912-4.065,11.019"/><path class="cls-4" d="M1110.829,80.759s-13.705,4.307-3.602,8.536"/><path class="cls-4" d="M1087.799,101.039s12.472-17.057,17.607,0"/><circle cx="1051.583" cy="77.201" r="1.246"/></g><polygon class="cls-15" points="890.818 342.894 894.111 338.057 966.003 380.781 961.247 389.075 929.648 368.099 928.777 361.679 890.818 342.894"/><path class="cls-24" d="M958.273,548.012c-.05-.09-.11-.19-.16-.29-.26,.36-.53,.72-.8,1.09-9.59,12.88-23.56,28.06-42.17,39.4,19.14-11.66,8.21-42.8,17.81-55.91,6.02-1.91,18.09,5.95,17.67,3.96-.03-.18-.17-.45-.43-.81,0,0,5.62,6.9,8.08,12.56Z"/><path class="cls-10" d="M950.193,535.452c.26,.36,.4,.63,.43,.81l-.43-.81Z"/><g><g><path class="cls-23" d="M751.193,367.062c-11.45,5.31-21.25,10.87-25.79,15.88-14.95,16.51-34.8-84.33-34.8-84.33-.47-1.14,.72-2.26,1.83-1.73l32.97,15.73,11.06-6.35c-1.42,24.46,4.69,45.7,14.73,60.8Z"/><path class="cls-11" d="M917.333,306.552l-15.37,24.89-1.96,3.2-3.2,5.24-15.99,26.16-4.2-1.35-64.2-20.67s-2.83,.88-7.49,2.42c-11.7,3.87-34.94,11.91-53.73,20.62-10.04-15.1-16.15-36.34-14.73-60.8l15.01-8.63,21.58-12.4,22.561-15.26,95.13,28.59,26.59,7.99Z"/><path class="cls-23" d="M961.954,561.652c-4.8,16.18-54.85,48.57-54.85,48.57l8.04-22.01c18.61-11.34,32.58-26.52,42.17-39.4,.27-.37,.54-.73,.8-1.09,.05,.1,.11,.2,.16,.29,.01,.01,.01,.02,.01,.03,3.07,5.68,4.59,10.48,3.67,13.61Z"/><path class="cls-10" d="M950.624,536.262c.42,1.99-11.65-5.87-17.67-3.96-9.6,13.11,1.33,44.25-17.81,55.91l.43-1.17-25.03-4.42-7.99-12-71.13-106.8,65.19-99.13,17.4-26.46h.01l2.78,1.65,69.2,40.9-60.01,104.3s27.68,27.51,44.2,50.37c.26,.36,.4,.63,.43,.81Z"/><path class="cls-19" d="M1067.308,233.292c-9.296,63.594-96.522,139.171-96.522,139.171l-4.783,8.319-63.505-46.284-7.032,.421-18.195-13.353,32.377-55.307s73.185-26.204,112.208-38.598c19.492-6.197,10.196-77.596,10.196-77.596,0,0,44.565,19.621,35.255,83.227Z"/><polygon class="cls-18" points="829.778 220.057 808.613 182.267 828.982 171.07 838.768 192.701 842.523 191.556 835.468 171.07 854.243 164.327 857.884 185.194 860.729 184.43 860.729 162.545 874.27 161.528 872.677 179.214 871.198 184.176 851.141 196.133 854.914 200.659 857.109 199.201 854.502 195.519 871.654 186.083 875.221 191.223 829.778 220.057"/><path class="cls-20" d="M1001.345,133.469l7.542-9.448,19.733,7.743,7.19-.744s-.744-17.851,9.173-13.636c9.917,4.215,17.851-14.876,8.677-25.041s-22.564-19.616-16.613-24.327c5.95-4.711,20.33-12.396,17.603-18.843-2.727-6.446,10.165,0,10.165,0,0,0,19.338-9.669,31.239-.992,11.901,8.677,8.43,5.206,8.43,5.206,0,0,32.727-7.686,28.016,14.628-4.711,22.314-56.116,127.193-57.284,127.427s-11.451-67.747-73.87-61.974Z"/><path class="cls-22" d="M1008.463,94.222l35.7,20.06c-14.79,1-9.96,14.45-9.96,14.45-7.08-.8-15.85-.96-24.02-5.67l3.2-14.9c.65-3.48-1.49-8.62-4.92-13.94Z"/><path class="cls-22" d="M1054.914,102.742c-4.11-4.44-8.98-8.88-14.73-12.99-20.44-14.6-41.98-17.89-56.28-18.18-.14-7.15,29.75-15.45,49.53-3.37,0,0-1.94,8.06,20.22,26.59-.68,.13,.7,3.82,1.26,7.95Z"/><path class="cls-21" d="M1076.8,56.273s-8.342-16.521,0-24.863c8.342-8.342,34.35-23.554,34.35-23.554,0,0-16.521,23.227-5.561,26.826,10.959,3.599,54.142-.514,55.778,9.884l-26.008,13.506s26.008,47.927,22.9,64.774c0,0-17.387-23.227-25.296-14.721-7.909,8.506-4.638,49.235-4.638,49.235-6.861-49.432-13.586-99.071-51.525-101.087Z"/></g><path class="cls-5" d="M1043.179,74.209s27.797-3.268,30.859-11.567c0,0,7.431,5.819-9.935,22.9,0,0-15.192-4.528-20.924-11.333Z"/><path class="cls-4" d="M1093.894,78.291s5.349,10.912-4.065,11.019"/><path class="cls-4" d="M1110.829,80.759s-13.705,4.307-3.602,8.536"/><path class="cls-4" d="M1087.799,101.039s12.472-17.057,17.607,0"/><circle cx="1051.583" cy="77.201" r="1.246"/><path class="cls-19" d="M956.883,245.092c3.35-23.61-3.5-50.56-20.97-72.91,5.08-3.33,12.49-8.06,20.56-12.77,22.44,20.85,33.46,48.31,33.53,73.62l-33.12,12.06Z"/></g></g></g><g><g><g><path class="cls-9" d="M193.788,121.916C36.136,112.968,20.203,265.843,23.726,278.537c-31.791,35.479-20.295,98.1-9.477,135.034l.01-.01c42.264,123.959,138.243,138.747,140.228,139.04,.019,0,.029,.009,.029,.009,109.599,2.686,64.412-50.335,64.412-50.335-54.273-4.233-94.433-20.121-94.433-20.121-47.896-43.695-55.194-116.105-55.194-116.105,0,0-10.007-70.647,38.598-116.897-3.174-3.603-7.575-6.601-13.48-8.769-65.895-24.217,129.429-36.571,129.429-36.571l-30.059-81.897Z"/><path class="cls-9" d="M223.848,203.813s-195.325,12.354-129.429,36.571c5.905,2.168,10.306,5.166,13.48,8.769,19.626,22.251-7.73,67.732-19.376,84.911,53.572-72.47,147.59-99.167,157.87-100.006,7.145-.584,27.126,19.038,41.542,34.342,6.677-8.99,17.546-13.278,31.948-13.648-7.713-5.724-15.386-12.632-22.907-20.898-41.792-44.444-44.765-74.664-43.232-102.032-21.973-5.731-41.896-8.889-59.955-9.906l30.059,81.897Z"/><path class="cls-9" d="M107.899,249.153c-48.605,46.25-38.598,116.897-38.598,116.897,4.223-8.923,9.086-17.332,14.424-25.215,0,0,.029-.029,.086-.106,1.532-2.273,3.103-4.488,4.712-6.666,11.647-17.178,39.002-62.66,19.376-84.911Z"/><path class="cls-9" d="M338.196,409.04c.019-.058,.057-.116,.104-.203-7.936,4.16-18.026,8.393-31.101,12.419,0,0-104.242-78.675-191.583-44.581,0,0,38.069-119.366,188.068-90.682l.289,.056s-6.902-7.963-16.04-17.65c-14.415-15.305-34.397-34.926-41.542-34.342-10.28,.839-104.297,27.536-157.87,100.006-2.541,3.743-4.331,6.143-4.712,6.666-.057,.077-.086,.106-.086,.106-5.338,7.883-10.2,16.291-14.424,25.215,0,0,7.298,72.41,55.194,116.105,0,0,40.16,15.888,94.433,20.121,39.86,3.121,87.351-.031,132.132-20.387,12.504-5.676,24.806-12.698,36.652-21.295,0,0,3.962-2.801,9.549-9.618,7.703-9.412,18.504-26.448,26.336-54.297,30.567-91.212,105.528-133.564,174.508-138.911,46.583-3.608,90.456,9.654,116.08,36.15l.01,.01c10.804,11.176,18.394,24.724,21.535,40.345,0,0,9.46,43.065-47.637,69.779,0,0-149.817,67.027-180.38-46.726-4.433,10.455-2.907,23.857,7.669,40.307,3.846,5.985,8.322,11.156,13.321,15.602,59.204,52.75,190.572,4.146,190.572,4.146,.748-.352,1.476-.704,2.195-1.066,38.966-19.494,42.924-51.787,42.924-51.787,0,0,2.121-1.96,4.614-5.693,9.028-13.627,22.879-50.826-42.703-103.268-.407-.324-.813-.648-1.23-.982-.794-.61-1.588-1.239-2.401-1.868-67.524-52.234-164.786-40.898-230.7-9.536l-.01,.01c-11.889,5.652-22.762,11.961-32.246,18.663-2.278,1.615-5.091,3.695-8.295,6.289,0,0-.019,.019-.048,.029-11.667,9.423-28.501,25.312-43.35,47.682-17.304,26.083-33.057,61.161-42.092,71.343-5.133,5.793-12.405,13.604-27.605,21.611-.067,.106-.104,.184-.133,.232Z"/><path class="cls-12" d="M14.258,413.561l-.01,.01c5.207,17.771,10.262,29.606,10.262,29.606,12.705,43.319,30.934,76.723,52.755,101.651,31.772,4.915,57.096,7.281,77.22,7.773-1.984-.293-97.964-15.081-140.228-139.04Z"/><path class="cls-9" d="M253.743,131.822c-1.533,27.368,1.44,57.588,43.232,102.032,0,0,11.894-9.982,3.399-22.359,61.696,24.932,67.041-4.716,4.166-16.505,0,0,11.53-13.492-4.828-29.946,0,0,16.566-6.814,30.602-5.939-27.951-12.325-53.393-21.243-76.571-27.282Z"/><path class="cls-9" d="M319.882,254.752c63.452,47.079,129.271,14.534,131.495,13.421,.029-.01,.048-.029,.048-.029,3.204-2.594,6.017-4.674,8.295-6.289,9.485-6.702,20.358-13.011,32.246-18.663l.01-.01c15.955-17.538,12.419-44.569,12.419-44.569,0,0,25.935-21.097,68.408-21.017,0,0-3.379-14.138-15.404-13.719-12.015,.409-42.651,10.669-59.74,19.527,0,0-19.521-16.093-23.845-19.053-45.923-28.42-87.566,22.28-87.566,22.28-19.672-10.627-38.303-19.751-55.933-27.526-14.036-.874-30.602,5.939-30.602,5.939,16.358,16.454,4.828,29.946,4.828,29.946,62.875,11.789,57.53,41.437-4.166,16.505,8.495,12.377-3.399,22.359-3.399,22.359,7.52,8.266,15.194,15.174,22.907,20.898Zm86.789-16.933c-1.487-1.903,18.537-43.528,51.228-30.355,18.937,7.63,4.721,15.879,4.721,15.879,0,0-54.453,16.388-55.949,14.475Z"/><path class="cls-9" d="M303.685,285.994c-149.999-28.685-188.068,90.682-188.068,90.682,87.341-34.094,191.583,44.581,191.583,44.581,13.075-4.026,23.165-8.259,31.101-12.419,2.667-4.88,39.53-75.432-34.615-122.843Zm-92.507,53.166c22.287-37.658,120.408-33.519,97.873,35.943,0,0-49.042-45.033-97.873-35.943Z"/><path class="cls-9" d="M309.051,375.104c22.535-69.462-75.586-73.601-97.873-35.943,48.831-9.09,97.873,35.943,97.873,35.943Z"/><path class="cls-9" d="M338.329,408.808c15.2-8.006,22.472-15.817,27.605-21.611,9.035-10.182,24.788-45.26,42.092-71.343,14.85-22.37,31.683-38.259,43.35-47.682-2.224,1.114-68.042,33.658-131.495-13.421-14.402,.37-25.271,4.658-31.948,13.648,9.138,9.687,16.04,17.65,16.04,17.65l-.289-.056c74.145,47.411,37.282,117.964,34.615,122.843l.029-.029Z"/><path class="cls-9" d="M77.266,544.829c25.617,29.278,56.176,46.865,88.522,55.095,121.579-6.143,185.271-118.036,185.271-118.036-44.781,20.356-92.271,23.509-132.132,20.387,0,0,45.187,53.02-64.412,50.335,0,0-.01-.01-.029-.009-20.124-.491-45.449-2.857-77.22-7.773Z"/><path class="cls-9" d="M457.899,207.464c-32.691-13.174-52.715,28.451-51.228,30.355,1.496,1.913,55.949-14.475,55.949-14.475,0,0,14.217-8.249-4.721-15.879Z"/><path class="cls-9" d="M599.682,168.22c2.234,.175,20.345,1.663,27.728,4.638,7.857,3.173,15.537,23.533,15.537,23.533,0,0-25.409-15.933-37.537-5.112,0,0,9.416-21.953-5.728-23.059Zm-125.87-3.87c4.324,2.96,23.845,19.053,23.845,19.053,17.089-8.858,47.725-19.118,59.74-19.527,12.025-.419,15.404,13.719,15.404,13.719-42.473-.08-68.408,21.017-68.408,21.017,0,0,3.536,27.031-12.419,44.569,65.914-31.362,163.176-42.698,230.7,9.536,.813,.629,1.607,1.258,2.401,1.868-104.605-215.761-251.262-90.235-251.262-90.235Z"/><path class="cls-9" d="M599.682,168.22c15.144,1.106,5.728,23.059,5.728,23.059,12.128-10.821,37.537,5.112,37.537,5.112,0,0-7.68-20.36-15.537-23.533-7.384-2.975-25.495-4.463-27.728-4.638Z"/><path class="cls-9" d="M507.712,357.326c3.204-7.578,9.509-13.611,17.769-18.158,0,0-38.659-62.558,72.624-81.401-68.98,5.347-143.941,47.699-174.508,138.911,0,0,20.563,34.098,72.721,25.935,9.688-1.498,20.461-4.467,32.384-9.379-4.999-4.446-9.474-9.617-13.321-15.602-10.575-16.45-12.102-29.852-7.669-40.307Z"/><path class="cls-9" d="M496.317,422.614c-52.158,8.163-72.721-25.935-72.721-25.935-7.832,27.849-18.633,44.886-26.336,54.297,47.462-29.614,76.755,30.042,77.322,31.231l.01,.01c6.195,1.002,9.729,2.687,9.729,2.687,43.978,14.396,85.341,14.032,118.469,8.805-2.482,.096-109.654,3.945-106.474-71.095Z"/><path class="cls-13" d="M165.788,599.924c82.161,20.927,175.918-18.46,229.756-80.107,33.663-38.563,64.096-40.046,79.039-37.61-.567-1.189-29.86-60.845-77.322-31.231-5.587,6.817-9.549,9.618-9.549,9.618-11.847,8.596-24.148,15.618-36.652,21.295,0,0-63.693,111.893-185.271,118.036Z"/><path class="cls-9" d="M598.104,257.768c-111.282,18.843-72.624,81.401-72.624,81.401,21.943-12.08,57.572-13.564,84.492-5.254,4.276-72.681,87.558-38.464,91.789-24.997-.787-3.583-4.26-22.339,12.423-15-25.624-26.497-69.497-39.758-116.08-36.15Z"/><path class="cls-9" d="M701.87,309.369c-.03-.106-.06-.25-.109-.451-4.231-13.468-87.513-47.684-91.789,24.997-26.919-8.31-62.549-6.826-84.492,5.254-8.26,4.547-14.564,10.58-17.769,18.158,30.562,113.752,180.38,46.726,180.38,46.726,57.097-26.714,47.637-69.779,47.637-69.779-3.141-15.622-10.73-29.17-21.535-40.345l-.01-.01c-16.683-7.34-13.211,11.417-12.423,15,.059,.154,.089,.298,.109,.451Z"/><path class="cls-14" d="M691.028,186.065s54.521,51.92,37.707,66.51c13.567,2.495,29.705,15.236,40.718,32.328l.134-.078c16.105-33.166,40.77-65.579,67.244-89.105-11.024,6.675-68.212,40.366-81.68,30.674-14.92-10.74-54.819-49.29-64.123-40.328Z"/><path class="cls-13" d="M528.701,413.235c-11.923,4.912-22.697,7.881-32.384,9.379-3.18,75.04,103.992,71.191,106.474,71.095h.038c45.43-7.169,75.384-23.505,75.384-23.505,0,0,22.348-39.699,43.255-53.888-.719,.362-1.448,.713-2.195,1.066,0,0-131.368,48.604-190.572-4.146Z"/><path class="cls-17" d="M836.831,195.72c-26.474,23.526-51.139,55.94-67.244,89.105l-.134,.078c14.149,21.937,19.865,51.039,.898,74.797-.095,6.438,8.674,3.1,14.209,3.336,1.8,.073,3.329-1.267,3.46-3.067,1.723-25.098,15.258-160.568,106.823-180.858,28.857-6.398,105.062,38.669,97.962,108.09-.583,5.614-1.386,11.259-.836,16.537,1.629,15.566,5.674,14.756,11.942-1.111,3.257-8.252,4.843-17.328,4.498-25.88-.358-9.138-1.321-18.051-2.917-26.67-12.275-66.444-58.834-92.473-98.721-90.293-21.555,1.175-46.447,15.048-69.94,35.934Z"/></g><g><path class="cls-3" d="M714.194,293.928c10.804,11.176,18.394,24.724,21.535,40.345,0,0,9.46,43.065-47.637,69.779,0,0-149.817,67.027-180.38-46.726,.01-.01,0-.019,0-.019"/><path class="cls-3" d="M83.725,340.835c-5.338,7.883-10.2,16.291-14.424,25.215,0,0,7.298,72.41,55.194,116.105,0,0,40.16,15.888,94.433,20.121,39.86,3.121,87.351-.031,132.132-20.387,12.504-5.676,24.806-12.698,36.652-21.295,0,0,3.962-2.801,9.549-9.618,7.703-9.412,18.504-26.448,26.336-54.297,30.567-91.212,105.528-133.564,174.508-138.911,46.583-3.608,90.456,9.654,116.08,36.15"/><path class="cls-3" d="M451.376,268.173c-11.667,9.423-28.501,25.312-43.35,47.682-17.304,26.083-33.057,61.161-42.092,71.343-5.133,5.793-12.405,13.604-27.605,21.611l-.029,.029c-7.936,4.16-18.026,8.393-31.101,12.419,0,0-104.242-78.675-191.583-44.581,0,0,38.069-119.366,188.068-90.682l.289,.056s-6.902-7.963-16.04-17.65c-14.415-15.305-34.397-34.926-41.542-34.342-10.28,.839-104.297,27.536-157.87,100.006-1.61,2.177-3.18,4.393-4.712,6.666"/><path class="cls-3" d="M491.965,243.191c-11.889,5.652-22.762,11.961-32.246,18.663-2.278,1.615-5.091,3.695-8.295,6.289"/><path class="cls-3" d="M578.796,370.495c-22.595,1.029-21.62,30.408,4.181,32.212,21.499,.413,35.701-3.515,45.099-8.869,19.602-11.157,19.801-39.304,.81-51.457-5.454-3.48-11.884-6.318-18.915-8.468-26.919-8.31-62.549-6.826-84.492,5.254-8.26,4.547-14.564,10.58-17.769,18.158-4.433,10.455-2.907,23.857,7.669,40.307,3.846,5.985,8.322,11.156,13.321,15.602,59.204,52.75,190.572,4.146,190.572,4.146,.748-.352,1.476-.704,2.195-1.066,38.966-19.494,42.924-51.787,42.924-51.787,0,0,2.121-1.96,4.614-5.693,9.028-13.627,22.879-50.826-42.703-103.268-.407-.324-.813-.648-1.23-.982-.794-.61-1.588-1.239-2.401-1.868-67.524-52.234-164.786-40.898-230.7-9.536"/><path class="cls-3" d="M338.196,409.04c.019-.058,.057-.116,.104-.203,2.667-4.88,39.53-75.432-34.615-122.843-.358-.238-.735-.476-1.102-.704"/><path class="cls-3" d="M338.339,408.799l-.01,.01c-.067,.106-.104,.184-.133,.232l-.019,.019c-.019,.039-.028,.048-.028,.048"/><path class="cls-3" d="M309.051,375.104s-49.042-45.033-97.873-35.943c22.287-37.658,120.408-33.519,97.873,35.943Z"/><path class="cls-3" d="M602.829,493.708c45.43-7.169,75.384-23.505,75.384-23.505,0,0,22.348-39.699,43.255-53.888"/><path class="cls-3" d="M474.592,482.216c6.195,1.002,9.729,2.687,9.729,2.687,43.978,14.396,85.341,14.032,118.469,8.805"/><path class="cls-3" d="M725.085,254.614q-.01-.01-.01-.029c-104.605-215.761-251.262-90.235-251.262-90.235-45.923-28.42-87.566,22.28-87.566,22.28-19.672-10.627-38.303-19.751-55.933-27.526-27.951-12.325-53.393-21.243-76.571-27.282-21.973-5.731-41.896-8.889-59.955-9.906C36.136,112.968,20.203,265.843,23.726,278.537c-31.791,35.479-20.295,98.1-9.477,135.034,5.207,17.771,10.262,29.606,10.262,29.606,12.705,43.319,30.934,76.723,52.755,101.651,25.617,29.278,56.176,46.865,88.522,55.095,82.161,20.927,175.918-18.46,229.756-80.107,33.663-38.563,64.096-40.046,79.039-37.61"/><path class="cls-3" d="M599.682,168.22c15.144,1.106,5.728,23.059,5.728,23.059,12.128-10.821,37.537,5.112,37.537,5.112,0,0-7.68-20.36-15.537-23.533-7.384-2.975-25.495-4.463-27.728-4.638Z"/><path class="cls-3" d="M599.682,168.22c-.067-.009-.154-.018-.231-.017"/><path class="cls-3" d="M491.965,243.191l.01-.01c15.955-17.538,12.419-44.569,12.419-44.569,0,0,25.935-21.097,68.408-21.017,0,0-3.379-14.138-15.404-13.719-12.015,.409-42.651,10.669-59.74,19.527,0,0-19.521-16.093-23.845-19.053"/><path class="cls-3" d="M462.62,223.343s-54.453,16.388-55.949,14.475c-1.487-1.903,18.537-43.528,51.228-30.355,18.937,7.63,4.721,15.879,4.721,15.879Z"/><path class="cls-3" d="M451.424,268.143s-.019,.019-.048,.029c-2.224,1.114-68.042,33.658-131.495-13.421-7.713-5.724-15.386-12.632-22.907-20.898,0,0,11.894-9.982,3.399-22.359,61.696,24.932,67.041-4.716,4.166-16.505,0,0,11.53-13.492-4.828-29.946,0,0,16.566-6.814,30.602-5.939"/><path class="cls-3" d="M253.743,131.822c-1.533,27.368,1.44,57.588,43.232,102.032"/><path class="cls-3" d="M193.788,121.916l30.059,81.897s-195.325,12.354-129.429,36.571c5.905,2.168,10.306,5.166,13.48,8.769,19.626,22.251-7.73,67.732-19.376,84.911-2.541,3.743-4.331,6.143-4.712,6.666-.057,.077-.086,.106-.086,.106"/><path class="cls-3" d="M319.901,254.752h-.019c-14.402,.37-25.271,4.658-31.948,13.648"/><path class="cls-3" d="M423.596,396.678s20.563,34.098,72.721,25.935c9.688-1.498,20.461-4.467,32.384-9.379"/><path class="cls-1" d="M838.68,194.6s-.651,.409-1.849,1.121c-11.024,6.675-68.212,40.366-81.68,30.674-14.92-10.74-54.819-49.29-64.123-40.328,0,0,54.521,51.92,37.707,66.51,13.567,2.495,29.705,15.236,40.718,32.328,14.149,21.937,19.865,51.039,.898,74.797-.095,6.438,8.674,3.1,14.209,3.336,1.8,.073,3.329-1.267,3.46-3.067,1.723-25.098,15.258-160.568,106.823-180.858,28.857-6.398,105.062,38.669,97.962,108.09-.583,5.614-1.386,11.259-.836,16.537,1.629,15.566,5.674,14.756,11.942-1.111,3.257-8.252,4.843-17.328,4.498-25.88-.358-9.138-1.321-18.051-2.917-26.67-12.275-66.444-58.834-92.473-98.721-90.293-21.555,1.175-46.447,15.048-69.94,35.934-26.474,23.526-51.139,55.94-67.244,89.105"/><path class="cls-3" d="M474.592,482.216l-.01-.01c-.567-1.189-29.86-60.845-77.322-31.231q-.019,0-.029,.01"/><path class="cls-3" d="M602.829,493.708h-.038c-2.482,.096-109.654,3.945-106.474-71.095"/><path class="cls-3" d="M701.9,309.494s-.01-.048-.03-.125c-.03-.106-.06-.25-.109-.451-.787-3.583-4.26-22.339,12.423-15l.01,.01"/><path class="cls-3" d="M609.972,333.914c4.276-72.681,87.558-38.464,91.789-24.997,.059,.154,.089,.298,.109,.451"/><path class="cls-3" d="M525.48,339.168s-38.659-62.558,72.624-81.401"/><path class="cls-3" d="M351.059,481.889s-63.693,111.893-185.271,118.036h-.038"/><path class="cls-3" d="M154.486,552.601c-20.124-.491-45.449-2.857-77.22-7.773-.154-.018-.299-.046-.453-.064"/><path class="cls-3" d="M218.927,502.276s45.187,53.02-64.412,50.335"/><path class="cls-3" d="M154.515,552.611s-.01-.01-.029-.009c-1.984-.293-97.964-15.081-140.228-139.04"/><path class="cls-3" d="M69.301,366.05s-10.007-70.647,38.598-116.897"/></g></g><g><g><path class="cls-9" d="M193.788,121.916C36.136,112.968,20.203,265.843,23.726,278.537c-31.791,35.479-20.295,98.1-9.477,135.034l.01-.01c42.264,123.959,138.243,138.747,140.228,139.04,.019,0,.029,.009,.029,.009,109.599,2.686,64.412-50.335,64.412-50.335-54.273-4.233-94.433-20.121-94.433-20.121-47.896-43.695-55.194-116.105-55.194-116.105,0,0-10.007-70.647,38.598-116.897-3.174-3.603-7.575-6.601-13.48-8.769-65.895-24.217,129.429-36.571,129.429-36.571l-30.059-81.897Z"/><path class="cls-16" d="M223.848,203.813s-195.325,12.354-129.429,36.571c5.905,2.168,10.306,5.166,13.48,8.769,19.626,22.251-7.73,67.732-19.376,84.911,53.572-72.47,147.59-99.167,157.87-100.006,7.145-.584,27.126,19.038,41.542,34.342,6.677-8.99,17.546-13.278,31.948-13.648-7.713-5.724-15.386-12.632-22.907-20.898-41.792-44.444-44.765-74.664-43.232-102.032-21.973-5.731-41.896-8.889-59.955-9.906l30.059,81.897Z"/><path class="cls-16" d="M107.899,249.153c-48.605,46.25-38.598,116.897-38.598,116.897,4.223-8.923,9.086-17.332,14.424-25.215,0,0,.029-.029,.086-.106,1.532-2.273,3.103-4.488,4.712-6.666,11.647-17.178,39.002-62.66,19.376-84.911Z"/><path class="cls-9" d="M303.685,285.994l.289,.056s-6.902-7.963-16.04-17.65c-14.415-15.305-34.397-34.926-41.542-34.342-10.28,.839-104.297,27.536-157.87,100.006-2.541,3.743-4.331,6.143-4.712,6.666-.057,.077-.086,.106-.086,.106-5.338,7.883-10.2,16.291-14.424,25.215,0,0,7.298,72.41,55.194,116.105,0,0,40.16,15.888,94.433,20.121,39.86,3.121,87.351-.031,132.132-20.387,12.504-5.676,24.806-12.698,36.652-21.295,0,0,3.962-2.801,9.549-9.618,7.703-9.412,18.504-26.448,26.336-54.297,30.567-91.212,105.528-133.564,174.508-138.911,46.583-3.608,90.456,9.654,116.08,36.15l.01,.01c10.804,11.176,18.394,24.724,21.535,40.345,0,0,9.46,43.065-47.637,69.779,0,0-149.817,67.027-180.38-46.726-4.433,10.455-2.907,23.857,7.669,40.307,3.846,5.985,8.322,11.156,13.321,15.602,59.204,52.75,190.572,4.146,190.572,4.146,.748-.352,1.476-.704,2.195-1.066,38.966-19.494,42.924-51.787,42.924-51.787,0,0,2.121-1.96,4.614-5.693,9.028-13.627,22.879-50.826-42.703-103.268-.407-.324-.813-.648-1.23-.982-.794-.61-1.588-1.239-2.401-1.868-67.524-52.234-164.786-40.898-230.7-9.536l-.01,.01c-11.889,5.652-22.762,11.961-32.246,18.663-2.278,1.615-5.091,3.695-8.295,6.289,0,0-.019,.019-.048,.029-11.667,9.423-28.501,25.312-43.35,47.682-17.304,26.083-33.057,61.161-42.092,71.343-5.133,5.793-12.405,13.604-27.605,21.611-.067,.106-.104,.184-.133,.232,.019-.058,.057-.116,.104-.203-7.936,4.16-18.026,8.393-31.101,12.419,0,0-104.242-78.675-191.583-44.581,0,0,38.069-119.366,188.068-90.682Z"/><path class="cls-12" d="M14.258,413.561l-.01,.01c5.207,17.771,10.262,29.606,10.262,29.606,12.705,43.319,30.934,76.723,52.755,101.651,31.772,4.915,57.096,7.281,77.22,7.773-1.984-.293-97.964-15.081-140.228-139.04Z"/><path class="cls-9" d="M253.743,131.822c-1.533,27.368,1.44,57.588,43.232,102.032,0,0,11.894-9.982,3.399-22.359,61.696,24.932,67.041-4.716,4.166-16.505,0,0,11.53-13.492-4.828-29.946,0,0,16.566-6.814,30.602-5.939-27.951-12.325-53.393-21.243-76.571-27.282Z"/><path class="cls-9" d="M319.882,254.752c63.452,47.079,129.271,14.534,131.495,13.421,.029-.01,.048-.029,.048-.029,3.204-2.594,6.017-4.674,8.295-6.289,9.485-6.702,20.358-13.011,32.246-18.663l.01-.01c15.955-17.538,12.419-44.569,12.419-44.569,0,0,25.935-21.097,68.408-21.017,0,0-3.379-14.138-15.404-13.719-12.015,.409-42.651,10.669-59.74,19.527,0,0-19.521-16.093-23.845-19.053-45.923-28.42-87.566,22.28-87.566,22.28-19.672-10.627-38.303-19.751-55.933-27.526-14.036-.874-30.602,5.939-30.602,5.939,16.358,16.454,4.828,29.946,4.828,29.946,62.875,11.789,57.53,41.437-4.166,16.505,8.495,12.377-3.399,22.359-3.399,22.359,7.52,8.266,15.194,15.174,22.907,20.898Zm86.789-16.933c-1.487-1.903,18.537-43.528,51.228-30.355,18.937,7.63,4.721,15.879,4.721,15.879,0,0-54.453,16.388-55.949,14.475Z"/><path class="cls-9" d="M303.685,285.994c-149.999-28.685-188.068,90.682-188.068,90.682,87.341-34.094,191.583,44.581,191.583,44.581,13.075-4.026,23.165-8.259,31.101-12.419,2.667-4.88,39.53-75.432-34.615-122.843Zm-92.507,53.166c22.287-37.658,120.408-33.519,97.873,35.943,0,0-49.042-45.033-97.873-35.943Z"/><path class="cls-16" d="M309.051,375.104c22.535-69.462-75.586-73.601-97.873-35.943,48.831-9.09,97.873,35.943,97.873,35.943Z"/><path class="cls-16" d="M338.329,408.808c15.2-8.006,22.472-15.817,27.605-21.611,9.035-10.182,24.788-45.26,42.092-71.343,14.85-22.37,31.683-38.259,43.35-47.682-2.224,1.114-68.042,33.658-131.495-13.421-14.402,.37-25.271,4.658-31.948,13.648,9.138,9.687,16.04,17.65,16.04,17.65l-.289-.056c74.145,47.411,37.282,117.964,34.615,122.843l.029-.029Z"/><path class="cls-8" d="M77.266,544.829c25.617,29.278,56.176,46.865,88.522,55.095,121.579-6.143,185.271-118.036,185.271-118.036-44.781,20.356-92.271,23.509-132.132,20.387,0,0,45.187,53.02-64.412,50.335,0,0-.01-.01-.029-.009-20.124-.491-45.449-2.857-77.22-7.773Z"/><path class="cls-9" d="M457.899,207.464c-32.691-13.174-52.715,28.451-51.228,30.355,1.496,1.913,55.949-14.475,55.949-14.475,0,0,14.217-8.249-4.721-15.879Z"/><path class="cls-16" d="M599.682,168.22c2.234,.175,20.345,1.663,27.728,4.638,7.857,3.173,15.537,23.533,15.537,23.533,0,0-25.409-15.933-37.537-5.112,0,0,9.416-21.953-5.728-23.059Zm-125.87-3.87c4.324,2.96,23.845,19.053,23.845,19.053,17.089-8.858,47.725-19.118,59.74-19.527,12.025-.419,15.404,13.719,15.404,13.719-42.473-.08-68.408,21.017-68.408,21.017,0,0,3.536,27.031-12.419,44.569,65.914-31.362,163.176-42.698,230.7,9.536,.813,.629,1.607,1.258,2.401,1.868-104.605-215.761-251.262-90.235-251.262-90.235Z"/><path class="cls-13" d="M599.682,168.22c15.144,1.106,5.728,23.059,5.728,23.059,12.128-10.821,37.537,5.112,37.537,5.112,0,0-7.68-20.36-15.537-23.533-7.384-2.975-25.495-4.463-27.728-4.638Z"/><path class="cls-16" d="M507.712,357.326c3.204-7.578,9.509-13.611,17.769-18.158,0,0-38.659-62.558,72.624-81.401-68.98,5.347-143.941,47.699-174.508,138.911,0,0,20.563,34.098,72.721,25.935,9.688-1.498,20.461-4.467,32.384-9.379-4.999-4.446-9.474-9.617-13.321-15.602-10.575-16.45-12.102-29.852-7.669-40.307Z"/><path class="cls-12" d="M496.317,422.614c-52.158,8.163-72.721-25.935-72.721-25.935-7.832,27.849-18.633,44.886-26.336,54.297,47.462-29.614,76.755,30.042,77.322,31.231l.01,.01c6.195,1.002,9.729,2.687,9.729,2.687,43.978,14.396,85.341,14.032,118.469,8.805-2.482,.096-109.654,3.945-106.474-71.095Z"/><path class="cls-13" d="M165.788,599.924c82.161,20.927,175.918-18.46,229.756-80.107,33.663-38.563,64.096-40.046,79.039-37.61-.567-1.189-29.86-60.845-77.322-31.231-5.587,6.817-9.549,9.618-9.549,9.618-11.847,8.596-24.148,15.618-36.652,21.295,0,0-63.693,111.893-185.271,118.036Z"/><path class="cls-9" d="M598.104,257.768c-111.282,18.843-72.624,81.401-72.624,81.401,21.943-12.08,57.572-13.564,84.492-5.254,4.276-72.681,87.558-38.464,91.789-24.997-.787-3.583-4.26-22.339,12.423-15-25.624-26.497-69.497-39.758-116.08-36.15Z"/><path class="cls-9" d="M701.87,309.369c-.03-.106-.06-.25-.109-.451-4.231-13.468-87.513-47.684-91.789,24.997-26.919-8.31-62.549-6.826-84.492,5.254-8.26,4.547-14.564,10.58-17.769,18.158,30.562,113.752,180.38,46.726,180.38,46.726,57.097-26.714,47.637-69.779,47.637-69.779-3.141-15.622-10.73-29.17-21.535-40.345l-.01-.01c-16.683-7.34-13.211,11.417-12.423,15,.059,.154,.089,.298,.109,.451Z"/><path class="cls-14" d="M691.028,186.065s54.521,51.92,37.707,66.51c13.567,2.495,29.705,15.236,40.718,32.328l.134-.078c16.105-33.166,40.77-65.579,67.244-89.105-11.024,6.675-68.212,40.366-81.68,30.674-14.92-10.74-54.819-49.29-64.123-40.328Z"/><path class="cls-13" d="M528.701,413.235c-11.923,4.912-22.697,7.881-32.384,9.379-3.18,75.04,103.992,71.191,106.474,71.095h.038c45.43-7.169,75.384-23.505,75.384-23.505,0,0,22.348-39.699,43.255-53.888-.719,.362-1.448,.713-2.195,1.066,0,0-131.368,48.604-190.572-4.146Z"/><path class="cls-17" d="M836.831,195.72c-26.474,23.526-51.139,55.94-67.244,89.105l-.134,.078c14.149,21.937,19.865,51.039,.898,74.797-.095,6.438,8.674,3.1,14.209,3.336,1.8,.073,3.329-1.267,3.46-3.067,1.723-25.098,15.258-160.568,106.823-180.858,28.857-6.398,105.062,38.669,97.962,108.09-.583,5.614-1.386,11.259-.836,16.537,1.629,15.566,5.674,14.756,11.942-1.111,3.257-8.252,4.843-17.328,4.498-25.88-.358-9.138-1.321-18.051-2.917-26.67-12.275-66.444-58.834-92.473-98.721-90.293-21.555,1.175-46.447,15.048-69.94,35.934Z"/></g><g><path class="cls-2" d="M714.194,293.928c10.804,11.176,18.394,24.724,21.535,40.345,0,0,9.46,43.065-47.637,69.779,0,0-149.817,67.027-180.38-46.726,.01-.01,0-.019,0-.019"/><path class="cls-2" d="M83.725,340.835c-5.338,7.883-10.2,16.291-14.424,25.215,0,0,7.298,72.41,55.194,116.105,0,0,40.16,15.888,94.433,20.121,39.86,3.121,87.351-.031,132.132-20.387,12.504-5.676,24.806-12.698,36.652-21.295,0,0,3.962-2.801,9.549-9.618,7.703-9.412,18.504-26.448,26.336-54.297,30.567-91.212,105.528-133.564,174.508-138.911,46.583-3.608,90.456,9.654,116.08,36.15"/><path class="cls-2" d="M451.376,268.173c-11.667,9.423-28.501,25.312-43.35,47.682-17.304,26.083-33.057,61.161-42.092,71.343-5.133,5.793-12.405,13.604-27.605,21.611l-.029,.029c-7.936,4.16-18.026,8.393-31.101,12.419,0,0-104.242-78.675-191.583-44.581,0,0,38.069-119.366,188.068-90.682l.289,.056s-6.902-7.963-16.04-17.65c-14.415-15.305-34.397-34.926-41.542-34.342-10.28,.839-104.297,27.536-157.87,100.006-1.61,2.177-3.18,4.393-4.712,6.666"/><path class="cls-2" d="M491.965,243.191c-11.889,5.652-22.762,11.961-32.246,18.663-2.278,1.615-5.091,3.695-8.295,6.289"/><path class="cls-2" d="M578.796,370.495c-22.595,1.029-21.62,30.408,4.181,32.212,21.499,.413,35.701-3.515,45.099-8.869,19.602-11.157,19.801-39.304,.81-51.457-5.454-3.48-11.884-6.318-18.915-8.468-26.919-8.31-62.549-6.826-84.492,5.254-8.26,4.547-14.564,10.58-17.769,18.158-4.433,10.455-2.907,23.857,7.669,40.307,3.846,5.985,8.322,11.156,13.321,15.602,59.204,52.75,190.572,4.146,190.572,4.146,.748-.352,1.476-.704,2.195-1.066,38.966-19.494,42.924-51.787,42.924-51.787,0,0,2.121-1.96,4.614-5.693,9.028-13.627,22.879-50.826-42.703-103.268-.407-.324-.813-.648-1.23-.982-.794-.61-1.588-1.239-2.401-1.868-67.524-52.234-164.786-40.898-230.7-9.536"/><path class="cls-2" d="M338.196,409.04c.019-.058,.057-.116,.104-.203,2.667-4.88,39.53-75.432-34.615-122.843-.358-.238-.735-.476-1.102-.704"/><path class="cls-2" d="M338.339,408.799l-.01,.01c-.067,.106-.104,.184-.133,.232l-.019,.019c-.019,.039-.028,.048-.028,.048"/><path class="cls-2" d="M309.051,375.104s-49.042-45.033-97.873-35.943c22.287-37.658,120.408-33.519,97.873,35.943Z"/><path class="cls-2" d="M602.829,493.708c45.43-7.169,75.384-23.505,75.384-23.505,0,0,22.348-39.699,43.255-53.888"/><path class="cls-2" d="M474.592,482.216c6.195,1.002,9.729,2.687,9.729,2.687,43.978,14.396,85.341,14.032,118.469,8.805"/><path class="cls-2" d="M725.085,254.614q-.01-.01-.01-.029c-104.605-215.761-251.262-90.235-251.262-90.235-45.923-28.42-87.566,22.28-87.566,22.28-19.672-10.627-38.303-19.751-55.933-27.526-27.951-12.325-53.393-21.243-76.571-27.282-21.973-5.731-41.896-8.889-59.955-9.906C36.136,112.968,20.203,265.843,23.726,278.537c-31.791,35.479-20.295,98.1-9.477,135.034,5.207,17.771,10.262,29.606,10.262,29.606,12.705,43.319,30.934,76.723,52.755,101.651,25.617,29.278,56.176,46.865,88.522,55.095,82.161,20.927,175.918-18.46,229.756-80.107,33.663-38.563,64.096-40.046,79.039-37.61"/><path class="cls-2" d="M599.682,168.22c15.144,1.106,5.728,23.059,5.728,23.059,12.128-10.821,37.537,5.112,37.537,5.112,0,0-7.68-20.36-15.537-23.533-7.384-2.975-25.495-4.463-27.728-4.638Z"/><path class="cls-2" d="M599.682,168.22c-.067-.009-.154-.018-.231-.017"/><path class="cls-2" d="M491.965,243.191l.01-.01c15.955-17.538,12.419-44.569,12.419-44.569,0,0,25.935-21.097,68.408-21.017,0,0-3.379-14.138-15.404-13.719-12.015,.409-42.651,10.669-59.74,19.527,0,0-19.521-16.093-23.845-19.053"/><path class="cls-2" d="M462.62,223.343s-54.453,16.388-55.949,14.475c-1.487-1.903,18.537-43.528,51.228-30.355,18.937,7.63,4.721,15.879,4.721,15.879Z"/><path class="cls-2" d="M451.424,268.143s-.019,.019-.048,.029c-2.224,1.114-68.042,33.658-131.495-13.421-7.713-5.724-15.386-12.632-22.907-20.898,0,0,11.894-9.982,3.399-22.359,61.696,24.932,67.041-4.716,4.166-16.505,0,0,11.53-13.492-4.828-29.946,0,0,16.566-6.814,30.602-5.939"/><path class="cls-2" d="M253.743,131.822c-1.533,27.368,1.44,57.588,43.232,102.032"/><path class="cls-2" d="M193.788,121.916l30.059,81.897s-195.325,12.354-129.429,36.571c5.905,2.168,10.306,5.166,13.48,8.769,19.626,22.251-7.73,67.732-19.376,84.911-2.541,3.743-4.331,6.143-4.712,6.666-.057,.077-.086,.106-.086,.106"/><path class="cls-2" d="M319.901,254.752h-.019c-14.402,.37-25.271,4.658-31.948,13.648"/><path class="cls-2" d="M423.596,396.678s20.563,34.098,72.721,25.935c9.688-1.498,20.461-4.467,32.384-9.379"/><path class="cls-2" d="M838.68,194.6s-.651,.409-1.849,1.121c-11.024,6.675-68.212,40.366-81.68,30.674-14.92-10.74-54.819-49.29-64.123-40.328,0,0,54.521,51.92,37.707,66.51,13.567,2.495,29.705,15.236,40.718,32.328,14.149,21.937,19.865,51.039,.898,74.797-.095,6.438,8.674,3.1,14.209,3.336,1.8,.073,3.329-1.267,3.46-3.067,1.723-25.098,15.258-160.568,106.823-180.858,28.857-6.398,105.062,38.669,97.962,108.09-.583,5.614-1.386,11.259-.836,16.537,1.629,15.566,5.674,14.756,11.942-1.111,3.257-8.252,4.843-17.328,4.498-25.88-.358-9.138-1.321-18.051-2.917-26.67-12.275-66.444-58.834-92.473-98.721-90.293-21.555,1.175-46.447,15.048-69.94,35.934-26.474,23.526-51.139,55.94-67.244,89.105"/><path class="cls-2" d="M474.592,482.216l-.01-.01c-.567-1.189-29.86-60.845-77.322-31.231q-.019,0-.029,.01"/><path class="cls-2" d="M602.829,493.708h-.038c-2.482,.096-109.654,3.945-106.474-71.095"/><path class="cls-2" d="M701.9,309.494s-.01-.048-.03-.125c-.03-.106-.06-.25-.109-.451-.787-3.583-4.26-22.339,12.423-15l.01,.01"/><path class="cls-2" d="M609.972,333.914c4.276-72.681,87.558-38.464,91.789-24.997,.059,.154,.089,.298,.109,.451"/><path class="cls-2" d="M525.48,339.168s-38.659-62.558,72.624-81.401"/><path class="cls-2" d="M351.059,481.889s-63.693,111.893-185.271,118.036h-.038"/><path class="cls-2" d="M154.486,552.601c-20.124-.491-45.449-2.857-77.22-7.773-.154-.018-.299-.046-.453-.064"/><path class="cls-2" d="M218.927,502.276s45.187,53.02-64.412,50.335"/><path class="cls-2" d="M154.515,552.611s-.01-.01-.029-.009c-1.984-.293-97.964-15.081-140.228-139.04"/><path class="cls-2" d="M69.301,366.05s-10.007-70.647,38.598-116.897"/></g></g></g><path class="cls-18" d="M1019.124,222.422l-29.12,10.61c-.07-25.31-11.09-52.77-33.53-73.62,14.67-8.57,31.52-17.09,40.58-17.12,23.9-.08,44.1,6.36,22.07,80.13Z"/><path class="cls-7" d="M785.355,237.621c3.352-.447-4.116-15.122-4.116-15.122,14.334-1.032,23.538,1.751,23.538,1.751,4.28,7.781,11.672,12.255,11.672,12.255,0,0,80.023-50.148,112.593-59.728,0,0,49.789-34.43,68.015-34.486,23.9-.074,44.101,6.365,22.068,80.128l-157.199,57.268-4.534-2.148-52.743,20.286-50.328-23.784,4.034-21.211,12.883,4.164,2.082-3.513-10.02-4.554,1.952-15.615,13.403,5.465,6.7-1.154Z"/><path class="cls-18" d="M935.914,172.182c17.47,22.35,24.32,49.3,20.97,72.91l-52.17,19-36.49,13.29-6.3,2.3-4.53-2.14-52.74,20.28-50.33-23.78,4.03-21.21,12.88,4.16,2.09-3.51-10.021-4.56,1.95-15.61,13.4,5.46,6.7-1.15c3.35-.45-4.11-15.12-4.11-15.12,14.33-1.04,23.53,1.75,23.53,1.75,4.28,7.78,11.67,12.25,11.67,12.25,0,0,43.09-27,78.9-45.16,12.99-6.59,25.03-12.01,33.7-14.56,0,0,1.49-1.03,4.06-2.74,.83-.55,1.77-1.18,2.81-1.86Z"/><path class="cls-19" d="M956.883,245.092c3.35-23.61-3.5-50.56-20.97-72.91,5.08-3.33,12.49-8.06,20.56-12.77,22.44,20.85,33.46,48.31,33.53,73.62l-33.12,12.06Z"/></g></svg>