<?xml version="1.0" encoding="UTF-8"?><svg id="Layer_2" xmlns="http://www.w3.org/2000/svg" viewBox="0 0 725.029 288.024"><defs><style>.cls-1{fill:#8d2d15;}.cls-2{fill:#fab677;}.cls-3{fill:#e28069;}.cls-4{fill:#dbc3a1;}.cls-5{fill:#edf0ff;}.cls-6{fill:#f28f70;}.cls-7{fill:#922246;}.cls-8{fill:#932247;}.cls-9{fill:#fefad5;}.cls-10{fill:#bf3c67;}.cls-11{fill:#75203f;}.cls-12{fill:#b07e89;}.cls-13{fill:#dd7a5f;}.cls-14{fill:#878a51;}.cls-15{fill:#e2a09c;}.cls-16{fill:#71453e;}.cls-17{fill:#a4b45c;}.cls-18{fill:#d3d3d3;}.cls-19{fill:#d5d5d5;}.cls-20{fill:#63709e;}.cls-21{fill:#404362;}.cls-22{fill:none;}.cls-23{fill:#a22;}.cls-24{fill:#ff5a53;}.cls-25{fill:#353d64;}.cls-26{fill:#524f54;}.cls-27{fill:#fcf8d2;}.cls-28{fill:#e0aa24;}.cls-29{fill:#b0b0b1;}.cls-30{fill:#87784d;}.cls-31{fill:#d4801d;}.cls-32{fill:#c7ceea;}.cls-33{fill:#ffd3c8;}.cls-34{fill:#fbfae8;}</style></defs><g id="Layer_3"><g><g><g><path class="cls-6" d="M275.11,6.535c-85.623-28.598-117.356,53.343-117.318,60.874-22.862,14.8-25.919,51.069-25.494,73.067l.007-.004c4.71,74.723,55.436,97.286,56.487,97.745,.011,.003,.015,.01,.015,.01,60.056,17.931,43.087-18.099,43.087-18.099-29.304-10.481-49.072-25.272-49.072-25.272-19.863-31.292-13.021-72.331-13.021-72.331,0,0,5.083-40.473,38.836-58.692-1.21-2.464-3.188-4.778-6.12-6.86-32.716-23.249,76.886-.748,76.886-.748l-4.29-49.689Z"/><path class="cls-6" d="M279.4,56.223s-109.602-22.5-76.886,.748c2.932,2.082,4.91,4.396,6.12,6.86,7.487,15.22-14.429,36.203-23.432,43.932,40.429-31.937,96.299-32.553,102.096-31.473,4.029,.75,12.106,14.573,17.762,25.179,5.032-3.957,11.672-4.691,19.672-2.734-3.395-4.315-6.592-9.278-9.5-14.966-16.384-30.789-13.488-47.906-8.535-62.773-11.261-6.459-21.777-11.191-31.587-14.463l4.29,49.689Z"/><path class="cls-6" d="M208.634,63.832c-33.754,18.218-38.836,58.692-38.836,58.692,3.669-4.288,7.613-8.197,11.741-11.744,0,0,.02-.012,.063-.046,1.186-1.024,2.385-2.01,3.6-2.97,9.003-7.728,30.919-28.712,23.432-43.932Z"/><path class="cls-6" d="M311.107,113.54l.151,.074s-2.612-5.428-6.199-12.144c-5.655-10.606-13.733-24.429-17.762-25.179-5.797-1.08-61.667-.464-102.096,31.473-1.963,1.684-3.311,2.739-3.6,2.97-.043,.034-.063,.046-.063,.046-4.128,3.547-8.072,7.456-11.741,11.744,0,0-6.842,41.039,13.021,72.331,0,0,19.769,14.792,49.072,25.272,21.52,7.704,48.19,13.093,75.948,8.584,7.75-1.255,15.589-3.282,23.415-6.246,0,0,2.606-.951,6.711-3.873,5.662-4.036,14.177-11.813,22.677-26,30.551-45.728,78.259-57.84,117.113-50.437,26.238,5.001,48.45,18.901,58.608,37.364l.004,.007c4.283,7.786,6.436,16.399,5.824,25.488,0,0-1.245,25.176-36.751,31.343,0,0-92.704,14.489-92.491-52.848-4.015,5.102-5.184,12.724-1.819,23.386,1.224,3.879,2.916,7.403,5.007,10.606,24.742,37.984,104.504,30.889,104.504,30.889,.465-.082,.92-.167,1.371-.258,24.421-4.905,31.451-22.125,31.451-22.125,0,0,1.464-.763,3.4-2.448,7.025-6.162,20.249-24.604-8.057-63.375-.176-.24-.351-.48-.531-.726-.346-.455-.69-.922-1.044-1.391-29.409-38.948-84.763-47.292-125.831-39.885l-.007,.004c-7.406,1.334-14.351,3.182-20.589,5.456-1.499,.549-3.363,1.274-5.519,2.224,0,0-.013,.008-.031,.009-7.85,3.447-19.521,9.686-31.07,19.797-13.46,11.791-27.415,28.777-33.927,33.038-3.701,2.425-8.885,5.643-18.471,7.778-.053,.049-.085,.086-.108,.108,.019-.029,.049-.055,.088-.096-5.002,1.104-11.203,1.925-19.02,2.183,0,0-45.696-59.045-98.993-53.346,0,0,38.915-60.133,117.355-21.797Z"/><path class="cls-12" d="M132.303,140.472l-.007,.004c.205,10.585,1.217,17.872,1.217,17.872,.507,25.803,5.549,46.966,13.845,63.992,16.789,7.48,30.404,12.586,41.431,15.877-1.051-.459-51.777-23.022-56.487-97.745Z"/><path class="cls-6" d="M306.696,20.998c-4.953,14.867-7.849,31.984,8.535,62.773,0,0,8.059-3.722,5.231-11.824,30.292,23.013,37.69,7.46,4.775-8.48,0,0,8.385-5.712,1.831-17.244,0,0,10.161-1.273,17.772,1.316-13.569-10.994-26.265-19.732-38.144-26.542Z"/><path class="cls-6" d="M324.731,98.736c27.937,35.493,69.129,27.419,70.523,27.138,.017-.001,.031-.009,.031-.009,2.157-.95,4.021-1.675,5.519-2.224,6.238-2.274,13.183-4.122,20.589-5.456l.007-.004c11.433-7.28,13.54-22.722,13.54-22.722,0,0,17.473-7.746,40.891-1.327,0,0,.258-8.306-6.438-9.88-6.689-1.578-25.129-.516-35.885,1.806,0,0-8.353-11.808-10.294-14.089-21.067-22.57-51.648-.852-51.648-.852-9.257-8.815-18.165-16.644-26.723-23.579-7.611-2.589-17.772-1.316-17.772-1.316,6.554,11.532-1.831,17.244-1.831,17.244,32.915,15.94,25.517,31.493-4.775,8.48,2.828,8.102-5.231,11.824-5.231,11.824,2.908,5.688,6.104,10.651,9.5,14.966Zm50.417,3.685c-.534-1.273,16.759-21.23,32.815-9.056,9.301,7.051,.221,9.468,.221,9.468,0,0-32.498,.868-33.036-.412Z"/><path class="cls-6" d="M311.107,113.54c-78.44-38.336-117.355,21.797-117.355,21.797,53.297-5.699,98.993,53.346,98.993,53.346,7.817-.258,14.018-1.079,19.02-2.183,2.203-2.292,33.127-35.678-.658-72.96Zm-59.01,15.445c17.946-17.429,71.452-.419,48.596,34.517,0,0-20.294-32.202-48.596-34.517Z"/><path class="cls-6" d="M300.693,163.501c22.856-34.936-30.65-51.945-48.596-34.517,28.301,2.314,48.596,34.517,48.596,34.517Z"/><path class="cls-6" d="M311.785,186.488c9.586-2.135,14.77-5.353,18.471-7.778,6.512-4.261,20.467-21.247,33.927-33.038,11.549-10.111,23.22-16.35,31.07-19.797-1.394,.281-42.586,8.355-70.523-27.138-8-1.958-14.639-1.224-19.672,2.734,3.587,6.715,6.199,12.144,6.199,12.144l-.151-.074c33.786,37.282,2.861,70.668,.658,72.96l.02-.012Z"/><path class="cls-6" d="M147.359,222.34c9.737,19.995,23.955,34.283,40.563,43.678,67.989,14.858,119.917-37.306,119.917-37.306-27.758,4.508-54.428-.88-75.948-8.584,0,0,16.969,36.03-43.087,18.099,0,0-.004-.007-.015-.01-11.027-3.291-24.642-8.397-41.431-15.877Z"/><path class="cls-6" d="M407.963,93.365c-16.056-12.173-33.35,7.783-32.815,9.056,.538,1.28,33.036,.412,33.036,.412,0,0,9.08-2.417-.221-9.468Z"/><path class="cls-6" d="M492.065,92.996c1.206,.432,10.973,3.971,14.6,6.72,3.858,2.93,5.039,15.313,5.039,15.313,0,0-11.625-12.603-19.94-8.454,0,0,8.489-10.697,.301-13.58Zm-68.853-21.026c1.941,2.282,10.294,14.089,10.294,14.089,10.756-2.321,29.196-3.383,35.885-1.806,6.696,1.574,6.438,9.88,6.438,9.88-23.418-6.419-40.891,1.327-40.891,1.327,0,0-2.107,15.442-13.54,22.722,41.067-7.407,96.422,.937,125.831,39.885,.354,.469,.698,.935,1.044,1.391-25.321-134.721-125.062-87.487-125.062-87.487Z"/><path class="cls-6" d="M492.065,92.996c8.188,2.883-.301,13.58-.301,13.58,8.314-4.149,19.94,8.454,19.94,8.454,0,0-1.181-12.384-5.039-15.313-3.627-2.749-13.394-6.288-14.6-6.72Z"/><path class="cls-6" d="M412.949,183.51c2.905-3.699,7.288-6.081,12.527-7.35,0,0-11.936-40.311,52.279-34.004-38.854-7.403-86.562,4.709-117.113,50.437,0,0,6.226,21.896,36.223,25.221,5.569,.628,11.958,.607,19.272-.313-2.09-3.203-3.783-6.727-5.007-10.606-3.365-10.662-2.195-18.284,1.819-23.386Z"/><path class="cls-6" d="M396.865,217.815c-29.997-3.325-36.223-25.221-36.223-25.221-8.5,14.187-17.015,21.964-22.677,26,30.626-9.213,37.832,28.092,37.966,28.833l.004,.007c3.267,1.482,4.964,2.943,4.964,2.943,22.099,14.542,44.971,20.549,64.03,22.638-1.383-.32-61.081-14.281-48.065-55.198Z"/><path class="cls-13" d="M187.922,266.018c42.182,23.875,99.813,16.219,138.764-9.707,24.357-16.22,41.368-12.471,49.245-8.885-.134-.741-7.34-38.046-37.966-28.833-4.105,2.922-6.711,3.873-6.711,3.873-7.825,2.964-15.665,4.991-23.415,6.246,0,0-51.928,52.165-119.917,37.306Z"/><path class="cls-6" d="M477.755,142.157c-64.215-6.307-52.279,34.004-52.279,34.004,13.917-3.37,33.795,1.158,47.397,9.783,13.267-39.452,54.073-8.077,54.385-.013,.103-2.095,1.003-12.962,9.104-6.41-10.158-18.462-32.37-32.362-58.608-37.364Z"/><path class="cls-6" d="M472.873,185.943c-13.602-8.624-33.48-13.153-47.397-9.783-5.239,1.269-9.622,3.65-12.527,7.35-.213,67.337,92.491,52.848,92.491,52.848,35.506-6.167,36.751-31.343,36.751-31.343,.612-9.089-1.541-17.702-5.824-25.488l-.004-.007c-8.102-6.553-9.001,4.315-9.104,6.41,.009,.094,.004,.178-.007,.265,0-.063,.005-.147,.007-.265-.313-8.064-41.118-39.439-54.385,.013Z"/><path class="cls-14" d="M539.776,116.55s22.284,36.823,10.818,42.349c7.11,3.412,14.099,12.863,17.609,23.944l.086-.023c13.862-15.878,32.332-30.057,50.467-39.061-7.083,2.028-43.687,12.03-49.661,4.662-6.618-8.164-22.842-35.418-29.32-31.87Z"/><path class="cls-13" d="M416.137,217.501c-7.314,.92-13.703,.941-19.272,.313-13.017,40.917,46.681,54.879,48.065,55.198l.021,.006c26.137,2.864,45.112-1.652,45.112-1.652,0,0,18.286-18.545,31.948-23.234-.451,.092-.906,.176-1.371,.258,0,0-79.762,7.095-104.504-30.889Z"/><path class="cls-17" d="M618.757,143.758c-18.135,9.005-36.606,23.183-50.467,39.061l-.086,.023c4.512,14.225,3.298,31.136-10.731,41.395-1.019,3.537,4.32,3.012,7.337,3.973,.982,.31,2.027-.199,2.369-1.173,4.718-13.587,32.515-86.285,86.071-83.735,16.878,.802,52.152,37.099,37.816,74.329-1.164,3.01-2.455,6.003-2.943,8.997-1.437,8.831,.916,8.991,6.755,1.179,3.035-4.063,5.272-8.832,6.366-13.601,1.174-5.095,1.98-10.156,2.394-15.15,3.201-38.495-18.576-59.842-40.906-64.625-12.067-2.587-27.88,1.33-43.974,9.326Z"/></g><g><path class="cls-6" d="M275.11,6.535c-85.623-28.598-117.356,53.343-117.318,60.874-22.862,14.8-25.919,51.069-25.494,73.067l.007-.004c4.71,74.723,55.436,97.286,56.487,97.745,.011,.003,.015,.01,.015,.01,60.056,17.931,43.087-18.099,43.087-18.099-29.304-10.481-49.072-25.272-49.072-25.272-19.863-31.292-13.021-72.331-13.021-72.331,0,0,5.083-40.473,38.836-58.692-1.21-2.464-3.188-4.778-6.12-6.86-32.716-23.249,76.886-.748,76.886-.748l-4.29-49.689Z"/><path class="cls-6" d="M279.4,56.223s-109.602-22.5-76.886,.748c2.932,2.082,4.91,4.396,6.12,6.86,7.487,15.22-14.429,36.203-23.432,43.932,40.429-31.937,96.299-32.553,102.096-31.473,4.029,.75,12.106,14.573,17.762,25.179,5.032-3.957,11.672-4.691,19.672-2.734-3.395-4.315-6.592-9.278-9.5-14.966-16.384-30.789-13.488-47.906-8.535-62.773-11.261-6.459-21.777-11.191-31.587-14.463l4.29,49.689Z"/><path class="cls-6" d="M208.634,63.832c-33.754,18.218-38.836,58.692-38.836,58.692,3.669-4.288,7.613-8.197,11.741-11.744,0,0,.02-.012,.063-.046,1.186-1.024,2.385-2.01,3.6-2.97,9.003-7.728,30.919-28.712,23.432-43.932Z"/><path class="cls-6" d="M311.107,113.54l.151,.074s-2.612-5.428-6.199-12.144c-5.655-10.606-13.733-24.429-17.762-25.179-5.797-1.08-61.667-.464-102.096,31.473-1.963,1.684-3.311,2.739-3.6,2.97-.043,.034-.063,.046-.063,.046-4.128,3.547-8.072,7.456-11.741,11.744,0,0-6.842,41.039,13.021,72.331,0,0,19.769,14.792,49.072,25.272,21.52,7.704,48.19,13.093,75.948,8.584,7.75-1.255,15.589-3.282,23.415-6.246,0,0,2.606-.951,6.711-3.873,5.662-4.036,14.177-11.813,22.677-26,30.551-45.728,78.259-57.84,117.113-50.437,26.238,5.001,48.45,18.901,58.608,37.364l.004,.007c4.283,7.786,6.436,16.399,5.824,25.488,0,0-1.245,25.176-36.751,31.343,0,0-92.704,14.489-92.491-52.848-4.015,5.102-5.184,12.724-1.819,23.386,1.224,3.879,2.916,7.403,5.007,10.606,24.742,37.984,104.504,30.889,104.504,30.889,.465-.082,.92-.167,1.371-.258,24.421-4.905,31.451-22.125,31.451-22.125,0,0,1.464-.763,3.4-2.448,7.025-6.162,20.249-24.604-8.057-63.375-.176-.24-.351-.48-.531-.726-.346-.455-.69-.922-1.044-1.391-29.409-38.948-84.763-47.292-125.831-39.885l-.007,.004c-7.406,1.334-14.351,3.182-20.589,5.456-1.499,.549-3.363,1.274-5.519,2.224,0,0-.013,.008-.031,.009-7.85,3.447-19.521,9.686-31.07,19.797-13.46,11.791-27.415,28.777-33.927,33.038-3.701,2.425-8.885,5.643-18.471,7.778-.053,.049-.085,.086-.108,.108,.019-.029,.049-.055,.088-.096-5.002,1.104-11.203,1.925-19.02,2.183,0,0-45.696-59.045-98.993-53.346,0,0,38.915-60.133,117.355-21.797Z"/><path class="cls-12" d="M132.303,140.472l-.007,.004c.205,10.585,1.217,17.872,1.217,17.872,.507,25.803,5.549,46.966,13.845,63.992,16.789,7.48,30.404,12.586,41.431,15.877-1.051-.459-51.777-23.022-56.487-97.745Z"/><path class="cls-6" d="M306.696,20.998c-4.953,14.867-7.849,31.984,8.535,62.773,0,0,8.059-3.722,5.231-11.824,30.292,23.013,37.69,7.46,4.775-8.48,0,0,8.385-5.712,1.831-17.244,0,0,10.161-1.273,17.772,1.316-13.569-10.994-26.265-19.732-38.144-26.542Z"/><path class="cls-6" d="M324.731,98.736c27.937,35.493,69.129,27.419,70.523,27.138,.017-.001,.031-.009,.031-.009,2.157-.95,4.021-1.675,5.519-2.224,6.238-2.274,13.183-4.122,20.589-5.456l.007-.004c11.433-7.28,13.54-22.722,13.54-22.722,0,0,17.473-7.746,40.891-1.327,0,0,.258-8.306-6.438-9.88-6.689-1.578-25.129-.516-35.885,1.806,0,0-8.353-11.808-10.294-14.089-21.067-22.57-51.648-.852-51.648-.852-9.257-8.815-18.165-16.644-26.723-23.579-7.611-2.589-17.772-1.316-17.772-1.316,6.554,11.532-1.831,17.244-1.831,17.244,32.915,15.94,25.517,31.493-4.775,8.48,2.828,8.102-5.231,11.824-5.231,11.824,2.908,5.688,6.104,10.651,9.5,14.966Zm50.417,3.685c-.534-1.273,16.759-21.23,32.815-9.056,9.301,7.051,.221,9.468,.221,9.468,0,0-32.498,.868-33.036-.412Z"/><path class="cls-6" d="M311.107,113.54c-78.44-38.336-117.355,21.797-117.355,21.797,53.297-5.699,98.993,53.346,98.993,53.346,7.817-.258,14.018-1.079,19.02-2.183,2.203-2.292,33.127-35.678-.658-72.96Zm-59.01,15.445c17.946-17.429,71.452-.419,48.596,34.517,0,0-20.294-32.202-48.596-34.517Z"/><path class="cls-12" d="M300.693,163.501c22.856-34.936-30.65-51.945-48.596-34.517,28.301,2.314,48.596,34.517,48.596,34.517Z"/><path class="cls-13" d="M311.785,186.488c9.586-2.135,14.77-5.353,18.471-7.778,6.512-4.261,20.467-21.247,33.927-33.038,11.549-10.111,23.22-16.35,31.07-19.797-1.394,.281-42.586,8.355-70.523-27.138-8-1.958-14.639-1.224-19.672,2.734,3.587,6.715,6.199,12.144,6.199,12.144l-.151-.074c33.786,37.282,2.861,70.668,.658,72.96l.02-.012Z"/><path class="cls-3" d="M147.359,222.34c9.737,19.995,23.955,34.283,40.563,43.678,67.989,14.858,119.917-37.306,119.917-37.306-27.758,4.508-54.428-.88-75.948-8.584,0,0,16.969,36.03-43.087,18.099,0,0-.004-.007-.015-.01-11.027-3.291-24.642-8.397-41.431-15.877Z"/><path class="cls-6" d="M407.963,93.365c-16.056-12.173-33.35,7.783-32.815,9.056,.538,1.28,33.036,.412,33.036,.412,0,0,9.08-2.417-.221-9.468Z"/><path class="cls-6" d="M492.065,92.996c1.206,.432,10.973,3.971,14.6,6.72,3.858,2.93,5.039,15.313,5.039,15.313,0,0-11.625-12.603-19.94-8.454,0,0,8.489-10.697,.301-13.58Zm-68.853-21.026c1.941,2.282,10.294,14.089,10.294,14.089,10.756-2.321,29.196-3.383,35.885-1.806,6.696,1.574,6.438,9.88,6.438,9.88-23.418-6.419-40.891,1.327-40.891,1.327,0,0-2.107,15.442-13.54,22.722,41.067-7.407,96.422,.937,125.831,39.885,.354,.469,.698,.935,1.044,1.391-25.321-134.721-125.062-87.487-125.062-87.487Z"/><path class="cls-13" d="M492.065,92.996c8.188,2.883-.301,13.58-.301,13.58,8.314-4.149,19.94,8.454,19.94,8.454,0,0-1.181-12.384-5.039-15.313-3.627-2.749-13.394-6.288-14.6-6.72Z"/><path class="cls-13" d="M412.949,183.51c2.905-3.699,7.288-6.081,12.527-7.35,0,0-11.936-40.311,52.279-34.004-38.854-7.403-86.562,4.709-117.113,50.437,0,0,6.226,21.896,36.223,25.221,5.569,.628,11.958,.607,19.272-.313-2.09-3.203-3.783-6.727-5.007-10.606-3.365-10.662-2.195-18.284,1.819-23.386Z"/><path class="cls-12" d="M396.865,217.815c-29.997-3.325-36.223-25.221-36.223-25.221-8.5,14.187-17.015,21.964-22.677,26,30.626-9.213,37.832,28.092,37.966,28.833l.004,.007c3.267,1.482,4.964,2.943,4.964,2.943,22.099,14.542,44.971,20.549,64.03,22.638-1.383-.32-61.081-14.281-48.065-55.198Z"/><path class="cls-13" d="M187.922,266.018c42.182,23.875,99.813,16.219,138.764-9.707,24.357-16.22,41.368-12.471,49.245-8.885-.134-.741-7.34-38.046-37.966-28.833-4.105,2.922-6.711,3.873-6.711,3.873-7.825,2.964-15.665,4.991-23.415,6.246,0,0-51.928,52.165-119.917,37.306Z"/><path class="cls-13" d="M477.755,142.157c-64.215-6.307-52.279,34.004-52.279,34.004,13.917-3.37,33.795,1.158,47.397,9.783,13.267-39.452,54.073-8.077,54.385-.013,.103-2.095,1.003-12.962,9.104-6.41-10.158-18.462-32.37-32.362-58.608-37.364Z"/><path class="cls-6" d="M472.873,185.943c-13.602-8.624-33.48-13.153-47.397-9.783-5.239,1.269-9.622,3.65-12.527,7.35-.213,67.337,92.491,52.848,92.491,52.848,35.506-6.167,36.751-31.343,36.751-31.343,.612-9.089-1.541-17.702-5.824-25.488l-.004-.007c-8.102-6.553-9.001,4.315-9.104,6.41,.009,.094,.004,.178-.007,.265,0-.063,.005-.147,.007-.265-.313-8.064-41.118-39.439-54.385,.013Z"/><path class="cls-14" d="M539.776,116.55s22.284,36.823,10.818,42.349c7.11,3.412,14.099,12.863,17.609,23.944l.086-.023c13.862-15.878,32.332-30.057,50.467-39.061-7.083,2.028-43.687,12.03-49.661,4.662-6.618-8.164-22.842-35.418-29.32-31.87Z"/><path class="cls-13" d="M416.137,217.501c-7.314,.92-13.703,.941-19.272,.313-13.017,40.917,46.681,54.879,48.065,55.198l.021,.006c26.137,2.864,45.112-1.652,45.112-1.652,0,0,18.286-18.545,31.948-23.234-.451,.092-.906,.176-1.371,.258,0,0-79.762,7.095-104.504-30.889Z"/><path class="cls-17" d="M618.757,143.758c-18.135,9.005-36.606,23.183-50.467,39.061l-.086,.023c4.512,14.225,3.298,31.136-10.731,41.395-1.019,3.537,4.32,3.012,7.337,3.973,.982,.31,2.027-.199,2.369-1.173,4.718-13.587,32.515-86.285,86.071-83.735,16.878,.802,52.152,37.099,37.816,74.329-1.164,3.01-2.455,6.003-2.943,8.997-1.437,8.831,.916,8.991,6.755,1.179,3.035-4.063,5.272-8.832,6.366-13.601,1.174-5.095,1.98-10.156,2.394-15.15,3.201-38.495-18.576-59.842-40.906-64.625-12.067-2.587-27.88,1.33-43.974,9.326Z"/></g></g><g><g><polygon class="cls-18" points="112.486 201.964 112.425 201.938 112.482 201.916 112.486 201.964"/><polygon class="cls-18" points="112.512 201.903 112.482 201.916 112.482 201.892 112.512 201.903"/><polygon class="cls-9" points="132.857 185.584 132.519 187.977 132.303 187.889 129.859 188.438 129.786 186.862 129.779 186.793 129.822 186.775 132.857 185.584"/><path class="cls-30" d="M128.337,171.135s-.155-.182-.444-.519c.038-.199,.07-.399,.098-.599,.366-2.637-.142-5.541-1.426-8.402v-.003c-1.034-2.311-2.57-4.595-4.551-6.689,.713,.227,1.44,.503,2.176,.835l.006,.004c.465,.205,.935,.439,1.41,.696,.724,.392,1.41,.788,2.053,1.199,.063,.036,.128,.079,.191,.119,.29,.187,.573,.374,.85,.563,1.086,.743,2.044,1.504,2.889,2.274,1.122,1.023,2.043,2.063,2.794,3.111l-2.989-2.336c-2.3,9.958,4.88,11.205-3.056,9.746Z"/><path class="cls-28" d="M138.851,185.758c-.068-2.77-3.459-4.547-3.459-4.547,0,0,.205-.345,.485-.973,.413-.922,.986-2.448,1.312-4.345,.192-1.117,.294-2.365,.226-3.695-.134-2.616-.927-5.557-3.03-8.469l-.003-.004-2.989-2.336c-2.3,9.958,4.88,11.205-3.056,9.746,0,0-.155-.182-.444-.519-1.71-1.968-8.163-9.195-16.171-15.515-2.16,.811-4.097,2.083-5.761,3.624,1.258,.059,2.421,.118,3.349,.171,.82,.048,1.204,1.045,.622,1.623-3.67,3.634-6.535,7.481-7.707,11.774-.24,.878-1.441,.971-1.796,.134-.294-.688-.624-1.463-.968-2.281-.553,2.975-.143,5.607,1.429,7.082,0,0-3.681-.521-2.157,4.832,.389,1.369,1.23,3.316,2.585,5.335,2.386,3.564,6.378,7.352,12.326,8.595,3.862,.808,8.549,.542,14.16-1.555,8.777-3.283,11.105-6.337,11.047-8.677Zm-21.228-2.552l-.007,.002,.004-.006c.011-.005,.025-.01,.037-.019-.012,.009-.023,.017-.034,.022Zm14.895,4.771l-.216-.088-2.444,.55-.073-1.576-.007-.069,.043-.018,3.035-1.191-.338,2.393Z"/><path class="cls-28" d="M109.931,160.519c-3.67,3.634-6.535,7.481-7.707,11.774-.24,.878-1.441,.971-1.796,.134-.294-.688-.624-1.463-.968-2.281,.205-1.088,.535-2.222,.989-3.36,.796-2.015,1.968-4.052,3.462-5.879,.626-.769,1.312-1.503,2.048-2.182,1.258,.059,2.421,.118,3.349,.171,.82,.048,1.204,1.045,.622,1.623Z"/><path class="cls-28" d="M127.991,170.017c-.028,.2-.06,.4-.098,.599-1.71-1.968-8.163-9.195-16.171-15.515,3.031-1.144,6.506-1.378,10.292-.179,1.981,2.095,3.517,4.378,4.552,6.689v.003c1.283,2.861,1.792,5.765,1.426,8.402Z"/><path class="cls-22" d="M139.112,189.297s1.491,1.563,2.136,1.633"/><g><path class="cls-28" d="M135.503,145.273l2.747,21.476-3.865-3.021-.003-.004c-.75-1.049-1.672-2.088-2.794-3.111,.411-1.538,1.048-3.273,1.984-5.22-2.117,.405-3.731,1.661-4.873,2.947-.276-.189-.56-.375-.85-.563-.063-.039-.128-.083-.191-.119,1.218-6.905-2.364-9.45-2.585-9.597,2.088,2.106-2.069,5.198-2.069,5.198-.336-1.719-1.86-3.551-3.798-5.255,1.932-5.578,5.992-17.051,7.311-18.914,.715-1.901,1.597-3.182,2.191-3.264,2.166-.3,16.066-5.214,16.066-5.214l-6.856,5.25c-1.378,1.058-1.963,2.854-1.466,4.521l3.832,12.837-4.78,2.054Z"/><path class="cls-9" d="M134.382,163.724l-2.989-2.336-3.169-2.48-.705-.549-3.323-2.597-.006-.004-6.029-4.716s.408-1.199,1.046-3.038c1.938,1.704,3.462,3.536,3.798,5.255,0,0,4.158-3.092,2.069-5.198,.221,.147,3.803,2.692,2.585,9.597,.063,.036,.128,.079,.191,.119,.29,.187,.573,.374,.85,.563,1.142-1.285,2.756-2.541,4.873-2.947-.936,1.948-1.573,3.682-1.984,5.22,1.122,1.023,2.043,2.063,2.794,3.111Z"/><path class="cls-30" d="M31.829,270.445s-7.001,7.94-7.164,9.895l-22.666,.017-1.999-3.052s7.87-13.783,14.432-11.603c3.17,1.053,5.91,7.021,5.332,10.47-.446,2.659,2.155,2.58,2.155,2.58l9.91-8.306Z"/><path class="cls-21" d="M103.537,229.527c-.911-.323-1.795-.642-2.653-.957l2.611-.986c-.005,.612,.009,1.264,.042,1.943Z"/><path class="cls-28" d="M83.6,275.168c9.793,7.927,6.79,9.256,6.79,9.256-6.722,3.196-20.066-1.258-23.525-3.326-3.462-2.069,17.776-27.949,17.776-27.949l-10.008-11.12c-23.792,10.143-52.702,35.899-52.702,35.899-.923-16.198-9.932-14.523-9.932-14.523l-.6-1.583s54.266-50.788,56.046-52.228c1.783-1.436,7.764,1.663,7.764,1.663l7.392,10.675c1.885,2.724,4.694,4.674,7.908,5.489l4.163,1.058,.566,2.231,5.647-2.139c.858,.315,1.742,.634,2.653,.957,.49,10.186,5.015,27.002,5.015,27.002-8.819,2.307-24.952,18.639-24.952,18.639Z"/><path class="cls-18" d="M137.542,234.523c-2.954-1.64-5.088-3.81-6.412-5.427l6.412,5.427Z"/><path class="cls-28" d="M151.029,236.447c-5.59,1.16-10.082-.03-13.487-1.924l-6.412-5.427c-1.085-1.331-1.624-2.289-1.624-2.289,.164-.028,.348-.08,.547-.158,3.549-1.387,12.161-10.457,12.161-10.457,2.009-.87,10.779,.057,10.779,.057,.514,1.373,.414,4.317,.074,7.54-.621,5.859-2.038,12.657-2.038,12.657Z"/><path class="cls-28" d="M150.726,214.992l-5.573-.311c.011-.077,5.737-12.24,5.737-12.24l4.881,3.352s-5.2,7.86-5.045,9.199Z"/><path class="cls-28" d="M159.122,238.115s-4.434,1.364-6.193-1.196c-.494-.72,.285-7.602,.76-13.369,.352-4.219,.54-7.841-.055-8.011,0,0,.454-4.994,1.392-5.219,4.152-1.006,7.936-.032,7.936-.032l-2.061,7.473s-4.038-.646-4.052-.229c-.018,.416-.55,4.181-.55,4.181,0,0,2.954-.358,4.182,.707h.003c.285,.245,.475,.568,.517,.989,.221,2.24-.867,5.436-.867,5.436l-2.339-.14c-.671-.044-1.26,.435-1.364,1.097l-.005,.037c-.18,1.275,.682,2.472,1.952,2.707l2.047,.375s.778,3.861-1.303,5.194Z"/><path class="cls-28" d="M137.807,237.603c-4.728-.485-9.376-1.268-13.828-2.231-7.555-1.63-14.55-3.77-20.442-5.845-.033-.679-.047-1.331-.042-1.943l-2.611,.986c-4.035-1.486-7.441-2.89-10.006-3.988-.166-.075-.33-.142-.491-.212-2.782-1.197-4.462-1.979-4.726-2.016-.043-.006-.109-.046-.198-.116-2.043-1.606-15.428-19.522-15.428-19.522-.106-2.816,10.556-13.604,10.556-13.604l-.776-3.32c1.244-3.432,16.035-12.149,16.035-12.149l2.014,3.525c-2.845,9.194,3.65,13.285,3.776,13.262,.13,.018,.908,10.334,.908,10.334l1.51,.996,3.375,2.227,3.973,2.621,10.825,7.147,3.811,2.517,15.002,.501c-2.59,3.031-12.497,10.263-12.497,10.263,6.946,7.062,9.259,10.568,9.259,10.568Z"/><path class="cls-28" d="M127.394,196.559c-3.932,1.401-9.226,2.46-14.725,1.125-1.64-.392-3.296-1.004-4.942-1.88-1.823-.973-3.631-2.27-5.382-3.968l.8,8.307,4.332,2.685,4.107,2.541,10.504,6.51,7.83-4.915,.695-.436,3.344-13.15s-2.585,1.765-6.56,3.181Zm-14.969,5.379l.058-.023v-.024l.029,.011-.029,.013,.004,.048-.061-.026Z"/><polygon class="cls-32" points="112.482 201.916 112.486 201.964 112.425 201.938 112.482 201.916"/><polygon class="cls-32" points="112.512 201.903 112.482 201.916 112.482 201.892 112.512 201.903"/><path class="cls-9" d="M164.063,120.115l-3.371,8.963s1.616-.1,6.114,.923c0,0,1.272-3.952,3.747-8.111,0,0,1.065-2.277-6.489-1.775Z"/><path class="cls-28" d="M166.129,133.816c-.62,2.942-2.297,7.338-2.659,7.344-.488,.006-7.117-1.306-7.117-1.306l2.476-6.53,1.297-3.421s5.862,.676,6.167,1.618c.14,.428,.051,1.274-.164,2.295Z"/><path class="cls-9" d="M155.998,140.658s7.018,1.15,7.016,1.78-2.179,5.751-2.156,6.21c0,0-5.011-.481-6.777-2.85l1.918-5.14Z"/><path class="cls-30" d="M155.348,153.624l-2.432,.4-2.655,1.076c-3.314-1.208-5.857-8.1-5.857-8.1,1.192-.802,4.943-.22,4.943-.22l2.069,4.195,1.682-.576,2.25,3.224Z"/><polygon class="cls-27" points="132.857 185.584 132.519 187.977 132.303 187.889 129.859 188.438 129.786 186.862 129.779 186.793 129.822 186.775 132.857 185.584"/><path class="cls-2" d="M109.931,160.519c-3.67,3.634-6.535,7.481-7.707,11.774-.24,.878-1.441,.971-1.796,.134-.294-.688-.624-1.463-.968-2.281-1.887-4.447-4.331-10.222-4.621-10.988-.297-.787,6.161-.65,11.121-.432,1.258,.059,2.421,.118,3.349,.171,.82,.048,1.204,1.045,.622,1.623Z"/><path class="cls-27" d="M107.235,162.029c.353-.349,.12-.952-.375-.98-2.782-.156-8.98-.439-8.753,.157,.209,.549,2.243,5.348,3.381,8.028,.215,.506,.94,.449,1.085-.081,.71-2.596,2.443-4.924,4.663-7.123Z"/><path class="cls-10" d="M128.337,171.135s-.155-.182-.444-.519c-1.71-1.968-8.163-9.195-16.171-15.515-4.434-3.5-9.34-6.72-14.185-8.613,0,0,1.335-3.784,15.257,1.276,0,0,2.743,1.59-4.07-6.628,.191,.095,6.3,3.185,10.484,6.868,1.938,1.704,3.462,3.536,3.798,5.255,0,0,4.158-3.092,2.069-5.198,.221,.147,3.803,2.692,2.585,9.597-.039,.229-.086,.464-.14,.702-.213,.998-.522,2.078-.953,3.252,.109-.24,.647-1.423,1.659-2.703,.149-.19,.305-.379,.475-.569,1.142-1.285,2.756-2.541,4.873-2.947-.936,1.948-1.573,3.682-1.984,5.22-.075,.265-.138,.522-.195,.776-2.3,9.958,4.88,11.205-3.056,9.746Z"/><polygon class="cls-8" points="111.582 205.369 111.407 206.607 107.434 203.986 107.476 202.828 111.582 205.369"/><path class="cls-30" d="M103.537,229.527c-.911-.323-1.795-.642-2.653-.957l2.611-.986c-.005,.612,.009,1.264,.042,1.943Z"/><path class="cls-28" d="M161.814,123.021l-.38,.93-3.657,8.987-5.047,12.392c-8.02-1.083-10.107,1.614-10.107,1.614,0,0-4.834-15.042-5.017-17.532-.179-2.49,9.156-7.988,9.156-7.988l3.135,.334,9.988,1.058,1.928,.205Z"/></g><path class="cls-22" d="M120.329,183.979c1.635,.425,3.393,.776,3.872,.493,0,0-3.135,3.128-5.362,2.343"/><path class="cls-22" d="M117.623,183.205l-.003-.004c-.264-.082-.421-.131-.421-.131"/><path class="cls-22" d="M134.898,182.343c.81-.049,1.597-.101,1.597-.101"/><path class="cls-22" d="M136.979,178.818s-.475,.665-1.103,1.42"/><polygon class="cls-1" points="132.857 185.584 132.519 187.977 132.303 187.889 129.859 188.438 129.786 186.862 129.779 186.793 129.822 186.775 132.857 185.584"/><polygon class="cls-33" points="131.026 188.135 130.965 188.11 131.023 188.087 131.026 188.135"/><polygon class="cls-33" points="131.052 188.074 131.023 188.087 131.023 188.063 131.052 188.074"/><path class="cls-22" d="M113.359,192.79s-3.825-1.387-4.21-.933"/><path class="cls-22" d="M115.447,195.416s-.971-.244-2.155,.872"/><path class="cls-22" d="M138.483,185.827s4.828-.966,5.518-.467"/><path class="cls-22" d="M140.173,187.778s2.405,1.08,2.615,1.532"/><path class="cls-22" d="M111.091,189.064s-3.063-2.813-5.859-2.724"/></g><g><polygon class="cls-18" points="115.443 201.21 115.212 202.846 115.064 202.784 113.397 203.161 113.345 202.085 113.342 202.036 113.371 202.024 115.443 201.21"/><polygon class="cls-18" points="113.345 202.085 113.284 202.059 113.342 202.036 113.345 202.085"/><polygon class="cls-18" points="113.371 202.024 113.342 202.036 113.342 202.013 113.371 202.024"/><path class="cls-9" d="M128.662,194.556c-14.251,5.331-22.551-1.163-26.485-7.04,12.902-.007,23.046-6.964,25.944-14.577,3.738,2.043,7.481,2.797,9.927,3.075-.546,3.187-1.797,5.318-1.797,5.318,0,0,11.561,6.06-7.589,13.224Z"/><path class="cls-30" d="M138.048,176.014c-2.446-.278-6.189-1.032-9.927-3.075,.352-.927,.601-1.866,.729-2.801,.664-4.77-1.544-10.407-5.977-15.095,1.17,.37,2.368,.876,3.592,1.536,.797,.429,1.545,.869,2.244,1.318,7.2,4.592,9.34,9.974,9.565,14.421,.067,1.33-.035,2.579-.226,3.695Z"/><path class="cls-28" d="M128.85,170.138c-1.198,8.62-12.201,17.368-26.673,17.378-1.355-2.02-2.196-3.967-2.585-5.335-1.524-5.352,2.157-4.832,2.157-4.832-5.926-5.563,4.651-27.528,21.124-22.305,4.433,4.688,6.642,10.324,5.977,15.095Z"/><path class="cls-22" d="M139.972,189.419s1.491,1.563,2.136,1.633"/><g><path class="cls-9" d="M133.931,146.437s-4.805-19.671-6.547-17.238-8.365,21.965-8.365,21.965l20.09,15.706-2.943-23.011-2.235,2.577Z"/><path class="cls-30" d="M32.689,270.566s-7.001,7.94-7.164,9.895l-22.666,.017-1.999-3.052s7.87-13.783,14.432-11.603c3.17,1.053,5.91,7.021,5.332,10.47-.446,2.659,2.155,2.58,2.155,2.58l9.91-8.306Z"/><path class="cls-21" d="M73.126,239.522l12.374,13.747s-21.236,25.88-17.776,27.95,16.803,6.523,23.525,3.326c0,0,3.002-1.327-6.789-9.255,0,0,16.134-16.332,24.952-18.64,0,0-5.147-19.134-5.058-28.946l-31.228,11.818Z"/><path class="cls-20" d="M76.068,211.376s-5.983-3.099-7.763-1.661-56.048,52.228-56.048,52.228l.602,1.583s9.008-1.675,9.932,14.524c0,0,31.288-27.873,55.552-37.05l18.788-6.085-1.599-6.315-4.165-1.058c-3.212-.816-6.02-2.766-7.907-5.49l-7.392-10.676Z"/><path class="cls-18" d="M131.989,229.217l6.412,5.427c-2.954-1.64-5.088-3.81-6.412-5.427Z"/><path class="cls-9" d="M153.926,223.911c-1.137,.455-2.266,1.051-3.364,1.812-2.363,1.64-3.936,3.617-4.96,5.252,0,0-3.84-8.11-7.057-5.464-2,1.647-5.374,1.558-7.633,1.259,3.549-1.387,12.16-10.457,12.16-10.457,2.009-.87,10.779,.057,10.779,.057,.514,1.373,.414,4.317,.074,7.54Z"/><path class="cls-9" d="M146.013,214.802c.011-.078,5.738-12.24,5.738-12.24l4.878,3.353s-5.198,7.861-5.045,9.201l-5.572-.313Z"/><path class="cls-30" d="M161.339,222.542c-2.104,.002-4.445,.287-6.791,1.13,.351-4.219,.54-7.842-.055-8.011,0,0,.454-4.994,1.392-5.219,4.152-1.006,7.936-.032,7.936-.032l-2.061,7.473s-4.038-.646-4.052-.229c-.018,.416-.55,4.181-.55,4.181,0,0,2.954-.358,4.182,.707Z"/><path class="cls-32" d="M104.918,201.881c-8.614,3.766-15.412,11.206-18.595,20.477-2.043-1.606-15.428-19.522-15.428-19.522-.106-2.816,10.556-13.604,10.556-13.604l-.777-3.32c1.244-3.432,16.035-12.149,16.035-12.149l2.014,3.525c-2.845,9.194,3.65,13.285,3.776,13.262,.13,.018,.908,10.334,.908,10.334l1.51,.996Z"/><path class="cls-9" d="M138.666,237.725c-4.728-.485-9.376-1.268-13.828-2.231-2.712-6.024-7.893-10.743-14.357-12.79-6.331-2.001-13.123-1.199-18.743,2-.166-.075-.33-.142-.491-.212-2.782-1.197-4.462-1.979-4.726-2.016-.043-.006-.109-.046-.198-.116,3.183-9.272,9.981-16.712,18.595-20.477l18.173,11.995,3.811,2.517,15.002,.501c-2.59,3.031-12.497,10.263-12.497,10.263,6.946,7.062,9.259,10.568,9.259,10.568Z"/><path class="cls-32" d="M108.586,195.925l-.251,7.024-4.331-2.685-.8-8.307c1.751,1.698,3.559,2.995,5.382,3.968Z"/><path class="cls-5" d="M134.813,193.499l-3.344,13.15-.695,.436-2.522-10.405c3.975-1.416,6.56-3.181,6.56-3.181Z"/><path class="cls-32" d="M130.775,207.086l-7.83,4.915-10.503-6.51,1.087-7.686c5.499,1.336,10.792,.277,14.725-1.125l2.522,10.405Z"/><path class="cls-9" d="M153.599,129.419c1.335,1.608,3.071,2.841,5.037,3.64l-5.047,12.392c-8.02-1.083-10.107,1.614-10.107,1.614,0,0-4.834-15.042-5.017-17.532-.179-2.49,9.156-7.988,9.156-7.988l3.136,.334c.146,2.386,.853,5.142,2.842,7.54Z"/><polygon class="cls-9" points="162.673 123.142 162.293 124.072 160.745 122.938 162.673 123.142"/><path class="cls-9" d="M164.923,120.237l-3.371,8.963s1.616-.1,6.114,.923c0,0,1.272-3.952,3.747-8.111,0,0,1.065-2.277-6.489-1.775Z"/><path class="cls-9" d="M166.988,133.937c-.62,2.942-2.297,7.338-2.659,7.344-.488,.006-7.117-1.306-7.117-1.306l2.476-6.53c2.267,.722,4.777,.907,7.3,.491Z"/><path class="cls-9" d="M156.858,140.779s7.018,1.15,7.016,1.78-2.179,5.751-2.156,6.21c0,0-5.011-.481-6.777-2.85l1.918-5.14Z"/><path class="cls-30" d="M156.208,153.746l-2.432,.4-2.655,1.076c-3.314-1.208-5.857-8.1-5.857-8.1,1.192-.802,4.943-.22,4.943-.22l2.069,4.195,1.682-.576,2.25,3.224Z"/><path class="cls-9" d="M145.634,120.732s-13.898,4.915-16.065,5.215-8.155,16.524,4.173,20.571l7.402-3.177-3.832-12.838c-.497-1.665,.086-3.464,1.466-4.521l6.856-5.25Z"/><path class="cls-27" d="M131.109,193.111c-5.552,2.076-9.96,1.881-13.376,.591-1.052-5.813,5.78-17.323,18.068-12.037-.191,.414,.018,1.05,.018,1.05,0,0,10.412,4.737-4.71,10.396Z"/><path class="cls-2" d="M110.791,160.639c.583-.577,.199-1.575-.621-1.621-4.599-.258-14.846-.725-14.472,.259,.346,.908,3.708,8.841,5.589,13.272,.355,.836,1.555,.742,1.795-.135,1.174-4.293,4.039-8.14,7.709-11.776Z"/><path class="cls-27" d="M108.095,162.151c.353-.349,.12-.952-.375-.98-2.782-.156-8.98-.439-8.753,.157,.209,.549,2.243,5.348,3.381,8.028,.215,.506,.94,.449,1.085-.081,.71-2.596,2.443-4.924,4.663-7.123Z"/><path class="cls-10" d="M129.198,171.257s-15.717-18.745-30.803-24.648c0,0,1.337-3.781,15.259,1.275,0,0,2.743,1.591-4.075-6.632,0,0,13.217,6.641,14.287,12.126,0,0,4.168-3.1,2.059-5.203,0,0,5.255,3.39,1.485,13.604,0,0,2.199-5.344,7.022-6.266-7.425,15.439,4.077,17.452-5.234,15.742Z"/><path class="cls-25" d="M113.528,197.805l-1.087,7.686-4.107-2.541,.251-7.024c1.646,.876,3.302,1.488,4.942,1.88Z"/><polygon class="cls-8" points="108.335 202.949 112.441 205.491 112.266 206.729 108.293 204.108 108.335 202.949"/><path class="cls-30" d="M124.838,235.494c-14.231-3.067-26.478-7.958-33.1-10.79,5.62-3.198,12.412-4.001,18.743-2,6.464,2.047,11.645,6.766,14.357,12.79Z"/><path class="cls-28" d="M162.293,124.072l-3.657,8.987c-1.967-.799-3.702-2.031-5.037-3.64-1.989-2.399-2.696-5.154-2.842-7.54l9.988,1.058,1.548,1.135Z"/><path class="cls-28" d="M166.988,133.937c-2.523,.416-5.033,.231-7.3-.491l1.297-3.421s5.862,.676,6.167,1.618c.14,.428,.051,1.274-.165,2.295Z"/></g><path class="cls-22" d="M118.061,183.194s6.044,1.967,7.002,1.4c0,0-3.135,3.127-5.365,2.344"/><path class="cls-22" d="M137.839,178.939s-2.462,3.439-3.6,3.571,3.115-.145,3.115-.145"/><polygon class="cls-1" points="133.717 185.704 133.379 188.1 133.162 188.009 130.721 188.561 130.645 186.985 130.639 186.915 130.682 186.896 133.717 185.704"/><polygon class="cls-33" points="131.886 188.257 131.825 188.231 131.883 188.209 131.886 188.257"/><polygon class="cls-33" points="131.912 188.196 131.883 188.209 131.883 188.185 131.912 188.196"/><path class="cls-22" d="M114.219,192.911s-3.825-1.387-4.21-.933"/><path class="cls-22" d="M116.307,195.538s-.971-.244-2.155,.872"/><path class="cls-22" d="M139.343,185.949s4.828-.966,5.518-.467"/><path class="cls-22" d="M141.032,187.899s2.405,1.08,2.615,1.532"/><path class="cls-22" d="M111.951,189.185s-3.063-2.813-5.859-2.724"/><path class="cls-28" d="M151.888,236.568c-5.59,1.16-10.082-.03-13.487-1.924l-6.412-5.427c-1.085-1.331-1.624-2.289-1.624-2.289,.164-.028,.348-.08,.547-.158,2.259,.299,5.633,.388,7.633-1.259,3.216-2.646,7.057,5.464,7.057,5.464,1.024-1.635,2.597-3.612,4.96-5.252,1.098-.76,2.227-1.356,3.364-1.812-.621,5.859-2.038,12.657-2.038,12.657Z"/><path class="cls-28" d="M159.982,238.237s-4.434,1.364-6.193-1.196c-.494-.72,.285-7.602,.76-13.369,2.345-.843,4.687-1.128,6.791-1.13h.003c.285,.245,.475,.568,.517,.989,.221,2.24-.867,5.436-.867,5.436l-2.339-.14c-.671-.044-1.26,.435-1.364,1.097l-.005,.037c-.18,1.275,.682,2.472,1.952,2.707l2.047,.375s.778,3.861-1.303,5.194Z"/></g></g><g><g><g><g><polygon class="cls-22" points="612.961 176.936 600.356 181.016 590.662 175.776 597.821 171.478 612.961 176.936"/><path class="cls-22" d="M645.137,263.926l-.13-.28c.006,.011,.012,.021,.019,.028,.068,.112,.104,.195,.111,.252Z"/><polygon class="cls-22" points="610.23 155.302 603.795 142.198 610.855 138.8 613.754 146.259 615.039 145.942 613.038 138.919 619.48 136.991 620.325 144.081 621.296 143.876 621.695 136.51 626.271 136.414 625.412 142.338 624.824 143.981 617.856 147.639 619.043 149.231 619.809 148.781 618.998 147.494 624.943 144.631 626.05 146.426 610.23 155.302"/><path class="cls-22" d="M691.545,114.301s-5.03-1.801-6.834-4.194c0,0,9.416-.594,10.597-3.332,0,0,2.394,2.094-3.763,7.526Z"/><path class="cls-22" d="M714.885,109.648c-.579,2.159-2.616,6.602-5.224,11.815-.596-2.901-1.362-5.576-2.381-7.896-2.179-4.952-5.535-8.303-10.928-8.885,0,0-.706-1.608-.927-3.513,2.271-.474,5.368-.641,7.553,1.142,3.847,3.138,2.742,1.907,2.742,1.907,0,0,11.156-1.992,9.164,5.431Z"/><path class="cls-22" d="M672.661,116.208l11.65,7.402c-4.996,.067-3.615,4.682-3.615,4.682-2.368-.398-5.317-.612-7.981-2.346l1.348-4.956c.282-1.159-.344-2.928-1.402-4.781Z"/><path class="cls-22" d="M688.139,119.922c-1.302-1.569-2.86-3.152-4.721-4.64-6.613-5.286-13.803-6.786-18.61-7.145,.083-2.409,10.294-4.658,16.731-.231,0,0-.8,2.677,6.32,9.318-.231,.031,.166,1.298,.279,2.699Z"/><path class="cls-22" d="M716.029,106.354s7.88,16.605,6.527,22.216c0,0-5.43-8.132-8.247-5.415-2.739,2.643-2.478,15.717-2.461,16.454-.532-6.317-1.057-12.644-2.187-18.147-.596-2.901-1.362-5.576-2.381-7.896-2.179-4.952-5.535-8.303-10.928-8.885,0,0-.706-1.608-.927-3.513-.192-1.685-.011-3.606,1.38-4.853,2.959-2.655,11.99-7.303,11.99-7.303,0,0-5.983,7.517-2.36,8.929,3.623,1.411,18.231,.815,18.593,4.342l-9,4.073Z"/></g><path class="cls-22" d="M673.912,159.549l-9.994,3.04-11.367,3.455-17.905,5.444-14.682,4.467h-.003l-1.486-.803-5.514,1.784-12.605,4.08-9.694-5.241-6.812-3.68,1.743-7.065,4.259,1.635h.003l.764-1.143-3.289-1.717,.941-5.218,4.41,2.082,2.276-.265c.078-.006,.14-.036,.187-.084,.032-.032,.061-.074,.081-.127,.384-.975-1.376-4.952-1.376-4.952,4.842-.089,7.887,1.018,7.887,1.018h.003c.137,.284,.284,.556,.442,.817,.053,.087,.106,.171,.162,.255,.358,.559,.756,1.057,1.138,1.483,1.022,1.142,1.959,1.78,1.959,1.78l.024-.012c.014-.006,.031-.019,.059-.031,.004-.007,.011-.01,.014-.009,.052-.031,.129-.071,.223-.123,.059-.034,.125-.071,.202-.111,.084-.046,.177-.095,.278-.15,.021-.012,.039-.025,.059-.034,.07-.04,.143-.08,.219-.12,.139-.077,.289-.16,.452-.246,.164-.092,.338-.188,.525-.285,.125-.067,.254-.138,.386-.209,.202-.111,.414-.224,.636-.344,.136-.074,.278-.15,.424-.23,.56-.3,1.172-.628,1.835-.977,.156-.083,.316-.169,.476-.254,.143-.077,.285-.15,.431-.23,.274-.144,.552-.291,.841-.444,.028-.015,.056-.027,.083-.043,.448-.232,.907-.474,1.383-.725,.059-.031,.115-.061,.174-.089,.268-.141,.542-.281,.82-.428,.528-.272,1.066-.553,1.618-.834,.24-.125,.483-.251,.729-.376,.122-.064,.247-.128,.372-.189,.247-.128,.496-.253,.746-.382,.503-.256,1.014-.516,1.531-.774,.239-.122,.479-.241,.722-.363,3.921-1.965,8.153-4.004,12.115-5.75,1.964-.866,3.864-1.661,5.629-2.338,.248-.098,.496-.189,.741-.281,.4-.151,.792-.295,1.174-.429,.179-.065,.355-.126,.53-.184,.272-.097,.54-.187,.801-.271,.155-.049,.309-.101,.46-.147,.381-.121,.752-.233,1.105-.332,.12-.034,.24-.068,.356-.096,.281-.079,.551-.149,.811-.209,0,0,.182-.112,.517-.313,.049-.028,.101-.059,.157-.093,.206-.124,.454-.272,.743-.442,.091-.052,.185-.108,.286-.17,.122-.071,.248-.145,.38-.222,.101-.059,.206-.12,.314-.182,.331-.191,.694-.401,1.077-.62,.156-.086,.32-.178,.484-.274,.191-.108,.386-.219,.585-.329,1.044-.588,2.217-1.234,3.457-1.889,.337-.181,.681-.361,1.028-.542,.17-.089,.347-.18,.521-.269,.635-.327,1.284-.653,1.936-.972,.246-.122,.489-.24,.731-.355,.236-.112,.471-.224,.707-.336,.298-.139,.592-.275,.883-.408,.294-.136,.585-.269,.875-.395,.242-.108,.481-.21,.719-.312,.967-.413,1.913-.791,2.815-1.11,.148-.053,.299-.105,.447-.155,.337-.117,.667-.224,.986-.318,.168-.052,.333-.1,.497-.145,.164-.045,.322-.087,.483-.129,.092-.022,.178-.044,.267-.067,.123-.03,.243-.058,.362-.082,.092-.022,.184-.041,.276-.056,.246-.048,.484-.089,.712-.117,.051-.007,.105-.015,.156-.019,.292-.035,.567-.054,.823-.053,.101-.001,.199,0,.293,.006,.168,.009,.34,.018,.508,.031,.168,.009,.336,.022,.504,.034,.138,.011,.279,.022,.417,.036,.171,.016,.339,.032,.507,.051,.164,.019,.329,.041,.493,.064,.372,.051,.733,.114,1.09,.187,.177,.037,.354,.077,.527,.12,.173,.043,.346,.09,.516,.139,.186,.054,.372,.115,.554,.182,.106,.036,.212,.076,.318,.118,.073,.031,.142,.058,.211,.089l.158,.069c.049,.023,.095,.046,.145,.069,.105,.05,.207,.102,.309,.155,.115,.06,.233,.127,.344,.194,.14,.085,.281,.177,.414,.272,.091,.066,.182,.131,.269,.2,.087,.069,.171,.141,.259,.213,.084,.072,.167,.151,.247,.229s.16,.161,.237,.242c.156,.167,.302,.347,.444,.534,.095,.127,.182,.256,.269,.393,.015,.028,.034,.056,.049,.087,.056,.091,.108,.181,.16,.275,.049,.094,.101,.188,.15,.285,.119,.243,.229,.502,.329,.774,.056,.155,.108,.313,.16,.475,.023,.075,.046,.151,.065,.23,.026,.082,.048,.168,.07,.257,.017,.062,.031,.123,.044,.185,.093,.4,.168,.823,.221,1.278,.017,.126,.03,.251,.04,.38,.013,.129,.023,.261,.033,.393,.008,.098,.013,.197,.017,.298,.008,.173,.015,.349,.019,.528,.007,.25,.006,.507,.002,.773-.074,3.989-1.293,9.611-4.133,17.531Z"/><path class="cls-22" d="M652.551,166.044l-17.905,5.444-12.523,3.808-2.159,.659h-.003l-1.486-.803-5.514,1.784-12.605,4.08-9.694-5.241-6.812-3.68,1.743-7.065,4.259,1.635,.767-1.143-3.289-1.717,.941-5.218,4.41,2.082,2.276-.265c.078-.006,.14-.036,.187-.084,.032-.032,.061-.074,.081-.127,.384-.975-1.376-4.952-1.376-4.952,4.842-.089,7.887,1.018,7.887,1.018,.136,.284,.284,.555,.445,.817,.053,.087,.106,.171,.162,.255,.358,.559,.756,1.057,1.138,1.483,1.022,1.142,1.959,1.78,1.959,1.78l.024-.012c.014-.006,.031-.019,.059-.031,.004-.007,.011-.01,.014-.009,.052-.031,.129-.071,.223-.123,.059-.034,.125-.071,.202-.111,.084-.046,.177-.098,.278-.15,.021-.012,.039-.025,.059-.034,.07-.04,.143-.08,.219-.12,.139-.077,.289-.16,.452-.246,.164-.092,.338-.188,.525-.285,.125-.067,.254-.138,.386-.209,.202-.111,.414-.224,.636-.344,.136-.074,.278-.15,.424-.23,.56-.3,1.172-.628,1.835-.977,.156-.083,.316-.169,.476-.254,.143-.077,.285-.15,.431-.23,.274-.144,.552-.291,.841-.444,.028-.015,.056-.027,.083-.043,.448-.236,.91-.477,1.383-.725,.059-.031,.115-.061,.174-.089,.271-.141,.542-.285,.82-.428,.528-.272,1.066-.553,1.618-.834,.24-.125,.483-.251,.729-.376,.122-.064,.247-.128,.372-.189,.247-.128,.496-.253,.746-.382,.503-.256,1.014-.516,1.531-.774,.239-.122,.479-.241,.722-.363,3.921-1.965,8.153-4.004,12.115-5.75,1.964-.866,3.864-1.661,5.629-2.338,.248-.098,.496-.189,.741-.281,.4-.151,.792-.295,1.174-.429,.179-.065,.355-.126,.53-.184,.272-.097,.54-.187,.801-.271,.155-.049,.309-.101,.46-.147,.381-.121,.752-.233,1.105-.332,.12-.034,.24-.068,.356-.096,.281-.079,.551-.149,.811-.209,0,0,.182-.112,.517-.313,.049-.028,.101-.059,.157-.093,.206-.124,.454-.272,.743-.442,.091-.052,.185-.108,.286-.17,.118-.068,.247-.142,.38-.222,.101-.059,.206-.12,.314-.182,5.472,7.84,7.287,17.036,5.729,24.921Z"/><path class="cls-22" d="M673.912,159.549l-9.994,3.04c.438-8.52-2.771-17.962-9.943-25.389,5.093-2.617,10.92-5.177,13.969-5.022,8.045,.409,14.726,2.944,5.967,27.371Z"/><path class="cls-22" d="M691.545,114.301s-5.03-1.801-6.834-4.194c0,0,9.416-.594,10.597-3.332,0,0,2.394,2.094-3.763,7.526Z"/><path class="cls-22" d="M701.704,112.404s1.601,3.77-1.569,3.634"/><path class="cls-22" d="M707.359,113.543s-4.691,1.2-1.368,2.807"/><path class="cls-22" d="M699.238,119.948s4.508-5.513,5.926,.321"/><circle class="cls-22" cx="687.484" cy="111.265" r=".42"/><path class="cls-22" d="M652.552,166.044c1.558-7.885-.256-17.08-5.729-24.921,1.77-1.028,4.35-2.485,7.152-3.923,7.172,7.426,10.381,16.869,9.943,25.389l-11.367,3.455Z"/></g><polygon class="cls-22" points="653.147 211.878 651.397 214.582 651.394 214.578 653.147 211.878"/><path class="cls-22" d="M645.137,263.926l-.13-.28c.006,.011,.012,.021,.019,.028,.068,.112,.104,.195,.111,.252Z"/><g><g><polygon class="cls-22" points="612.961 176.936 600.356 181.016 590.662 175.776 597.821 171.478 612.961 176.936"/><path class="cls-22" d="M689.932,164.086c-4.289,21.232-35.021,45.08-35.021,45.08l-1.764,2.713-1.753,2.7-20.345,31.309s8.815,9.763,13.958,17.758l.13,.28c-.007-.058-.043-.141-.111-.252,.198,.274,1.791,2.517,2.472,4.346l.003,.01c.93,1.968,1.354,3.611,.987,4.647-1.91,5.358-19.345,15.347-19.345,15.347l3.107-7.261,.166-.386-8.343-1.944-2.47-4.184-21.993-37.241,23.747-32.175-21.23-8.127s-.968,.245-2.565,.678c-4.008,1.089-11.976,3.372-18.459,5.96-3.95,1.578-7.35,3.271-8.969,4.875-5.333,5.284-10.175-29.016-10.175-29.016-.137-.392,.283-.748,.647-.549l10.81,5.895,3.838-1.936,5.209-2.631,7.489-3.78,.712-.427,9.694,5.241,12.605-4.08,16.355,5.898,6.953-10.526s25.107-7.487,38.469-10.946c6.673-1.731,4.844-25.931,4.844-25.931,0,0,14.643,7.416,10.35,28.654Z"/><path class="cls-22" d="M645.137,263.926l-.13-.28c.006,.011,.012,.021,.019,.028,.068,.112,.104,.195,.111,.252Z"/><polygon class="cls-22" points="610.23 155.302 603.795 142.198 610.855 138.8 613.754 146.259 615.039 145.942 613.038 138.919 619.48 136.991 620.325 144.081 621.296 143.876 621.695 136.51 626.271 136.414 625.412 142.338 624.824 143.981 617.856 147.639 619.043 149.231 619.809 148.781 618.998 147.494 624.943 144.631 626.05 146.426 610.23 155.302"/><path class="cls-22" d="M707.281,113.567c-2.179-4.952-5.535-8.303-10.928-8.885,0,0-.706-1.608-.927-3.513-1.731,.362-2.979,.905-2.979,.905,0,0-4.221-2.406-3.419-.185,.801,2.221-4.178,4.543-6.267,6.02-2.088,1.477,2.246,4.905,5.147,8.491,2.901,3.59-.116,9.87-3.378,8.269-3.262-1.598-3.335,4.423-3.335,4.423l-2.433,.118-6.499-2.965-2.713,3.043c21.113-.807,23.337,22.259,23.732,22.203,.282-.039,10.025-17.327,16.38-30.029-.596-2.901-1.362-5.576-2.381-7.896Zm-15.736,.734s-5.03-1.801-6.834-4.194c0,0,9.416-.594,10.597-3.332,0,0,2.394,2.094-3.763,7.526Z"/><path class="cls-22" d="M714.885,109.648c-.579,2.159-2.616,6.602-5.224,11.815-.596-2.901-1.362-5.576-2.381-7.896-2.179-4.952-5.535-8.303-10.928-8.885,0,0-.706-1.608-.927-3.513,2.271-.474,5.368-.641,7.553,1.142,3.847,3.138,2.742,1.907,2.742,1.907,0,0,11.156-1.992,9.164,5.431Z"/><path class="cls-22" d="M672.661,116.208l11.65,7.402c-4.996,.067-3.615,4.682-3.615,4.682-2.368-.398-5.317-.612-7.981-2.346l1.348-4.956c.282-1.159-.344-2.928-1.402-4.781Z"/><path class="cls-22" d="M688.139,119.922c-1.302-1.569-2.86-3.152-4.721-4.64-6.613-5.286-13.803-6.786-18.61-7.145,.083-2.409,10.294-4.658,16.731-.231,0,0-.8,2.677,6.32,9.318-.231,.031,.166,1.298,.279,2.699Z"/><path class="cls-22" d="M716.029,106.354s7.88,16.605,6.527,22.216c0,0-5.43-8.132-8.247-5.415-2.739,2.643-2.478,15.717-2.461,16.454-.532-6.317-1.057-12.644-2.187-18.147-.596-2.901-1.362-5.576-2.381-7.896-2.179-4.952-5.535-8.303-10.928-8.885,0,0-.706-1.608-.927-3.513-.192-1.685-.011-3.606,1.38-4.853,2.959-2.655,11.99-7.303,11.99-7.303,0,0-5.983,7.517-2.36,8.929,3.623,1.411,18.231,.815,18.593,4.342l-9,4.073Z"/></g><path class="cls-22" d="M673.912,159.549l-9.994,3.04-11.367,3.455-17.905,5.444-14.682,4.467h-.003l-1.486-.803-5.514,1.784-12.605,4.08-9.694-5.241-6.812-3.68,1.743-7.065,4.259,1.635h.003l.764-1.143-3.289-1.717,.941-5.218,4.41,2.082,2.276-.265c.078-.006,.14-.036,.187-.084,.032-.032,.061-.074,.081-.127,.384-.975-1.376-4.952-1.376-4.952,4.842-.089,7.887,1.018,7.887,1.018h.003c.137,.284,.284,.556,.442,.817,.053,.087,.106,.171,.162,.255,.358,.559,.756,1.057,1.138,1.483,1.022,1.142,1.959,1.78,1.959,1.78l.024-.012c.014-.006,.031-.019,.059-.031,.004-.007,.011-.01,.014-.009,.052-.031,.129-.071,.223-.123,.059-.034,.125-.071,.202-.111,.084-.046,.177-.095,.278-.15,.021-.012,.039-.025,.059-.034,.07-.04,.143-.08,.219-.12,.139-.077,.289-.16,.452-.246,.164-.092,.338-.188,.525-.285,.125-.067,.254-.138,.386-.209,.202-.111,.414-.224,.636-.344,.136-.074,.278-.15,.424-.23,.56-.3,1.172-.628,1.835-.977,.156-.083,.316-.169,.476-.254,.143-.077,.285-.15,.431-.23,.274-.144,.552-.291,.841-.444,.028-.015,.056-.027,.083-.043,.448-.232,.907-.474,1.383-.725,.059-.031,.115-.061,.174-.089,.268-.141,.542-.281,.82-.428,.528-.272,1.066-.553,1.618-.834,.24-.125,.483-.251,.729-.376,.122-.064,.247-.128,.372-.189,.247-.128,.496-.253,.746-.382,.503-.256,1.014-.516,1.531-.774,.239-.122,.479-.241,.722-.363,3.921-1.965,8.153-4.004,12.115-5.75,1.964-.866,3.864-1.661,5.629-2.338,.248-.098,.496-.189,.741-.281,.4-.151,.792-.295,1.174-.429,.179-.065,.355-.126,.53-.184,.272-.097,.54-.187,.801-.271,.155-.049,.309-.101,.46-.147,.381-.121,.752-.233,1.105-.332,.12-.034,.24-.068,.356-.096,.281-.079,.551-.149,.811-.209,0,0,.182-.112,.517-.313,.049-.028,.101-.059,.157-.093,.206-.124,.454-.272,.743-.442,.091-.052,.185-.108,.286-.17,.122-.071,.248-.145,.38-.222,.101-.059,.206-.12,.314-.182,.331-.191,.694-.401,1.077-.62,.156-.086,.32-.178,.484-.274,.191-.108,.386-.219,.585-.329,1.044-.588,2.217-1.234,3.457-1.889,.337-.181,.681-.361,1.028-.542,.17-.089,.347-.18,.521-.269,.635-.327,1.284-.653,1.936-.972,.246-.122,.489-.24,.731-.355,.236-.112,.471-.224,.707-.336,.298-.139,.592-.275,.883-.408,.294-.136,.585-.269,.875-.395,.242-.108,.481-.21,.719-.312,.967-.413,1.913-.791,2.815-1.11,.148-.053,.299-.105,.447-.155,.337-.117,.667-.224,.986-.318,.168-.052,.333-.1,.497-.145,.164-.045,.322-.087,.483-.129,.092-.022,.178-.044,.267-.067,.123-.03,.243-.058,.362-.082,.092-.022,.184-.041,.276-.056,.246-.048,.484-.089,.712-.117,.051-.007,.105-.015,.156-.019,.292-.035,.567-.054,.823-.053,.101-.001,.199,0,.293,.006,.168,.009,.34,.018,.508,.031,.168,.009,.336,.022,.504,.034,.138,.011,.279,.022,.417,.036,.171,.016,.339,.032,.507,.051,.164,.019,.329,.041,.493,.064,.372,.051,.733,.114,1.09,.187,.177,.037,.354,.077,.527,.12,.173,.043,.346,.09,.516,.139,.186,.054,.372,.115,.554,.182,.106,.036,.212,.076,.318,.118,.073,.031,.142,.058,.211,.089l.158,.069c.049,.023,.095,.046,.145,.069,.105,.05,.207,.102,.309,.155,.115,.06,.233,.127,.344,.194,.14,.085,.281,.177,.414,.272,.091,.066,.182,.131,.269,.2,.087,.069,.171,.141,.259,.213,.084,.072,.167,.151,.247,.229s.16,.161,.237,.242c.156,.167,.302,.347,.444,.534,.095,.127,.182,.256,.269,.393,.015,.028,.034,.056,.049,.087,.056,.091,.108,.181,.16,.275,.049,.094,.101,.188,.15,.285,.119,.243,.229,.502,.329,.774,.056,.155,.108,.313,.16,.475,.023,.075,.046,.151,.065,.23,.026,.082,.048,.168,.07,.257,.017,.062,.031,.123,.044,.185,.093,.4,.168,.823,.221,1.278,.017,.126,.03,.251,.04,.38,.013,.129,.023,.261,.033,.393,.008,.098,.013,.197,.017,.298,.008,.173,.015,.349,.019,.528,.007,.25,.006,.507,.002,.773-.074,3.989-1.293,9.611-4.133,17.531Z"/><path class="cls-22" d="M652.551,166.044l-17.905,5.444-12.523,3.808-2.159,.659h-.003l-1.486-.803-5.514,1.784-12.605,4.08-9.694-5.241-6.812-3.68,1.743-7.065,4.259,1.635,.767-1.143-3.289-1.717,.941-5.218,4.41,2.082,2.276-.265c.078-.006,.14-.036,.187-.084,.032-.032,.061-.074,.081-.127,.384-.975-1.376-4.952-1.376-4.952,4.842-.089,7.887,1.018,7.887,1.018,.136,.284,.284,.555,.445,.817,.053,.087,.106,.171,.162,.255,.358,.559,.756,1.057,1.138,1.483,1.022,1.142,1.959,1.78,1.959,1.78l.024-.012c.014-.006,.031-.019,.059-.031,.004-.007,.011-.01,.014-.009,.052-.031,.129-.071,.223-.123,.059-.034,.125-.071,.202-.111,.084-.046,.177-.098,.278-.15,.021-.012,.039-.025,.059-.034,.07-.04,.143-.08,.219-.12,.139-.077,.289-.16,.452-.246,.164-.092,.338-.188,.525-.285,.125-.067,.254-.138,.386-.209,.202-.111,.414-.224,.636-.344,.136-.074,.278-.15,.424-.23,.56-.3,1.172-.628,1.835-.977,.156-.083,.316-.169,.476-.254,.143-.077,.285-.15,.431-.23,.274-.144,.552-.291,.841-.444,.028-.015,.056-.027,.083-.043,.448-.236,.91-.477,1.383-.725,.059-.031,.115-.061,.174-.089,.271-.141,.542-.285,.82-.428,.528-.272,1.066-.553,1.618-.834,.24-.125,.483-.251,.729-.376,.122-.064,.247-.128,.372-.189,.247-.128,.496-.253,.746-.382,.503-.256,1.014-.516,1.531-.774,.239-.122,.479-.241,.722-.363,3.921-1.965,8.153-4.004,12.115-5.75,1.964-.866,3.864-1.661,5.629-2.338,.248-.098,.496-.189,.741-.281,.4-.151,.792-.295,1.174-.429,.179-.065,.355-.126,.53-.184,.272-.097,.54-.187,.801-.271,.155-.049,.309-.101,.46-.147,.381-.121,.752-.233,1.105-.332,.12-.034,.24-.068,.356-.096,.281-.079,.551-.149,.811-.209,0,0,.182-.112,.517-.313,.049-.028,.101-.059,.157-.093,.206-.124,.454-.272,.743-.442,.091-.052,.185-.108,.286-.17,.118-.068,.247-.142,.38-.222,.101-.059,.206-.12,.314-.182,5.472,7.84,7.287,17.036,5.729,24.921Z"/><path class="cls-22" d="M673.912,159.549l-9.994,3.04c.438-8.52-2.771-17.962-9.943-25.389,5.093-2.617,10.92-5.177,13.969-5.022,8.045,.409,14.726,2.944,5.967,27.371Z"/><path class="cls-22" d="M691.545,114.301s-5.03-1.801-6.834-4.194c0,0,9.416-.594,10.597-3.332,0,0,2.394,2.094-3.763,7.526Z"/><circle class="cls-22" cx="687.484" cy="111.265" r=".42"/><path class="cls-22" d="M652.552,166.044c1.558-7.885-.256-17.08-5.729-24.921,1.77-1.028,4.35-2.485,7.152-3.923,7.172,7.426,10.381,16.869,9.943,25.389l-11.367,3.455Z"/></g></g><g><g><g><path class="cls-31" d="M580.807,202.592c-3.95,1.578-7.35,3.271-8.969,4.875-5.332,5.284-10.175-29.016-10.175-29.016-.137-.392,.284-.747,.647-.549l10.81,5.895,3.838-1.936c-.924,8.206,.745,15.466,3.849,20.731Z"/><path class="cls-11" d="M637.825,185.255l-5.627,8.097-.718,1.041-1.173,1.705-5.858,8.513-1.389-.531-21.23-8.127s-.969,.245-2.565,.678c-4.008,1.089-11.976,3.372-18.459,5.96-3.104-5.265-4.773-12.525-3.849-20.731l5.209-2.631,7.489-3.78,7.871-4.725,31.496,11.356,8.803,3.174Z"/><path class="cls-31" d="M648.193,271.925c-1.91,5.358-19.346,15.347-19.346,15.347l3.107-7.261c6.47-3.477,11.448-8.332,14.911-12.492,.098-.12,.195-.236,.289-.352,.015,.035,.033,.069,.048,.101l.003,.01c.93,1.968,1.354,3.611,.987,4.647Z"/><path class="cls-7" d="M644.842,263.173c.105,.677-3.814-2.188-5.875-1.655-3.47,4.237-.359,14.917-7.013,18.492l.166-.386-8.344-1.944-2.47-4.184-21.993-37.241,23.747-32.175,6.338-8.588h.003l.905,.606,22.544,15.027-22.098,34.009s8.814,9.763,13.958,17.758c.081,.126,.123,.219,.13,.28Z"/><path class="cls-23" d="M689.636,163.333c-4.288,21.234-35.022,45.08-35.022,45.08l-1.761,2.713-20.53-16.735-2.374,.014-5.88-4.826,11.905-18.024s25.109-7.485,38.468-10.945c6.673-1.73,4.846-25.93,4.846-25.93,0,0,14.641,7.416,10.349,28.653Z"/><polygon class="cls-29" points="609.934 154.549 603.5 141.445 610.559 138.047 613.459 145.506 614.743 145.189 612.742 138.166 619.184 136.238 620.029 143.328 621.001 143.123 621.399 135.757 625.975 135.661 625.117 141.585 624.529 143.228 617.56 146.886 618.748 148.478 619.513 148.028 618.703 146.741 624.647 143.878 625.754 145.673 609.934 154.549"/><path class="cls-24" d="M669.255,128.534l2.71-3.042,6.5,2.966,2.433-.119s.075-6.021,3.336-4.422c3.261,1.599,6.279-4.681,3.377-8.27-2.902-3.588-7.236-7.013-5.148-8.49s7.068-3.802,6.268-6.021,3.421,.185,3.421,.185c0,0,6.685-2.902,10.532,.236s2.742,1.906,2.742,1.906c0,0,11.154-1.99,9.162,5.434-1.992,7.424-21.205,41.785-21.602,41.842s-2.619-23.009-23.732-22.204Z"/><path class="cls-29" d="M672.366,115.455l11.65,7.402c-4.996,.067-3.615,4.682-3.615,4.682-2.368-.398-5.317-.612-7.981-2.346l1.348-4.956c.282-1.159-.344-2.928-1.402-4.781Z"/><path class="cls-29" d="M687.844,119.169c-1.302-1.569-2.86-3.152-4.721-4.64-6.613-5.286-13.803-6.786-18.61-7.145,.083-2.409,10.294-4.658,16.731-.231,0,0-.8,2.677,6.32,9.318-.231,.031,.166,1.298,.279,2.699Z"/><path class="cls-26" d="M696.057,103.928s-2.507-5.712,.453-8.368c2.96-2.656,11.99-7.301,11.99-7.301,0,0-5.984,7.516-2.361,8.927,3.623,1.411,18.231,.814,18.592,4.343l-8.999,4.072s7.88,16.604,6.527,22.218c0,0-5.428-8.134-8.245-5.416s-2.458,16.486-2.458,16.486c-1.408-16.762-2.767-33.591-15.499-34.961Z"/></g><path class="cls-15" d="M594.663,159.651c1.136-.089-1.11-5.165-1.11-5.165,4.843-.086,7.89,1.018,7.89,1.018,1.298,2.697,3.705,4.337,3.705,4.337,0,0,27.846-15.419,38.983-18.05,0,0,17.384-10.68,23.52-10.367,8.045,.411,14.727,2.946,5.967,27.37l-53.95,16.409-1.487-.806-18.121,5.866-16.505-8.922,1.744-7.065,4.26,1.636,.765-1.145-3.289-1.715,.942-5.22,4.411,2.084,2.276-.266Z"/><path class="cls-19" d="M646.528,140.371c5.472,7.84,7.286,17.036,5.729,24.921l-17.905,5.444-12.523,3.808-2.162,.659-1.486-.803-18.12,5.864-16.505-8.921,1.743-7.065,4.259,1.635,.767-1.143-3.289-1.717,.941-5.218,4.41,2.082,2.276-.265c1.136-.09-1.108-5.164-1.108-5.164,4.842-.089,7.887,1.018,7.887,1.018,1.299,2.696,3.704,4.336,3.704,4.336,0,0,14.995-8.302,27.378-13.761,4.492-1.981,8.643-3.586,11.607-4.286,0,0,.52-.319,1.416-.848,.289-.17,.617-.365,.98-.575Z"/><path class="cls-19" d="M673.617,158.796l-9.994,3.04c.438-8.52-2.771-17.962-9.943-25.389,5.093-2.617,10.92-5.177,13.969-5.022,8.045,.409,14.726,2.944,5.967,27.371Z"/><path class="cls-4" d="M684.415,109.352s9.415-.593,10.597-3.331c0,0,2.395,2.094-3.761,7.526,0,0-5.03-1.801-6.836-4.196Z"/><path class="cls-22" d="M701.409,111.651s1.601,3.77-1.569,3.634"/><path class="cls-22" d="M707.063,112.79s-4.691,1.2-1.368,2.807"/><path class="cls-22" d="M698.943,119.195s4.508-5.513,5.926,.321"/><circle cx="687.188" cy="110.512" r=".42"/><path class="cls-23" d="M652.256,165.291c1.558-7.885-.256-17.08-5.729-24.921,1.77-1.028,4.35-2.485,7.152-3.923,7.172,7.426,10.381,16.869,9.943,25.389l-11.367,3.455Z"/></g><polygon class="cls-16" points="628.239 197.003 629.435 195.435 652.853 211.125 651.101 213.829 640.848 206.194 640.672 204.017 628.239 197.003"/><path class="cls-34" d="M647.203,267.267c-.015-.031-.034-.066-.048-.101-.094,.116-.192,.233-.289,.352-3.462,4.16-8.441,9.014-14.911,12.492,6.654-3.575,3.543-14.255,7.013-18.492,2.061-.533,5.98,2.332,5.875,1.655-.007-.061-.049-.155-.13-.28,0,0,1.766,2.425,2.49,4.374Z"/><path class="cls-7" d="M644.712,262.892c.081,.126,.123,.219,.13,.28l-.13-.28Z"/><g><g><path class="cls-31" d="M580.807,202.592c-3.95,1.578-7.35,3.271-8.969,4.875-5.332,5.284-10.175-29.016-10.175-29.016-.137-.392,.284-.747,.647-.549l10.81,5.895,3.838-1.936c-.924,8.206,.745,15.466,3.849,20.731Z"/><path class="cls-11" d="M637.825,185.255l-5.627,8.097-.718,1.041-1.173,1.705-5.858,8.513-1.389-.531-21.23-8.127s-.969,.245-2.565,.678c-4.008,1.089-11.976,3.372-18.459,5.96-3.104-5.265-4.773-12.525-3.849-20.731l5.209-2.631,7.489-3.78,7.871-4.725,31.496,11.356,8.803,3.174Z"/><path class="cls-31" d="M648.193,271.925c-1.91,5.358-19.346,15.347-19.346,15.347l3.107-7.261c6.47-3.477,11.448-8.332,14.911-12.492,.098-.12,.195-.236,.289-.352,.015,.035,.033,.069,.048,.101l.003,.01c.93,1.968,1.354,3.611,.987,4.647Z"/><path class="cls-7" d="M644.842,263.173c.105,.677-3.814-2.188-5.875-1.655-3.47,4.237-.359,14.917-7.013,18.492l.166-.386-8.344-1.944-2.47-4.184-21.993-37.241,23.747-32.175,6.338-8.588h.003l.905,.606,22.544,15.027-22.098,34.009s8.814,9.763,13.958,17.758c.081,.126,.123,.219,.13,.28Z"/><path class="cls-23" d="M689.636,163.333c-4.288,21.234-35.022,45.08-35.022,45.08l-1.761,2.713-20.53-16.735-2.374,.014-5.88-4.826,11.905-18.024s25.109-7.485,38.468-10.945c6.673-1.73,4.846-25.93,4.846-25.93,0,0,14.641,7.416,10.349,28.653Z"/><polygon class="cls-19" points="609.934 154.549 603.5 141.445 610.559 138.047 613.459 145.506 614.743 145.189 612.742 138.166 619.184 136.238 620.029 143.328 621.001 143.123 621.399 135.757 625.975 135.661 625.117 141.585 624.529 143.228 617.56 146.886 618.748 148.478 619.513 148.028 618.703 146.741 624.647 143.878 625.754 145.673 609.934 154.549"/><path class="cls-24" d="M669.255,128.534l2.71-3.042,6.5,2.966,2.433-.119s.075-6.021,3.336-4.422c3.261,1.599,6.279-4.681,3.377-8.27-2.902-3.588-7.236-7.013-5.148-8.49s7.068-3.802,6.268-6.021,3.421,.185,3.421,.185c0,0,6.685-2.902,10.532,.236s2.742,1.906,2.742,1.906c0,0,11.154-1.99,9.162,5.434-1.992,7.424-21.205,41.785-21.602,41.842s-2.619-23.009-23.732-22.204Z"/><path class="cls-29" d="M672.366,115.455l11.65,7.402c-4.996,.067-3.615,4.682-3.615,4.682-2.368-.398-5.317-.612-7.981-2.346l1.348-4.956c.282-1.159-.344-2.928-1.402-4.781Z"/><path class="cls-29" d="M687.844,119.169c-1.302-1.569-2.86-3.152-4.721-4.64-6.613-5.286-13.803-6.786-18.61-7.145,.083-2.409,10.294-4.658,16.731-.231,0,0-.8,2.677,6.32,9.318-.231,.031,.166,1.298,.279,2.699Z"/><path class="cls-26" d="M696.057,103.928s-2.507-5.712,.453-8.368c2.96-2.656,11.99-7.301,11.99-7.301,0,0-5.984,7.516-2.361,8.927,3.623,1.411,18.231,.814,18.592,4.343l-8.999,4.072s7.88,16.604,6.527,22.218c0,0-5.428-8.134-8.245-5.416s-2.458,16.486-2.458,16.486c-1.408-16.762-2.767-33.591-15.499-34.961Z"/></g><path class="cls-15" d="M594.663,159.651c1.136-.089-1.11-5.165-1.11-5.165,4.843-.086,7.89,1.018,7.89,1.018,1.298,2.697,3.705,4.337,3.705,4.337,0,0,27.846-15.419,38.983-18.05,0,0,17.384-10.68,23.52-10.367,8.045,.411,14.727,2.946,5.967,27.37l-53.95,16.409-1.487-.806-18.121,5.866-16.505-8.922,1.744-7.065,4.26,1.636,.765-1.145-3.289-1.715,.942-5.22,4.411,2.084,2.276-.266Z"/><path class="cls-19" d="M646.528,140.371c5.472,7.84,7.286,17.036,5.729,24.921l-17.905,5.444-12.523,3.808-2.162,.659-1.486-.803-18.12,5.864-16.505-8.921,1.743-7.065,4.259,1.635,.767-1.143-3.289-1.717,.941-5.218,4.41,2.082,2.276-.265c1.136-.09-1.108-5.164-1.108-5.164,4.842-.089,7.887,1.018,7.887,1.018,1.299,2.696,3.704,4.336,3.704,4.336,0,0,14.995-8.302,27.378-13.761,4.492-1.981,8.643-3.586,11.607-4.286,0,0,.52-.319,1.416-.848,.289-.17,.617-.365,.98-.575Z"/><path class="cls-19" d="M673.617,158.796l-9.994,3.04c.438-8.52-2.771-17.962-9.943-25.389,5.093-2.617,10.92-5.177,13.969-5.022,8.045,.409,14.726,2.944,5.967,27.371Z"/><path class="cls-4" d="M684.415,109.352s9.415-.593,10.597-3.331c0,0,2.395,2.094-3.761,7.526,0,0-5.03-1.801-6.836-4.196Z"/><path class="cls-22" d="M701.409,111.651s1.601,3.77-1.569,3.634"/><path class="cls-22" d="M707.063,112.79s-4.691,1.2-1.368,2.807"/><path class="cls-22" d="M698.943,119.195s4.508-5.513,5.926,.321"/><circle cx="687.188" cy="110.512" r=".42"/><path class="cls-23" d="M652.256,165.291c1.558-7.885-.256-17.08-5.729-24.921,1.77-1.028,4.35-2.485,7.152-3.923,7.172,7.426,10.381,16.869,9.943,25.389l-11.367,3.455Z"/></g></g></g></g></g></svg>