<?xml version="1.0" encoding="UTF-8"?><svg id="Layer_2" xmlns="http://www.w3.org/2000/svg" viewBox="0 0 456.618 382.764"><defs><style>.cls-1{fill:#fff;}.cls-2{fill:#e7d7b8;}.cls-2,.cls-3,.cls-4,.cls-5,.cls-6,.cls-7,.cls-8{stroke:#000;stroke-miterlimit:10;}.cls-2,.cls-4,.cls-6{stroke-width:3px;}.cls-3{fill:none;}.cls-9,.cls-6,.cls-7{fill:#c2ace5;}.cls-4,.cls-10{fill:#f4e4e1;}.cls-11{fill:#dcc3e0;}.cls-5{fill:#96964c;}.cls-12{fill:#50514b;}.cls-13{fill:#99567a;}.cls-14{fill:#c8a3ce;}.cls-15{fill:#ddcaed;}.cls-16{fill:#b380bc;}.cls-7{stroke-width:1.3px;}.cls-8{fill:#c5882d;}</style></defs><g id="Layer_3"><g><g><path class="cls-6" d="M401.082,275.722s-41.721,26.138-24.798,46.245,35.186,44.066,37.364,55.292,11.226-4.691,15.75-4.859,24.798-12.734,21.279-14.912-25.133,6.367-27.814-5.027-21.782-76.739-21.782-76.739Z"/><path class="cls-2" d="M321.358,258.942c-.63,.36-1.27,.72-1.94,1.1-19.89,11.21-55,29.55-41.12,47.54-16.52-5.54-33.01-11.28-43.3-15.42-.74-.3-1.45-.59-2.13-.86-4.66-1.95-7.67-3.45-8.27-4.31-2.76-3.94-16.34-27.27-15.92-45.01,0-.2,.01-.39,.02-.59,.01-.23,.02-.46,.04-.69,.01-.22,.03-.44,.05-.65,.06-.77,.16-1.52,.29-2.25,.04-.32,.1-.64,.17-.95l.03-.15c.07-.31,.14-.61,.23-.91,.03-.12,.06-.24,.09-.35,.07-.26,.15-.52,.23-.78,.08-.23,.15-.44,.23-.66,.1-.27,.2-.55,.32-.82,.06-.16,.13-.32,.2-.47,.02-.05,.05-.11,.07-.16,.13-.3,.27-.58,.42-.87,.23-.43,.47-.85,.74-1.25,.14-.25,.31-.48,.48-.72,.25-.36,.52-.71,.81-1.04,.17-.22,.36-.42,.55-.63,.33-.35,.67-.69,1.04-1.01,.23-.22,.48-.42,.73-.63,.02-.01,.03-.02,.04-.03,.69-.55,1.44-1.06,2.26-1.53,.27-.16,.55-.31,.83-.45,.24-.13,.47-.24,.71-.35,.23-.11,.46-.21,.69-.31,.12-.06,.24-.11,.37-.16,.55-.23,1.12-.44,1.71-.63,.07-.02,.14-.05,.22-.07,.28-.09,.56-.17,.84-.25,.32-.1,.65-.18,.98-.26,2.48-.62,5.16-.94,7.96-1.02,.53-.02,1.07-.03,1.61-.03h.18c.49,0,.99,.01,1.49,.03,.63,.01,1.27,.04,1.91,.08,.26,.02,.52,.03,.79,.06,1.3,.08,2.62,.22,3.95,.39,1.38,.17,2.76,.38,4.15,.63,.66,.11,1.33,.23,1.99,.36,.82,.16,1.65,.33,2.47,.51,.69,.16,1.38,.32,2.07,.48,.65,.14,1.29,.3,1.93,.47,.51,.13,1.02,.26,1.54,.4,.7,.18,1.4,.37,2.09,.57,.6,.17,1.21,.34,1.8,.52,1.21,.35,2.41,.72,3.59,1.1,.49,.16,.98,.31,1.46,.47,.1,.03,.2,.07,.29,.1,.58,.19,1.16,.39,1.73,.58,9.7,3.31,17.86,6.98,21.8,8.84,.23,.11,.45,.22,.65,.31,1.21,.58,1.88,.92,1.88,.92l29.96,20.81Z"/><path class="cls-6" d="M454.799,277.092s-6.29,.6-12.6-3.86c-5.15-3.64-9.92-12.87-14.44-10.2l-25.53,16.63-22.49,14.66-47.31,30.83s-18.86-5.92-40.8-13.15c-4.37-1.43-8.85-2.91-13.33-4.42-13.88-17.99,21.23-36.33,41.12-47.54,.67-.38,1.31-.74,1.94-1.1l.34,.23,2.25,1.56,10.93,7.59,3.24-1.18,17.08-6.25,39.56-14.48,8.35,.26,5.47,5.95,14.31-7.25-.28-12.92s8.02,.31,11.3,3.87c15.84,17.18,20.89,40.77,20.89,40.77Z"/><path class="cls-2" d="M419.769,231.792c-.02,.48-.04,.93-.07,1.35v.02c-.04,.63-.08,1.19-.11,1.66v.01c-.03,.31-.05,.59-.07,.82v.01c-.01,.15-.02,.28-.04,.39-.02,.17-.04,.3-.04,.39,0,.04,0,.08-.01,.1s-.01,.03-.01,.03l-12.03,9.63h-.01l-8.88-9.09-10.81,9.08v.01h-.01l-1.39-4.04-27.66-6.92v-.01l-11.96-2.99-2.38-2.33h-2.2l19.49,14.09,10.67,7.71-9.88,5.32-7.14,3.84-.03,.02-17.08,6.25-3.24,1.18-10.93-7.59-2.25-1.56,2.43-.92c-9.23-5.91-18.87-11.14-14.54-15.74,3.36-3.58,7-14.27,5.5-20.31-.15-1.08-.47-2.12-.93-3.09-.85-1.76-2.18-3.28-3.89-4.35-.25-.16-.5-.32-.74-.48-4.16-2.74-7.62-6.07-10.12-8.84-1.48-1.64-3.39-2.74-5.44-3.21-.82-.97-1.53-1.96-2.03-2.95-9.29,1.56-27.96,9.61-48.49,18.94,0,0-23.19-2.63-28.69,7.41,0,0-1.48-.94-5.02-3.01l-.12,.05-1.99-1.26c-4.35-2.51-10.91-6.2-20.26-11.26-6.63-3.58,14.52-19.8,14.52-19.8l-14.6-36.86s6.29,4.9,21.49-17.34c.08-.11,.25-.51,.52-1.15,.08-.2,.18-.42,.28-.67,.93-2.17,2.65-6.03,5.24-10.35,.15-.25,.3-.5,.46-.76,1.26-2.05,2.71-4.19,4.37-6.29,.15-.19,.29-.38,.44-.56,.91-1.12,1.88-2.23,2.9-3.3l.05-.05,4.11,2.49,.01,.01,.02,.01c.01,.01,.02,.02,.03,.04,.37,.37,.74,.74,1.12,1.12,.86,.86,1.75,1.76,2.68,2.7,.1,.11,.21,.21,.31,.32,.21,.21,.41,.42,.62,.64,.05,.04,.09,.08,.13,.13,.29,.3,.58,.6,.88,.9,.3,.3,.6,.61,.9,.93,.3,.31,.61,.63,.91,.95,1.27,1.31,2.58,2.69,3.94,4.13,.48,.51,.97,1.03,1.46,1.55v.01c.16,.16,.31,.32,.47,.49,.34,.36,.68,.73,1.03,1.11l.02-.04c.27,.29,.53,.61,.78,.93,.13,.15,.26,.31,.38,.47,.12,.16,.25,.32,.39,.48,.26,.32,.53,.64,.83,.94,.3,.3,.61,.57,.96,.81,17.33,12.06,20.09-8.07,23.31-24.28-.27-.2-.54-.39-.82-.59s-.56-.39-.85-.58c-.27-.19-.54-.37-.82-.54-.46-.3-.93-.59-1.41-.88-.14-.09-.27-.17-.4-.25-.25-.14-.51-.3-.77-.44-.21-.13-.42-.25-.64-.37-1.07-.6-2.13-1.18-3.16-1.7-.25-.13-.49-.26-.74-.38-.73-.37-1.43-.71-2.09-1.03,.28,.08,.57,.16,.86,.25,.3,.09,.59,.18,.89,.28,1.09,.35,2.19,.76,3.32,1.23,.24,.09,.48,.19,.72,.3,1.61,.69,3.27,1.51,4.97,2.45,.28,.15,.56,.31,.84,.47,.65,.37,1.3,.76,1.97,1.17,.48,.3,.96,.6,1.45,.92,.73,.48,1.44,1.01,2.13,1.6,3.83,3.17,7.04,7.82,9.73,13.31h2.98c.12,.31,.33,.81,.61,1.48,.75,1.81,2.02,4.86,3.7,8.7,.22,.52,.45,1.05,.7,1.6,1.34,3.04,2.89,6.48,4.61,10.14,.43,.92,.86,1.84,1.31,2.78,.73,1.53,1.49,3.1,2.26,4.67,.41,.83,.82,1.66,1.25,2.49,.48,.98,.99,1.97,1.49,2.95,.71,1.36,1.42,2.72,2.14,4.07,.96,1.8,1.94,3.58,2.94,5.32,.22,.39,.44,.78,.66,1.16,.27,.48,.55,.95,.83,1.42,.25,.43,.5,.85,.75,1.27,1.99,3.32,4,6.43,5.99,9.16h.01c.01,.02,.02,.03,.02,.04,.5,.68,1,1.34,1.5,1.98,.25,.32,.5,.63,.74,.93,.78,.96,1.56,1.86,2.33,2.67,.2,.21,.4,.42,.6,.62,.51,.52,1.02,1,1.52,1.45,.2,.17,.41,.34,.61,.51,.23,.19,.46,.37,.69,.54,.23,.18,.47,.35,.69,.49,.19,.13,.39,.26,.58,.37,.24,.15,.48,.28,.71,.4,.24,.12,.48,.23,.71,.33,6.83,2.86,14.11,7.06,20.11,10.87,7.65,4.84,13.25,9.06,13.25,9.06l24.1,6.72s33.83-10.2,35.22-.93c.76,5.04,.78,9.99,.65,13.45Z"/><path class="cls-4" d="M251.128,100.782c1.1,.37,2.24,.82,3.41,1.34l-.01,.01c.63,.29,1.34,.61,2.09,.97,3.56,1.7,8.21,4.16,11.71,6.76-3.22,16.21-5.98,36.34-23.31,24.28-1.39-.96-2.26-2.46-3.34-3.63l-.02,.04c-5.57-5.99-10.44-10.99-14.48-15.02l-4.14-2.51-7.83-4.73c-25.87,1.33-41.55-6.27-41.55-6.27l2.21-3.18-13.86-3.95,10.49-9.68-9.79-5.42,3.79-5.05s.73-2.38,2.07-6.17c-8.7-3.64-21.76-30.02-20.08-33.53,1.49-3.12,30.46-3.37,37.43-3.39,5.26-7.82,11.22-13.67,17.42-14.04,0,0,4.87-14.66,20-15.8,0,0-7.82,7.44-6.8,12.02,0,0,21.7-8.73,35.74,1.07l-13.59,6.56s5.07,5.19,25.92,2.76l-8.32,5.86,9.17,8.62-8.63,1.23,3.24,3.95-10.41,2.98s1.05,1.61,1.58,3.87c.27,1.12,.41,2.41,.22,3.75,0,0,1.62-.72,4.17-1.73,7.33-2.89,22.34-8.2,28.16-5.64,7.19,3.17,.14,39.32-32.66,53.67Z"/></g><path class="cls-12" d="M148.206,108.45h102.294l-51.147,102.098s-102.602-61.395-51.147-102.098Z"/><g><path class="cls-14" d="M419.769,231.792c-.02,.48-.04,.93-.07,1.35v.02c-.03,.63-.07,1.19-.11,1.66v.01c-.02,.31-.05,.58-.07,.82v.01c-.01,.15-.02,.28-.04,.39-.02,.17-.03,.3-.04,.39,0,.04,0,.08-.01,.1v.03h-.01l-12.03,9.63-8.89-9.09-10.81,9.09v-.01l-1.39-4.03h-.01l-27.66-6.92v-.01l-11.96-2.99-2.38-2.33-11.19-10.95s-13.42-2.88-23.57-4.68c-4.16-2.74-7.62-6.07-10.12-8.84-1.48-1.64-3.39-2.74-5.44-3.21-.82-.97-1.53-1.96-2.03-2.95-.67-1.3-1.01-2.61-.86-3.89,.26-2.19,1.79-2.76,3.06-4.88,2.65-4.42,4.16-15.55-9.48-62.22-.21-.7-.42-1.41-.63-2.13-.04-.12,3.02,.28,3.07,.4,.75,1.81,2.02,4.86,3.7,8.7,.22,.52,.45,1.05,.7,1.6,1.34,3.04,2.89,6.48,4.61,10.14,.42,.92,.86,1.84,1.31,2.78,.73,1.53,1.49,3.1,2.26,4.67,.41,.83,.82,1.66,1.25,2.49,.48,.98,.99,1.97,1.49,2.95,.71,1.36,1.42,2.72,2.14,4.07,.96,1.8,1.94,3.58,2.94,5.32,.22,.39,.44,.78,.66,1.16,.27,.48,.55,.95,.83,1.42,.25,.43,.5,.85,.75,1.27,1.99,3.32,4,6.43,5.99,9.16,.02,.01,.03,.03,.03,.04,.5,.68,1,1.34,1.5,1.98,.25,.32,.5,.63,.74,.93,.78,.96,1.56,1.86,2.33,2.67,.2,.21,.4,.42,.6,.62,.51,.52,1.02,1,1.52,1.45,.2,.17,.41,.34,.61,.51,.23,.19,.46,.37,.69,.54s.46,.34,.69,.49c.19,.13,.39,.26,.58,.37,.24,.15,.48,.28,.71,.4,.24,.12,.48,.23,.71,.33,6.83,2.86,14.11,7.06,20.11,10.87,7.65,4.84,13.25,9.06,13.25,9.06l24.1,6.72s33.83-10.2,35.22-.93c.76,5.04,.78,9.99,.65,13.45Z"/><path class="cls-12" d="M297.829,200.062c-.74-1.11-2.8-1.3-5.89-.78-9.29,1.56-27.96,9.61-48.49,18.94,0,0-23.19-2.63-28.69,7.41,0,0-1.48-.94-5.02-3.01-.64-.36-1.34-.77-2.11-1.21-4.35-2.51-10.91-6.2-20.26-11.26-6.63-3.58,14.52-19.8,14.52-19.8l-14.6-36.86s6.29,4.9,21.49-17.34c.08-.11,.25-.51,.52-1.15,.08-.2,.18-.42,.28-.67,.93-2.17,2.65-6.03,5.24-10.35,.15-.25,.3-.5,.46-.76,1.26-2.05,2.71-4.19,4.37-6.29,.15-.19,.29-.38,.44-.56,.91-1.12,1.88-2.23,2.9-3.3,.02-.02,.03-.04,.04-.05h.01c.26-.27,.52-.53,.78-.8,2.15-2.14,4.56-4.12,7.22-5.77l.01-.01c4.96-3.06,10.82-4.97,17.64-4.65h.01c1.8,.08,3.68,.32,5.62,.74,.01,0,.02,0,.03,.01,.74,.15,1.49,.34,2.26,.56h.02c.28,.08,.57,.16,.86,.25,.3,.09,.59,.18,.89,.28,1.09,.35,2.19,.76,3.32,1.23,.24,.09,.48,.19,.72,.3,1.61,.69,3.27,1.51,4.97,2.45,.28,.15,.56,.31,.84,.47,.65,.37,1.3,.76,1.97,1.17,.48,.3,.96,.6,1.45,.92,.73,.48,1.44,1.01,2.13,1.6,4.36,3.7,7.94,9.55,10.88,16.52,7.99,18.96,11.24,46.21,12.47,61.08,.54,6.54,.7,10.69,.7,10.69Z"/><path class="cls-10" d="M254.536,102.124l-12.88,28.43c-8.07-8.68-14.68-15.29-19.43-19.88,6.4-9.37,16.61-15.54,32.31-8.55Z"/><path class="cls-15" d="M268.329,109.862c-3.218,16.209-5.981,36.341-23.31,24.277-1.397-.972-2.265-2.474-3.362-3.652l12.85-28.364c3.631,1.626,9.572,4.576,13.822,7.739Z"/><path class="cls-9" d="M402.681,281.205s-43.318,20.654-26.395,40.761,35.186,44.066,37.364,55.292,11.226-4.691,15.75-4.859,24.798-12.734,21.279-14.912-25.133,6.367-27.814-5.027-20.184-71.255-20.184-71.255Z"/><path class="cls-16" d="M374.569,252.712l-12.2,4.32-27.29,9.66c-4.419-2.769-7.598-5.457-11.778-8.127-9.23-5.91-18.042-11.453-13.712-16.053,3.36-3.58,7-14.27,5.5-20.31-.15-1.08-.47-2.12-.93-3.09l20.32,5.3,7.79,5.5,19.6,13.84,12.7,8.96Z"/><path class="cls-16" d="M321.358,258.942c-.63,.36-1.27,.72-1.94,1.1-19.89,11.21-55,29.55-41.12,47.54-16.52-5.54-33.01-11.28-43.3-15.42-.74-.3-1.45-.59-2.13-.86-4.66-1.95-7.67-3.45-8.27-4.31-2.76-3.94-16.34-27.27-15.92-45.01,0-.2,.01-.39,.02-.59,.01-.23,.02-.46,.04-.69,.01-.22,.03-.44,.05-.65,.06-.77,.16-1.52,.29-2.25,.04-.32,.1-.64,.17-.95l.03-.15c.07-.31,.14-.61,.23-.91,.03-.12,.06-.24,.09-.35,.07-.26,.15-.52,.23-.78,.08-.23,.15-.44,.23-.66,.1-.27,.2-.55,.32-.82,.06-.16,.13-.32,.2-.47,.02-.05,.05-.11,.07-.16,.13-.3,.27-.58,.42-.87,.23-.43,.47-.85,.74-1.25,.14-.25,.31-.48,.48-.72,.25-.36,.52-.71,.81-1.04,.17-.22,.36-.42,.55-.63,.33-.35,.67-.69,1.04-1.01,.23-.22,.48-.42,.73-.63,.02-.01,.03-.02,.04-.03,.69-.55,1.44-1.06,2.26-1.53,.27-.16,.55-.31,.83-.45,.24-.13,.47-.24,.71-.35,.23-.11,.46-.21,.69-.31,.12-.06,.24-.11,.37-.16,.55-.23,1.12-.44,1.71-.63,.07-.02,.14-.05,.22-.07,.28-.09,.56-.17,.84-.25,.32-.1,.65-.18,.98-.26,2.48-.62,5.16-.94,7.96-1.02,.53-.02,1.07-.03,1.61-.03h.18c.49,0,.99,.01,1.49,.03,.63,.01,1.27,.04,1.91,.08,.26,.02,.52,.03,.79,.06,1.3,.08,2.62,.22,3.95,.39,1.38,.17,2.76,.38,4.15,.63,.66,.11,1.33,.23,1.99,.36,.82,.16,1.65,.33,2.47,.51,.69,.16,1.38,.32,2.07,.48,.65,.14,1.29,.3,1.93,.47,.51,.13,1.02,.26,1.54,.4,.7,.18,1.4,.37,2.09,.57,.6,.17,1.21,.34,1.8,.52,1.21,.35,2.41,.72,3.59,1.1,.49,.16,.98,.31,1.46,.47,.1,.03,.2,.07,.29,.1,.58,.19,1.16,.39,1.73,.58,9.7,3.31,17.86,6.98,21.8,8.84,.23,.11,.45,.22,.65,.31,1.21,.58,1.88,.92,1.88,.92l29.96,20.81Z"/><path class="cls-9" d="M454.799,277.092s-6.29,.6-12.6-3.86c-5.15-3.64-9.92-12.87-14.44-10.2l-25.53,16.63-22.49,14.66-47.31,30.83s-18.86-5.92-40.8-13.15c-4.37-1.43-8.85-2.91-13.33-4.42-13.88-17.99,21.23-36.33,41.12-47.54,.67-.38,1.31-.74,1.94-1.1l.34,.23,2.25,1.56,10.93,7.59,3.24-1.18,17.08-6.25,.03-.02,39.53-14.46,8.35,.26,5.47,5.95,14.31-7.25-.28-12.92s8.02,.31,11.3,3.87c15.84,17.18,20.89,40.77,20.89,40.77Z"/><g><path class="cls-14" d="M187.396,31.653c-.561,0-37.224-.125-38.907,3.385s11.384,29.897,20.078,33.532l18.829-36.917Z"/><path class="cls-15" d="M241.396,104.154c-3.45,.91-6.8,1.65-10.04,2.24-5.74,1.05-11.14,1.64-16.15,1.9l-22.09-13.36,11.39-9.96-11.39-7.89s16.61-2.18,19.88-10.45c2.48-6.29,26.76-13.03,38.24-15.9,.27,1.12,.41,2.41,.22,3.75,0,0,1.62-.72,4.17-1.73,7.33-2.89,22.34-8.2,28.16-5.64,7.85,3.46-1.28,46.26-42.39,57.04Z"/><path class="cls-14" d="M260.066,43.884l-10.41,2.98s1.05,1.61,1.58,3.87c-11.48,2.87-35.76,9.61-38.24,15.9-3.27,8.27-19.88,10.45-19.88,10.45l11.39,7.89-11.39,9.96,22.09,13.36c-25.87,1.33-41.55-6.27-41.55-6.27l2.21-3.18-13.86-3.95,10.49-9.68-9.79-5.42,3.79-5.05s17.24-55.98,36.84-57.13c0,0,4.87-14.66,20-15.8,0,0-7.82,7.44-6.8,12.02,0,0,21.7-8.73,35.74,1.07l-13.59,6.56s5.07,5.19,25.92,2.76l-8.32,5.86,9.17,8.62-8.63,1.23,3.24,3.95Z"/><path class="cls-10" d="M215.206,108.294c5.01-.26,10.41-.85,16.15-1.9l-4.15,9.16-12-7.26Z"/></g><path class="cls-3" d="M216.056,57.085s-2.814-14.995,13.631-15.543"/><path class="cls-1" d="M226.136,76.13s31.711-3.262,36.334,1.377c0,0-10.381,19.861-24.736,17.179-14.355-2.682-11.598-18.557-11.598-18.557Z"/><path d="M232.571,51.326s4.425,8.931,4.092,10.899-1.108-1.38-1.108-1.38l-1.504,.389-1.481-9.908Z"/><path d="M247.849,47.613s2.775,6.402,2.567,7.813-.695-.989-.695-.989l-.943,.279-.929-7.103Z"/></g><g><path class="cls-8" d="M206.887,79.081c22.799,20.036,2.472,14.487-3.062,19.381-22.37,19.8-94.62,88.188-87.241,139.704,0,0,5.509,5.042,21.903,7.047,16.393,2.005,21.657,10.01,21.657,10.01,0,0-14.659,16.086-34.705,11.019,0,0-9.199,8.805-22.604,4.046,0,0-4.021,10.404-12.003,7.588-5.829-2.066-13.946-12.113-20.23-17.82l-.049-.049c-16.701-21.042-35.443-36.611-54.91-47.986-3.505-4.427-8.633-9.58-14.007-10.478,0,0,7.981-3.849,18.877,0,44.678,15.827,122.327-94.374,156.405-119.142,.529-.394,1.058-.762,1.574-1.119,.381-.258,.75-.517,1.119-.762,3.629-7.363,.221-15.189,10.353-13.28l18.506,.591c2.238,.984-3.296,9.743-1.582,11.25Z"/><path class="cls-5" d="M177.615,80.88l-16.548,15.921c-3.8-7.963-9.371-20.931-13.194-29.976l-.019-.035c-2.511-5.921-4.266-10.148-4.266-10.148,0,0,8.168-2.156,11.784,.743l1.909,4.279,1.38-2.352s4.519-.159,5.817,6.586c1.293,6.736,3.614,10.539,3.614,10.539,0,0,2.649,5.173,8.339,4.635,.388-.041,.766-.1,1.183-.192Z"/><path class="cls-5" d="M147.871,66.828l12.293,30.468c.059,.146-.128,.265-.235,.15l-7.229-7.759c-7.75-8.319-10.373,3.589-15.832,1.53-5.072-1.922-6.252-5.525-6.391-6.013-.011-.039-.003-.074,.018-.108l3.734-5.995c.057-.092-.006-.212-.114-.217l-12.498-.555c-.081-.004-.143-.077-.137-.157,2.24-29.505,26.374-11.375,26.374-11.375l.018,.032Z"/></g><path class="cls-11" d="M161.388,137.879s37.825,3.165,39.091,3.957-1.108,17.093-12.819,16.46,.404,22.017,.404,22.017l12.721,20.145-3.993,3.67-16.129-17.235-.277,4.793,1.751-.461,11.337,15.484-13.088,12.627-15.3-12.996-1.661,3.318,13.383,11.379-6.799,5.725h-4.222l-13.884-7.658-17.565-18.26-10.467-23.35s-8.272-2.004-8.771-13.468c0,0-10.856-5.072-12.395-10.921s-10.57-26.579-10.57-26.579l8.21,1.642-7.697-34.276,17.754,7.594-5.064-10.51,18.191,8.167,31.029-.196-5.65,27.366,12.481,11.565Z"/><path class="cls-7" d="M161.388,137.879s37.825,3.165,39.091,3.957-1.108,17.093-12.819,16.46,.404,22.017,.404,22.017l12.721,20.145-3.993,3.67-16.129-17.235-.277,4.793,1.751-.461,11.337,15.484-13.088,12.627-15.3-12.996-1.661,3.318,13.383,11.379-6.799,5.725h-4.222l-13.884-7.658-17.565-18.26-10.467-23.35s-8.272-2.004-8.771-13.468c0,0-10.856-5.072-12.395-10.921s-10.57-26.579-10.57-26.579l8.21,1.642-7.697-34.276,17.754,7.594-5.064-10.51,18.191,8.167,31.029-.196-5.65,27.366,12.481,11.565Z"/><path class="cls-9" d="M454.799,277.09c-3.297,.764-15.226,3.107-27.561-3.445-8.444-4.485-13.03-10.989-15.003-14.225l20.845-6.839,21.719,24.509Z"/><path class="cls-13" d="M324.128,258.252l-2.43,.92-.34-.23-29.96-20.81s-.67-.34-1.88-.92c-.2-.09-.42-.2-.65-.31-3.94-1.86-12.1-5.53-21.8-8.84-.57-.19-1.15-.39-1.73-.58-.09-.03-.19-.07-.29-.1-.48-.16-.97-.31-1.46-.47-1.18-.38-2.38-.75-3.59-1.1-.59-.18-1.2-.35-1.8-.52-.69-.2-1.39-.39-2.09-.57-.52-.14-1.03-.27-1.54-.4-.64-.17-1.28-.33-1.93-.47-.69-.16-1.38-.32-2.07-.48-.82-.18-1.65-.35-2.47-.51-.66-.13-1.33-.25-1.99-.36-1.39-.25-2.77-.46-4.15-.63-1.33-.17-2.65-.31-3.95-.39-.27-.03-.53-.04-.79-.06-.64-.04-1.28-.07-1.91-.08-.5-.02-1-.03-1.49-.03h-.18c-.54,0-1.08,.01-1.61,.03-2.8,.08-5.48,.4-7.96,1.02-.33,.08-.66,.16-.98,.26-.28,.08-.56,.16-.84,.25-.08,.02-.15,.05-.22,.07-.59,.19-1.16,.4-1.71,.63-.13,.05-.25,.1-.37,.16-.23,.09-.46,.2-.69,.31-.24,.11-.47,.22-.71,.35-.28,.14-.56,.29-.83,.45-.82,.47-1.57,.98-2.26,1.53l-5.84-3.7,.12-.05c3.54,2.07,5.02,3.01,5.02,3.01,5.5-10.04,28.69-7.41,28.69-7.41,20.53-9.33,39.2-17.38,48.49-18.94,.5,.99,1.21,1.98,2.03,2.95,2.05,.47,3.96,1.57,5.44,3.21,2.5,2.77,5.96,6.1,10.12,8.84,.24,.16,.49,.32,.74,.48,1.71,1.07,3.04,2.59,3.89,4.35,.46,.97,.78,2.01,.93,3.09,1.5,6.04-2.14,16.73-5.5,20.31-4.33,4.6,5.31,9.83,14.54,15.74Z"/></g></g></svg>