<?xml version="1.0" encoding="UTF-8"?><svg id="Layer_2" xmlns="http://www.w3.org/2000/svg" viewBox="0 0 2124.401 875.03"><defs><style>.cls-1,.cls-2,.cls-3,.cls-4,.cls-5,.cls-6,.cls-7,.cls-8,.cls-9,.cls-10,.cls-11,.cls-12,.cls-13,.cls-14,.cls-15,.cls-16{stroke-miterlimit:10;}.cls-1,.cls-2,.cls-3,.cls-4,.cls-5,.cls-6,.cls-8,.cls-10,.cls-17,.cls-11,.cls-12,.cls-18,.cls-13,.cls-14,.cls-15,.cls-19,.cls-16{stroke:#000;}.cls-1,.cls-2,.cls-3,.cls-4,.cls-6,.cls-10,.cls-11,.cls-12,.cls-13,.cls-14,.cls-15,.cls-16{stroke-width:4px;}.cls-1,.cls-5,.cls-7,.cls-9,.cls-17,.cls-18,.cls-19{fill:none;}.cls-2,.cls-20{fill:#404362;}.cls-21{fill:#8d2d15;}.cls-22,.cls-3{fill:#fab677;}.cls-23{fill:#e28069;}.cls-24{fill:#edf0ff;}.cls-25{fill:#f28f70;}.cls-26{fill:#922246;}.cls-27,.cls-14{fill:#932247;}.cls-4,.cls-28{fill:#fcf8d2;}.cls-29,.cls-15{fill:#fefad5;}.cls-30,.cls-12{fill:#bf3c67;}.cls-5{stroke-width:6px;}.cls-31{fill:#75203f;}.cls-6,.cls-32{fill:#c7ceea;}.cls-7{stroke:#840808;}.cls-7,.cls-19{stroke-width:2px;}.cls-8{fill:#dbc3a1;}.cls-33{fill:#b07e89;}.cls-34{fill:#dd7a5f;}.cls-35{fill:#878a51;}.cls-9{stroke:red;}.cls-10,.cls-36{fill:#87784d;}.cls-17{stroke-width:.25px;}.cls-17,.cls-18,.cls-19{stroke-linecap:round;stroke-linejoin:round;}.cls-37{fill:#71453e;}.cls-11,.cls-38{fill:#e0aa24;}.cls-39{fill:#a4b45c;}.cls-40,.cls-13{fill:#d3d3d3;}.cls-41{fill:#d5d5d5;}.cls-42{fill:#63709e;}.cls-18{stroke-width:1.5px;}.cls-43{fill:#a22;}.cls-44{fill:#ff5a53;}.cls-45{fill:#353d64;}.cls-46{fill:#524f54;}.cls-47{fill:#b0b0b1;}.cls-48{fill:#d4801d;}.cls-49{fill:#ffd3c8;}.cls-50{fill:#fbfae8;}.cls-16{fill:#e2a09c;}</style></defs><g id="Layer_3"><g><g><g><g><path class="cls-25" d="M773.923,15.737C515.67-55.247,434.806,192.597,436.127,214.902c-65.355,47.515-68.593,155.455-63.806,220.557l.019-.013c25.942,220.617,179.842,279.322,183.029,280.514,.032,.007,.045,.026,.045,.026,180.795,43.485,124.743-60.533,124.743-60.533-88.495-26.349-149.435-66.998-149.435-66.998-63.867-89.518-50.182-212.196-50.182-212.196,0,0,8.564-120.721,105.639-180.109-3.98-7.106-10.211-13.644-19.232-19.342-100.652-63.627,227.661-14.553,227.661-14.553l-20.683-146.517Z"/><path class="cls-25" d="M794.606,162.255s-328.313-49.074-227.661,14.553c9.021,5.698,15.252,12.237,19.232,19.342,24.622,43.889-36.939,109.57-62.371,133.91,114.649-101.101,280.07-111.892,297.416-109.622,12.057,1.576,38.204,41.231,56.66,71.745,14.274-12.531,33.826-15.771,57.84-11.255-10.752-12.239-21.017-26.428-30.544-42.814-53.477-88.586-47.645-139.76-35.357-184.599-34.398-17.329-66.312-29.661-95.898-37.779l20.683,146.517Z"/><path class="cls-25" d="M586.178,196.15c-97.075,59.388-105.639,180.109-105.639,180.109,10.182-13.294,21.24-25.506,32.899-36.677,0,0,.058-.038,.18-.146,3.35-3.224,6.744-6.338,10.188-9.376,25.432-24.339,86.993-90.021,62.371-133.91Z"/><path class="cls-25" d="M897.737,326.97l.46,.195s-8.61-15.663-20.315-34.982c-18.455-30.514-44.603-70.169-56.66-71.745-17.346-2.27-182.766,8.521-297.416,109.622-5.546,5.303-9.37,8.645-10.188,9.376-.122,.108-.18,.146-.18,.146-11.659,11.171-22.717,23.384-32.899,36.677,0,0-13.685,122.678,50.182,212.196,0,0,60.94,40.649,149.435,66.998,64.99,19.372,144.868,31.056,226.379,13.247,22.758-4.96,45.658-12.224,68.365-22.261,0,0,7.568-3.235,19.261-12.549,16.126-12.864,40.105-37.271,63.01-80.664,83.173-140.374,222.567-183.912,338.863-168.213,78.535,10.607,146.568,48.223,179.625,101.289l.013,.019c13.938,22.381,21.699,47.551,21.343,74.575,0,0,.352,74.784-103.848,98.751,0,0-272.317,57.799-282.49-141.725-11.075,15.759-13.316,38.527-1.637,69.573,4.247,11.294,9.827,21.464,16.534,30.617,79.395,108.561,314.555,74.744,314.555,74.744,1.366-.318,2.699-.642,4.02-.985,71.561-18.45,89.626-70.594,89.626-70.594,0,0,4.216-2.495,9.679-7.798,19.824-19.383,56.041-76.139-34.039-186.46-.559-.682-1.118-1.364-1.689-2.066-1.099-1.294-2.191-2.62-3.316-3.952-93.375-110.669-258.705-126.507-379.181-97.973l-.019,.013c-21.728,5.14-42.006,11.729-60.121,19.466-4.352,1.866-9.758,4.315-15.995,7.475,0,0-.039,.025-.09,.031-22.704,11.471-56.278,31.827-88.87,63.634-37.985,37.092-76.601,89.653-95.21,103.321-10.575,7.779-25.417,18.143-53.474,26.007-.148,.153-.239,.267-.303,.337,.052-.089,.136-.172,.245-.299-14.641,4.072-32.882,7.5-55.998,9.519,0,0-144.849-167.593-301.832-142.158,0,0,105.641-184.392,344.174-83.404Z"/><path class="cls-33" d="M372.34,435.447l-.019,.013c2.305,31.325,6.474,52.752,6.474,52.752,5.642,76.362,23.976,138.249,51.285,187.359,50.938,19.466,92.092,32.409,125.289,40.39-3.187-1.192-157.086-59.897-183.029-280.514Z"/><path class="cls-25" d="M869.821,53.516c-12.288,44.839-18.12,96.013,35.357,184.599,0,0,23.279-12.318,13.6-35.869,93.433,63.317,112.856,16.054,12.786-25.888,0,0,23.926-18.268,2.658-51.38,0,0,29.898-5.4,52.863,1.048-41.962-30.392-80.978-54.242-117.264-72.511Z"/><path class="cls-25" d="M935.722,280.929c88.459,100.67,209.198,70.14,213.283,69.085,.051-.006,.09-.031,.09-.031,6.236-3.16,11.642-5.609,15.995-7.475,18.115-7.737,38.393-14.326,60.121-19.466l.019-.013c32.704-23.402,36.467-69.487,36.467-69.487,0,0,50.522-25.751,120.928-10.492,0,0-.569-24.649-20.659-28.237-20.071-3.6-74.529,2.504-106.023,11.107,0,0-26.642-33.64-32.758-40.088-66.034-63.485-153.148,5.763-153.148,5.763-28.838-24.629-56.485-46.394-82.952-65.566-22.965-6.449-52.863-1.048-52.863-1.048,21.268,33.112-2.658,51.38-2.658,51.38,100.07,41.941,80.647,89.205-12.786,25.888,9.679,23.55-13.6,35.869-13.6,35.869,9.528,16.386,19.793,30.574,30.544,42.814Zm149.955,2.827c-1.788-3.686,46.242-65.583,95.764-32.094,28.687,19.398,2.173,28.014,2.173,28.014,0,0-96.137,7.785-97.937,4.08Z"/><path class="cls-25" d="M897.737,326.97c-238.533-100.987-344.174,83.404-344.174,83.404,156.983-25.435,301.832,142.158,301.832,142.158,23.116-2.02,41.357-5.447,55.998-9.519,6.16-7.142,92.418-111.014-13.656-216.043Zm-172.342,55.223c50.37-54.513,211.613-12.705,149.506,94.461,0,0-65.29-92.146-149.506-94.461Z"/><path class="cls-25" d="M874.901,476.655c62.107-107.166-99.136-148.974-149.506-94.461,84.216,2.315,149.506,94.461,149.506,94.461Z"/><path class="cls-25" d="M911.451,542.975c28.058-7.864,42.9-18.227,53.474-26.007,18.608-13.668,57.225-66.228,95.21-103.321,32.592-31.808,66.166-52.164,88.87-63.634-4.085,1.055-124.823,31.585-213.283-69.085-24.015-4.516-43.567-1.276-57.84,11.255,11.704,19.319,20.315,34.982,20.315,34.982l-.46-.195c106.073,105.028,19.816,208.9,13.656,216.043l.058-.038Z"/><path class="cls-25" d="M430.08,675.571c32.054,57.675,76.469,97.724,127.178,122.892,203.806,33.111,349.277-129.762,349.277-129.762-81.511,17.809-161.389,6.125-226.379-13.247,0,0,56.053,104.018-124.743,60.533,0,0-.013-.019-.045-.026-33.197-7.981-74.351-20.924-125.289-40.39Z"/><path class="cls-25" d="M1181.441,251.661c-49.521-33.489-97.551,28.408-95.764,32.094,1.8,3.705,97.937-4.08,97.937-4.08,0,0,26.513-8.617-2.173-28.014Z"/><path class="cls-25" d="M1430.541,237.074c3.642,1.086,33.146,10.004,44.331,17.566,11.899,8.06,17.384,44.559,17.384,44.559,0,0-36.462-35.471-60.429-21.845,0,0,23.433-33.052-1.287-40.28Zm-207.356-51.243c6.116,6.448,32.758,40.088,32.758,40.088,31.494-8.603,85.952-14.708,106.023-11.107,20.09,3.588,20.659,28.237,20.659,28.237-70.406-15.259-120.928,10.492-120.928,10.492,0,0-3.763,46.085-36.467,69.487,120.476-28.534,285.806-12.696,379.181,97.973,1.124,1.332,2.217,2.658,3.316,3.952-96.631-395.056-384.541-239.122-384.541-239.122Z"/><path class="cls-25" d="M1430.541,237.074c24.72,7.228,1.287,40.28,1.287,40.28,23.966-13.626,60.429,21.845,60.429,21.845,0,0-5.485-36.499-17.384-44.559-11.185-7.563-40.689-16.48-44.331-17.566Z"/><path class="cls-25" d="M1210.678,517.922c8.012-11.426,20.616-19.185,35.933-23.784,0,0-41.83-117.509,149.423-109.126-116.296-15.698-255.69,27.839-338.863,168.213,0,0,21.957,63.87,111.359,68.907,16.599,.966,35.523-.121,57.044-4.02-6.707-9.153-12.287-19.323-16.534-30.617-11.679-31.046-9.437-53.815,1.637-69.573Z"/><path class="cls-25" d="M1168.53,622.133c-89.402-5.038-111.359-68.907-111.359-68.907-22.905,43.394-46.884,67.8-63.01,80.664,89.254-32.207,116.587,77.154,117.104,79.328l.013,.019c9.916,3.867,15.178,7.921,15.178,7.921,67.803,39.535,136.527,53.663,193.326,56.792-4.15-.725-183.248-32.509-151.251-155.817Z"/><path class="cls-34" d="M557.258,798.462c128.797,63.964,298.305,32.036,409.54-51.022,69.558-51.962,120.555-43.584,144.467-34.223-.517-2.173-27.85-111.535-117.104-79.328-11.692,9.315-19.261,12.549-19.261,12.549-22.707,10.037-45.608,17.301-68.365,22.261,0,0-145.472,162.873-349.277,129.762Z"/><path class="cls-25" d="M1396.034,385.012c-191.253-8.383-149.423,109.126-149.423,109.126,40.691-12.218,100.305-1.991,141.986,21.377,32.974-119.006,158.898-32.605,161.118-8.764-.03-6.222,.891-38.563,25.944-20.45-33.057-53.066-101.09-90.682-179.625-101.289Z"/><path class="cls-25" d="M1388.597,515.515c-41.681-23.368-101.296-33.595-141.986-21.377-15.317,4.599-27.92,12.359-35.933,23.784,10.172,199.523,282.49,141.725,282.49,141.725,104.199-23.967,103.848-98.751,103.848-98.751,.355-27.025-7.406-52.195-21.343-74.575l-.013-.019c-25.053-18.113-25.974,14.228-25.944,20.45,.043,.276,.041,.525,.02,.788-.012-.186-.01-.435-.02-.788-2.22-23.841-128.144-110.242-161.118,8.764Z"/><path class="cls-35" d="M1575.668,299.198s71.925,105.517,38.845,123.725c21.611,8.968,43.834,35.846,56.011,68.112l.25-.082c38.518-49.265,90.964-94.233,143.246-123.819-20.659,7.144-127.494,42.649-146.377,21.778-20.917-23.124-73.354-101.263-91.975-89.714Z"/><path class="cls-34" d="M1225.575,618.113c-21.522,3.899-40.445,4.986-57.044,4.02-31.997,123.308,147.101,155.093,151.251,155.817l.064,.013c77.891,4.291,133.383-12.133,133.383-12.133,0,0,51.198-57.875,90.922-73.959-1.321,.343-2.655,.668-4.02,.985,0,0-235.161,33.818-314.555-74.744Z"/><path class="cls-39" d="M1814.019,367.134c-52.281,29.586-104.727,74.555-143.246,123.819l-.25,.082c15.651,41.417,14.766,91.714-25.148,124.358-2.451,10.642,13.281,8.229,22.375,10.593,2.959,.762,5.972-.915,6.83-3.854,11.796-41.008,82.485-260.841,241.556-261.88,50.132-.333,160.457,101.542,123.959,214.136-2.966,9.103-6.309,18.178-7.276,27.127-2.841,26.394,4.155,26.491,20.2,2.41,8.339-12.525,14.202-27.011,16.676-41.315,2.66-15.282,4.237-30.405,4.661-45.266,3.307-114.558-64.634-174.304-131.556-184.893-36.163-5.728-82.384,8.413-128.78,34.683Z"/></g><g><path class="cls-5" d="M1575.672,486.32c13.938,22.381,21.699,47.551,21.343,74.575,0,0,.352,74.784-103.848,98.751,0,0-272.317,57.799-282.49-141.725,.019-.013,.007-.032,.007-.032"/><path class="cls-5" d="M513.438,339.582c-11.659,11.171-22.717,23.384-32.899,36.677,0,0-13.685,122.678,50.182,212.196,0,0,60.94,40.649,149.435,66.998,64.99,19.372,144.868,31.056,226.379,13.247,22.758-4.96,45.658-12.224,68.365-22.261,0,0,7.568-3.235,19.261-12.549,16.126-12.864,40.105-37.271,63.01-80.664,83.173-140.374,222.567-183.912,338.863-168.213,78.535,10.607,146.568,48.223,179.625,101.289"/><path class="cls-5" d="M1149.005,350.013c-22.704,11.471-56.278,31.827-88.87,63.634-37.985,37.092-76.601,89.653-95.21,103.321-10.575,7.779-25.417,18.143-53.474,26.007l-.058,.038c-14.641,4.072-32.882,7.5-55.998,9.519,0,0-144.849-167.593-301.832-142.158,0,0,105.641-184.392,344.174-83.404l.46,.195s-8.61-15.663-20.315-34.982c-18.455-30.514-44.603-70.169-56.66-71.745-17.346-2.27-182.766,8.521-297.416,109.622-3.445,3.037-6.838,6.152-10.188,9.376"/><path class="cls-5" d="M1225.211,323.041c-21.728,5.14-42.006,11.729-60.121,19.466-4.352,1.866-9.758,4.315-15.995,7.475"/><path class="cls-5" d="M1323.869,565.076c-37.836-6.341-46.683,42.727-4.538,54.908,35.506,8.342,60.456,6.885,77.948,1.353,36.48-11.522,46.834-58.128,19.669-85.044-7.804-7.713-17.457-14.709-28.351-20.778-41.681-23.368-101.296-33.595-141.986-21.377-15.317,4.599-27.92,12.359-35.933,23.784-11.075,15.759-13.316,38.527-1.637,69.573,4.247,11.294,9.827,21.464,16.534,30.617,79.395,108.561,314.555,74.744,314.555,74.744,1.366-.318,2.699-.642,4.02-.985,71.561-18.45,89.626-70.594,89.626-70.594,0,0,4.216-2.495,9.679-7.798,19.824-19.383,56.041-76.139-34.039-186.46-.559-.682-1.118-1.364-1.689-2.066-1.099-1.294-2.191-2.62-3.316-3.952-93.375-110.669-258.705-126.507-379.181-97.973"/><path class="cls-5" d="M911.148,543.312c.052-.089,.136-.172,.245-.299,6.16-7.142,92.418-111.014-13.656-216.043-.509-.522-1.049-1.05-1.577-1.559"/><path class="cls-5" d="M911.47,542.962l-.019,.013c-.148,.153-.239,.267-.303,.337l-.039,.025c-.045,.057-.064,.07-.064,.07"/><path class="cls-5" d="M874.901,476.655s-65.29-92.146-149.506-94.461c50.37-54.513,211.613-12.705,149.506,94.461Z"/><path class="cls-5" d="M1319.845,777.963c77.891,4.291,133.383-12.133,133.383-12.133,0,0,51.198-57.875,90.922-73.959"/><path class="cls-5" d="M1111.278,713.237c9.916,3.867,15.178,7.921,15.178,7.921,67.803,39.535,136.527,53.663,193.326,56.792"/><path class="cls-5" d="M1607.733,425.004q-.013-.019-.006-.051c-96.631-395.056-384.541-239.122-384.541-239.122-66.034-63.485-153.148,5.763-153.148,5.763-28.838-24.629-56.485-46.394-82.952-65.566-41.962-30.392-80.978-54.242-117.264-72.511-34.398-17.329-66.312-29.661-95.898-37.779C515.67-55.247,434.806,192.597,436.127,214.902c-65.355,47.515-68.593,155.455-63.806,220.557,2.305,31.325,6.474,52.752,6.474,52.752,5.642,76.362,23.976,138.249,51.285,187.359,32.054,57.675,76.469,97.724,127.178,122.892,128.797,63.964,298.305,32.036,409.54-51.022,69.558-51.962,120.555-43.584,144.467-34.223"/><path class="cls-5" d="M1430.541,237.074c24.72,7.228,1.287,40.28,1.287,40.28,23.966-13.626,60.429,21.845,60.429,21.845,0,0-5.485-36.499-17.384-44.559-11.185-7.563-40.689-16.48-44.331-17.566Z"/><path class="cls-5" d="M1430.541,237.074c-.109-.039-.249-.085-.377-.111"/><path class="cls-5" d="M1225.211,323.041l.019-.013c32.704-23.402,36.467-69.487,36.467-69.487,0,0,50.522-25.751,120.928-10.492,0,0-.569-24.649-20.659-28.237-20.071-3.6-74.529,2.504-106.023,11.107,0,0-26.642-33.64-32.758-40.088"/><path class="cls-5" d="M1183.615,279.675s-96.137,7.785-97.937,4.08c-1.788-3.686,46.242-65.583,95.764-32.094,28.687,19.398,2.173,28.014,2.173,28.014Z"/><path class="cls-5" d="M1149.095,349.982s-.039,.025-.09,.031c-4.085,1.055-124.823,31.585-213.283-69.085-10.752-12.239-21.017-26.428-30.544-42.814,0,0,23.279-12.318,13.6-35.869,93.433,63.317,112.856,16.054,12.786-25.888,0,0,23.926-18.268,2.658-51.38,0,0,29.898-5.4,52.863,1.048"/><path class="cls-5" d="M869.821,53.516c-12.288,44.839-18.12,96.013,35.357,184.599"/><path class="cls-5" d="M773.923,15.737l20.683,146.517s-328.313-49.074-227.661,14.553c9.021,5.698,15.252,12.237,19.232,19.342,24.622,43.889-36.939,109.57-62.371,133.91-5.546,5.303-9.37,8.645-10.188,9.376-.122,.108-.18,.146-.18,.146"/><path class="cls-5" d="M935.754,280.935l-.032-.007c-24.015-4.516-43.567-1.276-57.84,11.255"/><path class="cls-5" d="M1057.171,553.225s21.957,63.87,111.359,68.907c16.599,.966,35.523-.121,57.044-4.02"/><path class="cls-1" d="M1817.484,365.934s-1.226,.447-3.465,1.2c-20.659,7.144-127.494,42.649-146.377,21.778-20.917-23.124-73.354-101.263-91.975-89.714,0,0,71.925,105.517,38.845,123.725,21.611,8.968,43.834,35.846,56.011,68.112,15.651,41.417,14.766,91.714-25.148,124.358-2.451,10.642,13.281,8.229,22.375,10.593,2.959,.762,5.972-.915,6.83-3.854,11.796-41.008,82.485-260.841,241.556-261.88,50.132-.333,160.457,101.542,123.959,214.136-2.966,9.103-6.309,18.178-7.276,27.127-2.841,26.394,4.155,26.491,20.2,2.41,8.339-12.525,14.202-27.011,16.676-41.315,2.66-15.282,4.237-30.405,4.661-45.266,3.307-114.558-64.634-174.304-131.556-184.893-36.163-5.728-82.384,8.413-128.78,34.683-52.281,29.586-104.727,74.555-143.246,123.819"/><path class="cls-5" d="M1111.278,713.237l-.013-.019c-.517-2.173-27.85-111.535-117.104-79.328q-.032-.007-.051,.006"/><path class="cls-5" d="M1319.845,777.963l-.064-.013c-4.15-.725-183.248-32.509-151.251-155.817"/><path class="cls-5" d="M1549.741,507.756s0-.083-.005-.218c-.012-.186-.01-.435-.02-.788-.03-6.222,.891-38.563,25.944-20.45l.013,.019"/><path class="cls-5" d="M1388.597,515.515c32.974-119.006,158.898-32.605,161.118-8.764,.043,.276,.041,.525,.02,.788"/><path class="cls-5" d="M1246.611,494.138s-41.83-117.509,149.423-109.126"/><path class="cls-5" d="M906.535,668.7s-145.472,162.873-349.277,129.762l-.064-.013"/><path class="cls-5" d="M555.369,715.961c-33.197-7.981-74.351-20.924-125.289-40.39-.249-.085-.479-.182-.728-.267"/><path class="cls-5" d="M680.156,655.453s56.053,104.018-124.743,60.533"/><path class="cls-5" d="M555.413,715.986s-.013-.019-.045-.026c-3.187-1.192-157.086-59.897-183.029-280.514"/><path class="cls-5" d="M480.539,376.259s8.564-120.721,105.639-180.109"/></g></g><g><g><path class="cls-25" d="M773.923,15.737C515.67-55.247,434.806,192.597,436.127,214.902c-65.355,47.515-68.593,155.455-63.806,220.557l.019-.013c25.942,220.617,179.842,279.322,183.029,280.514,.032,.007,.045,.026,.045,.026,180.795,43.485,124.743-60.533,124.743-60.533-88.495-26.349-149.435-66.998-149.435-66.998-63.867-89.518-50.182-212.196-50.182-212.196,0,0,8.564-120.721,105.639-180.109-3.98-7.106-10.211-13.644-19.232-19.342-100.652-63.627,227.661-14.553,227.661-14.553l-20.683-146.517Z"/><path class="cls-25" d="M794.606,162.255s-328.313-49.074-227.661,14.553c9.021,5.698,15.252,12.237,19.232,19.342,24.622,43.889-36.939,109.57-62.371,133.91,114.649-101.101,280.07-111.892,297.416-109.622,12.057,1.576,38.204,41.231,56.66,71.745,14.274-12.531,33.826-15.771,57.84-11.255-10.752-12.239-21.017-26.428-30.544-42.814-53.477-88.586-47.645-139.76-35.357-184.599-34.398-17.329-66.312-29.661-95.898-37.779l20.683,146.517Z"/><path class="cls-25" d="M586.178,196.15c-97.075,59.388-105.639,180.109-105.639,180.109,10.182-13.294,21.24-25.506,32.899-36.677,0,0,.058-.038,.18-.146,3.35-3.224,6.744-6.338,10.188-9.376,25.432-24.339,86.993-90.021,62.371-133.91Z"/><path class="cls-25" d="M994.161,633.89c16.126-12.864,40.105-37.271,63.01-80.664,83.173-140.374,222.567-183.912,338.863-168.213,78.535,10.607,146.568,48.223,179.625,101.289l.013,.019c13.938,22.381,21.699,47.551,21.343,74.575,0,0,.352,74.784-103.848,98.751,0,0-272.317,57.799-282.49-141.725-11.075,15.759-13.316,38.527-1.637,69.573,4.247,11.294,9.827,21.464,16.534,30.617,79.395,108.561,314.555,74.744,314.555,74.744,1.366-.318,2.699-.642,4.02-.985,71.561-18.45,89.626-70.594,89.626-70.594,0,0,4.216-2.495,9.679-7.798,19.824-19.383,56.041-76.139-34.039-186.46-.559-.682-1.118-1.364-1.689-2.066-1.099-1.294-2.191-2.62-3.316-3.952-93.375-110.669-258.705-126.507-379.181-97.973l-.019,.013c-21.728,5.14-42.006,11.729-60.121,19.466-4.352,1.866-9.758,4.315-15.995,7.475,0,0-.039,.025-.09,.031-22.704,11.471-56.278,31.827-88.87,63.634-37.985,37.092-76.601,89.653-95.21,103.321-10.575,7.779-25.417,18.143-53.474,26.007-.148,.153-.239,.267-.303,.337,.052-.089,.136-.172,.245-.299-14.641,4.072-32.882,7.5-55.998,9.519,0,0-144.849-167.593-301.832-142.158,0,0,105.641-184.392,344.174-83.404l.46,.195s-8.61-15.663-20.315-34.982c-18.455-30.514-44.603-70.169-56.66-71.745-17.346-2.27-182.766,8.521-297.416,109.622-5.546,5.303-9.37,8.645-10.188,9.376-.122,.108-.18,.146-.18,.146-11.659,11.171-22.717,23.384-32.899,36.677,0,0-13.685,122.678,50.182,212.196,0,0,60.94,40.649,149.435,66.998,64.99,19.372,144.868,31.056,226.379,13.247,22.758-4.96,45.658-12.224,68.365-22.261,0,0,7.568-3.235,19.261-12.549Z"/><path class="cls-33" d="M372.34,435.447l-.019,.013c2.305,31.325,6.474,52.752,6.474,52.752,5.642,76.362,23.976,138.249,51.285,187.359,50.938,19.466,92.092,32.409,125.289,40.39-3.187-1.192-157.086-59.897-183.029-280.514Z"/><path class="cls-25" d="M869.821,53.516c-12.288,44.839-18.12,96.013,35.357,184.599,0,0,23.279-12.318,13.6-35.869,93.433,63.317,112.856,16.054,12.786-25.888,0,0,23.926-18.268,2.658-51.38,0,0,29.898-5.4,52.863,1.048-41.962-30.392-80.978-54.242-117.264-72.511Z"/><path class="cls-25" d="M935.722,280.929c88.459,100.67,209.198,70.14,213.283,69.085,.051-.006,.09-.031,.09-.031,6.236-3.16,11.642-5.609,15.995-7.475,18.115-7.737,38.393-14.326,60.121-19.466l.019-.013c32.704-23.402,36.467-69.487,36.467-69.487,0,0,50.522-25.751,120.928-10.492,0,0-.569-24.649-20.659-28.237-20.071-3.6-74.529,2.504-106.023,11.107,0,0-26.642-33.64-32.758-40.088-66.034-63.485-153.148,5.763-153.148,5.763-28.838-24.629-56.485-46.394-82.952-65.566-22.965-6.449-52.863-1.048-52.863-1.048,21.268,33.112-2.658,51.38-2.658,51.38,100.07,41.941,80.647,89.205-12.786,25.888,9.679,23.55-13.6,35.869-13.6,35.869,9.528,16.386,19.793,30.574,30.544,42.814Zm149.955,2.827c-1.788-3.686,46.242-65.583,95.764-32.094,28.687,19.398,2.173,28.014,2.173,28.014,0,0-96.137,7.785-97.937,4.08Z"/><path class="cls-25" d="M897.737,326.97c-238.533-100.987-344.174,83.404-344.174,83.404,156.983-25.435,301.832,142.158,301.832,142.158,23.116-2.02,41.357-5.447,55.998-9.519,6.16-7.142,92.418-111.014-13.656-216.043Zm-172.342,55.223c50.37-54.513,211.613-12.705,149.506,94.461,0,0-65.29-92.146-149.506-94.461Z"/><path class="cls-25" d="M874.901,476.655c62.107-107.166-99.136-148.974-149.506-94.461,84.216,2.315,149.506,94.461,149.506,94.461Z"/><path class="cls-25" d="M911.451,542.975c28.058-7.864,42.9-18.227,53.474-26.007,18.608-13.668,57.225-66.228,95.21-103.321,32.592-31.808,66.166-52.164,88.87-63.634-4.085,1.055-124.823,31.585-213.283-69.085-24.015-4.516-43.567-1.276-57.84,11.255,11.704,19.319,20.315,34.982,20.315,34.982l-.46-.195c106.073,105.028,19.816,208.9,13.656,216.043l.058-.038Z"/><path class="cls-23" d="M430.08,675.571c32.054,57.675,76.469,97.724,127.178,122.892,203.806,33.111,349.277-129.762,349.277-129.762-81.511,17.809-161.389,6.125-226.379-13.247,0,0,56.053,104.018-124.743,60.533,0,0-.013-.019-.045-.026-33.197-7.981-74.351-20.924-125.289-40.39Z"/><path class="cls-25" d="M1181.441,251.661c-49.521-33.489-97.551,28.408-95.764,32.094,1.8,3.705,97.937-4.08,97.937-4.08,0,0,26.513-8.617-2.173-28.014Z"/><path class="cls-25" d="M1430.541,237.074c3.642,1.086,33.146,10.004,44.331,17.566,11.899,8.06,17.384,44.559,17.384,44.559,0,0-36.462-35.471-60.429-21.845,0,0,23.433-33.052-1.287-40.28Zm-207.356-51.243c6.116,6.448,32.758,40.088,32.758,40.088,31.494-8.603,85.952-14.708,106.023-11.107,20.09,3.588,20.659,28.237,20.659,28.237-70.406-15.259-120.928,10.492-120.928,10.492,0,0-3.763,46.085-36.467,69.487,120.476-28.534,285.806-12.696,379.181,97.973,1.124,1.332,2.217,2.658,3.316,3.952-96.631-395.056-384.541-239.122-384.541-239.122Z"/><path class="cls-34" d="M1430.541,237.074c24.72,7.228,1.287,40.28,1.287,40.28,23.966-13.626,60.429,21.845,60.429,21.845,0,0-5.485-36.499-17.384-44.559-11.185-7.563-40.689-16.48-44.331-17.566Z"/><path class="cls-25" d="M1210.678,517.922c8.012-11.426,20.616-19.185,35.933-23.784,0,0-41.83-117.509,149.423-109.126-116.296-15.698-255.69,27.839-338.863,168.213,0,0,21.957,63.87,111.359,68.907,16.599,.966,35.523-.121,57.044-4.02-6.707-9.153-12.287-19.323-16.534-30.617-11.679-31.046-9.437-53.815,1.637-69.573Z"/><path class="cls-33" d="M1168.53,622.133c-89.402-5.038-111.359-68.907-111.359-68.907-22.905,43.394-46.884,67.8-63.01,80.664,89.254-32.207,116.587,77.154,117.104,79.328l.013,.019c9.916,3.867,15.178,7.921,15.178,7.921,67.803,39.535,136.527,53.663,193.326,56.792-4.15-.725-183.248-32.509-151.251-155.817Z"/><path class="cls-34" d="M557.258,798.462c128.797,63.964,298.305,32.036,409.54-51.022,69.558-51.962,120.555-43.584,144.467-34.223-.517-2.173-27.85-111.535-117.104-79.328-11.692,9.315-19.261,12.549-19.261,12.549-22.707,10.037-45.608,17.301-68.365,22.261,0,0-145.472,162.873-349.277,129.762Z"/><path class="cls-25" d="M1396.034,385.012c-191.253-8.383-149.423,109.126-149.423,109.126,40.691-12.218,100.305-1.991,141.986,21.377,32.974-119.006,158.898-32.605,161.118-8.764-.03-6.222,.891-38.563,25.944-20.45-33.057-53.066-101.09-90.682-179.625-101.289Z"/><path class="cls-25" d="M1388.597,515.515c-41.681-23.368-101.296-33.595-141.986-21.377-15.317,4.599-27.92,12.359-35.933,23.784,10.172,199.523,282.49,141.725,282.49,141.725,104.199-23.967,103.848-98.751,103.848-98.751,.355-27.025-7.406-52.195-21.343-74.575l-.013-.019c-25.053-18.113-25.974,14.228-25.944,20.45,.043,.276,.041,.525,.02,.788-.012-.186-.01-.435-.02-.788-2.22-23.841-128.144-110.242-161.118,8.764Z"/><path class="cls-35" d="M1575.668,299.198s71.925,105.517,38.845,123.725c21.611,8.968,43.834,35.846,56.011,68.112l.25-.082c38.518-49.265,90.964-94.233,143.246-123.819-20.659,7.144-127.494,42.649-146.377,21.778-20.917-23.124-73.354-101.263-91.975-89.714Z"/><path class="cls-34" d="M1225.575,618.113c-21.522,3.899-40.445,4.986-57.044,4.02-31.997,123.308,147.101,155.093,151.251,155.817l.064,.013c77.891,4.291,133.383-12.133,133.383-12.133,0,0,51.198-57.875,90.922-73.959-1.321,.343-2.655,.668-4.02,.985,0,0-235.161,33.818-314.555-74.744Z"/><path class="cls-39" d="M1814.019,367.134c-52.281,29.586-104.727,74.555-143.246,123.819l-.25,.082c15.651,41.417,14.766,91.714-25.148,124.358-2.451,10.642,13.281,8.229,22.375,10.593,2.959,.762,5.972-.915,6.83-3.854,11.796-41.008,82.485-260.841,241.556-261.88,50.132-.333,160.457,101.542,123.959,214.136-2.966,9.103-6.309,18.178-7.276,27.127-2.841,26.394,4.155,26.491,20.2,2.41,8.339-12.525,14.202-27.011,16.676-41.315,2.66-15.282,4.237-30.405,4.661-45.266,3.307-114.558-64.634-174.304-131.556-184.893-36.163-5.728-82.384,8.413-128.78,34.683Z"/></g><g><path class="cls-9" d="M1575.672,486.32c13.938,22.381,21.699,47.551,21.343,74.575,0,0,.352,74.784-103.848,98.751,0,0-272.317,57.799-282.49-141.725,.019-.013,.007-.032,.007-.032"/><path class="cls-9" d="M513.438,339.582c-11.659,11.171-22.717,23.384-32.899,36.677,0,0-13.685,122.678,50.182,212.196,0,0,60.94,40.649,149.435,66.998,64.99,19.372,144.868,31.056,226.379,13.247,22.758-4.96,45.658-12.224,68.365-22.261,0,0,7.568-3.235,19.261-12.549,16.126-12.864,40.105-37.271,63.01-80.664,83.173-140.374,222.567-183.912,338.863-168.213,78.535,10.607,146.568,48.223,179.625,101.289"/><path class="cls-9" d="M1149.005,350.013c-22.704,11.471-56.278,31.827-88.87,63.634-37.985,37.092-76.601,89.653-95.21,103.321-10.575,7.779-25.417,18.143-53.474,26.007l-.058,.038c-14.641,4.072-32.882,7.5-55.998,9.519,0,0-144.849-167.593-301.832-142.158,0,0,105.641-184.392,344.174-83.404l.46,.195s-8.61-15.663-20.315-34.982c-18.455-30.514-44.603-70.169-56.66-71.745-17.346-2.27-182.766,8.521-297.416,109.622-3.445,3.037-6.838,6.152-10.188,9.376"/><path class="cls-9" d="M1225.211,323.041c-21.728,5.14-42.006,11.729-60.121,19.466-4.352,1.866-9.758,4.315-15.995,7.475"/><path class="cls-9" d="M1323.869,565.076c-37.836-6.341-46.683,42.727-4.538,54.908,35.506,8.342,60.456,6.885,77.948,1.353,36.48-11.522,46.834-58.128,19.669-85.044-7.804-7.713-17.457-14.709-28.351-20.778-41.681-23.368-101.296-33.595-141.986-21.377-15.317,4.599-27.92,12.359-35.933,23.784-11.075,15.759-13.316,38.527-1.637,69.573,4.247,11.294,9.827,21.464,16.534,30.617,79.395,108.561,314.555,74.744,314.555,74.744,1.366-.318,2.699-.642,4.02-.985,71.561-18.45,89.626-70.594,89.626-70.594,0,0,4.216-2.495,9.679-7.798,19.824-19.383,56.041-76.139-34.039-186.46-.559-.682-1.118-1.364-1.689-2.066-1.099-1.294-2.191-2.62-3.316-3.952-93.375-110.669-258.705-126.507-379.181-97.973"/><path class="cls-9" d="M911.148,543.312c.052-.089,.136-.172,.245-.299,6.16-7.142,92.418-111.014-13.656-216.043-.509-.522-1.049-1.05-1.577-1.559"/><path class="cls-9" d="M911.47,542.962l-.019,.013c-.148,.153-.239,.267-.303,.337l-.039,.025c-.045,.057-.064,.07-.064,.07"/><path class="cls-9" d="M874.901,476.655s-65.29-92.146-149.506-94.461c50.37-54.513,211.613-12.705,149.506,94.461Z"/><path class="cls-9" d="M1319.845,777.963c77.891,4.291,133.383-12.133,133.383-12.133,0,0,51.198-57.875,90.922-73.959"/><path class="cls-9" d="M1111.278,713.237c9.916,3.867,15.178,7.921,15.178,7.921,67.803,39.535,136.527,53.663,193.326,56.792"/><path class="cls-9" d="M1607.733,425.004q-.013-.019-.006-.051c-96.631-395.056-384.541-239.122-384.541-239.122-66.034-63.485-153.148,5.763-153.148,5.763-28.838-24.629-56.485-46.394-82.952-65.566-41.962-30.392-80.978-54.242-117.264-72.511-34.398-17.329-66.312-29.661-95.898-37.779C515.67-55.247,434.806,192.597,436.127,214.902c-65.355,47.515-68.593,155.455-63.806,220.557,2.305,31.325,6.474,52.752,6.474,52.752,5.642,76.362,23.976,138.249,51.285,187.359,32.054,57.675,76.469,97.724,127.178,122.892,128.797,63.964,298.305,32.036,409.54-51.022,69.558-51.962,120.555-43.584,144.467-34.223"/><path class="cls-9" d="M1430.541,237.074c24.72,7.228,1.287,40.28,1.287,40.28,23.966-13.626,60.429,21.845,60.429,21.845,0,0-5.485-36.499-17.384-44.559-11.185-7.563-40.689-16.48-44.331-17.566Z"/><path class="cls-9" d="M1430.541,237.074c-.109-.039-.249-.085-.377-.111"/><path class="cls-9" d="M1225.211,323.041l.019-.013c32.704-23.402,36.467-69.487,36.467-69.487,0,0,50.522-25.751,120.928-10.492,0,0-.569-24.649-20.659-28.237-20.071-3.6-74.529,2.504-106.023,11.107,0,0-26.642-33.64-32.758-40.088"/><path class="cls-9" d="M1183.615,279.675s-96.137,7.785-97.937,4.08c-1.788-3.686,46.242-65.583,95.764-32.094,28.687,19.398,2.173,28.014,2.173,28.014Z"/><path class="cls-9" d="M1149.095,349.982s-.039,.025-.09,.031c-4.085,1.055-124.823,31.585-213.283-69.085-10.752-12.239-21.017-26.428-30.544-42.814,0,0,23.279-12.318,13.6-35.869,93.433,63.317,112.856,16.054,12.786-25.888,0,0,23.926-18.268,2.658-51.38,0,0,29.898-5.4,52.863,1.048"/><path class="cls-9" d="M869.821,53.516c-12.288,44.839-18.12,96.013,35.357,184.599"/><path class="cls-9" d="M773.923,15.737l20.683,146.517s-328.313-49.074-227.661,14.553c9.021,5.698,15.252,12.237,19.232,19.342,24.622,43.889-36.939,109.57-62.371,133.91-5.546,5.303-9.37,8.645-10.188,9.376-.122,.108-.18,.146-.18,.146"/><path class="cls-9" d="M935.754,280.935l-.032-.007c-24.015-4.516-43.567-1.276-57.84,11.255"/><path class="cls-9" d="M1057.171,553.225s21.957,63.87,111.359,68.907c16.599,.966,35.523-.121,57.044-4.02"/><path class="cls-9" d="M1817.484,365.934s-1.226,.447-3.465,1.2c-20.659,7.144-127.494,42.649-146.377,21.778-20.917-23.124-73.354-101.263-91.975-89.714,0,0,71.925,105.517,38.845,123.725,21.611,8.968,43.834,35.846,56.011,68.112,15.651,41.417,14.766,91.714-25.148,124.358-2.451,10.642,13.281,8.229,22.375,10.593,2.959,.762,5.972-.915,6.83-3.854,11.796-41.008,82.485-260.841,241.556-261.88,50.132-.333,160.457,101.542,123.959,214.136-2.966,9.103-6.309,18.178-7.276,27.127-2.841,26.394,4.155,26.491,20.2,2.41,8.339-12.525,14.202-27.011,16.676-41.315,2.66-15.282,4.237-30.405,4.661-45.266,3.307-114.558-64.634-174.304-131.556-184.893-36.163-5.728-82.384,8.413-128.78,34.683-52.281,29.586-104.727,74.555-143.246,123.819"/><path class="cls-9" d="M1111.278,713.237l-.013-.019c-.517-2.173-27.85-111.535-117.104-79.328q-.032-.007-.051,.006"/><path class="cls-9" d="M1319.845,777.963l-.064-.013c-4.15-.725-183.248-32.509-151.251-155.817"/><path class="cls-9" d="M1549.741,507.756s0-.083-.005-.218c-.012-.186-.01-.435-.02-.788-.03-6.222,.891-38.563,25.944-20.45l.013,.019"/><path class="cls-9" d="M1388.597,515.515c32.974-119.006,158.898-32.605,161.118-8.764,.043,.276,.041,.525,.02,.788"/><path class="cls-9" d="M1246.611,494.138s-41.83-117.509,149.423-109.126"/><path class="cls-9" d="M906.535,668.7s-145.472,162.873-349.277,129.762l-.064-.013"/><path class="cls-9" d="M555.369,715.961c-33.197-7.981-74.351-20.924-125.289-40.39-.249-.085-.479-.182-.728-.267"/><path class="cls-9" d="M680.156,655.453s56.053,104.018-124.743,60.533"/><path class="cls-9" d="M555.413,715.986s-.013-.019-.045-.026c-3.187-1.192-157.086-59.897-183.029-280.514"/><path class="cls-9" d="M480.539,376.259s8.564-120.721,105.639-180.109"/></g></g></g><g><g><polygon class="cls-40" points="323.496 620.8 323.311 620.734 323.478 620.658 323.496 620.8"/><polygon class="cls-40" points="323.562 620.615 323.478 620.658 323.474 620.588 323.562 620.615"/><polygon class="cls-29" points="381.218 569.006 380.6 576.149 379.947 575.922 372.796 577.943 372.326 573.285 372.293 573.081 372.419 573.022 381.218 569.006"/><path class="cls-36" d="M365.509,526.924s-.487-.514-1.398-1.466c.081-.595,.143-1.192,.195-1.79,.661-7.872-1.311-16.394-5.574-24.663v-.01c-3.436-6.681-8.352-13.2-14.557-19.087,2.15,.558,4.347,1.26,6.581,2.126l.019,.012c1.409,.533,2.842,1.149,4.288,1.837,2.208,1.044,4.304,2.109,6.275,3.223,.193,.097,.393,.215,.585,.322,.889,.509,1.759,1.016,2.607,1.531,3.338,2.025,6.298,4.129,8.922,6.273,3.487,2.851,6.385,5.782,8.776,8.77l-9.229-6.44c-5.216,29.871,16.255,32.413-7.491,29.363Z"/><path class="cls-11" d="M399.003,568.558c-.645-8.196-10.977-12.915-10.977-12.915,0,0,.553-1.056,1.28-2.96,1.075-2.798,2.528-7.41,3.191-13.084,.389-3.339,.49-7.054,.078-10.984-.816-7.729-3.637-16.314-10.336-24.603l-.009-.011-9.229-6.44c-5.216,29.871,16.255,32.413-7.491,29.363,0,0-.487-.514-1.398-1.466-5.381-5.555-25.659-25.93-50.397-43.369-6.27,2.749-11.803,6.827-16.487,11.661,3.736-.028,7.19-.04,9.95-.032,2.438,.01,3.733,2.903,2.102,4.709-10.288,11.355-18.16,23.21-20.943,36.118-.57,2.641-4.113,3.107-5.299,.686-.982-1.992-2.082-4.235-3.233-6.603-1.162,8.903,.477,16.633,5.37,20.751,0,0-10.989-.951-5.616,14.66,1.371,3.993,4.175,9.626,8.514,15.392,7.64,10.177,20.074,20.759,37.895,23.486,11.57,1.775,25.414,.233,41.699-6.879,25.475-11.134,31.882-20.557,31.337-27.479Zm-63.297-4.155q-.01,0-.02,.008c.011-.009,.011-.019,.011-.019,.031-.017,.073-.034,.106-.061-.033,.027-.065,.055-.097,.072Zm44.894,11.746l-.653-.227-7.151,2.021-.47-4.658-.032-.204,.126-.059,8.799-4.016-.618,7.143Z"/><path class="cls-38" d="M309.278,498.428c-10.288,11.355-18.16,23.21-20.943,36.118-.57,2.641-4.113,3.107-5.299,.686-.982-1.992-2.082-4.235-3.233-6.603,.432-3.255,1.23-6.669,2.391-10.111,2.033-6.097,5.181-12.319,9.314-17.974,1.732-2.379,3.646-4.663,5.718-6.792,3.736-.028,7.19-.04,9.95-.032,2.438,.01,3.733,2.903,2.102,4.709Z"/><path class="cls-38" d="M364.306,523.668c-.052,.598-.114,1.195-.195,1.79-5.381-5.555-25.659-25.93-50.397-43.369,8.797-3.876,19.053-5.126,30.462-2.181,6.205,5.887,11.121,12.405,14.558,19.087v.01c4.262,8.269,6.234,16.79,5.573,24.663Z"/><path class="cls-17" d="M400.346,579.003s4.667,4.392,6.59,4.496"/><g><path class="cls-11" d="M382.59,449.158l11.584,63.185-11.936-8.331-.009-.011c-2.391-2.987-5.289-5.918-8.776-8.77,.972-4.623,2.581-9.864,5.04-15.784-6.206,1.54-10.786,5.52-13.963,9.511-.848-.515-1.718-1.022-2.607-1.531-.192-.107-.392-.225-.585-.322,2.501-20.651-8.52-27.618-9.198-28.018,6.525,5.905-5.297,15.732-5.297,15.732-1.27-5.039-6.081-10.223-12.095-14.959,4.83-16.836,15.016-51.477,18.624-57.207,1.812-5.745,4.22-9.682,5.967-10.023,6.37-1.235,46.759-18.024,46.759-18.024l-19.469,16.653c-3.914,3.355-5.357,8.771-3.619,13.629l13.413,37.416-13.833,6.852Z"/><path class="cls-15" d="M382.229,504.001l-9.229-6.44-9.786-6.84-2.178-1.514-10.26-7.162-.019-.012-18.618-13.004s1.015-3.616,2.611-9.169c6.014,4.736,10.824,9.921,12.095,14.959,0,0,11.822-9.827,5.297-15.732,.678,.4,11.698,7.366,9.198,28.018,.193,.097,.393,.215,.585,.322,.889,.509,1.759,1.016,2.607,1.531,3.176-3.991,7.756-7.971,13.963-9.511-2.46,5.92-4.068,11.161-5.04,15.784,3.487,2.851,6.385,5.782,8.776,8.77Z"/><path class="cls-10" d="M95.531,836.62s-19.466,24.646-19.636,30.464l-67.147,3.686-6.411-8.721s21.105-42.096,40.895-36.691c9.56,2.611,18.635,19.853,17.475,30.162-.894,7.948,6.799,7.297,6.799,7.297l28.026-26.198Z"/><path class="cls-2" d="M301.406,703.895c-2.75-.81-5.421-1.613-8.012-2.41l7.577-3.339c.084,1.814,.228,3.744,.436,5.749Z"/><path class="cls-11" d="M249.665,842.308c30.283,21.913,21.599,26.331,21.599,26.331-19.402,10.546-59.648-.507-70.227-6.08-10.589-5.574,48.177-85.654,48.177-85.654l-31.434-31.338c-68.858,33.867-150.373,114.808-150.373,114.808-5.334-47.838-31.755-41.433-31.755-41.433l-2.031-4.592s152.617-159.169,157.659-163.722c5.051-4.541,23.269,3.681,23.269,3.681l23.612,30.44c6.022,7.768,14.655,13.093,24.307,14.993l12.504,2.468,2.035,6.52,16.386-7.244c2.591,.797,5.262,1.6,8.012,2.41,3.085,30.098,19.191,79.19,19.191,79.19-25.757,8.249-70.933,59.223-70.933,59.223Z"/><path class="cls-13" d="M402.949,713.238c-9.015-4.384-15.685-10.472-19.866-15.05l19.866,15.05Z"/><path class="cls-11" d="M443.214,716.774c-16.375,4.334-29.873,1.529-40.265-3.536l-19.866-15.05c-3.428-3.77-5.177-6.521-5.177-6.521,.481-.109,1.019-.293,1.594-.555,10.292-4.68,34.349-32.93,34.349-32.93,5.812-2.9,31.944-1.561,31.944-1.561,1.742,3.985,1.92,12.723,1.43,22.327-.899,17.457-4.008,37.825-4.008,37.825Z"/><path class="cls-11" d="M438.876,653.263l-16.559-.028c.02-.229,15.033-37.182,15.033-37.182l14.997,9.147s-14.143,24.12-13.471,28.063Z"/><path class="cls-11" d="M467.46,720.419s-12.918,4.754-18.539-2.548c-1.579-2.054-.375-22.566,.107-39.729,.365-12.555,.343-23.318-1.449-23.724,0,0,.545-14.868,3.285-15.685,12.14-3.646,23.506-1.368,23.506-1.368l-4.907,22.471s-12.066-1.266-12.042-.029c.014,1.236-.959,12.474-.959,12.474,0,0,8.695-1.536,12.504,1.424h.01c.885,.68,1.497,1.606,1.691,2.847,1.014,6.602-1.697,16.244-1.697,16.244l-6.953-.04c-1.996-.022-3.662,1.489-3.863,3.47l-.009,.109c-.329,3.806,2.416,7.215,6.218,7.705l6.125,.781s2.925,11.314-3.026,15.597Z"/><path class="cls-11" d="M404.23,722.322c-14.084-.677-27.98-2.252-41.325-4.391-22.643-3.616-43.711-8.833-61.498-14.037-.208-2.005-.352-3.935-.436-5.749l-7.577,3.339c-12.191-3.756-22.508-7.369-30.282-10.21-.505-.194-1.002-.368-1.488-.551-8.435-3.099-13.537-5.147-14.324-5.215-.129-.011-.331-.119-.605-.313-6.311-4.431-48.837-55.359-48.837-55.359-.765-8.327,29.091-41.997,29.091-41.997l-2.833-9.711c3.136-10.368,45.556-38.564,45.556-38.564l6.531,10.121c-6.955,27.693,12.944,38.771,13.313,38.682,.389,.034,4.348,30.469,4.348,30.469l4.634,2.71,10.356,6.056,12.19,7.128,33.218,19.438,11.693,6.844,44.525-.923c-7.187,9.395-35.377,32.41-35.377,32.41,21.712,19.806,29.126,29.823,29.126,29.823Z"/><path class="cls-11" d="M366.794,602.396c-11.425,4.782-26.937,8.769-43.443,5.694-4.92-.898-9.926-2.445-14.943-4.777-5.557-2.589-11.122-6.142-16.582-10.891l3.702,24.481,13.263,7.261,12.574,6.87,32.162,17.6,22.408-15.816,1.988-1.404,7.795-39.495s-7.374,5.645-18.924,10.477Zm-43.483,18.338l.167-.076-.004-.071,.088,.028-.084,.043,.018,.142-.185-.066Z"/><polygon class="cls-6" points="323.478 620.658 323.496 620.8 323.311 620.734 323.478 620.658"/><polygon class="cls-6" points="323.562 620.615 323.478 620.658 323.474 620.588 323.562 620.615"/><path class="cls-15" d="M463.165,370.044l-8.55,27.095s4.772-.556,18.26,1.753c0,0,3.134-11.913,9.799-24.631,0,0,2.789-6.916-19.509-4.217Z"/><path class="cls-11" d="M471.484,410.3c-1.366,8.815-5.628,22.107-6.699,22.185-1.444,.096-21.294-2.727-21.294-2.727l6.286-19.741,3.295-10.344s17.474,1.061,18.531,3.803c.484,1.246,.357,3.765-.119,6.825Z"/><path class="cls-15" d="M442.566,432.196s20.975,2.281,21.071,4.148-5.533,17.388-5.392,18.743c0,0-14.922-.621-20.535-7.355l4.857-15.536Z"/><path class="cls-10" d="M442.723,470.714l-7.141,1.575-7.694,3.614c-10.01-3.047-18.652-23.056-18.652-23.056,3.403-2.566,14.608-1.445,14.608-1.445l6.803,12.095,4.891-1.975,7.184,9.191Z"/><polygon class="cls-4" points="381.218 569.006 380.6 576.149 379.947 575.922 372.796 577.943 372.326 573.285 372.293 573.081 372.419 573.022 381.218 569.006"/><path class="cls-3" d="M309.278,498.428c-10.288,11.355-18.16,23.21-20.943,36.118-.57,2.641-4.113,3.107-5.299,.686-.982-1.992-2.082-4.235-3.233-6.603-6.303-12.872-14.472-29.589-15.454-31.812-1.006-2.285,18.149-2.915,32.877-3.066,3.736-.028,7.19-.04,9.95-.032,2.438,.01,3.733,2.903,2.102,4.709Z"/><path class="cls-4" d="M301.532,503.334c.988-1.091,.203-2.841-1.269-2.844-8.265-.016-26.675,.141-25.907,1.869,.708,1.594,7.502,15.483,11.304,23.241,.717,1.464,2.858,1.178,3.203-.415,1.687-7.806,6.447-14.979,12.671-21.851Z"/><path class="cls-12" d="M365.509,526.924s-.487-.514-1.398-1.466c-5.381-5.555-25.659-25.93-50.397-43.369-13.698-9.657-28.749-18.408-43.407-23.241,0,0,3.348-11.424,45.404,1.331,0,0,8.383,4.269-13.122-18.983,.581,.251,19.174,8.425,32.16,18.664,6.014,4.736,10.824,9.921,12.095,14.959,0,0,11.822-9.827,5.297-15.732,.678,.4,11.698,7.366,9.198,28.018-.079,.686-.181,1.39-.303,2.102-.47,2.991-1.213,6.239-2.303,9.788,.284-.728,1.689-4.32,4.48-8.274,.412-.587,.844-1.172,1.317-1.763,3.176-3.991,7.756-7.971,13.963-9.511-2.46,5.92-4.068,11.161-5.04,15.784-.179,.798-.326,1.568-.453,2.33-5.216,29.871,16.255,32.413-7.491,29.363Z"/><polygon class="cls-14" points="321.365 631.035 321.045 634.731 308.854 627.603 308.791 624.164 321.365 631.035"/><path class="cls-10" d="M301.406,703.895c-2.75-.81-5.421-1.613-8.012-2.41l7.577-3.339c.084,1.814,.228,3.744,.436,5.749Z"/><path class="cls-11" d="M456.968,379.012l-.977,2.816-9.392,27.211-12.964,37.522c-23.934-1.922-29.683,6.404-29.683,6.404,0,0-16.736-43.787-17.675-51.135-.93-7.348,25.844-25.135,25.844-25.135l9.342,.488,29.759,1.533,5.746,.297Z"/></g><path class="cls-17" d="M343.846,566.262c4.912,.997,10.177,1.754,11.551,.839,0,0-8.785,9.769-15.511,7.801"/><path class="cls-17" d="M335.706,564.403l-.009-.011c-.796-.199-1.267-.32-1.267-.32"/><path class="cls-17" d="M386.745,559.076c2.393-.275,4.715-.555,4.715-.555"/><path class="cls-17" d="M392.346,548.299s-1.301,2.045-3.039,4.384"/><polygon class="cls-21" points="381.218 569.006 380.6 576.149 379.947 575.922 372.796 577.943 372.326 573.285 372.293 573.081 372.419 573.022 381.218 569.006"/><polygon class="cls-49" points="376.203 576.858 376.018 576.792 376.185 576.716 376.203 576.858"/><polygon class="cls-49" points="376.269 576.673 376.185 576.716 376.182 576.645 376.269 576.673"/><path class="cls-17" d="M324.609,593.482s-11.554-3.495-12.622-2.088"/><path class="cls-17" d="M331.217,600.928s-2.915-.568-6.245,2.928"/><path class="cls-17" d="M397.924,568.823s14.149-3.636,16.274-2.268"/><path class="cls-17" d="M403.243,574.331s7.297,2.813,7.994,4.119"/><path class="cls-17" d="M317.295,582.807s-9.527-7.841-17.793-7.13"/></g><g><polygon class="cls-40" points="332.136 618.093 331.714 622.975 331.266 622.816 326.388 624.2 326.061 621.02 326.043 620.878 326.127 620.835 332.136 618.093"/><polygon class="cls-40" points="326.061 621.02 325.876 620.954 326.043 620.878 326.061 621.02"/><polygon class="cls-40" points="326.127 620.835 326.043 620.878 326.039 620.808 326.127 620.835"/><path class="cls-29" d="M370.231,596.26c-41.363,18.08-66.995,.172-79.594-16.607,38.223-2.091,67.159-24.328,74.522-47.349,11.402,5.454,22.613,7.087,29.903,7.517-1.106,9.53-4.47,16.044-4.47,16.044,0,0,35.223,16.098-20.36,40.394Z"/><path class="cls-36" d="M395.061,539.821c-7.29-.43-18.501-2.063-29.903-7.517,.895-2.803,1.48-5.623,1.712-8.414,1.203-14.239-6.245-30.583-20.13-43.759,3.525,.907,7.155,2.216,10.888,3.974,2.43,1.144,4.717,2.326,6.859,3.545,22.068,12.45,29.27,28.049,30.652,41.187,.413,3.93,.311,7.645-.078,10.984Z"/><path class="cls-38" d="M366.87,523.89c-2.167,25.729-33.361,53.412-76.233,55.762-4.339-5.766-7.144-11.399-8.514-15.392-5.374-15.612,5.616-14.66,5.616-14.66-18.45-15.529,9.363-82.299,59.002-69.47,13.885,13.177,21.333,29.52,20.13,43.759Z"/><path class="cls-18" d="M402.913,579.226s4.667,4.392,6.59,4.496"/><g><path class="cls-29" d="M378.119,452.859s-17.39-57.504-22.161-50.017c-4.771,7.487-21.256,66.414-21.256,66.414l62.038,43.308-12.412-67.698-6.209,7.994Z"/><path class="cls-36" d="M98.098,836.843s-19.466,24.646-19.636,30.464l-67.147,3.686-6.411-8.721s21.105-42.096,40.895-36.691c9.56,2.611,18.635,19.853,17.475,30.162-.894,7.948,6.799,7.297,6.799,7.297l28.026-26.198Z"/><path class="cls-20" d="M212.916,738.385l38.865,38.742s-58.761,80.08-48.179,85.654c10.582,5.575,50.825,16.629,70.228,6.08,0,0,8.68-4.414-21.596-26.328,0,0,45.177-50.974,70.932-59.226,0,0-18.318-55.86-19.629-84.944l-90.62,40.022Z"/><path class="cls-42" d="M217.115,654.527s-18.221-8.221-23.265-3.675S36.185,814.572,36.185,814.572l2.039,4.595s26.419-6.409,31.754,41.435c0,0,88.22-87.597,158.632-118.677l54.683-21.043-5.75-18.451-12.51-2.466c-9.646-1.902-18.279-7.228-24.305-14.997l-23.612-30.441Z"/><path class="cls-40" d="M385.647,698.41l19.866,15.05c-9.015-4.384-15.685-10.472-19.866-15.05Z"/><path class="cls-29" d="M449.786,679.171c-3.294,1.531-6.544,3.478-9.675,5.907-6.737,5.239-11.08,11.347-13.852,16.356,0,0-12.678-23.411-21.783-15.055-5.66,5.201-15.671,5.479-22.411,4.956,10.292-4.68,34.348-32.93,34.348-32.93,5.812-2.9,31.944-1.561,31.944-1.561,1.743,3.985,1.92,12.723,1.429,22.327Z"/><path class="cls-29" d="M424.882,653.455c.02-.232,15.037-37.183,15.037-37.183l14.99,9.15s-14.139,24.121-13.47,28.067l-16.557-.034Z"/><path class="cls-36" d="M471.529,673.927c-6.233,.344-13.123,1.564-19.937,4.437,.364-12.555,.342-23.318-1.449-23.724,0,0,.544-14.868,3.285-15.685,12.14-3.646,23.505-1.368,23.505-1.368l-4.906,22.471s-12.066-1.266-12.042-.029c.014,1.236-.959,12.474-.959,12.474,0,0,8.695-1.536,12.503,1.424Z"/><path class="cls-32" d="M301.063,621.769c-24.914,12.538-43.86,35.67-51.803,63.649-6.311-4.431-48.837-55.359-48.837-55.359-.765-8.327,29.091-41.997,29.091-41.997l-2.833-9.711c3.136-10.368,45.556-38.564,45.556-38.564l6.531,10.121c-6.955,27.693,12.944,38.771,13.313,38.682,.388,.034,4.348,30.469,4.348,30.469l4.634,2.71Z"/><path class="cls-29" d="M406.795,722.544c-14.084-.677-27.98-2.252-41.325-4.391-9.002-17.411-25.108-30.56-44.587-35.588-19.077-4.914-39.071-1.445-55.206,8.932-.505-.194-1.002-.368-1.488-.551-8.434-3.099-13.537-5.147-14.324-5.215-.129-.011-.331-.119-.605-.313,7.943-27.979,26.889-51.111,51.803-63.649l55.764,32.621,11.693,6.844,44.526-.923c-7.187,9.395-35.377,32.409-35.377,32.409,21.712,19.806,29.126,29.823,29.126,29.823Z"/><path class="cls-32" d="M310.972,603.536l.383,20.851-13.263-7.261-3.703-24.481c5.461,4.749,11.025,8.302,16.582,10.891Z"/><path class="cls-24" d="M388.283,592.142l-7.795,39.495-1.989,1.404-9.14-30.422c11.55-4.832,18.924-10.477,18.924-10.477Z"/><path class="cls-32" d="M378.499,633.04l-22.408,15.816-32.161-17.6,1.986-22.944c16.506,3.075,32.018-.912,43.443-5.694l9.14,30.422Z"/><path class="cls-29" d="M433.656,399.286c4.214,4.551,9.552,7.924,15.507,9.975l-12.964,37.522c-23.934-1.922-29.683,6.404-29.683,6.404,0,0-16.736-43.787-17.675-51.135-.93-7.348,25.844-25.135,25.844-25.135l9.343,.488c.816,7.047,3.351,15.095,9.628,21.882Z"/><polygon class="cls-29" points="459.533 379.234 458.556 382.05 453.787 378.937 459.533 379.234"/><path class="cls-29" d="M465.732,370.266l-8.55,27.095s4.772-.556,18.26,1.753c0,0,3.134-11.913,9.799-24.631,0,0,2.789-6.916-19.509-4.217Z"/><path class="cls-29" d="M474.048,410.522c-1.365,8.815-5.627,22.107-6.698,22.185-1.444,.096-21.294-2.727-21.294-2.727l6.286-19.741c6.832,1.776,14.298,1.92,21.706,.283Z"/><path class="cls-29" d="M445.133,432.419s20.975,2.281,21.071,4.148-5.533,17.388-5.392,18.743c0,0-14.922-.621-20.535-7.355l4.857-15.536Z"/><path class="cls-36" d="M445.29,470.936l-7.141,1.575-7.694,3.614c-10.01-3.047-18.652-23.056-18.652-23.056,3.403-2.566,14.608-1.445,14.608-1.445l6.803,12.095,4.891-1.975,7.184,9.191Z"/><path class="cls-29" d="M408.664,374.828s-40.384,16.789-46.756,18.028c-6.372,1.238-21.51,50.26,15.664,60.274l21.419-10.599-13.412-37.419c-1.74-4.853-.3-10.277,3.618-13.628l19.468-16.655Z"/><path class="cls-28" d="M377.248,591.586c-16.114,7.04-29.204,7.171-39.531,3.896-4.049-17.052,14.343-52.247,51.595-38.558-.499,1.257,.221,3.107,.221,3.107,0,0,31.605,12.363-12.285,31.555Z"/><path class="cls-22" d="M311.845,498.646c1.634-1.804,.335-4.697-2.099-4.701-13.665-.027-44.1,.233-42.831,3.09,1.17,2.635,12.403,25.597,18.688,38.423,1.186,2.42,4.725,1.948,5.295-.687,2.789-12.905,10.659-24.764,20.948-36.125Z"/><path class="cls-28" d="M304.099,503.556c.988-1.091,.203-2.841-1.269-2.844-8.265-.016-26.675,.141-25.907,1.869,.708,1.594,7.502,15.483,11.304,23.241,.717,1.464,2.858,1.178,3.203-.415,1.687-7.806,6.447-14.979,12.671-21.851Z"/><path class="cls-30" d="M368.08,527.147s-49.57-53.011-95.211-68.078c0,0,3.353-11.417,45.412,1.33,0,0,8.381,4.273-13.137-18.993,0,0,40.223,17.554,44.271,33.632,0,0,11.85-9.853,5.265-15.745,0,0,16.113,9.2,6.583,40.066,0,0,5.658-16.184,19.797-19.69-19.52,46.931,14.88,51.05-12.979,47.478Z"/><path class="cls-45" d="M325.916,608.312l-1.986,22.944-12.574-6.87-.383-20.851c5.018,2.331,10.023,3.879,14.944,4.777Z"/><polygon class="cls-27" points="311.355 624.386 323.93 631.257 323.61 634.953 311.419 627.825 311.355 624.386"/><path class="cls-36" d="M365.469,718.153c-42.652-6.804-79.72-19.328-99.793-26.657,16.135-10.377,36.129-13.845,55.206-8.932,19.479,5.029,35.585,18.177,44.587,35.588Z"/><path class="cls-38" d="M458.556,382.05l-9.392,27.211c-5.955-2.051-11.294-5.424-15.507-9.975-6.278-6.787-8.813-14.835-9.628-21.882l29.759,1.533,4.769,3.113Z"/><path class="cls-38" d="M474.048,410.522c-7.409,1.637-14.874,1.493-21.706-.283l3.295-10.344s17.474,1.061,18.531,3.803c.484,1.246,.356,3.765-.119,6.825Z"/></g><path class="cls-19" d="M336.999,564.299s18.22,4.857,20.968,3.023c0,0-8.785,9.768-15.519,7.804"/><path class="cls-19" d="M394.913,548.519s-6.741,10.583-10.091,11.156c-3.351,.573,9.206-.93,9.206-.93"/><polygon class="cls-21" points="383.786 569.225 383.167 576.375 382.511 576.142 375.367 578.169 374.889 573.512 374.862 573.304 374.985 573.241 383.786 569.225"/><polygon class="cls-49" points="378.771 577.08 378.585 577.014 378.753 576.938 378.771 577.08"/><polygon class="cls-49" points="378.837 576.895 378.753 576.938 378.749 576.868 378.837 576.895"/><path class="cls-18" d="M327.176,593.704s-11.554-3.495-12.622-2.088"/><path class="cls-18" d="M333.784,601.15s-2.915-.568-6.245,2.928"/><path class="cls-18" d="M400.492,569.045s14.149-3.636,16.274-2.268"/><path class="cls-18" d="M405.81,574.553s7.297,2.813,7.994,4.119"/><path class="cls-18" d="M319.862,583.029s-9.527-7.841-17.793-7.13"/><path class="cls-38" d="M445.779,716.996c-16.375,4.334-29.874,1.529-40.265-3.536l-19.866-15.05c-3.427-3.77-5.177-6.521-5.177-6.521,.481-.109,1.019-.293,1.594-.555,6.74,.523,16.751,.246,22.411-4.956,9.104-8.356,21.783,15.055,21.783,15.055,2.772-5.01,7.115-11.118,13.852-16.356,3.131-2.429,6.381-4.376,9.675-5.907-.899,17.458-4.007,37.825-4.007,37.825Z"/><path class="cls-38" d="M470.024,720.641s-12.918,4.754-18.539-2.548c-1.579-2.054-.375-22.566,.107-39.729,6.813-2.873,13.704-4.094,19.937-4.437h.01c.885,.68,1.497,1.606,1.691,2.847,1.014,6.602-1.697,16.244-1.697,16.244l-6.953-.04c-1.995-.022-3.662,1.489-3.863,3.47l-.009,.109c-.329,3.806,2.416,7.215,6.218,7.705l6.125,.781s2.925,11.314-3.026,15.597Z"/></g></g><g><g><g><g><polygon class="cls-1" points="1802.171 466.356 1765.481 480.466 1735.921 466.496 1756.441 452.616 1802.171 466.356"/><path class="cls-1" d="M1911.451,718.906l-.43-.81c.02,.03,.04,.06,.06,.08,.22,.32,.34,.56,.37,.73Z"/><polygon class="cls-1" points="1790.608 402.701 1769.443 364.911 1789.812 353.714 1799.598 375.345 1803.353 374.199 1796.298 353.714 1815.073 346.97 1818.715 367.837 1821.559 367.074 1821.559 345.189 1835.1 344.171 1833.507 361.857 1832.028 366.82 1811.971 378.776 1815.744 383.302 1817.94 381.845 1815.333 378.163 1832.484 368.727 1836.051 373.867 1790.608 402.701"/><path class="cls-1" d="M2024.931,268.186s-15.19-4.53-20.92-11.33c0,0,27.8-3.27,30.86-11.57,0,0,7.43,5.82-9.94,22.9Z"/><path class="cls-1" d="M2093.331,250.656c-1.37,6.49-6.69,19.98-13.58,35.84-2.23-8.5-4.93-16.3-8.32-23.01-7.25-14.32-17.73-23.71-33.8-24.57,0,0-2.35-4.65-3.31-10.26,6.65-1.77,15.8-2.76,22.56,2.17,11.9,8.68,8.43,5.21,8.43,5.21,0,0,32.73-7.69,28.02,14.62Z"/><path class="cls-1" d="M1969.294,276.866l35.7,20.06c-14.79,1-9.96,14.45-9.96,14.45-7.08-.8-15.85-.96-24.02-5.67l3.2-14.9c.65-3.48-1.49-8.62-4.92-13.94Z"/><path class="cls-1" d="M2015.744,285.386c-4.11-4.44-8.98-8.88-14.73-12.99-20.44-14.6-41.98-17.89-56.28-18.18-.14-7.15,29.75-15.45,49.53-3.37,0,0-1.94,8.06,20.22,26.59-.68,.13,.7,3.82,1.26,7.95Z"/><path class="cls-1" d="M2096.191,240.716s26.01,47.93,22.9,64.77c0,0-17.39-23.22-25.3-14.72-7.69,8.27-4.82,46.96-4.65,49.14-2.59-18.63-5.16-37.29-9.39-53.41-2.23-8.5-4.93-16.3-8.32-23.01-7.25-14.32-17.73-23.71-33.8-24.57,0,0-2.35-4.65-3.31-10.26-.84-4.96-.61-10.68,3.31-14.6,8.34-8.34,34.35-23.56,34.35-23.56,0,0-16.52,23.23-5.56,26.83,10.96,3.6,54.14-.51,55.78,9.88l-26.01,13.51Z"/></g><path class="cls-1" d="M1979.951,405.066l-29.12,10.61-33.12,12.06-52.17,19-42.78,15.59h-.01l-4.53-2.14-16.05,6.17-36.69,14.11-29.56-13.97-20.77-9.81,4.03-21.21,12.88,4.16h.01l2.08-3.51-10.02-4.56,1.95-15.61,13.4,5.46,6.7-1.15c.23-.03,.41-.13,.54-.28,.09-.1,.17-.23,.22-.39,.98-2.95-4.87-14.45-4.87-14.45,14.33-1.04,23.53,1.75,23.53,1.75h.01c.45,.82,.93,1.6,1.44,2.35,.17,.25,.34,.49,.52,.73,1.15,1.6,2.41,3.01,3.61,4.21,3.21,3.22,6.09,4.96,6.09,4.96,0,0,.02-.01,.07-.04,.04-.02,.09-.06,.17-.1,.01-.02,.03-.03,.04-.03,.15-.1,.37-.23,.64-.4,.17-.11,.36-.23,.58-.36,.24-.15,.51-.31,.8-.49,.06-.04,.11-.08,.17-.11,.2-.13,.41-.26,.63-.39,.4-.25,.83-.52,1.3-.8,.47-.3,.97-.61,1.51-.93,.36-.22,.73-.45,1.11-.68,.58-.36,1.19-.73,1.83-1.12,.39-.24,.8-.49,1.22-.75,1.61-.98,3.37-2.05,5.28-3.19,.45-.27,.91-.55,1.37-.83,.41-.25,.82-.49,1.24-.75,.79-.47,1.59-.95,2.42-1.45,.08-.05,.16-.09,.24-.14,1.29-.76,2.61-1.55,3.98-2.37,.17-.1,.33-.2,.5-.29,.77-.46,1.56-.92,2.36-1.4,1.52-.89,3.07-1.81,4.66-2.73,.69-.41,1.39-.82,2.1-1.23,.35-.21,.71-.42,1.07-.62,.71-.42,1.43-.83,2.15-1.25,1.45-.84,2.92-1.69,4.41-2.54,.69-.4,1.38-.79,2.08-1.19,11.3-6.45,23.51-13.17,34.97-18.98,5.68-2.88,11.18-5.54,16.3-7.83,.72-.33,1.44-.64,2.15-.95,1.16-.51,2.3-1,3.41-1.46,.52-.22,1.03-.43,1.54-.63,.79-.33,1.57-.64,2.33-.93,.45-.17,.9-.35,1.34-.51,1.11-.42,2.19-.81,3.22-1.16,.35-.12,.7-.24,1.04-.34,.82-.28,1.61-.53,2.37-.75,0,0,.52-.36,1.48-1.01,.14-.09,.29-.19,.45-.3,.59-.4,1.3-.88,2.13-1.43,.26-.17,.53-.35,.82-.55,.35-.23,.71-.47,1.09-.72,.29-.19,.59-.39,.9-.59,.95-.62,1.99-1.3,3.09-2.01,.45-.28,.92-.58,1.39-.89,.55-.35,1.11-.71,1.68-1.07,3-1.91,6.37-4.01,9.94-6.15,.97-.59,1.96-1.18,2.96-1.77,.49-.29,1-.59,1.5-.88,1.83-1.07,3.7-2.14,5.58-3.19,.71-.4,1.41-.79,2.11-1.17,.68-.37,1.36-.74,2.04-1.11,.86-.46,1.71-.91,2.55-1.35,.85-.45,1.69-.89,2.53-1.31,.7-.36,1.39-.7,2.08-1.04,2.8-1.38,5.54-2.65,8.16-3.74,.43-.18,.87-.36,1.3-.53,.98-.4,1.94-.77,2.87-1.1,.49-.18,.97-.35,1.45-.51,.479-.16,.94-.31,1.41-.46,.27-.08,.52-.16,.78-.24,.36-.11,.71-.21,1.06-.3,.27-.08,.54-.15,.81-.21,.72-.18,1.42-.34,2.09-.46,.15-.03,.31-.06,.46-.08,.86-.15,1.67-.25,2.43-.29,.3-.02,.59-.03,.87-.03,.5,0,1.01,0,1.51,.01,.5,0,1,.01,1.5,.02,.41,.01,.83,.02,1.24,.04,.51,.02,1.01,.04,1.51,.07,.49,.03,.98,.07,1.47,.11,1.11,.09,2.19,.22,3.26,.38,.53,.08,1.06,.17,1.58,.27,.521,.1,1.04,.21,1.55,.33,.56,.13,1.12,.28,1.67,.45,.32,.09,.64,.19,.96,.3,.22,.08,.43,.15,.64,.23,.16,.06,.32,.12,.48,.18,.15,.06,.29,.12,.44,.18,.32,.13,.63,.27,.94,.41,.35,.16,.71,.34,1.05,.52,.43,.23,.86,.48,1.27,.74,.28,.18,.561,.36,.83,.55,.27,.19,.53,.39,.8,.59,.26,.2,.52,.42,.77,.64s.5,.45,.74,.68c.49,.47,.95,.98,1.4,1.51,.3,.36,.58,.73,.86,1.12,.05,.08,.11,.16,.16,.25,.18,.26,.35,.52,.52,.79,.16,.27,.33,.54,.49,.82,.39,.7,.76,1.45,1.1,2.24,.19,.45,.37,.91,.55,1.38,.08,.22,.16,.44,.23,.67,.09,.24,.17,.49,.25,.75,.06,.18,.11,.36,.16,.54,.34,1.17,.63,2.41,.86,3.75,.07,.37,.13,.74,.18,1.12,.06,.38,.11,.77,.16,1.16,.04,.29,.07,.58,.1,.88,.05,.51,.1,1.03,.14,1.56,.06,.74,.1,1.5,.13,2.29,.42,11.83-2.29,28.68-9.43,52.6Z"/><path class="cls-1" d="M1917.711,427.736l-52.17,19-36.49,13.29-6.29,2.3h-.01l-4.53-2.14-16.05,6.17-36.69,14.11-29.56-13.97-20.77-9.81,4.03-21.21,12.88,4.16,2.09-3.51-10.02-4.56,1.95-15.61,13.4,5.46,6.7-1.15c.23-.03,.41-.13,.54-.28,.09-.1,.17-.23,.22-.39,.98-2.95-4.87-14.45-4.87-14.45,14.33-1.04,23.53,1.75,23.53,1.75,.45,.82,.93,1.6,1.45,2.35,.17,.25,.34,.49,.52,.73,1.15,1.6,2.41,3.01,3.61,4.21,3.21,3.22,6.09,4.96,6.09,4.96,0,0,.02-.01,.07-.04,.04-.02,.09-.06,.17-.1,.01-.02,.03-.03,.04-.03,.15-.1,.37-.23,.64-.4,.17-.11,.36-.23,.58-.36,.24-.15,.51-.32,.8-.49,.06-.04,.11-.08,.17-.11,.2-.13,.41-.26,.63-.39,.4-.25,.83-.52,1.3-.8,.47-.3,.97-.61,1.51-.93,.36-.22,.73-.45,1.11-.68,.58-.36,1.19-.73,1.83-1.12,.39-.24,.8-.49,1.22-.75,1.61-.98,3.37-2.05,5.28-3.19,.45-.27,.91-.55,1.37-.83,.41-.25,.82-.49,1.24-.75,.79-.47,1.59-.95,2.42-1.45,.08-.05,.16-.09,.24-.14,1.29-.77,2.62-1.56,3.98-2.37,.17-.1,.33-.2,.5-.29,.78-.46,1.56-.93,2.36-1.4,1.52-.89,3.07-1.81,4.66-2.73,.69-.41,1.39-.82,2.1-1.23,.35-.21,.71-.42,1.07-.62,.71-.42,1.43-.83,2.15-1.25,1.45-.84,2.92-1.69,4.41-2.54,.69-.4,1.38-.79,2.08-1.19,11.3-6.45,23.51-13.17,34.97-18.98,5.68-2.88,11.18-5.54,16.3-7.83,.72-.33,1.44-.64,2.15-.95,1.16-.51,2.3-1,3.41-1.46,.52-.22,1.03-.43,1.54-.63,.79-.33,1.57-.64,2.33-.93,.45-.17,.9-.35,1.34-.51,1.11-.42,2.19-.81,3.22-1.16,.35-.12,.7-.24,1.04-.34,.82-.28,1.61-.53,2.37-.75,0,0,.52-.36,1.48-1.01,.14-.09,.29-.19,.45-.3,.59-.4,1.3-.88,2.13-1.43,.26-.17,.53-.35,.82-.55,.34-.22,.71-.46,1.09-.72,.29-.19,.59-.39,.9-.59,17.47,22.35,24.32,49.3,20.97,72.91Z"/><path class="cls-1" d="M1979.954,405.066l-29.12,10.61c-.07-25.31-11.09-52.77-33.53-73.62,14.67-8.57,31.52-17.09,40.58-17.12,23.9-.08,44.1,6.36,22.07,80.13Z"/><path class="cls-1" d="M2024.931,268.186s-15.19-4.53-20.92-11.33c0,0,27.8-3.27,30.86-11.57,0,0,7.43,5.82-9.94,22.9Z"/><path class="cls-1" d="M2054.724,260.935s5.349,10.912-4.065,11.019"/><path class="cls-1" d="M2071.659,263.403s-13.705,4.307-3.602,8.536"/><path class="cls-1" d="M2048.629,283.682s12.472-17.057,17.607,0"/><circle class="cls-1" cx="2012.413" cy="259.844" r="1.246"/><path class="cls-1" d="M1917.713,427.736c3.35-23.61-3.5-50.56-20.97-72.91,5.08-3.33,12.49-8.06,20.56-12.77,22.44,20.85,33.46,48.31,33.53,73.62l-33.12,12.06Z"/></g><polygon class="cls-1" points="1926.831 563.426 1922.081 571.716 1922.071 571.706 1926.831 563.426"/><path class="cls-1" d="M1911.451,718.906l-.43-.81c.02,.03,.04,.06,.06,.08,.22,.32,.34,.56,.37,.73Z"/><g><g><polygon class="cls-1" points="1802.171 466.356 1765.481 480.466 1735.921 466.496 1756.441 452.616 1802.171 466.356"/><path class="cls-1" d="M2028.141,415.936c-9.3,63.59-96.52,139.17-96.52,139.17l-4.79,8.32-4.76,8.28-55.25,96.02s27.68,27.51,44.2,50.37l.43,.81c-.03-.17-.15-.41-.37-.73,.63,.78,5.71,7.17,8.02,12.48,.01,.01,.01,.02,.01,.03,3.07,5.68,4.59,10.48,3.67,13.61-4.8,16.18-54.85,48.57-54.85,48.57l8.04-22.01,.43-1.17-25.03-4.42-7.99-12-71.13-106.8,65.19-99.13-64.2-20.67s-2.83,.88-7.49,2.42c-11.7,3.87-34.94,11.91-53.73,20.62-11.45,5.31-21.25,10.87-25.79,15.88-14.95,16.51-34.8-84.33-34.8-84.33-.47-1.14,.72-2.26,1.83-1.73l32.97,15.73,11.06-6.35,15.01-8.63,21.58-12.4,2.04-1.38,29.56,13.97,36.69-14.11,49.4,14.85,18.91-32.3s73.18-26.21,112.21-38.6c19.49-6.2,10.19-77.6,10.19-77.6,0,0,44.57,19.62,35.26,83.23Z"/><path class="cls-1" d="M1911.451,718.906l-.43-.81c.02,.03,.04,.06,.06,.08,.22,.32,.34,.56,.37,.73Z"/><polygon class="cls-1" points="1790.608 402.701 1769.443 364.911 1789.812 353.714 1799.598 375.345 1803.353 374.199 1796.298 353.714 1815.073 346.97 1818.715 367.837 1821.559 367.074 1821.559 345.189 1835.1 344.171 1833.507 361.857 1832.028 366.82 1811.971 378.776 1815.744 383.302 1817.94 381.845 1815.333 378.163 1832.484 368.727 1836.051 373.867 1790.608 402.701"/><path class="cls-1" d="M2071.431,263.486c-7.25-14.32-17.73-23.71-33.8-24.57,0,0-2.35-4.65-3.31-10.26-5.07,1.35-8.68,3.16-8.68,3.16,0,0-12.89-6.45-10.16,0,2.73,6.45-11.65,14.13-17.6,18.84-5.95,4.71,7.44,14.17,16.61,24.33,9.17,10.17,1.24,29.26-8.68,25.04-9.92-4.21-9.17,13.64-9.17,13.64l-7.19,.74-19.729-7.74-7.55,9.45c62.42-5.78,72.71,62.2,73.87,61.97,.83-.16,26.92-52.94,43.71-91.59-2.23-8.5-4.93-16.3-8.32-23.01Zm-46.5,4.7s-15.19-4.53-20.92-11.33c0,0,27.8-3.27,30.86-11.57,0,0,7.43,5.82-9.94,22.9Z"/><path class="cls-1" d="M2093.331,250.656c-1.37,6.49-6.69,19.98-13.58,35.84-2.23-8.5-4.93-16.3-8.32-23.01-7.25-14.32-17.73-23.71-33.8-24.57,0,0-2.35-4.65-3.31-10.26,6.65-1.77,15.8-2.76,22.56,2.17,11.9,8.68,8.43,5.21,8.43,5.21,0,0,32.73-7.69,28.02,14.62Z"/><path class="cls-1" d="M1969.294,276.866l35.7,20.06c-14.79,1-9.96,14.45-9.96,14.45-7.08-.8-15.85-.96-24.02-5.67l3.2-14.9c.65-3.48-1.49-8.62-4.92-13.94Z"/><path class="cls-1" d="M2015.744,285.386c-4.11-4.44-8.98-8.88-14.73-12.99-20.44-14.6-41.98-17.89-56.28-18.18-.14-7.15,29.75-15.45,49.53-3.37,0,0-1.94,8.06,20.22,26.59-.68,.13,.7,3.82,1.26,7.95Z"/><path class="cls-1" d="M2096.191,240.716s26.01,47.93,22.9,64.77c0,0-17.39-23.22-25.3-14.72-7.69,8.27-4.82,46.96-4.65,49.14-2.59-18.63-5.16-37.29-9.39-53.41-2.23-8.5-4.93-16.3-8.32-23.01-7.25-14.32-17.73-23.71-33.8-24.57,0,0-2.35-4.65-3.31-10.26-.84-4.96-.61-10.68,3.31-14.6,8.34-8.34,34.35-23.56,34.35-23.56,0,0-16.52,23.23-5.56,26.83,10.96,3.6,54.14-.51,55.78,9.88l-26.01,13.51Z"/></g><path class="cls-1" d="M1979.951,405.066l-29.12,10.61-33.12,12.06-52.17,19-42.78,15.59h-.01l-4.53-2.14-16.05,6.17-36.69,14.11-29.56-13.97-20.77-9.81,4.03-21.21,12.88,4.16h.01l2.08-3.51-10.02-4.56,1.95-15.61,13.4,5.46,6.7-1.15c.23-.03,.41-.13,.54-.28,.09-.1,.17-.23,.22-.39,.98-2.95-4.87-14.45-4.87-14.45,14.33-1.04,23.53,1.75,23.53,1.75h.01c.45,.82,.93,1.6,1.44,2.35,.17,.25,.34,.49,.52,.73,1.15,1.6,2.41,3.01,3.61,4.21,3.21,3.22,6.09,4.96,6.09,4.96,0,0,.02-.01,.07-.04,.04-.02,.09-.06,.17-.1,.01-.02,.03-.03,.04-.03,.15-.1,.37-.23,.64-.4,.17-.11,.36-.23,.58-.36,.24-.15,.51-.31,.8-.49,.06-.04,.11-.08,.17-.11,.2-.13,.41-.26,.63-.39,.4-.25,.83-.52,1.3-.8,.47-.3,.97-.61,1.51-.93,.36-.22,.73-.45,1.11-.68,.58-.36,1.19-.73,1.83-1.12,.39-.24,.8-.49,1.22-.75,1.61-.98,3.37-2.05,5.28-3.19,.45-.27,.91-.55,1.37-.83,.41-.25,.82-.49,1.24-.75,.79-.47,1.59-.95,2.42-1.45,.08-.05,.16-.09,.24-.14,1.29-.76,2.61-1.55,3.98-2.37,.17-.1,.33-.2,.5-.29,.77-.46,1.56-.92,2.36-1.4,1.52-.89,3.07-1.81,4.66-2.73,.69-.41,1.39-.82,2.1-1.23,.35-.21,.71-.42,1.07-.62,.71-.42,1.43-.83,2.15-1.25,1.45-.84,2.92-1.69,4.41-2.54,.69-.4,1.38-.79,2.08-1.19,11.3-6.45,23.51-13.17,34.97-18.98,5.68-2.88,11.18-5.54,16.3-7.83,.72-.33,1.44-.64,2.15-.95,1.16-.51,2.3-1,3.41-1.46,.52-.22,1.03-.43,1.54-.63,.79-.33,1.57-.64,2.33-.93,.45-.17,.9-.35,1.34-.51,1.11-.42,2.19-.81,3.22-1.16,.35-.12,.7-.24,1.04-.34,.82-.28,1.61-.53,2.37-.75,0,0,.52-.36,1.48-1.01,.14-.09,.29-.19,.45-.3,.59-.4,1.3-.88,2.13-1.43,.26-.17,.53-.35,.82-.55,.35-.23,.71-.47,1.09-.72,.29-.19,.59-.39,.9-.59,.95-.62,1.99-1.3,3.09-2.01,.45-.28,.92-.58,1.39-.89,.55-.35,1.11-.71,1.68-1.07,3-1.91,6.37-4.01,9.94-6.15,.97-.59,1.96-1.18,2.96-1.77,.49-.29,1-.59,1.5-.88,1.83-1.07,3.7-2.14,5.58-3.19,.71-.4,1.41-.79,2.11-1.17,.68-.37,1.36-.74,2.04-1.11,.86-.46,1.71-.91,2.55-1.35,.85-.45,1.69-.89,2.53-1.31,.7-.36,1.39-.7,2.08-1.04,2.8-1.38,5.54-2.65,8.16-3.74,.43-.18,.87-.36,1.3-.53,.98-.4,1.94-.77,2.87-1.1,.49-.18,.97-.35,1.45-.51,.479-.16,.94-.31,1.41-.46,.27-.08,.52-.16,.78-.24,.36-.11,.71-.21,1.06-.3,.27-.08,.54-.15,.81-.21,.72-.18,1.42-.34,2.09-.46,.15-.03,.31-.06,.46-.08,.86-.15,1.67-.25,2.43-.29,.3-.02,.59-.03,.87-.03,.5,0,1.01,0,1.51,.01,.5,0,1,.01,1.5,.02,.41,.01,.83,.02,1.24,.04,.51,.02,1.01,.04,1.51,.07,.49,.03,.98,.07,1.47,.11,1.11,.09,2.19,.22,3.26,.38,.53,.08,1.06,.17,1.58,.27,.521,.1,1.04,.21,1.55,.33,.56,.13,1.12,.28,1.67,.45,.32,.09,.64,.19,.96,.3,.22,.08,.43,.15,.64,.23,.16,.06,.32,.12,.48,.18,.15,.06,.29,.12,.44,.18,.32,.13,.63,.27,.94,.41,.35,.16,.71,.34,1.05,.52,.43,.23,.86,.48,1.27,.74,.28,.18,.561,.36,.83,.55,.27,.19,.53,.39,.8,.59,.26,.2,.52,.42,.77,.64s.5,.45,.74,.68c.49,.47,.95,.98,1.4,1.51,.3,.36,.58,.73,.86,1.12,.05,.08,.11,.16,.16,.25,.18,.26,.35,.52,.52,.79,.16,.27,.33,.54,.49,.82,.39,.7,.76,1.45,1.1,2.24,.19,.45,.37,.91,.55,1.38,.08,.22,.16,.44,.23,.67,.09,.24,.17,.49,.25,.75,.06,.18,.11,.36,.16,.54,.34,1.17,.63,2.41,.86,3.75,.07,.37,.13,.74,.18,1.12,.06,.38,.11,.77,.16,1.16,.04,.29,.07,.58,.1,.88,.05,.51,.1,1.03,.14,1.56,.06,.74,.1,1.5,.13,2.29,.42,11.83-2.29,28.68-9.43,52.6Z"/><path class="cls-1" d="M1917.711,427.736l-52.17,19-36.49,13.29-6.29,2.3h-.01l-4.53-2.14-16.05,6.17-36.69,14.11-29.56-13.97-20.77-9.81,4.03-21.21,12.88,4.16,2.09-3.51-10.02-4.56,1.95-15.61,13.4,5.46,6.7-1.15c.23-.03,.41-.13,.54-.28,.09-.1,.17-.23,.22-.39,.98-2.95-4.87-14.45-4.87-14.45,14.33-1.04,23.53,1.75,23.53,1.75,.45,.82,.93,1.6,1.45,2.35,.17,.25,.34,.49,.52,.73,1.15,1.6,2.41,3.01,3.61,4.21,3.21,3.22,6.09,4.96,6.09,4.96,0,0,.02-.01,.07-.04,.04-.02,.09-.06,.17-.1,.01-.02,.03-.03,.04-.03,.15-.1,.37-.23,.64-.4,.17-.11,.36-.23,.58-.36,.24-.15,.51-.32,.8-.49,.06-.04,.11-.08,.17-.11,.2-.13,.41-.26,.63-.39,.4-.25,.83-.52,1.3-.8,.47-.3,.97-.61,1.51-.93,.36-.22,.73-.45,1.11-.68,.58-.36,1.19-.73,1.83-1.12,.39-.24,.8-.49,1.22-.75,1.61-.98,3.37-2.05,5.28-3.19,.45-.27,.91-.55,1.37-.83,.41-.25,.82-.49,1.24-.75,.79-.47,1.59-.95,2.42-1.45,.08-.05,.16-.09,.24-.14,1.29-.77,2.62-1.56,3.98-2.37,.17-.1,.33-.2,.5-.29,.78-.46,1.56-.93,2.36-1.4,1.52-.89,3.07-1.81,4.66-2.73,.69-.41,1.39-.82,2.1-1.23,.35-.21,.71-.42,1.07-.62,.71-.42,1.43-.83,2.15-1.25,1.45-.84,2.92-1.69,4.41-2.54,.69-.4,1.38-.79,2.08-1.19,11.3-6.45,23.51-13.17,34.97-18.98,5.68-2.88,11.18-5.54,16.3-7.83,.72-.33,1.44-.64,2.15-.95,1.16-.51,2.3-1,3.41-1.46,.52-.22,1.03-.43,1.54-.63,.79-.33,1.57-.64,2.33-.93,.45-.17,.9-.35,1.34-.51,1.11-.42,2.19-.81,3.22-1.16,.35-.12,.7-.24,1.04-.34,.82-.28,1.61-.53,2.37-.75,0,0,.52-.36,1.48-1.01,.14-.09,.29-.19,.45-.3,.59-.4,1.3-.88,2.13-1.43,.26-.17,.53-.35,.82-.55,.34-.22,.71-.46,1.09-.72,.29-.19,.59-.39,.9-.59,17.47,22.35,24.32,49.3,20.97,72.91Z"/><path class="cls-1" d="M1979.954,405.066l-29.12,10.61c-.07-25.31-11.09-52.77-33.53-73.62,14.67-8.57,31.52-17.09,40.58-17.12,23.9-.08,44.1,6.36,22.07,80.13Z"/><path class="cls-1" d="M2024.931,268.186s-15.19-4.53-20.92-11.33c0,0,27.8-3.27,30.86-11.57,0,0,7.43,5.82-9.94,22.9Z"/><circle class="cls-1" cx="2012.413" cy="259.844" r="1.246"/><path class="cls-1" d="M1917.713,427.736c3.35-23.61-3.5-50.56-20.97-72.91,5.08-3.33,12.49-8.06,20.56-12.77,22.44,20.85,33.46,48.31,33.53,73.62l-33.12,12.06Z"/></g></g><g><g><g><path class="cls-48" d="M1711.028,547.523c-11.45,5.31-21.25,10.87-25.79,15.88-14.95,16.51-34.8-84.33-34.8-84.33-.47-1.14,.72-2.26,1.83-1.73l32.97,15.73,11.06-6.35c-1.42,24.46,4.69,45.7,14.73,60.8Z"/><path class="cls-31" d="M1877.168,487.013l-15.37,24.89-1.96,3.2-3.2,5.24-15.99,26.16-4.2-1.35-64.2-20.67s-2.83,.88-7.49,2.42c-11.7,3.87-34.94,11.91-53.73,20.62-10.04-15.1-16.15-36.34-14.73-60.8l15.01-8.63,21.58-12.4,22.561-15.26,95.13,28.59,26.59,7.99Z"/><path class="cls-48" d="M1921.788,742.113c-4.8,16.18-54.85,48.57-54.85,48.57l8.04-22.01c18.61-11.34,32.58-26.52,42.17-39.4,.27-.37,.54-.73,.8-1.09,.05,.1,.11,.2,.16,.29,.01,.01,.01,.02,.01,.03,3.07,5.68,4.59,10.48,3.67,13.61Z"/><path class="cls-26" d="M1910.458,716.723c.42,1.99-11.65-5.87-17.67-3.96-9.6,13.11,1.33,44.25-17.81,55.91l.43-1.17-25.03-4.42-7.99-12-71.13-106.8,65.19-99.13,17.4-26.46h.01l2.78,1.65,69.2,40.9-60.01,104.3s27.68,27.51,44.2,50.37c.26,.36,.4,.63,.43,.81Z"/><path class="cls-43" d="M2027.143,413.752c-9.296,63.594-96.522,139.171-96.522,139.171l-4.783,8.319-63.505-46.284-7.032,.421-18.195-13.353,32.377-55.307s73.185-26.204,112.208-38.598c19.492-6.197,10.196-77.596,10.196-77.596,0,0,44.565,19.621,35.255,83.227Z"/><polygon class="cls-47" points="1789.612 400.517 1768.447 362.728 1788.816 351.531 1798.602 373.161 1802.357 372.016 1795.302 351.531 1814.077 344.787 1817.719 365.654 1820.563 364.891 1820.563 343.006 1834.104 341.988 1832.511 359.674 1831.032 364.636 1810.975 376.593 1814.748 381.119 1816.944 379.661 1814.337 375.979 1831.488 366.544 1835.055 371.683 1789.612 400.517"/><path class="cls-44" d="M1961.179,313.929l7.542-9.448,19.733,7.743,7.19-.744s-.744-17.851,9.173-13.636c9.917,4.215,17.851-14.876,8.677-25.041s-22.564-19.616-16.613-24.327c5.95-4.711,20.33-12.396,17.603-18.843-2.727-6.446,10.165,0,10.165,0,0,0,19.338-9.669,31.239-.992,11.901,8.677,8.43,5.206,8.43,5.206,0,0,32.727-7.686,28.016,14.628-4.711,22.314-56.116,127.193-57.284,127.427s-11.451-67.747-73.87-61.974Z"/><path class="cls-47" d="M1968.298,274.682l35.7,20.06c-14.79,1-9.96,14.45-9.96,14.45-7.08-.8-15.85-.96-24.02-5.67l3.2-14.9c.65-3.48-1.49-8.62-4.92-13.94Z"/><path class="cls-47" d="M2014.748,283.203c-4.11-4.44-8.98-8.88-14.73-12.99-20.44-14.6-41.98-17.89-56.28-18.18-.14-7.15,29.75-15.45,49.53-3.37,0,0-1.94,8.06,20.22,26.59-.68,.13,.7,3.82,1.26,7.95Z"/><path class="cls-46" d="M2036.634,236.733s-8.342-16.521,0-24.863c8.342-8.342,34.35-23.554,34.35-23.554,0,0-16.521,23.227-5.561,26.826,10.959,3.599,54.142-.514,55.778,9.884l-26.008,13.506s26.008,47.927,22.9,64.774c0,0-17.387-23.227-25.296-14.721-7.909,8.506-4.638,49.235-4.638,49.235-6.861-49.432-13.586-99.071-51.525-101.087Z"/></g><path class="cls-16" d="M1745.189,418.082c3.352-.447-4.116-15.122-4.116-15.122,14.334-1.032,23.538,1.751,23.538,1.751,4.28,7.781,11.672,12.255,11.672,12.255,0,0,80.023-50.148,112.593-59.728,0,0,49.789-34.43,68.015-34.486,23.9-.074,44.101,6.365,22.068,80.128l-157.199,57.268-4.534-2.148-52.743,20.286-50.328-23.784,4.034-21.211,12.883,4.164,2.082-3.513-10.02-4.554,1.952-15.615,13.403,5.465,6.7-1.154Z"/><path class="cls-41" d="M1895.748,352.643c17.47,22.35,24.32,49.3,20.97,72.91l-52.17,19-36.49,13.29-6.3,2.3-4.53-2.14-52.74,20.28-50.33-23.78,4.03-21.21,12.88,4.16,2.09-3.51-10.021-4.56,1.95-15.61,13.4,5.46,6.7-1.15c3.35-.45-4.11-15.12-4.11-15.12,14.33-1.04,23.53,1.75,23.53,1.75,4.28,7.78,11.67,12.25,11.67,12.25,0,0,43.09-27,78.9-45.16,12.99-6.59,25.03-12.01,33.7-14.56,0,0,1.49-1.03,4.06-2.74,.83-.55,1.77-1.18,2.81-1.86Z"/><path class="cls-41" d="M1978.958,402.883l-29.12,10.61c-.07-25.31-11.09-52.77-33.53-73.62,14.67-8.57,31.52-17.09,40.58-17.12,23.9-.08,44.1,6.36,22.07,80.13Z"/><path class="cls-8" d="M2003.013,254.669s27.797-3.268,30.859-11.567c0,0,7.431,5.819-9.935,22.9,0,0-15.192-4.528-20.924-11.333Z"/><path class="cls-7" d="M2053.728,258.752s5.349,10.912-4.065,11.019"/><path class="cls-7" d="M2070.663,261.219s-13.705,4.307-3.602,8.536"/><path class="cls-7" d="M2047.633,281.499s12.472-17.057,17.607,0"/><circle cx="2011.417" cy="257.661" r="1.246"/><path class="cls-43" d="M1916.717,425.553c3.35-23.61-3.5-50.56-20.97-72.91,5.08-3.33,12.49-8.06,20.56-12.77,22.44,20.85,33.46,48.31,33.53,73.62l-33.12,12.06Z"/></g><polygon class="cls-37" points="1850.652 523.354 1853.946 518.518 1925.837 561.241 1921.081 569.535 1889.482 548.56 1888.611 542.139 1850.652 523.354"/><path class="cls-50" d="M1918.108,728.473c-.05-.09-.11-.19-.16-.29-.26,.36-.53,.72-.8,1.09-9.59,12.88-23.56,28.06-42.17,39.4,19.14-11.66,8.21-42.8,17.81-55.91,6.02-1.91,18.09,5.95,17.67,3.96-.03-.18-.17-.45-.43-.81,0,0,5.62,6.9,8.08,12.56Z"/><path class="cls-26" d="M1910.028,715.912c.26,.36,.4,.63,.43,.81l-.43-.81Z"/><g><g><path class="cls-48" d="M1711.028,547.523c-11.45,5.31-21.25,10.87-25.79,15.88-14.95,16.51-34.8-84.33-34.8-84.33-.47-1.14,.72-2.26,1.83-1.73l32.97,15.73,11.06-6.35c-1.42,24.46,4.69,45.7,14.73,60.8Z"/><path class="cls-31" d="M1877.168,487.013l-15.37,24.89-1.96,3.2-3.2,5.24-15.99,26.16-4.2-1.35-64.2-20.67s-2.83,.88-7.49,2.42c-11.7,3.87-34.94,11.91-53.73,20.62-10.04-15.1-16.15-36.34-14.73-60.8l15.01-8.63,21.58-12.4,22.561-15.26,95.13,28.59,26.59,7.99Z"/><path class="cls-48" d="M1921.788,742.113c-4.8,16.18-54.85,48.57-54.85,48.57l8.04-22.01c18.61-11.34,32.58-26.52,42.17-39.4,.27-.37,.54-.73,.8-1.09,.05,.1,.11,.2,.16,.29,.01,.01,.01,.02,.01,.03,3.07,5.68,4.59,10.48,3.67,13.61Z"/><path class="cls-26" d="M1910.458,716.723c.42,1.99-11.65-5.87-17.67-3.96-9.6,13.11,1.33,44.25-17.81,55.91l.43-1.17-25.03-4.42-7.99-12-71.13-106.8,65.19-99.13,17.4-26.46h.01l2.78,1.65,69.2,40.9-60.01,104.3s27.68,27.51,44.2,50.37c.26,.36,.4,.63,.43,.81Z"/><path class="cls-43" d="M2027.143,413.752c-9.296,63.594-96.522,139.171-96.522,139.171l-4.783,8.319-63.505-46.284-7.032,.421-18.195-13.353,32.377-55.307s73.185-26.204,112.208-38.598c19.492-6.197,10.196-77.596,10.196-77.596,0,0,44.565,19.621,35.255,83.227Z"/><polygon class="cls-41" points="1789.612 400.517 1768.447 362.728 1788.816 351.531 1798.602 373.161 1802.357 372.016 1795.302 351.531 1814.077 344.787 1817.719 365.654 1820.563 364.891 1820.563 343.006 1834.104 341.988 1832.511 359.674 1831.032 364.636 1810.975 376.593 1814.748 381.119 1816.944 379.661 1814.337 375.979 1831.488 366.544 1835.055 371.683 1789.612 400.517"/><path class="cls-44" d="M1961.179,313.929l7.542-9.448,19.733,7.743,7.19-.744s-.744-17.851,9.173-13.636c9.917,4.215,17.851-14.876,8.677-25.041s-22.564-19.616-16.613-24.327c5.95-4.711,20.33-12.396,17.603-18.843-2.727-6.446,10.165,0,10.165,0,0,0,19.338-9.669,31.239-.992,11.901,8.677,8.43,5.206,8.43,5.206,0,0,32.727-7.686,28.016,14.628-4.711,22.314-56.116,127.193-57.284,127.427s-11.451-67.747-73.87-61.974Z"/><path class="cls-47" d="M1968.298,274.682l35.7,20.06c-14.79,1-9.96,14.45-9.96,14.45-7.08-.8-15.85-.96-24.02-5.67l3.2-14.9c.65-3.48-1.49-8.62-4.92-13.94Z"/><path class="cls-47" d="M2014.748,283.203c-4.11-4.44-8.98-8.88-14.73-12.99-20.44-14.6-41.98-17.89-56.28-18.18-.14-7.15,29.75-15.45,49.53-3.37,0,0-1.94,8.06,20.22,26.59-.68,.13,.7,3.82,1.26,7.95Z"/><path class="cls-46" d="M2036.634,236.733s-8.342-16.521,0-24.863c8.342-8.342,34.35-23.554,34.35-23.554,0,0-16.521,23.227-5.561,26.826,10.959,3.599,54.142-.514,55.778,9.884l-26.008,13.506s26.008,47.927,22.9,64.774c0,0-17.387-23.227-25.296-14.721-7.909,8.506-4.638,49.235-4.638,49.235-6.861-49.432-13.586-99.071-51.525-101.087Z"/></g><path class="cls-16" d="M1745.189,418.082c3.352-.447-4.116-15.122-4.116-15.122,14.334-1.032,23.538,1.751,23.538,1.751,4.28,7.781,11.672,12.255,11.672,12.255,0,0,80.023-50.148,112.593-59.728,0,0,49.789-34.43,68.015-34.486,23.9-.074,44.101,6.365,22.068,80.128l-157.199,57.268-4.534-2.148-52.743,20.286-50.328-23.784,4.034-21.211,12.883,4.164,2.082-3.513-10.02-4.554,1.952-15.615,13.403,5.465,6.7-1.154Z"/><path class="cls-41" d="M1895.748,352.643c17.47,22.35,24.32,49.3,20.97,72.91l-52.17,19-36.49,13.29-6.3,2.3-4.53-2.14-52.74,20.28-50.33-23.78,4.03-21.21,12.88,4.16,2.09-3.51-10.021-4.56,1.95-15.61,13.4,5.46,6.7-1.15c3.35-.45-4.11-15.12-4.11-15.12,14.33-1.04,23.53,1.75,23.53,1.75,4.28,7.78,11.67,12.25,11.67,12.25,0,0,43.09-27,78.9-45.16,12.99-6.59,25.03-12.01,33.7-14.56,0,0,1.49-1.03,4.06-2.74,.83-.55,1.77-1.18,2.81-1.86Z"/><path class="cls-41" d="M1978.958,402.883l-29.12,10.61c-.07-25.31-11.09-52.77-33.53-73.62,14.67-8.57,31.52-17.09,40.58-17.12,23.9-.08,44.1,6.36,22.07,80.13Z"/><path class="cls-8" d="M2003.013,254.669s27.797-3.268,30.859-11.567c0,0,7.431,5.819-9.935,22.9,0,0-15.192-4.528-20.924-11.333Z"/><path class="cls-7" d="M2053.728,258.752s5.349,10.912-4.065,11.019"/><path class="cls-7" d="M2070.663,261.219s-13.705,4.307-3.602,8.536"/><path class="cls-7" d="M2047.633,281.499s12.472-17.057,17.607,0"/><circle cx="2011.417" cy="257.661" r="1.246"/><path class="cls-43" d="M1916.717,425.553c3.35-23.61-3.5-50.56-20.97-72.91,5.08-3.33,12.49-8.06,20.56-12.77,22.44,20.85,33.46,48.31,33.53,73.62l-33.12,12.06Z"/></g></g></g></g></g></svg>