<?xml version="1.0" encoding="UTF-8"?><svg id="Layer_2" xmlns="http://www.w3.org/2000/svg" viewBox="0 0 311.2 371.353"><defs><style>.cls-1{fill:none;}.cls-1,.cls-2{stroke:#4f1b14;}.cls-1,.cls-2,.cls-3{stroke-miterlimit:10;}.cls-4{fill:#ff9e03;}.cls-5{fill:#fff;}.cls-2{fill:#0c64c5;stroke-width:2px;}.cls-6{fill:#ea7202;}.cls-7{fill:#dd9f14;}.cls-3{stroke:#000;}.cls-3,.cls-8{fill:#ff6700;}.cls-9{fill:#fdca01;}</style></defs><g id="Layer_2-2"><g><g><g><path class="cls-6" d="M310.7,215.753c0,23.12-5.06,45.05-14.13,64.76,10.79-32.6,8.84-61.66-6.29-78.9-1.39-1.58-2.92-3.1-4.58-4.56,7.32-10.02,11.64-22.37,11.64-35.73,0-3.65-.32-7.23-.94-10.71,9.18,19.8,14.3,41.87,14.3,65.14Z"/><path class="cls-4" d="M290.28,201.613c15.13,17.24,17.08,46.3,6.29,78.9-6.28,13.65-14.49,26.24-24.27,37.4-28.72,19.44-68.69,36.58-82.01,7.24-7.53-16.61-6.33-18.99-13.56-24.26-9.87-7.19-24.06-4.09-29.35,6.91-5.67,11.79-2.48,27.72,.58,37.71-16.83-13.74-30.61-31.09-40.15-50.86-3.88-17.14-5.11-44.59,26.29-46.03,26.72-1.22,37.97,6.43,42.7,13.02,4.68,6.53,14.05,12.07,22.55,10.94,18.92-2.53,29.92-25.26,26.18-38.63-2.52-8.03-3.77-9.64-5.34-14.23-.49-1.42-1-3.13-1.6-5.4-3.34-12.73,.12-21.16,8.79-28.6,13.03-11.19,41.77-3.23,58.32,11.33,1.66,1.46,3.19,2.98,4.58,4.56Z"/><path class="cls-9" d="M296.4,150.613c.62,3.48,.94,7.06,.94,10.71,0,13.36-4.32,25.71-11.64,35.73-16.55-14.56-45.29-22.52-58.32-11.33-8.67,7.44-12.13,15.87-8.79,28.6,.6,2.27,1.11,3.98,1.6,5.4,1.57,4.59,2.82,6.2,5.34,14.23,3.74,13.37-7.26,36.1-26.18,38.63-8.5,1.13-17.87-4.41-22.55-10.94-4.73-6.59-15.98-14.24-42.7-13.02-31.4,1.44-30.17,28.89-26.29,46.03-3.78-7.82-6.89-16.01-9.27-24.52v-.01c-2.14-7.65-3.69-15.55-4.59-23.65-.61-5.47-.92-11.04-.92-16.68,0-7.36,.53-14.6,1.57-21.68,3.86-26.62,14.75-50.96,30.73-71.09,2.27,6.08,3.51,12.66,3.51,19.53,0,.42,0,.84-.02,1.25-.28,12.82-4.87,24.58-12.4,33.88,2.4,19.5,19.03,34.61,39.18,34.61,16.32,0,30.32-9.9,36.34-24.01,2.02-4.75,3.14-9.98,3.14-15.47,0-7.64-2.17-14.77-5.93-20.82-9.46-15.22-7.99-34.97,4.7-47.62,10.97-10.94,26.11-17.71,42.83-17.71,.66,0,1.32,.02,1.98,.04,16.15,.51,31.03,8.76,40.77,21.65,6.61,8.75,12.31,18.21,16.97,28.26Z"/><path class="cls-7" d="M272.3,317.913c-22.17,25.31-52.43,43.33-86.75,50.05-13.67-5.63-26.32-13.23-37.59-22.45-3.06-9.99-6.25-25.92-.58-37.71,5.29-11,19.48-14.1,29.35-6.91,7.23,5.27,6.03,7.65,13.56,24.26,13.32,29.34,53.29,12.2,82.01-7.24Z"/><path class="cls-6" d="M185.55,367.963c-9.69,1.9-19.7,2.89-29.95,2.89-21.85,0-42.65-4.52-61.51-12.67,1.52-.04,2.92-.16,4.2-.36,10.65-1.66,15.64-14.21,8.81-22.55-2.45-2.99-6.19-5.95-11.89-8.38-15.3-6.53-3.32-38.42,3.33-56.76,2.38,8.51,5.49,16.7,9.27,24.52,9.54,19.77,23.32,37.12,40.15,50.86,11.27,9.22,23.92,16.82,37.59,22.45Z"/><path class="cls-4" d="M107.1,335.273c6.83,8.34,1.84,20.89-8.81,22.55-1.28,.2-2.68,.32-4.2,.36h-.03c-37.05-16.05-66.59-46.09-81.97-83.48,0,0-.01-.01-.01-.02-2.85-18-3.43-43.84,20.21-54.1,34.32-14.88,56.3,3.74,61.66,25.89,.9,8.1,2.45,16,4.59,23.65v.01c-6.65,18.34-18.63,50.23-3.33,56.76,5.7,2.43,9.44,5.39,11.89,8.38Z"/><path class="cls-4" d="M72.95,100.663c24,0,44.46,15.12,52.38,36.36-15.98,20.13-26.87,44.47-30.73,71.09-7.31,3.06-15.39,4.63-23.89,4.3-29.44-1.16-53.18-25.49-53.65-54.95-.08-5.14,.53-10.13,1.75-14.88,.57-1.07,1.16-2.13,1.76-3.18,.45-.82,.92-1.63,1.4-2.43,.04-.08,.09-.16,.14-.23,.44-.76,.89-1.51,1.36-2.25,.77-1.26,1.57-2.51,2.39-3.75,.42-.66,.86-1.32,1.31-1.97,1.42-2.1,2.89-4.16,4.41-6.17,.47-.64,.95-1.27,1.44-1.89,.04-.06,.09-.11,.13-.17l.12-.15c8.83-11.26,21.87-18.63,36.09-19.6,.4-.04,.81-.06,1.22-.07,.11-.02,.21-.02,.32-.02,.06-.01,.12-.01,.18-.01,.12,0,.24-.01,.36-.01,.29-.01,.59-.01,.89-.01,.2-.01,.41-.01,.62-.01Z"/><path class="cls-6" d="M94.6,208.113c-1.04,7.08-1.57,14.32-1.57,21.68,0,5.64,.31,11.21,.92,16.68-5.36-22.15-27.34-40.77-61.66-25.89-23.64,10.26-23.06,36.1-20.21,54.1C4.62,256.513,.5,236.613,.5,215.753c0-26.46,6.63-51.38,18.31-73.17-1.22,4.75-1.83,9.74-1.75,14.88,.47,29.46,24.21,53.79,53.65,54.95,8.5,.33,16.58-1.24,23.89-4.3Z"/></g><g><path class="cls-1" d="M12.09,274.703c15.38,37.39,44.92,67.43,81.97,83.48"/><path class="cls-1" d="M18.81,142.583C7.13,164.373,.5,189.293,.5,215.753c0,20.86,4.12,40.76,11.58,58.93"/><path class="cls-1" d="M72.33,100.673c-.3,0-.6,0-.89,.01"/><path class="cls-1" d="M185.55,367.963c-9.69,1.9-19.7,2.89-29.95,2.89-21.85,0-42.65-4.52-61.51-12.67,1.52-.04,2.92-.16,4.2-.36,10.65-1.66,15.64-14.21,8.81-22.55-2.45-2.99-6.19-5.95-11.89-8.38-15.3-6.53-3.32-38.42,3.33-56.76"/><path class="cls-1" d="M94.6,208.113c-7.31,3.06-15.39,4.63-23.89,4.3-29.44-1.16-53.18-25.49-53.65-54.95-.08-5.14,.53-10.13,1.75-14.88,.57-1.07,1.16-2.13,1.76-3.18,.45-.82,.92-1.63,1.4-2.43,.04-.08,.09-.16,.14-.23,.44-.76,.89-1.51,1.36-2.25,.77-1.26,1.57-2.51,2.39-3.75,.42-.66,.86-1.32,1.31-1.97,1.42-2.1,2.89-4.16,4.41-6.17,.47-.64,.95-1.27,1.44-1.89,.04-.06,.09-.11,.13-.17l.12-.15c8.83-11.26,21.87-18.63,36.09-19.6,.4-.04,.81-.06,1.22-.07,.11-.02,.21-.02,.32-.02,.06-.01,.12-.01,.18-.01,.12,0,.24-.01,.36-.01,.29-.01,.59-.01,.89-.01,.2-.01,.41-.01,.62-.01,24,0,44.46,15.12,52.38,36.36"/><path class="cls-1" d="M147.96,345.513c11.27,9.22,23.92,16.82,37.59,22.45,34.32-6.72,64.58-24.74,86.75-50.05"/><path class="cls-1" d="M296.57,280.513c9.07-19.71,14.13-41.64,14.13-64.76,0-23.27-5.12-45.34-14.3-65.14"/><path class="cls-1" d="M285.7,197.053c1.66,1.46,3.19,2.98,4.58,4.56,15.13,17.24,17.08,46.3,6.29,78.9-6.28,13.65-14.49,26.24-24.27,37.4-28.72,19.44-68.69,36.58-82.01,7.24-7.53-16.61-6.33-18.99-13.56-24.26-9.87-7.19-24.06-4.09-29.35,6.91-5.67,11.79-2.48,27.72,.58,37.71-16.83-13.74-30.61-31.09-40.15-50.86"/><path class="cls-1" d="M296.4,150.613c.62,3.48,.94,7.06,.94,10.71,0,13.36-4.32,25.71-11.64,35.73-16.55-14.56-45.29-22.52-58.32-11.33-8.67,7.44-12.13,15.87-8.79,28.6,.6,2.27,1.11,3.98,1.6,5.4,1.57,4.59,2.82,6.2,5.34,14.23,3.74,13.37-7.26,36.1-26.18,38.63-8.5,1.13-17.87-4.41-22.55-10.94-4.73-6.59-15.98-14.24-42.7-13.02-31.4,1.44-30.17,28.89-26.29,46.03-3.78-7.82-6.89-16.01-9.27-24.52v-.01c-2.14-7.65-3.69-15.55-4.59-23.65-.61-5.47-.92-11.04-.92-16.68,0-7.36,.53-14.6,1.57-21.68,3.86-26.62,14.75-50.96,30.73-71.09,2.27,6.08,3.51,12.66,3.51,19.53,0,.42,0,.84-.02,1.25-.28,12.82-4.87,24.58-12.4,33.88,2.4,19.5,19.03,34.61,39.18,34.61,16.32,0,30.32-9.9,36.34-24.01,2.02-4.75,3.14-9.98,3.14-15.47,0-7.64-2.17-14.77-5.93-20.82-9.46-15.22-7.99-34.97,4.7-47.62,10.97-10.94,26.11-17.71,42.83-17.71,.66,0,1.32,.02,1.98,.04,16.15,.51,31.03,8.76,40.77,21.65,6.61,8.75,12.31,18.21,16.97,28.26Z"/><path class="cls-1" d="M94.09,358.183h-.03"/><path class="cls-1" d="M93.95,246.473c-5.36-22.15-27.34-40.77-61.66-25.89-23.64,10.26-23.06,36.1-20.21,54.1,0,.01,.01,.02,.01,.02"/></g></g><g><path class="cls-2" d="M261.847,221.906c14.727,59.524-80.676,110.542-77.517,89.02,6.771-46.124-91.302-42.402-91.302-89.02s66.866-127.6,84.409-84.409c9.957,24.513,71.82,33.523,84.409,84.409Z"/><g><path class="cls-5" d="M181.424,215.25c1.895-2.115,4.024-3.819,6.468-5.148,6.975-3.794,16.485-3.695,23.419,2.301,2.18,1.885,3.441,4.335,4.559,6.895,1.139,2.609,1.676,5.339,1.67,8.195-.02,10.098-.008,20.197-.008,30.295,0,.316-.014,.631-.004,.947,.017,.548-.233,.756-.783,.746-1.377-.024-2.754-.007-4.131-.007-3.271,0-6.541-.015-9.811,.012-.694,.006-.964-.195-.961-.922,.029-8.406,.059-16.811,.023-25.217-.007-1.736-.051-3.532-.487-5.192-.937-3.565-3.497-5.536-7.085-5.985-1.53-.191-3.168-.093-4.679,.236-3.93,.856-6.506,3.883-7.135,8.101-.114,.762-.173,1.539-.174,2.31-.012,8.492-.007,16.984-.008,25.476q0,1.179-1.184,1.182c-4.447,.001-8.894-.02-13.34,.018-.847,.007-1.061-.278-1.06-1.086,.019-16.266,.02-32.533-.002-48.799-.001-.854,.228-1.155,1.11-1.147,4.16,.038,8.32,.034,12.479,.002,.84-.007,1.172,.22,1.143,1.115-.062,1.89-.019,3.783-.019,5.674Z"/><path class="cls-5" d="M158.217,234.053c0,8.089,0,16.179,0,24.268,0,1.148-.003,1.152-1.119,1.152-4.561,.001-9.122,.001-13.683,0-1.123,0-1.127-.004-1.128-1.159-.001-16.208,0-32.415,0-48.623,0-1.207,.004-1.214,1.181-1.215,4.532-.003,9.065-.003,13.597,0,1.149,0,1.152,.007,1.152,1.136,0,8.147,0,16.294,0,24.44Z"/><path class="cls-5" d="M150.284,201.152c-5.066,.011-9.15-4.045-9.162-9.1-.012-4.972,4.101-9.097,9.085-9.109,5.07-.013,9.179,4.043,9.191,9.074,.013,5.054-4.048,9.124-9.114,9.135Z"/></g></g><path class="cls-3" d="M177.437,4.414c3.275,2.128,4.411,6.396,2.847,9.975-6.318,14.474-25.737,63.352-10.73,86.412,0,0,3.764,1.191,12.071-1.497s12.613-.021,12.613-.021c0,0-3.448,10.977-14.188,13.01,0,0-2.451,6.27-9.938,6.972,0,0,.388,5.884-4.066,6.311-3.255,.307-9.384-2.704-13.668-4.041l-.035-.013c-12.693-6.372-25.146-9.664-37.013-10.785-2.666-1.343-6.272-2.672-9.049-1.906,0,0,2.97-3.623,9.052-4.203,24.947-2.358,37.646-72.487,48.472-91.95,.166-.306,.337-.601,.506-.887,.125-.209,.245-.415,.367-.615l9.287-7.817,.006-.003c1.292-.027,2.452,.403,3.466,1.057Z"/><path class="cls-8" d="M157.905,14.255c-2.488,.338-5.419,2.423-8.655,7.76-1.724-4.332-4.211-11.37-5.913-16.271l-.008-.018c-1.12-3.215-1.897-5.506-1.897-5.506,0,0,4.385-.853,6.193,.802l.858,2.326,.808-1.192s2.392,.072,2.84,3.678c.445,3.599,1.537,5.688,1.537,5.688,0,0,1.216,2.819,4.237,2.735Z"/><path class="cls-3" d="M143.337,5.744l5.546,16.886-3.798-4.659c-3.798-4.659-5.597,1.531-8.405,.254-2.802-1.28-3.167-3.425-3.167-3.425l2.273-3.163-6.779-.752c2.183-15.601,14.321-5.158,14.321-5.158l.008,.018Z"/></g></g></svg>