<?xml version="1.0" encoding="UTF-8"?><svg id="Layer_2" xmlns="http://www.w3.org/2000/svg" viewBox="0 0 142.003 111.062"><defs><style>.cls-1{fill:#5cc2cc;stroke:#fff;stroke-miterlimit:10;stroke-width:4px;}</style></defs><g id="Layer_3"><path class="cls-1" d="M95.057,104.77c-41.11,10.78-67.74-2.14-67.74-2.14l2.21-3.17-13.86-3.95,10.48-9.68-9.79-5.42,3.8-5.05s.73-2.39,2.07-6.18C13.527,65.549,.467,39.159,2.147,35.649c1.49-3.12,30.46-3.37,37.43-3.39,5.25-7.82,11.22-13.67,17.42-14.03,0,0,4.87-14.66,19.99-15.81,0,0-7.82,7.45-6.79,12.03,0,0,21.69-8.73,35.74,1.07l-13.59,6.56s5.07,5.18,25.91,2.75l-8.31,5.87,9.17,8.62-8.64,1.23,3.24,3.94-10.4,2.99s2.35,3.59,1.79,7.62c0,0,24.49-10.83,32.34-7.37,7.84,3.45-1.29,46.26-42.39,57.04Z"/></g></svg>