<?xml version="1.0" encoding="UTF-8"?><svg id="Layer_2" xmlns="http://www.w3.org/2000/svg" xmlns:xlink="http://www.w3.org/1999/xlink" viewBox="0 0 220.951 203.76"><defs><style>.cls-1,.cls-2{fill:url(#linear-gradient-2);}.cls-3,.cls-4,.cls-2{stroke:#fff;stroke-miterlimit:10;stroke-width:2px;}.cls-3,.cls-5{fill:url(#linear-gradient);}.cls-4,.cls-6{fill:url(#linear-gradient-3);}</style><linearGradient id="linear-gradient" x1="98.509" y1="163.27" x2="219.919" y2="163.27" gradientTransform="matrix(1, 0, 0, 1, 0, 0)" gradientUnits="userSpaceOnUse"><stop offset="0" stop-color="#89edea"/><stop offset=".608" stop-color="#23e181"/><stop offset="1" stop-color="#ebd400"/></linearGradient><linearGradient id="linear-gradient-2" x1="188.672" y1="114.812" x2="236.378" y2="135.717" gradientTransform="matrix(1, 0, 0, 1, 0, 0)" gradientUnits="userSpaceOnUse"><stop offset="0" stop-color="#14e2bd"/><stop offset=".082" stop-color="#39df9b"/><stop offset=".196" stop-color="#67dc72"/><stop offset=".315" stop-color="#8ed94f"/><stop offset=".436" stop-color="#add732"/><stop offset=".562" stop-color="#c6d61c"/><stop offset=".693" stop-color="#d8d40c"/><stop offset=".834" stop-color="#e2d403"/><stop offset="1" stop-color="#e6d400"/></linearGradient><linearGradient id="linear-gradient-3" x1="7.073" y1="86.472" x2="122.193" y2="76.289" gradientTransform="matrix(1, 0, 0, 1, 0, 0)" gradientUnits="userSpaceOnUse"><stop offset="0" stop-color="#11d2f1" stop-opacity=".5"/><stop offset=".178" stop-color="#11d2ef" stop-opacity=".517"/><stop offset=".361" stop-color="#11d4e9" stop-opacity=".568"/><stop offset=".546" stop-color="#11d6e0" stop-opacity=".653"/><stop offset=".732" stop-color="#12dad3" stop-opacity=".772"/><stop offset=".918" stop-color="#13dfc3" stop-opacity=".923"/><stop offset="1" stop-color="#14e2bb"/></linearGradient></defs><g id="Layer_3"><g><path class="cls-5" d="M219.919,125.09c-.07,.95-.18,1.95-.33,2.96,.01,.01,0,.01,0,.02-.39,2.66-1.06,5.51-1.95,8.45-.05,.19-.11,.37-.17,.55-.03,.11-.07,.21-.1,.31-.03,.08-.05,.15-.08,.23-.19,.58-.38,1.16-.58,1.73-.03,.1-.07,.2-.1,.3-.04,.11-.08,.22-.12,.32-.13,.37-.26,.75-.4,1.12-3.23,8.68-8.16,17.75-13.62,25-.27,.35-.53,.7-.8,1.04-15.26,19.57-39.4,31.15-60.49,34.57-4.02,.67-7.94,1.02-11.66,1.07h-.02c-6.87-.17-13.4-1.74-19.32-4.43-.34-.15-.68-.31-1.03-.47-.88-.44-1.72-.94-2.51-1.49-4.92-3.46-8.13-9.17-8.13-15.64,0-.92,.07-1.82,.2-2.71,.1-.58,.21-1.15,.32-1.72,.76-3.86,1.69-7.66,2.79-11.39,.03-.11,.06-.22,.1-.33,.08-.25,.17-.51,.27-.77,.03-.1,.06-.18,.1-.28h.02c.02,0,.03,0,.06-.01h.15c.53,0,1.06-.03,1.6-.07h.03c.03,0,.07-.01,.1-.01,.03-.01,.07-.01,.1-.02,2.28-.16,4.61-.52,6.99-1.05,.02,0,.03-.01,.04-.01,6.11-1.34,12.5-3.79,18.98-6.91,.1-.05,.19-.09,.29-.14,.01,.01,.02,0,.03-.01,9.32-4.51,18.85-10.39,28.04-16.39,.01-.02,.03-.03,.05-.04,.52-.34,1.04-.67,1.55-1.01,.11-.07,.23-.15,.34-.23,4.44-3.3,9.01-6.43,13.7-9.37,0-.01,.01-.01,.01-.01,.87-.54,1.72-1.08,2.6-1.61h.01c.96-.59,1.93-1.16,2.91-1.73,.14-.09,.28-.17,.42-.25l.33-.21c0-.01,.01-.01,.02-.02,.38-.21,.75-.43,1.14-.65,.29,10.29,8.73,18.55,19.09,18.55,8.18,0,15.17-5.16,17.88-12.4v-.01c.48-1.27,.82-2.6,1.02-3.98,.02-.07,.03-.14,.03-.21,.04-.21,.07-.43,.1-.64Z"/><path class="cls-1" d="M219.932,123.746v.025c-.01,.26-.03,.52-.04,.79v.04c-.03,.21-.06,.43-.1,.64,0,.07-.01,.14-.03,.21-.99,5.52-5.81,9.7-11.61,9.7-6.52,0-11.81-5.28-11.81-11.8s5.29-11.81,11.81-11.81c6.44,0,11.68,5.17,11.79,11.58,.01,.08,.01,.15,.01,.23,0,.134-.015,.263-.02,.395Z"/><path id="_ầu" class="cls-6" d="M122.281,106.091c0,2.68-.13,5.32-.39,7.93-.9,9.32-3.39,18.17-7.19,26.28,0,.02,0,.03-.01,.03-3.68,7.86-8.58,15.04-14.47,21.27-.1,.1-.19,.2-.28,.3-3.06-.5-5.98-1.44-8.74-2.91-2.47-1.32-4.61-2.96-6.47-4.89-3.32-3.45-5.77-7.84-7.72-12.96,0-.01-.01-.02-.01-.03-3.316-7.981-5.828-19.339-7.33-36.77-.01-.23-.03-.45-.05-.67-.06-.74-.13-1.48-.21-2.22v-.04c-.08-.74-.16-1.48-.25-2.21-.26-2.14-.57-4.28-.93-6.39-.03-.18-.06-.35-.09-.52-.11-.61-.22-1.23-.34-1.84-.14-.74-.28-1.49-.44-2.23-.15-.72-.31-1.44-.47-2.16-.11-.48-.22-.96-.34-1.44-.06-.29-.13-.59-.21-.88-.24-1-.5-2-.77-2.99s-.55-1.98-.84-2.97c-.15-.52-.31-1.05-.48-1.57-.14-.46-.29-.91-.43-1.36-.31-.97-.63-1.94-.97-2.91-.34-.96-.69-1.92-1.04-2.88-.36-.95-.73-1.9-1.11-2.84-.76-1.89-1.56-3.75-2.4-5.59-.42-.92-.85-1.84-1.3-2.75-.44-.91-.89-1.81-1.35-2.71-.47-.89-.94-1.79-1.42-2.67-.24-.45-.48-.89-.73-1.32-.4-.72-.81-1.44-1.22-2.15-.35-.59-.7-1.18-1.06-1.77-.52-.86-1.05-1.71-1.59-2.55-.54-.85-1.09-1.69-1.65-2.52-.5-.75-1.01-1.49-1.53-2.23-.08-.13-.17-.25-.26-.37-.54-.77-1.09-1.53-1.64-2.28-.6-.8-1.2-1.6-1.81-2.39-.01-.01-.03-.03-.03-.04-.62-.8-1.25-1.58-1.88-2.36-.63-.77-1.27-1.54-1.92-2.3-.31-.38-.64-.76-.97-1.13-.33-.38-.66-.76-1-1.13-.27-.31-.55-.62-.83-.93-.39-.43-.79-.86-1.19-1.29-3.66-3.93-7.57-7.63-11.69-11.08-.4-.34-.8-.67-1.2-.99-1.77-1.45-3.58-2.86-5.43-4.2-.67-.51-1.35-.99-2.03-1.47-.46-.33-.93-.66-1.4-.97-.61-.43-1.22-.84-1.84-1.24-.54-.36-1.08-.71-1.63-1.06-.69-.45-1.4-.9-2.11-1.33-.04-.03-.08-.05-.13-.08-.25-.15-.5-.31-.75-.46,1.03,.28,2.06,.57,3.09,.87,18.047,5.256,35.624,12.984,52.336,21.511,15.752,8.037,31.696,16.901,42.904,30.954,10.507,13.174,16.538,29.859,17.17,46.676l.009,.249c.02,.5,.04,1.01,.04,1.52,.02,.48,.02,.97,.02,1.45Z"/><path class="cls-3" d="M219.919,125.09c-.07,.95-.18,1.95-.33,2.96,.01,.01,0,.01,0,.02-.39,2.66-1.06,5.51-1.95,8.45-.05,.19-.11,.37-.17,.55-.03,.11-.07,.21-.1,.31-.03,.08-.05,.15-.08,.23-.19,.58-.38,1.16-.58,1.73-.03,.1-.07,.2-.1,.3-.04,.11-.08,.22-.12,.32-.13,.37-.26,.75-.4,1.12-3.23,8.68-8.16,17.75-13.62,25-.27,.35-.53,.7-.8,1.04-15.26,19.57-39.4,31.15-60.49,34.57-4.02,.67-7.94,1.02-11.66,1.07h-.02c-6.87-.17-13.4-1.74-19.32-4.43-.34-.15-.68-.31-1.03-.47-.88-.44-1.72-.94-2.51-1.49-4.92-3.46-8.13-9.17-8.13-15.64,0-.92,.07-1.82,.2-2.71,.1-.58,.21-1.15,.32-1.72,.76-3.86,1.69-7.66,2.79-11.39,.03-.11,.06-.22,.1-.33,.08-.25,.17-.51,.27-.77,.03-.1,.06-.18,.1-.28h.02c.02,0,.03,0,.06-.01h.15c.53,0,1.06-.03,1.6-.07h.03c.03,0,.07-.01,.1-.01,.03-.01,.07-.01,.1-.02,2.28-.16,4.61-.52,6.99-1.05,.02,0,.03-.01,.04-.01,6.11-1.34,12.5-3.79,18.98-6.91,.1-.05,.19-.09,.29-.14,.01,.01,.02,0,.03-.01,9.32-4.51,18.85-10.39,28.04-16.39,.01-.02,.03-.03,.05-.04,.52-.34,1.04-.67,1.55-1.01,.11-.07,.23-.15,.34-.23,4.44-3.3,9.01-6.43,13.7-9.37,0-.01,.01-.01,.01-.01,.87-.54,1.72-1.08,2.6-1.61h.01c.96-.59,1.93-1.16,2.91-1.73,.14-.09,.28-.17,.42-.25l.33-.21c0-.01,.01-.01,.02-.02,.38-.21,.75-.43,1.14-.65,.29,10.29,8.73,18.55,19.09,18.55,8.18,0,15.17-5.16,17.88-12.4v-.01c.48-1.27,.82-2.6,1.02-3.98,.02-.07,.03-.14,.03-.21,.04-.21,.07-.43,.1-.64Z"/><path class="cls-2" d="M219.932,123.746v.025c-.01,.26-.03,.52-.04,.79v.04c-.03,.21-.06,.43-.1,.64,0,.07-.01,.14-.03,.21-.99,5.52-5.81,9.7-11.61,9.7-6.52,0-11.81-5.28-11.81-11.8s5.29-11.81,11.81-11.81c6.44,0,11.68,5.17,11.79,11.58,.01,.08,.01,.15,.01,.23,0,.134-.015,.263-.02,.395Z"/><path id="_ầu-2" class="cls-4" d="M122.281,106.091c0,2.68-.13,5.32-.39,7.93-.9,9.32-3.39,18.17-7.19,26.28,0,.02,0,.03-.01,.03-3.68,7.86-8.58,15.04-14.47,21.27-.1,.1-.19,.2-.28,.3-3.06-.5-5.98-1.44-8.74-2.91-2.47-1.32-4.61-2.96-6.47-4.89-3.32-3.45-5.77-7.84-7.72-12.96,0-.01-.01-.02-.01-.03-3.316-7.981-5.828-19.339-7.33-36.77-.01-.23-.03-.45-.05-.67-.06-.74-.13-1.48-.21-2.22v-.04c-.08-.74-.16-1.48-.25-2.21-.26-2.14-.57-4.28-.93-6.39-.03-.18-.06-.35-.09-.52-.11-.61-.22-1.23-.34-1.84-.14-.74-.28-1.49-.44-2.23-.15-.72-.31-1.44-.47-2.16-.11-.48-.22-.96-.34-1.44-.06-.29-.13-.59-.21-.88-.24-1-.5-2-.77-2.99s-.55-1.98-.84-2.97c-.15-.52-.31-1.05-.48-1.57-.14-.46-.29-.91-.43-1.36-.31-.97-.63-1.94-.97-2.91-.34-.96-.69-1.92-1.04-2.88-.36-.95-.73-1.9-1.11-2.84-.76-1.89-1.56-3.75-2.4-5.59-.42-.92-.85-1.84-1.3-2.75-.44-.91-.89-1.81-1.35-2.71-.47-.89-.94-1.79-1.42-2.67-.24-.45-.48-.89-.73-1.32-.4-.72-.81-1.44-1.22-2.15-.35-.59-.7-1.18-1.06-1.77-.52-.86-1.05-1.71-1.59-2.55-.54-.85-1.09-1.69-1.65-2.52-.5-.75-1.01-1.49-1.53-2.23-.08-.13-.17-.25-.26-.37-.54-.77-1.09-1.53-1.64-2.28-.6-.8-1.2-1.6-1.81-2.39-.01-.01-.03-.03-.03-.04-.62-.8-1.25-1.58-1.88-2.36-.63-.77-1.27-1.54-1.92-2.3-.31-.38-.64-.76-.97-1.13-.33-.38-.66-.76-1-1.13-.27-.31-.55-.62-.83-.93-.39-.43-.79-.86-1.19-1.29-3.66-3.93-7.57-7.63-11.69-11.08-.4-.34-.8-.67-1.2-.99-1.77-1.45-3.58-2.86-5.43-4.2-.67-.51-1.35-.99-2.03-1.47-.46-.33-.93-.66-1.4-.97-.61-.43-1.22-.84-1.84-1.24-.54-.36-1.08-.71-1.63-1.06-.69-.45-1.4-.9-2.11-1.33-.04-.03-.08-.05-.13-.08-.25-.15-.5-.31-.75-.46,1.03,.28,2.06,.57,3.09,.87,18.047,5.256,35.624,12.984,52.336,21.511,15.752,8.037,31.696,16.901,42.904,30.954,10.507,13.174,16.538,29.859,17.17,46.676l.009,.249c.02,.5,.04,1.01,.04,1.52,.02,.48,.02,.97,.02,1.45Z"/></g></g></svg>