<?xml version="1.0" encoding="UTF-8"?><svg id="Layer_2" xmlns="http://www.w3.org/2000/svg" viewBox="0 0 914.333 1292.971"><defs><style>.cls-1{fill:#ff9e03;}.cls-2{fill:#c5882d;}.cls-3{fill:none;stroke:#000;stroke-miterlimit:10;}.cls-4{fill:#bc831e;}.cls-5{fill:#c4b6a5;}.cls-6{fill:#4e8997;}.cls-7{fill:#44828c;}.cls-8{fill:#37788a;}.cls-9{fill:#b07e89;}.cls-10{fill:#af5a21;}.cls-11{fill:#a94d0a;}.cls-12{fill:#f7bd77;}.cls-13{fill:#cc0202;}.cls-14{fill:#c99a32;}.cls-15{fill:#c9a25d;}.cls-16{fill:#5295a0;}.cls-17{fill:#82490b;}.cls-18{fill:#f8eae1;}.cls-19{fill:#d89f72;}.cls-20{fill:#3c737f;}.cls-21{fill:#cd6601;}</style></defs><g id="Layer_2-2"><g><g><path class="cls-20" d="M848.649,291.471s-7.31-8.42-28.25-17.28l8.67-52.17v-.01l84.73,44.42-36.78,340.79h-86.31l-6.28-22.89,12.55-89.06c18.28-.52,32.37-1.06,34.9-1.24,8.21-.59,16.77-134.87,16.77-134.87-5.21,0-18.55-20.23-18.55-20.23v-.01c6.31-19.44,12.8-36.91,18.55-47.45Z"/><path class="cls-19" d="M830.099,338.931s13.34,20.23,18.55,20.23c0,0-8.56,134.28-16.77,134.87-2.53,.18-16.62,.72-34.9,1.24-41.1,1.16-103.4,2.21-103.2-1.24,.29-4.98,1.6-51.03,7.54-60.85,21.86,4.26,53.37,8.48,99.37,11.09,0,0,14.17-58.41,29.41-105.34Z"/><path class="cls-14" d="M809.869,288.561c.65,.37,1.21,.85,1.67,1.44,2.3,2.95,1.24,7.74-2.28,11.42l-1.32-1.13c-.32-.13-2.13-1.14-4.79-3.2,5.17-3.36,5.4-6.65,5.4-6.65l1.32-1.88Z"/><path class="cls-14" d="M797.989,290.691c4-3.11,8.83-3.87,11.88-2.13l-1.32,1.88s-.23,3.29-5.4,6.65c-1.28-.99-2.75-2.23-4.36-3.73l-2.51-1.12c.52-.55,1.09-1.06,1.71-1.55Z"/><path class="cls-14" d="M807.549,302.971c-4.84,3.77-10.91,4.08-13.55,.69-.56-.71-.92-1.53-1.09-2.42l1.28-.26c3.99-1.17,6.88-2.54,8.96-3.89,2.66,2.06,4.47,3.07,4.79,3.2l1.32,1.13c-.52,.55-1.09,1.06-1.71,1.55Z"/><path class="cls-14" d="M792.909,301.241c-.55-2.79,.7-6.21,3.37-9l2.51,1.12c1.61,1.5,3.08,2.74,4.36,3.73-2.08,1.35-4.97,2.72-8.96,3.89l-1.28,.26Z"/><path class="cls-8" d="M784.429,584.331l6.28,22.89h-119.77l2.7-22.73c54.39-.64,95.69-.81,110.79-.16Z"/><path class="cls-6" d="M829.069,222.021l-8.67,52.17c-19.9-8.42-52.13-17.24-102.11-19.61v-.01l4.7-36.49,11.69-90.74,69.69,34.96-7.33,42.92,32.03,16.79v.01Z"/><path class="cls-21" d="M734.679,127.341l-11.69,90.74c-7.28-1.26-16.48-2.67-27.41-4.01l15.77-57.78-31.89-15.65v16.54l-2.95,4.76h-6.79l2.95-24.66-26.53-12.29-1.46-42.8,90,45.15Z"/><path class="cls-17" d="M660.519,210.651c13.11,.96,24.84,2.16,35.06,3.42l-5.12,18.75h-36.25l6.31-22.17Z"/><path class="cls-6" d="M691.819,431.191c2.95,.66,6.11,1.32,9.5,1.99-5.94,9.82-7.25,55.87-7.54,60.85-.2,3.45,62.1,2.4,103.2,1.24l-12.55,89.06c-15.1-.65-56.4-.48-110.79,.16l18.18-153.3Z"/><path class="cls-20" d="M677.739,668.351c6.49-11.05,19.2-29.85,44.08-61.13h39.49l-57.33,61.13h-26.24Z"/><path class="cls-14" d="M673.639,584.491l-2.7,22.73h-79.94v-21.55c29.49-.48,57.47-.87,82.64-1.18Z"/><path class="cls-17" d="M666.129,190.921l-5.61,19.73c-7.3-.53-15.02-.99-23.15-1.34l3.19-25.79,25.57,7.4Z"/><path class="cls-7" d="M648.789,418.911c4.46-1.41,11.16,5.15,43.03,12.28l-18.18,153.3c-25.17,.31-53.15,.7-82.64,1.18v-1.63l46.37-374.73c8.13,.35,15.85,.81,23.15,1.34l-6.31,22.17h36.25l5.12-18.75c10.93,1.34,20.13,2.75,27.41,4.01l-4.7,36.49v.01c-10.06-.48-20.84-.7-32.38-.6,0,0-13.79,135.76-37.12,164.93Z"/><path class="cls-18" d="M793.999,303.661c2.64,3.39,8.71,3.08,13.55-.69,.62-.49,1.19-1,1.71-1.55,3.52-3.68,4.58-8.47,2.28-11.42-.46-.59-1.02-1.07-1.67-1.44-3.05-1.74-7.88-.98-11.88,2.13-.62,.49-1.19,1-1.71,1.55-2.67,2.79-3.92,6.21-3.37,9,.17,.89,.53,1.71,1.09,2.42Zm-92.68,129.52c-3.39-.67-6.55-1.33-9.5-1.99-31.87-7.13-38.57-13.69-43.03-12.28,23.33-29.17,37.12-164.93,37.12-164.93,11.54-.1,22.32,.12,32.38,.6,49.98,2.37,82.21,11.19,102.11,19.61,20.94,8.86,28.25,17.28,28.25,17.28-5.75,10.54-12.24,28.01-18.55,47.45v.01c-15.24,46.93-29.41,105.34-29.41,105.34-46-2.61-77.51-6.83-99.37-11.09Z"/><polygon class="cls-21" points="644.679 82.191 646.139 124.991 640.559 122.401 556.019 83.921 561.379 40.401 644.679 82.191"/><path class="cls-1" d="M640.559,183.521l-7.59-2.2,7.59-58.92,5.58,2.59,26.53,12.29-2.95,24.66h6.79l2.95-4.76v-16.54l31.89,15.65-15.77,57.78c-10.22-1.26-21.95-2.46-35.06-3.42l5.61-19.73-25.57-7.4Z"/><path class="cls-17" d="M640.559,183.521l-3.19,25.79c-15.48-.68-32.43-.96-50.68-.65v-27.34h46.28l7.59,2.2Z"/><path class="cls-11" d="M604.459,161.931c-4.64-2.04-12.51-6.51-12.51-6.51v-18.14l14.98,7.96s-1.27,17.22-2.47,16.69Z"/><path class="cls-1" d="M604.459,161.931c1.2,.53,2.47-16.69,2.47-16.69l-14.98-7.96v18.14s7.87,4.47,12.51,6.51Zm36.1-39.53l-7.59,58.92h-46.28v27.34c-.37,.01-.75,.01-1.13,.02-6.81,.13-13.55,1.65-19.62,4.71-2.89,1.45-7.61,3.14-15.35,4.83l5.43-134.3,84.54,38.48Z"/><path class="cls-17" d="M585.559,208.681c.38-.01,.76-.01,1.13-.02v24.16h-36.69l.59-14.6c7.74-1.69,12.46-3.38,15.35-4.83,6.07-3.06,12.81-4.58,19.62-4.71Z"/><polygon class="cls-21" points="561.379 40.401 556.019 83.921 496.119 54.701 455.139 68.541 453.059 15.371 481.969 .561 561.379 40.401"/><path class="cls-15" d="M527.449,344.951h.15l9.02-123.57-.09-.62c5.54-.83,10.18-1.68,14.06-2.54l-.59,14.6h24.98l-45.34,213.36-2.19-101.23Z"/><path class="cls-9" d="M471.619,1291.491h30.24V686.331c9.14-.13,18.21-.27,27.12-.42,6.2-.1,12.33-.21,18.36-.32l.02,1.3v605.58h-75.74v-.98Z"/><path class="cls-16" d="M527.029,325.371c.22-7.69-5.29-17.23-12.82-15.66-13.66,2.83-34.56,1.51-60.16-.49l-1.22-76.4h42.61l-.24-7.86c17.55-1.19,31.01-2.65,41.33-4.2l.09,.62-9.02,123.57h-.15l-.42-19.58Z"/><path class="cls-18" d="M319.589,334.641c0,5.71,6.63,10.35,14.8,10.35s14.79-4.64,14.79-10.35c0-5.67-6.5-10.27-14.56-10.36l-7.64-3.82-1.78,6.06c-3.42,1.9-5.61,4.83-5.61,8.12Zm133.65,219.48c-22.94-1.52-49.44-1.87-77.07-1.47-25.57,.38-52.12,1.41-77.71,2.75-25.52,1.33-50.1,2.98-71.84,4.61-22.18,1.67-41.4,3.33-55.63,4.62-12.1-38.23-28.25-84.19-28.25-84.19,0,0-.47-.41-1.38-1.06-1.05-28.17-2.19-59.02-3.15-85.9,4.69-18.04,8.54-33.45,10.41-41.02,.65-2.61-1.19-5.16-3.87-5.37-2.16-.17-4.93-.4-8.17-.69-.4-12.46-.65-21.06-.65-23.73,0-3,.61-5.44,1.61-7.42,4.34-8.58,15.89-8.58,15.89-8.58,0,0-15.98,33.93,56.2,22.62,13.26-2.08,29.5-5.68,49.37-11.31,8.83-2.5,17.69-4.58,26.54-6.29,28.73-5.55,57.33-7.24,84.34-7.1,30.89,.16,59.68,2.71,84.17,4.63,25.6,2,46.5,3.32,60.16,.49,7.53-1.57,13.04,7.97,12.82,15.66l.42,19.58,2.19,101.23,2.47,114.56c-.14,4.97-5.42,5.49-11.87,4.47-6.49-1.03-14.17-3.61-19.03-4.77-12.7-3.05-29.14-5.08-47.97-6.32Z"/><path class="cls-1" d="M504.259,134.151c2-.57,13.76-3.66,18.32,1.94,.27,.33,.8,.16,.78-.27-.2-3.99-.51-14.47,1.22-22.05,.03-.12,.01-.24-.06-.33-.82-1.11-6.59-7.72-26.15-3.51-.2,.05-.35,.22-.35,.43v14.89c0,.09,.02,.17,.07,.24l5.71,8.49c.1,.15,.29,.23,.46,.17Zm51.76-50.23l-3.55,77.1-36.65,7.64-22.44-2.49,1.82,58.79c-12.75,.88-27.67,1.61-45.1,2.12l1.86-157.46,3.18-1.08,40.98-13.84,59.9,29.22Z"/><path class="cls-7" d="M520.239,565.211c6.45,1.02,11.73,.5,11.87-4.47l-2.47-114.56,45.34-213.36h11.71v-24.16c18.25-.31,35.2-.03,50.68,.65l-46.37,374.73v1.63c-23.25,.36-47.43,.77-71.91,1.2l1.15-21.66Z"/><path class="cls-14" d="M501.209,560.441c4.86,1.16,12.54,3.74,19.03,4.77l-1.15,21.66c-21.87,.39-43.97,.79-65.85,1.2v-33.95c18.83,1.24,35.27,3.27,47.97,6.32Z"/><path class="cls-8" d="M501.859,686.331c-10.04,.15-20.17,.29-30.26,.41-15.37,.19-30.66,.34-45.48,.44-74.84,.51-137.66-.23-137.05-4.21,1.51-9.78-27.84-75.75-27.84-75.75h460.59c-24.88,31.28-37.59,50.08-44.08,61.13h-.01c-6.79,11.55-6.79,14.62-6.79,14.62,0,0-55.19,1.41-123.6,2.62-6.03,.11-12.16,.22-18.36,.32-8.91,.15-17.98,.29-27.12,.42Zm-11.7-20.06c14.1,0,27.46-10.88,23-21.2-4.26-9.88-10.74-9.09-15.81-15.81-10.34-13.7-33.18-1.16-31.33,15.94,1.21,11.17,10.04,21.07,24.14,21.07Z"/><path class="cls-11" d="M523.359,135.821c.02,.43-.51,.6-.78,.27-4.56-5.6-16.32-2.51-18.32-1.94-.17,.06-.36-.02-.46-.17l-5.71-8.49c-.05-.07-.07-.15-.07-.24v-14.89c0-.21,.15-.38,.35-.43,19.56-4.21,25.33,2.4,26.15,3.51,.07,.09,.09,.21,.06,.33-1.73,7.58-1.42,18.06-1.22,22.05Z"/><path class="cls-9" d="M471.599,686.741c10.09-.12,20.22-.26,30.26-.41v605.16h-30.24V688.301l-.02-1.56Z"/><path class="cls-11" d="M536.529,220.761c-10.32,1.55-23.78,3.01-41.33,4.2l-1.82-58.79,22.44,2.49,36.65-7.64,3.55-77.1-5.43,134.3c-3.88,.86-8.52,1.71-14.06,2.54Z"/><path class="cls-17" d="M495.199,224.961l.24,7.86h-45.41l.07-5.74c17.43-.51,32.35-1.24,45.1-2.12Z"/><path class="cls-10" d="M513.159,645.071c4.46,10.32-8.9,21.2-23,21.2s-22.93-9.9-24.14-21.07c-1.85-17.1,20.99-29.64,31.33-15.94,5.07,6.72,11.55,5.93,15.81,15.81Z"/><polygon class="cls-21" points="453.059 15.371 455.139 68.541 451.959 69.621 355.859 104.491 355.859 65.151 453.059 15.371"/><path class="cls-9" d="M426.119,687.181c14.82-.1,30.11-.25,45.48-.44l.02,1.56v603.19h-45.5V687.181Z"/><path class="cls-14" d="M453.239,554.121v33.95c-26.27,.5-52.22,1.01-77.07,1.5v-36.92c27.63-.4,54.13-.05,77.07,1.47Z"/><path class="cls-6" d="M454.049,309.221c-24.49-1.92-53.28-4.47-84.17-4.63l-4.71-71.77h42.06l-.23-4.95c6.3-.05,12.35-.13,18.17-.22l.5,5.17h27.16l1.22,76.4Z"/><path class="cls-17" d="M450.099,227.081l-.07,5.74h-24.36l-.5-5.17c8.84-.14,17.13-.33,24.93-.57Z"/><path class="cls-17" d="M422.119,196.261l3.05,31.39c-5.82,.09-11.87,.17-18.17,.22l-1.67-35.63,16.79,4.02Z"/><path class="cls-1" d="M417.609,161.231c2.15,.89,4.54-.61,4.75-2.92,1.06-11.49,1.16-37.43-21.92-23.66-1.44,.86-2.38,2.39-2.52,4.06l-1.91,22.7c-.21,2.49,2.71,3.88,4.59,2.23,3.68-3.21,9.3-5.64,17.01-2.41Zm34.35-91.61l-1.86,157.46c-7.8,.24-16.09,.43-24.93,.57l-3.05-31.39-16.79-4.02,1.67,35.63c-12.9,.1-26.82,.11-41.83,.01l-.36,.03-8.95-123.42,96.1-34.87Z"/><path class="cls-11" d="M422.359,158.311c-.21,2.31-2.6,3.81-4.75,2.92-7.71-3.23-13.33-.8-17.01,2.41-1.88,1.65-4.8,.26-4.59-2.23l1.91-22.7c.14-1.67,1.08-3.2,2.52-4.06,23.08-13.77,22.98,12.17,21.92,23.66Z"/><path class="cls-17" d="M364.809,227.911l.36-.03c15.01,.1,28.93,.09,41.83-.01l.23,4.95h-42.06l-.36-4.91Z"/><path class="cls-14" d="M376.169,552.651v36.92c-27.16,.54-53.02,1.07-76.55,1.56l-1.16-35.73c25.59-1.34,52.14-2.37,77.71-2.75Z"/><polygon class="cls-1" points="364.809 227.911 365.169 232.821 332.439 232.821 328.589 210.691 296.189 218.061 298.749 232.821 280.299 232.821 265.709 232.821 256.079 152.291 279.479 139.551 284.959 136.571 292.339 190.281 321.529 184.381 310.619 125.981 355.859 104.491 364.809 227.911"/><polygon class="cls-4" points="355.859 65.151 355.859 104.491 310.619 125.981 321.529 184.381 292.339 190.281 284.959 136.571 279.479 139.551 280.299 103.851 355.859 65.151"/><path class="cls-5" d="M334.619,324.281c8.06,.09,14.56,4.69,14.56,10.36,0,5.71-6.62,10.35-14.79,10.35s-14.8-4.64-14.8-10.35c0-3.29,2.19-6.22,5.61-8.12l-.46,1.58,11.09-3.21-1.21-.61Z"/><path class="cls-5" d="M334.389,324.281c-3.48,0-6.67,.84-9.19,2.24l1.78-6.06,7.64,3.82h-.23Z"/><path class="cls-5" d="M335.829,324.891l-11.09,3.21,.46-1.58c2.52-1.4,5.71-2.24,9.19-2.24h.23l1.21,.61Z"/><path class="cls-14" d="M227.999,592.661c19.56-.43,43.99-.95,71.62-1.53,23.53-.49,49.39-1.02,76.55-1.56,24.85-.49,50.8-1,77.07-1.5,21.88-.41,43.98-.81,65.85-1.2,24.48-.43,48.66-.84,71.91-1.2v21.55H183.159c-.74-3.56-1.92-8.16-3.4-13.5,5.14-.12,22.48-.5,48.24-1.06Z"/><path class="cls-16" d="M285.539,311.691l-1.06-16.01v-.02l-4.18-62.84h18.45l-2.56-14.76,32.4-7.37,3.85,22.13h32.73l4.71,71.77c-27.01-.14-55.61,1.55-84.34,7.1Z"/><path class="cls-6" d="M284.479,295.661v.02l1.06,16.01c-8.85,1.71-17.71,3.79-26.54,6.29-19.87,5.63-36.11,9.23-49.37,11.31l-.25-1.64-13.03-134.14-.53-3.09-6.78-39.83,91.26-46.74-.82,35.7-23.4,12.74,9.63,80.53,18.77,62.84Z"/><polygon class="cls-14" points="280.299 232.821 284.479 295.661 265.709 232.821 280.299 232.821"/><path class="cls-14" d="M299.619,591.131c-27.63,.58-52.06,1.1-71.62,1.53v-.01l-1.38-32.64c21.74-1.63,46.32-3.28,71.84-4.61l1.16,35.73Z"/><path class="cls-14" d="M227.999,592.651v.01c-25.76,.56-43.1,.94-48.24,1.06-2.31-8.31-5.38-18.39-8.77-29.09,14.23-1.29,33.45-2.95,55.63-4.62l1.38,32.64Z"/><polygon class="cls-14" points="190.409 196.471 121.799 230.701 57.649 262.701 57.649 237.961 190.409 196.471"/><path class="cls-12" d="M141.359,479.381c1.79,47.73,3.32,87.78,3.32,87.78,0,0,9.81-1.02,26.31-2.53,3.39,10.7,6.46,20.78,8.77,29.09,1.48,5.34,2.66,9.94,3.4,13.5H86.929l-10.73-126.21c1.5-.97,2.99-1.87,4.47-2.69,12.62,3.78,21.93,8.98,23.15,16.11,1.33,7.83,6.49-4.23,12.89-24.31,12.6,1.36,21.4,6.9,24.65,9.26Z"/><path class="cls-12" d="M141.359,479.381c.91,.65,1.38,1.06,1.38,1.06,0,0,16.15,45.96,28.25,84.19-16.5,1.51-26.31,2.53-26.31,2.53,0,0-1.53-40.05-3.32-87.78Z"/><path class="cls-6" d="M196.349,193.511l13.03,134.14,.25,1.64c-72.18,11.31-56.2-22.62-56.2-22.62,0,0-11.55,0-15.89,8.58l-1.61-1-3.07-54-10-27.43-1.06-2.12,68.61-34.23,5.72-2.85,.22-.11Z"/><path class="cls-8" d="M138.209,393.481c.96,26.88,2.1,57.73,3.15,85.9-3.25-2.36-12.05-7.9-24.65-9.26,6.78-21.26,14.96-51.51,21.5-76.64Z"/><path class="cls-12" d="M148.619,352.461c-1.87,7.57-5.72,22.98-10.41,41.02-.65-18.2-1.22-34.59-1.63-47.08,3.24,.29,6.01,.52,8.17,.69,2.68,.21,4.52,2.76,3.87,5.37Z"/><path class="cls-6" d="M137.539,315.251c-1,1.98-1.61,4.42-1.61,7.42,0,2.67,.25,11.27,.65,23.73-9.58-.84-23.26-2.2-37.38-4.13,.21-.88,.32-1.79,.32-2.73,0-6.57-5.32-11.89-11.89-11.89-6.21,0-11.32,4.77-11.83,10.86-4.16-.79-8.18-1.64-11.92-2.55l-6.23-73.26,64.15-32,1.06,2.12,10,27.43,3.07,54,1.61,1Z"/><path class="cls-12" d="M80.669,478.321c13.8-7.75,26.1-9.28,36.04-8.2-6.4,20.08-11.56,32.14-12.89,24.31-1.22-7.13-10.53-12.33-23.15-16.11Z"/><path class="cls-13" d="M87.629,327.651c6.57,0,11.89,5.32,11.89,11.89,0,.94-.11,1.85-.32,2.73-7.88-1.07-15.89-2.32-23.4-3.76,.51-6.09,5.62-10.86,11.83-10.86Z"/><path class="cls-18" d="M183.279,615.121c-2.98-.67-102.54,22.96-105.73,36.11-1.26,5.19-33.45-112.45-41.89-146.83-1.03-4.2,2.29-8.14,6.61-7.93,6.43,.3,15.51-1.07,24.54-8.55,3.19-2.64,6.32-4.93,9.39-6.91l10.73,126.21h96.23c1.08,5.2,1.24,8.15,.12,7.9Z"/><path class="cls-14" d="M75.859,476.991c1.65,.42,3.26,.87,4.81,1.33-1.48,.82-2.97,1.72-4.47,2.69l-.34-4.02Z"/><path class="cls-13" d="M75.799,338.511c7.51,1.44,15.52,2.69,23.4,3.76-1.23,5.25-5.94,9.15-11.57,9.15-6.56,0-11.88-5.32-11.88-11.88,0-.35,.01-.69,.05-1.03Z"/><path class="cls-2" d="M75.749,339.541c0,6.56,5.32,11.88,11.88,11.88,5.63,0,10.34-3.9,11.57-9.15,14.12,1.93,27.8,3.29,37.38,4.13,.41,12.49,.98,28.88,1.63,47.08-6.54,25.13-14.72,55.38-21.5,76.64-9.94-1.08-22.24,.45-36.04,8.2-1.55-.46-3.16-.91-4.81-1.33l-11.98-141.03c3.74,.91,7.76,1.76,11.92,2.55-.04,.34-.05,.68-.05,1.03Z"/><path class="cls-18" d="M42.769,328.331c4.45,2.89,12.01,5.43,21.11,7.63l11.98,141.03c-24.51-6.32-58.13-8.08-71.17-8.55-2.79-.1-4.76-2.78-4.04-5.48l35.63-132.07c.76-2.81,4.05-4.15,6.49-2.56Z"/></g><g><line class="cls-3" x1="829.149" y1="221.381" x2="829.069" y2="222.011"/><line class="cls-3" x1="196.129" y1="193.621" x2="195.819" y2="190.421"/><polyline class="cls-3" points="190.409 196.471 196.129 193.621 196.349 193.511 195.819 190.421 189.039 150.591 280.299 103.851 355.859 65.151 453.059 15.371 481.969 .561 561.379 40.401 644.679 82.191 734.679 127.341 804.369 162.301 797.039 205.221 829.069 222.011 913.799 266.431 877.019 607.221 790.709 607.221 761.309 607.221 721.819 607.221 670.939 607.221 590.999 607.221 261.229 607.221 183.159 607.221"/><line class="cls-3" x1="63.879" y1="335.961" x2="57.649" y2="262.701"/><line class="cls-3" x1="76.199" y1="481.011" x2="75.859" y2="476.991"/><polyline class="cls-3" points="355.859 104.491 310.619 125.981 321.529 184.381 292.339 190.281 284.959 136.571 279.479 139.551 256.079 152.291 265.709 232.821 280.299 232.821 298.749 232.821 296.189 218.061 328.589 210.691 332.439 232.821 365.169 232.821"/><polyline class="cls-3" points="451.959 69.621 355.859 104.491 364.809 227.911 365.169 232.821 407.229 232.821 406.999 227.871 405.329 192.241 422.119 196.261 425.169 227.651 425.669 232.821 450.029 232.821"/><path class="cls-3" d="M422.359,158.311c1.06-11.49,1.16-37.43-21.92-23.66-1.44,.86-2.38,2.39-2.52,4.06l-1.91,22.7c-.21,2.49,2.71,3.88,4.59,2.23,3.68-3.21,9.3-5.64,17.01-2.41,2.15,.89,4.54-.61,4.75-2.92Z"/><polygon class="cls-3" points="451.959 69.621 455.139 68.541 496.119 54.701 556.019 83.921 552.469 161.021 515.819 168.661 493.379 166.171 495.199 224.961 495.439 232.821 452.829 232.821 450.029 232.821 450.099 227.081 451.959 69.621"/><path class="cls-3" d="M524.579,113.771c.03-.12,.01-.24-.06-.33-.82-1.11-6.59-7.72-26.15-3.51-.2,.05-.35,.22-.35,.43v14.89c0,.09,.02,.17,.07,.24l5.71,8.49c.1,.15,.29,.23,.46,.17,2-.57,13.76-3.66,18.32,1.94,.27,.33,.8,.16,.78-.27-.2-3.99-.51-14.47,1.22-22.05Z"/><polyline class="cls-3" points="632.969 181.321 586.689 181.321 586.689 208.661 586.689 232.821 574.979 232.821 549.999 232.821 550.589 218.221 556.019 83.921 640.559 122.401"/><path class="cls-3" d="M606.929,145.241l-14.98-7.96v18.14s7.87,4.47,12.51,6.51c1.2,.53,2.47-16.69,2.47-16.69Z"/><polygon class="cls-3" points="640.559 122.401 646.139 124.991 672.669 137.281 669.719 161.941 676.509 161.941 679.459 157.181 679.459 140.641 711.349 156.291 695.579 214.071 690.459 232.821 654.209 232.821 660.519 210.651 666.129 190.921 640.559 183.521 632.969 181.321 640.559 122.401"/><path class="cls-3" d="M116.709,470.121c12.6,1.36,21.4,6.9,24.65,9.26,.91,.65,1.38,1.06,1.38,1.06,0,0,16.15,45.96,28.25,84.19,3.39,10.7,6.46,20.78,8.77,29.09,1.48,5.34,2.66,9.94,3.4,13.5,1.08,5.2,1.24,8.15,.12,7.9-2.98-.67-102.54,22.96-105.73,36.11-1.26,5.19-33.45-112.45-41.89-146.83-1.03-4.2,2.29-8.14,6.61-7.93,6.43,.3,15.51-1.07,24.54-8.55,3.19-2.64,6.32-4.93,9.39-6.91,1.5-.97,2.99-1.87,4.47-2.69"/><path class="cls-3" d="M138.209,393.481c.96,26.88,2.1,57.73,3.15,85.9,1.79,47.73,3.32,87.78,3.32,87.78,0,0,9.81-1.02,26.31-2.53,14.23-1.29,33.45-2.95,55.63-4.62,21.74-1.63,46.32-3.28,71.84-4.61,25.59-1.34,52.14-2.37,77.71-2.75,27.63-.4,54.13-.05,77.07,1.47,18.83,1.24,35.27,3.27,47.97,6.32,4.86,1.16,12.54,3.74,19.03,4.77,6.45,1.02,11.73,.5,11.87-4.47l-2.47-114.56-2.19-101.23-.42-19.58c.22-7.69-5.29-17.23-12.82-15.66-13.66,2.83-34.56,1.51-60.16-.49-24.49-1.92-53.28-4.47-84.17-4.63-27.01-.14-55.61,1.55-84.34,7.1-8.85,1.71-17.71,3.79-26.54,6.29-19.87,5.63-36.11,9.23-49.37,11.31-72.18,11.31-56.2-22.62-56.2-22.62,0,0-11.55,0-15.89,8.58-1,1.98-1.61,4.42-1.61,7.42,0,2.67,.25,11.27,.65,23.73"/><path class="cls-3" d="M334.619,324.281c8.06,.09,14.56,4.69,14.56,10.36,0,5.71-6.62,10.35-14.79,10.35s-14.8-4.64-14.8-10.35c0-3.29,2.19-6.22,5.61-8.12"/><path class="cls-3" d="M343.779,330.281s-.24,3.45-5.77,6.88c-2.05,1.28-4.83,2.56-8.59,3.66"/><path class="cls-3" d="M342.729,340.311c-.32-.13-2.1-1.12-4.72-3.15-1.29-.99-2.8-2.25-4.43-3.78"/><polyline class="cls-3" points="324.739 328.101 325.199 326.521 326.979 320.461 334.619 324.281 335.829 324.891"/><polyline class="cls-3" points="122.859 232.821 132.859 260.251 135.929 314.251"/><line class="cls-3" x1="196.349" y1="193.511" x2="209.379" y2="327.651"/><line class="cls-3" x1="280.299" y1="103.851" x2="279.479" y2="139.551"/><line class="cls-3" x1="284.479" y1="295.681" x2="285.539" y2="311.691"/><line class="cls-3" x1="280.299" y1="232.821" x2="284.479" y2="295.661"/><line class="cls-3" x1="355.859" y1="65.151" x2="355.859" y2="104.491"/><path class="cls-3" d="M742.779,222.021s-6.91-1.73-19.79-3.94c-7.28-1.26-16.48-2.67-27.41-4.01-10.22-1.26-21.95-2.46-35.06-3.42-7.3-.53-15.02-.99-23.15-1.34-15.48-.68-32.43-.96-50.68-.65-.37,.01-.75,.01-1.13,.02-6.81,.13-13.55,1.65-19.62,4.71-2.89,1.45-7.61,3.14-15.35,4.83-3.88,.86-8.52,1.71-14.06,2.54-10.32,1.55-23.78,3.01-41.33,4.2-12.75,.88-27.67,1.61-45.1,2.12-7.8,.24-16.09,.43-24.93,.57-5.82,.09-11.87,.17-18.17,.22-12.9,.1-26.82,.11-41.83,.01"/><line class="cls-3" x1="365.169" y1="232.821" x2="369.879" y2="304.591"/><line class="cls-3" x1="453.059" y1="15.371" x2="455.139" y2="68.541"/><line class="cls-3" x1="452.829" y1="232.821" x2="454.049" y2="309.221"/><polyline class="cls-3" points="561.379 40.391 561.379 40.401 556.019 83.921"/><path class="cls-3" d="M830.099,338.921c6.31-19.44,12.8-36.91,18.55-47.45,0,0-7.31-8.42-28.25-17.28-19.9-8.42-52.13-17.24-102.11-19.61-10.06-.48-20.84-.7-32.38-.6,0,0-13.79,135.76-37.12,164.93,4.46-1.41,11.16,5.15,43.03,12.28,2.95,.66,6.11,1.32,9.5,1.99,21.86,4.26,53.37,8.48,99.37,11.09,0,0,14.17-58.41,29.41-105.34"/><path class="cls-3" d="M809.869,288.561c.65,.37,1.21,.85,1.67,1.44,2.3,2.95,1.24,7.74-2.28,11.42-.52,.55-1.09,1.06-1.71,1.55-4.84,3.77-10.91,4.08-13.55,.69-.56-.71-.92-1.53-1.09-2.42-.55-2.79,.7-6.21,3.37-9,.52-.55,1.09-1.06,1.71-1.55,4-3.11,8.83-3.87,11.88-2.13Z"/><path class="cls-3" d="M808.549,290.441s-.23,3.29-5.4,6.65c-2.08,1.35-4.97,2.72-8.96,3.89"/><path class="cls-3" d="M807.939,300.291c-.32-.13-2.13-1.14-4.79-3.2-1.28-.99-2.75-2.23-4.36-3.73"/><path class="cls-3" d="M830.099,338.921v.01s13.34,20.23,18.55,20.23c0,0-8.56,134.28-16.77,134.87-2.53,.18-16.62,.72-34.9,1.24-41.1,1.16-103.4,2.21-103.2-1.24,.29-4.98,1.6-51.03,7.54-60.85v-.01"/><polyline class="cls-3" points="640.559 183.511 640.559 183.521 637.369 209.311 590.999 584.041 590.999 585.671 590.999 604.831"/><line class="cls-3" x1="646.139" y1="124.991" x2="644.679" y2="82.191"/><polyline class="cls-3" points="734.679 127.331 734.679 127.341 722.989 218.081 718.289 254.571"/><polyline class="cls-3" points="691.819 431.191 673.639 584.491 670.939 607.221"/><line class="cls-3" x1="829.069" y1="222.021" x2="820.399" y2="274.191"/><polyline class="cls-3" points="796.979 495.271 784.429 584.331 790.709 607.221"/><path class="cls-3" d="M178.169,593.751s.54-.01,1.59-.03c5.14-.12,22.48-.5,48.24-1.06,19.56-.43,43.99-.95,71.62-1.53,23.53-.49,49.39-1.02,76.55-1.56,24.85-.49,50.8-1,77.07-1.5,21.88-.41,43.98-.81,65.85-1.2,24.48-.43,48.66-.84,71.91-1.2,29.49-.48,57.47-.87,82.64-1.18,54.39-.64,95.69-.81,110.79-.16"/><line class="cls-3" x1="226.619" y1="560.011" x2="227.999" y2="592.651"/><polyline class="cls-3" points="298.459 555.391 298.459 555.401 299.619 591.131"/><line class="cls-3" x1="376.169" y1="552.661" x2="376.169" y2="589.571"/><polyline class="cls-3" points="453.239 554.111 453.239 554.121 453.239 588.071"/><line class="cls-3" x1="527.599" y1="344.951" x2="536.619" y2="221.381"/><polyline class="cls-3" points="57.649 262.701 57.649 237.961 190.409 196.471"/><polyline class="cls-3" points="265.709 232.821 284.479 295.661 284.479 295.681"/><line class="cls-3" x1="520.239" y1="565.211" x2="519.089" y2="586.871"/><path class="cls-3" d="M677.739,668.351c6.49-11.05,19.2-29.85,44.08-61.13"/><path class="cls-3" d="M261.229,607.221s29.35,65.97,27.84,75.75c-.61,3.98,62.21,4.72,137.05,4.21,14.82-.1,30.11-.25,45.48-.44,10.09-.12,20.22-.26,30.26-.41,9.14-.13,18.21-.27,27.12-.42,6.2-.1,12.33-.21,18.36-.32,68.41-1.21,123.6-2.62,123.6-2.62,0,0,0-3.07,6.79-14.62"/><polyline class="cls-3" points="426.119 687.321 426.119 1291.491 471.619 1291.491 501.859 1291.491 501.859 686.331 501.859 685.911"/><polyline class="cls-3" points="471.619 688.301 471.619 1291.491 471.619 1292.471 547.359 1292.471 547.359 686.891"/><polyline class="cls-3" points="677.729 668.351 677.739 668.351 703.979 668.351 761.309 607.221"/><path class="cls-3" d="M490.159,666.271c-14.1,0-22.93-9.9-24.14-21.07-1.85-17.1,20.99-29.64,31.33-15.94,5.07,6.72,11.55,5.93,15.81,15.81,4.46,10.32-8.9,21.2-23,21.2Z"/><path class="cls-3" d="M497.039,657.691c-13.18,1.29-22.63-19.19-22.63-19.19"/><line class="cls-3" x1="476.789" y1="636.441" x2="498.489" y2="654.881"/><path class="cls-3" d="M75.799,338.511c-4.16-.79-8.18-1.64-11.92-2.55-9.1-2.2-16.66-4.74-21.11-7.63-2.44-1.59-5.73-.25-6.49,2.56L.649,462.961c-.72,2.7,1.25,5.38,4.04,5.48,13.04,.47,46.66,2.23,71.17,8.55,1.65,.42,3.26,.87,4.81,1.33,12.62,3.78,21.93,8.98,23.15,16.11,1.33,7.83,6.49-4.23,12.89-24.31,6.78-21.26,14.96-51.51,21.5-76.64,4.69-18.04,8.54-33.45,10.41-41.02,.65-2.61-1.19-5.16-3.87-5.37-2.16-.17-4.93-.4-8.17-.69-9.58-.84-23.26-2.2-37.38-4.13"/><path class="cls-3" d="M75.799,338.511c.51-6.09,5.62-10.86,11.83-10.86,6.57,0,11.89,5.32,11.89,11.89,0,.94-.11,1.85-.32,2.73-1.23,5.25-5.94,9.15-11.57,9.15-6.56,0-11.88-5.32-11.88-11.88,0-.35,.01-.69,.05-1.03Z"/><line class="cls-3" x1="574.979" y1="232.821" x2="529.639" y2="446.181"/></g></g></g></svg>