<?xml version="1.0" encoding="UTF-8"?><svg id="Layer_2" xmlns="http://www.w3.org/2000/svg" viewBox="0 0 484.949 508.111"><defs><style>.cls-1{fill:#8d2d15;}.cls-2,.cls-3{fill:#fab677;}.cls-4,.cls-5,.cls-6,.cls-7,.cls-8,.cls-3,.cls-9,.cls-10,.cls-11,.cls-12,.cls-13,.cls-14,.cls-15,.cls-16{stroke:#000;stroke-linecap:round;stroke-linejoin:round;}.cls-4,.cls-5,.cls-6,.cls-7,.cls-8,.cls-3,.cls-9,.cls-11,.cls-14,.cls-16{stroke-width:4.5px;}.cls-4,.cls-17{fill:#c7ceea;}.cls-18{fill:#edf0ff;}.cls-5,.cls-19{fill:#fefad5;}.cls-20,.cls-16{fill:#932247;}.cls-21,.cls-14{fill:#bf3c67;}.cls-6,.cls-22{fill:#d3d3d3;}.cls-7,.cls-23{fill:#87784d;}.cls-8,.cls-12,.cls-24{fill:#e0aa24;}.cls-9,.cls-25{fill:#fcf8d2;}.cls-10{stroke-width:.25px;}.cls-10,.cls-13,.cls-15{fill:none;}.cls-11,.cls-26{fill:#404362;}.cls-12{stroke-width:4px;}.cls-27{fill:#63709e;}.cls-13{stroke-width:1.5px;}.cls-28{fill:#353d64;}.cls-15{stroke-width:2px;}.cls-29{fill:#ffd3c8;}</style></defs><g id="Layer_3"><g><g><polygon class="cls-22" points="322.409 253.631 322.224 253.565 322.391 253.489 322.409 253.631"/><polygon class="cls-22" points="322.475 253.446 322.391 253.489 322.387 253.419 322.475 253.446"/><polygon class="cls-19" points="380.132 201.837 379.513 208.98 378.86 208.753 371.709 210.774 371.239 206.116 371.207 205.912 371.332 205.853 380.132 201.837"/><path class="cls-23" d="M364.422,159.755s-.487-.514-1.398-1.466c.081-.595,.143-1.192,.195-1.79,.661-7.872-1.311-16.394-5.574-24.663v-.01c-3.436-6.681-8.352-13.2-14.557-19.087,2.15,.558,4.347,1.26,6.581,2.126l.019,.012c1.409,.533,2.842,1.149,4.288,1.837,2.208,1.044,4.304,2.109,6.275,3.223,.193,.097,.393,.215,.585,.322,.889,.509,1.759,1.016,2.607,1.531,3.338,2.025,6.298,4.129,8.922,6.273,3.487,2.851,6.385,5.782,8.776,8.77l-9.229-6.44c-5.216,29.871,16.255,32.413-7.491,29.363Z"/><path class="cls-12" d="M397.916,201.389c-.645-8.196-10.977-12.915-10.977-12.915,0,0,.553-1.056,1.28-2.96,1.075-2.798,2.528-7.41,3.191-13.084,.389-3.339,.49-7.054,.078-10.984-.816-7.729-3.637-16.314-10.336-24.603l-.009-.011-9.229-6.44c-5.216,29.871,16.255,32.413-7.491,29.363,0,0-.487-.514-1.398-1.466-5.381-5.555-25.659-25.93-50.397-43.369-6.27,2.749-11.803,6.827-16.487,11.661,3.736-.028,7.19-.04,9.95-.032,2.438,.01,3.733,2.903,2.102,4.709-10.288,11.355-18.16,23.21-20.943,36.118-.57,2.641-4.113,3.107-5.299,.686-.982-1.992-2.082-4.235-3.233-6.603-1.162,8.903,.477,16.633,5.37,20.751,0,0-10.989-.951-5.616,14.66,1.371,3.993,4.175,9.626,8.514,15.392,7.64,10.177,20.074,20.759,37.895,23.486,11.57,1.775,25.414,.233,41.699-6.879,25.475-11.134,31.882-20.557,31.337-27.479Zm-63.297-4.155q-.01,0-.02,.008c.011-.009,.011-.019,.011-.019,.031-.017,.073-.034,.106-.061-.033,.027-.065,.055-.097,.072Zm44.894,11.746l-.653-.227-7.151,2.021-.47-4.658-.032-.204,.126-.059,8.799-4.016-.618,7.143Z"/><path class="cls-24" d="M308.191,131.259c-10.288,11.355-18.16,23.21-20.943,36.118-.57,2.641-4.113,3.107-5.299,.686-.982-1.992-2.082-4.235-3.233-6.603,.432-3.255,1.23-6.669,2.391-10.111,2.033-6.097,5.181-12.319,9.314-17.974,1.732-2.379,3.646-4.663,5.718-6.792,3.736-.028,7.19-.04,9.95-.032,2.438,.01,3.733,2.903,2.102,4.709Z"/><path class="cls-24" d="M363.219,156.499c-.052,.598-.114,1.195-.195,1.79-5.381-5.555-25.659-25.93-50.397-43.369,8.797-3.876,19.053-5.126,30.462-2.181,6.205,5.887,11.121,12.405,14.558,19.087v.01c4.262,8.269,6.234,16.79,5.573,24.663Z"/><path class="cls-10" d="M399.259,211.834s4.667,4.392,6.59,4.496"/><g><path class="cls-8" d="M382.504,81.989l11.584,63.185-11.936-8.331-.009-.011c-2.391-2.987-5.289-5.918-8.776-8.77,.972-4.623,2.581-9.864,5.04-15.784-6.206,1.54-10.786,5.52-13.963,9.511-.848-.515-1.718-1.022-2.607-1.531-.192-.107-.392-.225-.585-.322,2.501-20.651-8.52-27.618-9.198-28.018,6.525,5.905-5.297,15.732-5.297,15.732-1.27-5.039-6.081-10.223-12.095-14.959,4.83-16.836,15.016-51.477,18.624-57.207,1.812-5.745,4.22-9.682,5.967-10.023,6.37-1.235,44.318-15.937,44.318-15.937l-17.029,14.566c-3.914,3.355-5.357,8.771-3.619,13.629l13.413,37.416-13.833,6.852Z"/><path class="cls-5" d="M382.142,136.832l-9.229-6.44-9.786-6.84-2.178-1.514-10.26-7.162-.019-.012-18.618-13.004s1.015-3.616,2.611-9.169c6.014,4.736,10.824,9.921,12.095,14.959,0,0,11.822-9.827,5.297-15.732,.678,.4,11.698,7.366,9.198,28.018,.193,.097,.393,.215,.585,.322,.889,.509,1.759,1.016,2.607,1.531,3.176-3.991,7.756-7.971,13.963-9.511-2.46,5.92-4.068,11.161-5.04,15.784,3.487,2.851,6.385,5.782,8.776,8.77Z"/><path class="cls-7" d="M95.445,469.451s-19.466,24.646-19.636,30.464l-67.147,3.686-6.411-8.721s21.105-42.096,40.895-36.691c9.56,2.611,18.635,19.853,17.475,30.162-.894,7.948,6.799,7.297,6.799,7.297l28.026-26.198Z"/><path class="cls-11" d="M301.32,336.726c-2.75-.81-5.421-1.613-8.012-2.41l7.577-3.339c.084,1.814,.228,3.744,.436,5.749Z"/><path class="cls-8" d="M249.578,475.139c30.283,21.913,21.599,26.331,21.599,26.331-19.402,10.546-59.648-.507-70.227-6.08-10.589-5.574,48.177-85.654,48.177-85.654l-31.434-31.338c-68.858,33.867-150.373,114.808-150.373,114.808-5.334-47.838-31.755-41.433-31.755-41.433l-2.031-4.592s152.617-159.169,157.659-163.722c5.051-4.541,23.269,3.681,23.269,3.681l23.612,30.44c6.022,7.768,14.655,13.093,24.307,14.993l12.504,2.468,2.035,6.52,16.386-7.244c2.591,.797,5.262,1.6,8.012,2.41,3.085,30.098,19.191,79.19,19.191,79.19-25.757,8.249-70.933,59.223-70.933,59.223Z"/><path class="cls-6" d="M402.862,346.069c-9.015-4.384-15.685-10.472-19.866-15.05l19.866,15.05Z"/><path class="cls-8" d="M443.127,349.605c-16.375,4.334-29.873,1.529-40.265-3.536l-19.866-15.05c-3.428-3.77-5.177-6.521-5.177-6.521,.481-.109,1.019-.293,1.594-.555,10.292-4.68,34.349-32.93,34.349-32.93,5.812-2.9,31.944-1.561,31.944-1.561,1.742,3.985,1.92,12.723,1.43,22.327-.899,17.457-4.008,37.825-4.008,37.825Z"/><path class="cls-8" d="M438.789,286.094l-16.559-.028c.02-.229,15.033-37.182,15.033-37.182l14.997,9.147s-14.143,24.12-13.471,28.063Z"/><path class="cls-8" d="M467.373,353.25s-12.918,4.754-18.539-2.548c-1.579-2.054-.375-22.566,.107-39.729,.365-12.555,.343-23.318-1.449-23.724,0,0,.545-14.868,3.285-15.685,12.14-3.646,23.506-1.368,23.506-1.368l-4.907,22.471s-12.066-1.266-12.042-.029c.014,1.236-.959,12.474-.959,12.474,0,0,8.695-1.536,12.504,1.424h.01c.885,.68,1.497,1.606,1.691,2.847,1.014,6.602-1.697,16.244-1.697,16.244l-6.953-.04c-1.996-.022-3.662,1.489-3.863,3.47l-.009,.109c-.329,3.806,2.416,7.215,6.218,7.705l6.125,.781s2.925,11.314-3.026,15.597Z"/><path class="cls-8" d="M404.143,355.153c-14.084-.677-27.98-2.252-41.325-4.391-22.643-3.616-43.711-8.833-61.498-14.037-.208-2.005-.352-3.935-.436-5.749l-7.577,3.339c-12.191-3.756-22.508-7.369-30.282-10.21-.505-.194-1.002-.368-1.488-.551-8.435-3.099-13.537-5.147-14.324-5.215-.129-.011-.331-.119-.605-.313-6.311-4.431-48.837-55.359-48.837-55.359-.765-8.327,29.091-41.997,29.091-41.997l-2.833-9.711c3.136-10.368,45.556-38.564,45.556-38.564l6.531,10.121c-6.955,27.693,12.944,38.771,13.313,38.682,.389,.034,4.348,30.469,4.348,30.469l4.634,2.71,10.356,6.056,12.19,7.128,33.218,19.438,11.693,6.844,44.525-.923c-7.187,9.395-35.377,32.41-35.377,32.41,21.712,19.806,29.126,29.823,29.126,29.823Z"/><path class="cls-8" d="M366.708,235.227c-11.425,4.782-26.937,8.769-43.443,5.694-4.92-.898-9.926-2.445-14.943-4.777-5.557-2.589-11.122-6.142-16.582-10.891l3.702,24.481,13.263,7.261,12.574,6.87,32.162,17.6,22.408-15.816,1.988-1.404,7.795-39.495s-7.374,5.645-18.924,10.477Zm-43.483,18.338l.167-.076-.004-.071,.088,.028-.084,.043,.018,.142-.185-.066Z"/><polygon class="cls-4" points="323.391 253.489 323.409 253.631 323.224 253.565 323.391 253.489"/><polygon class="cls-4" points="323.475 253.446 323.391 253.489 323.387 253.419 323.475 253.446"/><path class="cls-5" d="M463.078,2.875l-8.55,27.095s4.772-.556,18.26,1.753c0,0,3.134-11.913,9.799-24.631,0,0,2.789-6.916-19.509-4.217Z"/><path class="cls-8" d="M471.397,43.131c-1.366,8.815-5.628,22.107-6.699,22.185-1.444,.096-21.294-2.727-21.294-2.727l6.286-19.741,3.295-10.344s17.474,1.061,18.531,3.803c.484,1.246,.357,3.765-.119,6.825Z"/><path class="cls-5" d="M442.479,65.027s20.975,2.281,21.071,4.148-5.533,17.388-5.392,18.743c0,0-14.922-.621-20.535-7.355l4.857-15.536Z"/><path class="cls-7" d="M442.636,103.545l-7.141,1.575-7.694,3.614c-10.01-3.047-18.652-23.056-18.652-23.056,3.403-2.566,14.608-1.445,14.608-1.445l6.803,12.095,4.891-1.975,7.184,9.191Z"/><polygon class="cls-9" points="381.132 201.837 380.513 208.98 379.86 208.753 372.709 210.774 372.239 206.116 372.207 205.912 372.332 205.853 381.132 201.837"/><path class="cls-3" d="M309.191,131.259c-10.288,11.355-18.16,23.21-20.943,36.118-.57,2.641-4.113,3.107-5.299,.686-.982-1.992-2.082-4.235-3.233-6.603-6.303-12.872-14.472-29.589-15.454-31.812-1.006-2.285,18.149-2.915,32.877-3.066,3.736-.028,7.19-.04,9.95-.032,2.438,.01,3.733,2.903,2.102,4.709Z"/><path class="cls-9" d="M301.445,136.165c.988-1.091,.203-2.841-1.269-2.844-8.265-.016-26.675,.141-25.907,1.869,.708,1.594,7.502,15.483,11.304,23.241,.717,1.464,2.858,1.178,3.203-.415,1.687-7.806,6.447-14.979,12.671-21.851Z"/><path class="cls-14" d="M365.422,159.755s-.487-.514-1.398-1.466c-5.381-5.555-25.659-25.93-50.397-43.369-13.698-9.657-28.749-18.408-43.407-23.241,0,0,3.348-11.424,45.404,1.331,0,0,8.383,4.269-13.122-18.983,.581,.251,19.174,8.425,32.16,18.664,6.014,4.736,10.824,9.921,12.095,14.959,0,0,11.822-9.827,5.297-15.732,.678,.4,11.698,7.366,9.198,28.018-.079,.686-.181,1.39-.303,2.102-.47,2.991-1.213,6.239-2.303,9.788,.284-.728,1.689-4.32,4.48-8.274,.412-.587,.844-1.172,1.317-1.763,3.176-3.991,7.756-7.971,13.963-9.511-2.46,5.92-4.068,11.161-5.04,15.784-.179,.798-.326,1.568-.453,2.33-5.216,29.871,16.255,32.413-7.491,29.363Z"/><polygon class="cls-16" points="321.278 263.866 320.958 267.562 308.768 260.434 308.704 256.996 321.278 263.866"/><path class="cls-7" d="M301.32,336.726c-2.75-.81-5.421-1.613-8.012-2.41l7.577-3.339c.084,1.814,.228,3.744,.436,5.749Z"/><path class="cls-8" d="M456.882,11.843l-.977,2.816-9.392,27.211-12.964,37.522c-23.934-1.922-29.683,6.404-29.683,6.404,0,0-16.736-43.787-17.675-51.135-.93-7.348,25.844-25.135,25.844-25.135l9.342,.488,29.759,1.533,5.746,.297Z"/></g><path class="cls-10" d="M342.759,199.093c4.912,.997,10.177,1.754,11.551,.839,0,0-8.785,9.769-15.511,7.801"/><path class="cls-10" d="M334.619,197.234l-.009-.011c-.796-.199-1.267-.32-1.267-.32"/><path class="cls-10" d="M385.659,191.907c2.393-.275,4.715-.555,4.715-.555"/><path class="cls-10" d="M391.259,181.13s-1.301,2.045-3.039,4.384"/><polygon class="cls-1" points="380.132 201.837 379.513 208.98 378.86 208.753 371.709 210.774 371.239 206.116 371.207 205.912 371.332 205.853 380.132 201.837"/><polygon class="cls-29" points="375.117 209.689 374.931 209.623 375.099 209.547 375.117 209.689"/><polygon class="cls-29" points="375.183 209.504 375.099 209.547 375.095 209.476 375.183 209.504"/><path class="cls-10" d="M323.522,226.313s-11.554-3.495-12.622-2.088"/><path class="cls-10" d="M330.13,233.759s-2.915-.568-6.245,2.928"/><path class="cls-10" d="M396.838,201.654s14.149-3.636,16.274-2.268"/><path class="cls-10" d="M402.156,207.162s7.297,2.813,7.994,4.119"/><path class="cls-10" d="M316.208,215.638s-9.527-7.841-17.793-7.13"/></g><g><polygon class="cls-22" points="330.05 250.925 329.627 255.806 329.179 255.647 324.301 257.032 323.975 253.852 323.957 253.71 324.041 253.667 330.05 250.925"/><polygon class="cls-22" points="323.975 253.852 323.789 253.785 323.957 253.71 323.975 253.852"/><polygon class="cls-22" points="324.041 253.667 323.957 253.71 323.953 253.639 324.041 253.667"/><path class="cls-19" d="M368.144,229.091c-41.363,18.08-66.995,.172-79.594-16.607,38.223-2.091,67.159-24.328,74.522-47.349,11.402,5.454,22.613,7.087,29.903,7.517-1.106,9.53-4.47,16.044-4.47,16.044,0,0,35.223,16.098-20.36,40.394Z"/><path class="cls-23" d="M392.974,172.652c-7.29-.43-18.501-2.063-29.903-7.517,.895-2.803,1.48-5.623,1.712-8.414,1.203-14.239-6.245-30.583-20.13-43.759,3.525,.907,7.155,2.216,10.888,3.974,2.43,1.144,4.717,2.326,6.859,3.545,22.068,12.45,29.27,28.049,30.652,41.187,.413,3.93,.311,7.645-.078,10.984Z"/><path class="cls-24" d="M364.783,156.721c-2.167,25.729-33.361,53.412-76.233,55.762-4.339-5.766-7.144-11.399-8.514-15.392-5.374-15.612,5.616-14.66,5.616-14.66-18.45-15.529,9.363-82.299,59.002-69.47,13.885,13.177,21.333,29.52,20.13,43.759Z"/><path class="cls-13" d="M400.826,212.057s4.667,4.392,6.59,4.496"/><g><path class="cls-19" d="M376.033,85.69s-17.39-57.504-22.161-50.017c-4.771,7.487-21.256,66.414-21.256,66.414l62.038,43.308-12.412-67.698-6.209,7.994Z"/><path class="cls-23" d="M96.012,469.674s-19.466,24.646-19.636,30.464l-67.147,3.686-6.411-8.721s21.105-42.096,40.895-36.691c9.56,2.611,18.635,19.853,17.475,30.162-.894,7.948,6.799,7.297,6.799,7.297l28.026-26.198Z"/><path class="cls-26" d="M210.829,371.216l38.865,38.742s-58.761,80.08-48.179,85.654c10.582,5.575,50.825,16.629,70.228,6.08,0,0,8.68-4.414-21.596-26.328,0,0,45.177-50.974,70.932-59.226,0,0-18.318-55.86-19.629-84.944l-90.62,40.022Z"/><path class="cls-27" d="M215.028,287.358s-18.221-8.221-23.265-3.675S34.098,447.404,34.098,447.404l2.039,4.595s26.419-6.409,31.754,41.435c0,0,88.22-87.597,158.632-118.677l54.683-21.043-5.75-18.451-12.51-2.466c-9.646-1.902-18.279-7.228-24.305-14.997l-23.612-30.441Z"/><path class="cls-22" d="M383.561,331.241l19.866,15.05c-9.015-4.384-15.685-10.472-19.866-15.05Z"/><path class="cls-19" d="M447.699,312.002c-3.294,1.531-6.544,3.478-9.675,5.907-6.737,5.239-11.08,11.347-13.852,16.356,0,0-12.678-23.411-21.783-15.055-5.66,5.201-15.671,5.479-22.411,4.956,10.292-4.68,34.348-32.93,34.348-32.93,5.812-2.9,31.944-1.561,31.944-1.561,1.743,3.985,1.92,12.723,1.429,22.327Z"/><path class="cls-19" d="M422.795,286.286c.02-.232,15.037-37.183,15.037-37.183l14.99,9.15s-14.139,24.121-13.47,28.067l-16.557-.034Z"/><path class="cls-23" d="M469.442,306.758c-6.233,.344-13.123,1.564-19.937,4.437,.364-12.555,.342-23.318-1.449-23.724,0,0,.544-14.868,3.285-15.685,12.14-3.646,23.505-1.368,23.505-1.368l-4.906,22.471s-12.066-1.266-12.042-.029c.014,1.236-.959,12.474-.959,12.474,0,0,8.695-1.536,12.503,1.424Z"/><path class="cls-17" d="M298.976,254.6c-24.914,12.538-43.86,35.67-51.803,63.649-6.311-4.431-48.837-55.359-48.837-55.359-.765-8.327,29.091-41.997,29.091-41.997l-2.833-9.711c3.136-10.368,45.556-38.564,45.556-38.564l6.531,10.121c-6.955,27.693,12.944,38.771,13.313,38.682,.388,.034,4.348,30.469,4.348,30.469l4.634,2.71Z"/><path class="cls-19" d="M404.708,355.375c-14.084-.677-27.98-2.252-41.325-4.391-9.002-17.411-25.108-30.56-44.587-35.588-19.077-4.914-39.071-1.445-55.206,8.932-.505-.194-1.002-.368-1.488-.551-8.434-3.099-13.537-5.147-14.324-5.215-.129-.011-.331-.119-.605-.313,7.943-27.979,26.889-51.111,51.803-63.649l55.764,32.621,11.693,6.844,44.526-.923c-7.187,9.395-35.377,32.409-35.377,32.409,21.712,19.806,29.126,29.823,29.126,29.823Z"/><path class="cls-17" d="M308.886,236.367l.383,20.851-13.263-7.261-3.703-24.481c5.461,4.749,11.025,8.302,16.582,10.891Z"/><path class="cls-18" d="M386.197,224.973l-7.795,39.495-1.989,1.404-9.14-30.422c11.55-4.832,18.924-10.477,18.924-10.477Z"/><path class="cls-17" d="M376.412,265.871l-22.408,15.816-32.161-17.6,1.986-22.944c16.506,3.075,32.018-.912,43.443-5.694l9.14,30.422Z"/><path class="cls-19" d="M431.57,32.117c4.214,4.551,9.552,7.924,15.507,9.975l-12.964,37.522c-23.934-1.922-29.683,6.404-29.683,6.404,0,0-16.736-43.787-17.675-51.135-.93-7.348,25.844-25.135,25.844-25.135l9.343,.488c.816,7.047,3.351,15.095,9.628,21.882Z"/><polygon class="cls-19" points="457.446 12.065 456.47 14.881 451.7 11.768 457.446 12.065"/><path class="cls-19" d="M463.646,3.097l-8.55,27.095s4.772-.556,18.26,1.753c0,0,3.134-11.913,9.799-24.631,0,0,2.789-6.916-19.509-4.217Z"/><path class="cls-19" d="M471.961,43.353c-1.365,8.815-5.627,22.107-6.698,22.185-1.444,.096-21.294-2.727-21.294-2.727l6.286-19.741c6.832,1.776,14.298,1.92,21.706,.283Z"/><path class="cls-19" d="M443.046,65.25s20.975,2.281,21.071,4.148-5.533,17.388-5.392,18.743c0,0-14.922-.621-20.535-7.355l4.857-15.536Z"/><path class="cls-23" d="M443.203,103.768l-7.141,1.575-7.694,3.614c-10.01-3.047-18.652-23.056-18.652-23.056,3.403-2.566,14.608-1.445,14.608-1.445l6.803,12.095,4.891-1.975,7.184,9.191Z"/><path class="cls-19" d="M406.578,7.659s-40.384,16.789-46.756,18.028c-6.372,1.238-21.51,50.26,15.664,60.274l21.419-10.599-13.412-37.419c-1.74-4.853-.3-10.277,3.618-13.628l19.468-16.655Z"/><path class="cls-25" d="M375.162,224.417c-16.114,7.04-29.204,7.171-39.531,3.896-4.049-17.052,14.343-52.247,51.595-38.558-.499,1.257,.221,3.107,.221,3.107,0,0,31.605,12.363-12.285,31.555Z"/><path class="cls-2" d="M309.758,131.477c1.634-1.804,.335-4.697-2.099-4.701-13.665-.027-44.1,.233-42.831,3.09,1.17,2.635,12.403,25.597,18.688,38.423,1.186,2.42,4.725,1.948,5.295-.687,2.789-12.905,10.659-24.764,20.948-36.125Z"/><path class="cls-25" d="M302.013,136.387c.988-1.091,.203-2.841-1.269-2.844-8.265-.016-26.675,.141-25.907,1.869,.708,1.594,7.502,15.483,11.304,23.241,.717,1.464,2.858,1.178,3.203-.415,1.687-7.806,6.447-14.979,12.671-21.851Z"/><path class="cls-21" d="M365.993,159.978s-49.57-53.011-95.211-68.078c0,0,3.353-11.417,45.412,1.33,0,0,8.381,4.273-13.137-18.993,0,0,40.223,17.554,44.271,33.632,0,0,11.85-9.853,5.265-15.745,0,0,16.113,9.2,6.583,40.066,0,0,5.658-16.184,19.797-19.69-19.52,46.931,14.88,51.05-12.979,47.478Z"/><path class="cls-28" d="M323.83,241.144l-1.986,22.944-12.574-6.87-.383-20.851c5.018,2.331,10.023,3.879,14.944,4.777Z"/><polygon class="cls-20" points="309.269 257.218 321.843 264.088 321.523 267.784 309.332 260.656 309.269 257.218"/><path class="cls-23" d="M363.383,350.985c-42.652-6.804-79.72-19.328-99.793-26.657,16.135-10.377,36.129-13.845,55.206-8.932,19.479,5.029,35.585,18.177,44.587,35.588Z"/><path class="cls-24" d="M456.47,14.881l-9.392,27.211c-5.955-2.051-11.294-5.424-15.507-9.975-6.278-6.787-8.813-14.835-9.628-21.882l29.759,1.533,4.769,3.113Z"/><path class="cls-24" d="M471.961,43.353c-7.409,1.637-14.874,1.493-21.706-.283l3.295-10.344s17.474,1.061,18.531,3.803c.484,1.246,.356,3.765-.119,6.825Z"/></g><path class="cls-15" d="M334.913,197.13s18.22,4.857,20.968,3.023c0,0-8.785,9.768-15.519,7.804"/><path class="cls-15" d="M392.826,181.351s-6.741,10.583-10.091,11.156c-3.351,.573,9.206-.93,9.206-.93"/><polygon class="cls-1" points="381.7 202.056 381.081 209.206 380.425 208.973 373.28 211.001 372.802 206.343 372.775 206.135 372.899 206.072 381.7 202.056"/><polygon class="cls-29" points="376.684 209.911 376.499 209.845 376.666 209.769 376.684 209.911"/><polygon class="cls-29" points="376.75 209.726 376.666 209.769 376.662 209.699 376.75 209.726"/><path class="cls-13" d="M325.089,226.535s-11.554-3.495-12.622-2.088"/><path class="cls-13" d="M331.697,233.981s-2.915-.568-6.245,2.928"/><path class="cls-13" d="M398.405,201.876s14.149-3.636,16.274-2.268"/><path class="cls-13" d="M403.723,207.384s7.297,2.813,7.994,4.119"/><path class="cls-13" d="M317.775,215.86s-9.527-7.841-17.793-7.13"/><path class="cls-24" d="M443.692,349.827c-16.375,4.334-29.874,1.529-40.265-3.536l-19.866-15.05c-3.427-3.77-5.177-6.521-5.177-6.521,.481-.109,1.019-.293,1.594-.555,6.74,.523,16.751,.246,22.411-4.956,9.104-8.356,21.783,15.055,21.783,15.055,2.772-5.01,7.115-11.118,13.852-16.356,3.131-2.429,6.381-4.376,9.675-5.907-.899,17.458-4.007,37.825-4.007,37.825Z"/><path class="cls-24" d="M467.938,353.472s-12.918,4.754-18.539-2.548c-1.579-2.054-.375-22.566,.107-39.729,6.813-2.873,13.704-4.094,19.937-4.437h.01c.885,.68,1.497,1.606,1.691,2.847,1.014,6.602-1.697,16.244-1.697,16.244l-6.953-.04c-1.995-.022-3.662,1.489-3.863,3.47l-.009,.109c-.329,3.806,2.416,7.215,6.218,7.705l6.125,.781s2.925,11.314-3.026,15.597Z"/></g></g></g></svg>