<?xml version="1.0" encoding="UTF-8"?><svg id="Layer_2" xmlns="http://www.w3.org/2000/svg" viewBox="0 0 602.78 629.631"><defs><style>.cls-1{fill:#c4c05c;}.cls-1,.cls-2,.cls-3,.cls-4,.cls-5{stroke:#000;stroke-miterlimit:10;}.cls-6{fill:#f9da58;}.cls-2{fill:#687627;}.cls-3,.cls-7{fill:#5f752c;}.cls-4{fill:none;}.cls-8{fill:#a87b2a;}.cls-9{fill:#f0c444;}.cls-10{fill:#93672a;}.cls-11{fill:#9b6e34;}.cls-12{fill:#e3be54;}.cls-13{fill:#be8432;}.cls-5{fill:#e5b745;}.cls-14{fill:#b18733;}.cls-15{fill:#f5c458;}.cls-16{fill:#dbb747;}.cls-17{fill:#f2d15c;}.cls-18{fill:#b58632;}</style></defs><g id="Layer_2-2"><g><g><path class="cls-12" d="M170.647,324.667c2.39-1.5,4.14-3.39,4.42-5.37,1.49-10.57-13.58-22.7-23.8-25.81-3.52-1.07-7.42-1.95-11.39-2.3l-.01-.01c-.72-.93-35.07-45.3-.25-65.49,.01,0,.01-.01,.02-.01,20.37-8.15,37.8-9.4,37.8-9.4-.67-.56-1.2-1.26-1.6-2.08,31.74-59.25,111.97-42.58,111.97-42.58,0,0,8.94,.89,19.85,5.53l-1.53,2.45c-14.6,7.85-55.41,27.25-72.48,21.5-54.25-18.27-62.99,47.5-29.36,44.15-19.33,9.09,10.67,73.8,37.4,96.98-.52-.34-1.05-.67-1.58-1.01,0,0-45.43-27.4-69.46-16.55Z"/><path class="cls-9" d="M505.357,411.477c-10.68-.88-22.84-4.94-36.61-13.48-1.91-1.17-3.85-2.44-5.82-3.8,0,0,1.38-4.17,2.65-11.25,3.34-18.64,5.87-57.46-19.7-93.54-21.51-30.35-62.92-58.76-140.49-71.58,0,0,3.84-24.6,10.91-36.35-2.37-1.39-4.73-2.59-7.02-3.62-.19-.09-.38-.18-.56-.25-.36-.16-.71-.31-1.06-.46l-1.53,2.45c-10.99,11.27,3.44,42.03-26.67,44.72-18.86,1.69,21.91,32.79,27.49,29.21s16.6-14.06,23.94-5.51c7.35,8.55-11.1-5.62-21.13,43.09,0,0-1.2,4.35,2.17,15.21v.01c8.56,3.88,15.67,11.23,20.96,22.98,5.27,13.64-49.61,12.39,14.24,79.23,28.56,29.89,47.69,36.89,60.15,33.15,7.03-2.1,11.94-7.61,15.22-14.34,1.92-3.93,3.28-8.27,4.19-12.59,2.37-11.29,16.32-16.69,24.52-9.45,20.23,17.88,19.43,36.1,12.23,49.85-4.45,8.53-11.36,15.34-17.23,19.28-1.75,1.17-4.02,2.39-6.87,3.38,9.47,5.89,19.47,9.56,29,11.78,5.13-6.33,10.31-12.9,15.55-19.74,.13-.18,.27-.35,.41-.53,2.04-2.68,4.11-5.4,6.17-8.16,4.95,1.69,12.73,.51,21.95-3.08,1.93-7.9,3.56-16.08,4.83-24.55,1.02-6.82-4.87-14.54-11.89-22.06Zm-58.07-27.42c-.71,1.25-4.62,.67-5.9-.89-9.84-11.97-24.271,5.32-30.87-21.21,0,0-7.71-6.23-9.03-1.85-1.32,4.38,20.85,33.9-18.78,26.57,0,0-50.54-86.51-44.74-115.37,5.8-28.87,37.84-13.61,45.97-8.61,18,11.06,88.46,77.24,63.35,121.36Z"/><path class="cls-14" d="M469.967,206.727c31.95,43.71,58.03,98.31,43.12,140.26-7.91-16.63-14.5-43.65-16.18-43.77-16.86-35.16-39.98-57.92-63.61-73.51-45.19-29.83-92.22-33.4-100.78-47.23-6.49-10.51-11.94-8.09-16.22-1-2.37-1.39-4.73-2.59-7.02-3.62-.19-.09-.38-.18-.56-.25-.36-.16-.71-.31-1.06-.46-10.91-4.64-19.85-5.53-19.85-5.53,0,0-80.23-16.67-111.97,42.58-1.28-2.57-1.35-6.3-.81-10.31,1.66-12.4,8.79-24.01,19.28-31.97,91.08-69.18,188.42-18.09,228.81,9.45,12.26,8.36,19.27,14.55,19.27,14.55,9.72,3.55,18.9,7.16,27.58,10.81Z"/><path class="cls-11" d="M524.327,292.237s25,34.59,4.56,64.22c-5.18,7.52-10.76,1.14-15.8-9.47,14.91-41.95-11.17-96.55-43.12-140.26,229.19,96.54,103.95,227.43,42.45,251.36,1.93-7.9,3.56-16.08,4.83-24.55,1.02-6.82-4.87-14.54-11.89-22.06,51.29,4.23,68.72-64.88,68.72-64.88-14.77-60.41-49.75-54.36-49.75-54.36Z"/><path class="cls-10" d="M429.777,533.607c-10.66,11.16-21.06,21.19-31.19,30.15,0-.58-.11-11.3-8.32-23.01-8.44-12.04,16.65-15.7,16.46,.22-.18,15.17,21.07-5.41,23.05-7.36Z"/><path class="cls-6" d="M337.967,271.307c5.8-28.87,37.84-13.61,45.97-8.61,18,11.06,88.46,77.24,63.35,121.36-.71,1.25-4.62,.67-5.9-.89-9.84-11.97-24.27,5.32-30.87-21.21,0,0-7.71-6.23-9.03-1.85s20.85,33.9-18.78,26.57c0,0-50.54-86.51-44.74-115.37Z"/><path class="cls-8" d="M446.407,515.517c-5.56,6.28-11.06,12.26-16.479,17.94,0,0-.05,.05-.15,.15-1.98,1.95-23.23,22.53-23.05,7.36,.19-15.92-24.9-12.26-16.46-.22,8.21,11.71,8.32,22.43,8.32,23.01v.01c-11.25,9.96-22.16,18.61-32.75,26.07-.94-1.64-8.83-16.27,3.28-33.04,11.53-15.97,10.04-34.35,3.1-41.63-2.18-2.29-2.96-5.67-1.56-8.51,1.49-3.04,5.04-4.78,13.41,1.47,15.84,11.84,39.25,29.13,62.34,7.39Z"/><path class="cls-17" d="M345.667,533.907c-6.36,21.79-22.94,39.19-44.67,45.76-31.4,9.49-91.18,28.58-118.6-16.21-3.2-5.24-25.14-40.85-24.2-45.3,1.3-6.08,54.73-14.82,69.58,3.98,0,0,34.45,54.69,71.39,16.73,31.67-32.53-30.9-80.01-54.94-60.36-22.38,18.28-83.62,16.42-83.62,16.42-1.29-1.27-34.43-34.42-50.85-123.02-13.09-70.61,9.63-82.58,30.11-80.73l.01,.01c3.97,.35,7.87,1.23,11.39,2.3,10.22,3.11,25.29,15.24,23.8,25.81-.28,1.98-2.03,3.87-4.42,5.37-.01,.01-.02,.01-.03,.02-.84,.38-1.65,.8-2.43,1.28-6.59,2.97-15.39,3.07-14.54-3.98,3.12-26-58.36,13.62,23.63,94.48,8.94,8.82,37.06,29.42,49.58,30.36,11.2,.85,24.41-1.5,36.03-12.52,9.42-9.3,70.09,7.74,83.78,54.97,3.69,12.68,3.99,27.53-1,44.63Z"/><path class="cls-17" d="M233.647,201.097c17.07,5.75,57.88-13.65,72.48-21.5-10.99,11.27,3.44,42.03-26.67,44.72-18.86,1.69,21.91,32.79,27.49,29.21s16.6-14.06,23.94-5.51c7.35,8.55-11.1-5.62-21.13,43.09,0,0-28.1,9.12-21.05-15.28,10.04-12.49-3.18-12.35-27.33-33.43-5.9-5.16-19.97-4.51-32.66-2.54-3.78,.59-7.44,1.3-10.73,2-7.95,1.7-13.7,3.39-13.7,3.39-33.63,3.35-24.89-62.42,29.36-44.15Z"/><path class="cls-15" d="M305.387,217.827s3.84-24.6,10.91-36.35c4.28-7.09,9.73-9.51,16.22,1,8.56,13.83,55.59,17.4,100.78,47.23,23.63,15.59,46.75,38.35,63.61,73.51,1.68,.12,8.27,27.14,16.18,43.77,5.04,10.61,10.62,16.99,15.8,9.47,20.44-29.63-4.56-64.22-4.56-64.22,0,0,34.98-6.05,49.75,54.36,0,0-17.43,69.11-68.72,64.88-10.68-.88-22.84-4.94-36.61-13.48-1.91-1.17-3.85-2.44-5.82-3.8,0,0,1.38-4.17,2.65-11.25,3.34-18.64,5.87-57.46-19.7-93.54-21.51-30.35-62.92-58.76-140.49-71.58Z"/><path class="cls-12" d="M261.377,242.397c24.15,21.08,37.37,20.94,27.33,33.43-7.05,24.4,21.05,15.28,21.05,15.28,0,0-1.2,4.35,2.17,15.21v.01c-3.65-1.66-7.56-2.69-11.71-3.15,3.04,2.27-13.82-2.35-28.34-1.15-7.68,.63-14.71,2.89-17.81,8.65-19.71-22.71-30.3-48.53-36.08-68.82,3.29-.7,6.95-1.41,10.73-2,12.69-1.97,26.76-2.62,32.66,2.54Z"/><path class="cls-17" d="M463.437,455.157c-4.45,8.53-11.36,15.34-17.23,19.28-1.75,1.17-4.02,2.39-6.87,3.38-16.87,5.84-53.96,3.44-121.8-66.43-8.81-9.08-16.55-17.41-23.32-25.07-38.64-43.7-45.71-65.3-40.15-75.64,3.1-5.76,10.13-8.02,17.81-8.65,14.52-1.2,31.38,3.42,28.34,1.15,4.15,.46,8.06,1.49,11.71,3.15,8.56,3.88,15.67,11.23,20.96,22.98,5.27,13.64-49.61,12.39,14.24,79.23,28.56,29.89,47.69,36.89,60.15,33.15,7.03-2.1,11.94-7.61,15.22-14.34,1.92-3.93,3.28-8.27,4.19-12.59,2.37-11.29,16.32-16.69,24.52-9.45,20.23,17.88,19.43,36.1,12.23,49.85Z"/><path class="cls-6" d="M273.057,374.387c-4.59-10.36-14.57-21.3-31.33-32.13-.01-.02-.03-.02-.04-.03-.52-.34-1.05-.67-1.58-1.01,0,0-45.43-27.4-69.46-16.55-.01,.01-.02,.01-.03,.02-.75,.47-1.57,.9-2.43,1.28-2.79,1.69-5.21,4.01-7.13,7.08-20.5,32.69,24.62,110.89,74.21,95.64,30.02-9.23,48.46-30.21,37.79-54.3Zm-31.39,8.45c-2.96,5.13-11.81,5.57-19.77,.99-7.97-4.59-12.02-12.47-9.07-17.6,2.96-5.13,11.81-5.58,19.77-.99,7.96,4.59,12.02,12.47,9.07,17.6Z"/><path class="cls-18" d="M294.217,386.317c-7.06-3.98-14.11-7.96-21.16-11.93-4.59-10.36-14.57-21.3-31.33-32.13-.01-.02-.03-.02-.04-.03-26.73-23.18-56.73-87.89-37.4-96.98,0,0,5.75-1.69,13.7-3.39,5.78,20.29,16.37,46.11,36.08,68.82-5.56,10.34,1.51,31.94,40.15,75.64Z"/><path class="cls-16" d="M212.827,366.227c2.96-5.13,11.81-5.58,19.77-.99s12.02,12.47,9.07,17.6c-2.96,5.13-11.81,5.57-19.77,.99-7.97-4.59-12.02-12.47-9.07-17.6Z"/><path class="cls-1" d="M152.767,57.647l33.97-7.61c-17.45,8.3-12.12,22.59-12.12,22.59,0,0,1.35,6.13,6.61,14.25,5.25,8.12,.49,12.36,.49,12.36l-3.68-1.05,2.24,6.2c-.86,6.48-11.27,12.25-11.27,12.25,2.16-8.06,.71-19.36-2.55-29.83v-.01l-.02-.03c-2.45-7.89-5.92-15.3-9.63-20.52l-4.04-8.6Z"/><path class="cls-13" d="M296.127,624.237c-98.12,26.23-156.76-58.79-174.18-116.7,0,0-4.33-14.25-39.44-148.09-22.25-84.83,21.84-119.64,57.11-133.76-34.82,20.19-.47,64.56,.25,65.49-20.479-1.85-43.2,10.12-30.11,80.73,16.42,88.6,49.56,121.75,50.85,123.02,0,0,61.24,1.86,83.62-16.42,24.04-19.65,86.61,27.83,54.94,60.36-36.94,37.96-71.39-16.73-71.39-16.73-14.85-18.8-68.28-10.06-69.58-3.98-.94,4.45,21,40.06,24.2,45.3,27.42,44.79,87.2,25.7,118.6,16.21,21.73-6.57,38.31-23.97,44.67-45.76,4.99-17.1,4.69-31.95,1-44.63h.01c4.82,9.68,17.93,111.21-50.55,134.96Z"/><path class="cls-7" d="M147.757,46.987c-.06,.02-.11,.04-.17,.07h-.01v-.46l.18,.39Z"/><path class="cls-3" d="M147.577,47.057h.01c.06-.03,.11-.05,.17-.07l5.01,10.66,4.04,8.6c3.71,5.22,7.18,12.63,9.63,20.52l.02,.03v.01c-.16,.86-8.43,45.6-39.3,17.78l12.53-13.13-10.05-2.56s-2.93-5.01,.61-12.42c3.53-7.41,17.8,2.13,17.57-13.88-.02-1.37-.04-2.63-.06-3.78v-.05c-.12-8.08-.16-10.8-.18-11.71Z"/><path class="cls-2" d="M83.267,120.667c11.14-2.35,7.73-1.07,7.73-1.07l.49,7.54s26.06,6.85,24.94,25.02c-1.11,18.16,10.73,44.56,10.73,44.56l43.47-2.15c-3.38,9.73-4.82,18.05-4.82,18.05,0,0-26.92-8.61-53.11,8.16-16.52,10.58-31.94,38.16-38.23,50.44-.53,1.03-2.1,.51-1.9-.63,1.82-10.23,6.07-30.7,13.77-50.65,3.19-8.27-6.25-38.46-1.79-45.79,2.43-4,12.21,40.48,21.15,10.89,7.99-26.44-24.84-16.29-20.06-19,39.21-22.18-50.09-57.84-50.09-57.84,0,0-42.19,3.78-33.99-32.41,8.19-36.19,50.62-23.8,50.62-23.8-7.93-21.53,17.79-45.68,17.79-45.68,50.96-24.73,57.86,37.53,57.86,37.53,42.63-31.8,74.08,5.77,73.84,7.57,0,0-11.41-4.19-8.58,5.45,0,0-2.09-3.36-6.35-6.82-7-5.67-19.88-11.58-38.98-3.05l-.18-.39v.46c-2.59,1.16-5.28,2.59-8.1,4.32-36.32,22.32-23.64-15.25-23.64-15.25,0,0-5.83-31.65-35.69-17.32,0,0-27.72,24.74-11.59,43.89,16.12,19.14-47.78-15.5-48.07,.12-.29,15.63-8.04,21.9-8.04,21.9,0,0,10.03,15.13,24.34,14.98,0,0,.5-1.14,1.47-2.91,11.92,8.66,36.67,25.63,45.01,23.88Z"/><path class="cls-1" d="M83.267,120.667c-8.34,1.75-33.09-15.22-45.01-23.88,4.06-7.42,16.47-25.82,35.59-16.6,23.66,11.43,23.9,62.57,71.34,62.55,17.93,0,38.94-26.17,46.05-31.14,2.05-1.44-3.13,19.7-3.8,22.11-1.44,5.15,62.7-9.67,59.61-2.85-3.5,7.71-54.33,33.06-60.03,37.22-7.72,5.63-13.02,16.77-16.39,26.49l-43.47,2.15s-11.84-26.4-10.73-44.56c1.12-18.17-24.94-25.02-24.94-25.02l-.49-7.54s3.41-1.28-7.73,1.07Z"/></g><g><path class="cls-4" d="M469.967,206.727c229.19,96.54,103.95,227.43,42.45,251.36"/><path class="cls-4" d="M175.837,214.197c-1.28-2.57-1.35-6.3-.81-10.31,1.66-12.4,8.79-24.01,19.28-31.97,91.08-69.18,188.42-18.09,228.81,9.45,12.26,8.36,19.27,14.55,19.27,14.55,9.72,3.55,18.9,7.16,27.58,10.81,31.95,43.71,58.03,98.31,43.12,140.26"/><path class="cls-4" d="M446.407,515.517c-5.56,6.28-11.06,12.26-16.48,17.94"/><path class="cls-4" d="M398.587,563.757c10.13-8.96,20.53-18.99,31.19-30.15"/><path class="cls-5" d="M468.337,489.597c-7.42,9.16-14.73,17.8-21.93,25.92-23.09,21.74-46.5,4.45-62.34-7.39-8.37-6.25-11.92-4.51-13.41-1.47-1.4,2.84-.62,6.22,1.56,8.51,6.94,7.28,8.43,25.66-3.1,41.63-12.11,16.77-4.22,31.4-3.28,33.04-25.1,17.7-48.34,28.69-69.71,34.4,68.48-23.75,55.37-125.28,50.55-134.96h-.01c-13.69-47.23-74.36-64.27-83.78-54.97-11.62,11.02-24.83,13.37-36.03,12.52-12.52-.94-40.64-21.54-49.58-30.36-81.99-80.86-20.51-120.48-23.63-94.48-.85,7.05,7.95,6.95,14.54,3.98-2.79,1.69-5.21,4.01-7.13,7.08-20.5,32.69,24.62,110.89,74.21,95.64,30.02-9.23,48.46-30.21,37.79-54.3,7.05,3.97,14.1,7.95,21.16,11.93,6.77,7.66,14.51,15.99,23.32,25.07,67.84,69.87,104.93,72.27,121.8,66.43,9.47,5.89,19.47,9.56,29,11.78Z"/><path class="cls-4" d="M505.357,411.477c7.02,7.52,12.91,15.24,11.89,22.06-1.27,8.47-2.9,16.65-4.83,24.55-9.22,3.59-17,4.77-21.95,3.08-2.06,2.76-4.13,5.48-6.17,8.16-.14,.18-.28,.35-.41,.53-5.24,6.84-10.42,13.41-15.55,19.74"/><path class="cls-4" d="M241.687,342.227c-26.73-23.18-56.73-87.89-37.4-96.98-33.63,3.35-24.89-62.42,29.36-44.15,17.07,5.75,57.88-13.65,72.48-21.5-10.99,11.27,3.44,42.03-26.67,44.72-18.86,1.69,21.91,32.79,27.49,29.21s16.6-14.06,23.94-5.51c7.35,8.55-11.1-5.62-21.13,43.09,0,0-1.2,4.35,2.17,15.21v.01"/><path class="cls-4" d="M316.297,181.477c-2.37-1.39-4.73-2.59-7.02-3.62-.19-.09-.38-.18-.56-.25-.36-.16-.71-.31-1.06-.46-10.91-4.64-19.85-5.53-19.85-5.53,0,0-80.23-16.67-111.97,42.58,.4,.82,.93,1.52,1.6,2.08,0,0-17.43,1.25-37.8,9.4-.01,0-.01,.01-.02,.01-34.82,20.19-.47,64.56,.25,65.49l.01,.01c3.97,.35,7.87,1.23,11.39,2.3,10.22,3.11,25.29,15.24,23.8,25.81-.28,1.98-2.03,3.87-4.42,5.37"/><path class="cls-4" d="M365.837,589.837c10.59-7.46,21.5-16.11,32.75-26.07"/><path class="cls-4" d="M139.617,225.687c-35.27,14.12-79.36,48.93-57.11,133.76,35.11,133.84,39.44,148.09,39.44,148.09,17.42,57.91,76.06,142.93,174.18,116.7"/><path class="cls-4" d="M170.617,324.687c-.75,.47-1.57,.9-2.43,1.28"/><path class="cls-4" d="M346.667,489.277c3.69,12.68,3.99,27.53-1,44.63-6.36,21.79-22.94,39.19-44.67,45.76-31.4,9.49-91.18,28.58-118.6-16.21-3.2-5.24-25.14-40.85-24.2-45.3,1.3-6.08,54.73-14.82,69.58,3.98,0,0,34.45,54.69,71.39,16.73,31.67-32.53-30.9-80.01-54.94-60.36-22.38,18.28-83.62,16.42-83.62,16.42l.02,.02,.01,.01,.01,.01"/><path class="cls-4" d="M139.867,291.177c-20.48-1.85-43.2,10.12-30.11,80.73,16.42,88.6,49.56,121.75,50.85,123.02"/><path class="cls-4" d="M241.667,382.837c-2.96,5.13-11.81,5.57-19.77,.99-7.97-4.59-12.02-12.47-9.07-17.6,2.96-5.13,11.81-5.58,19.77-.99s12.02,12.47,9.07,17.6Z"/><path class="cls-4" d="M463.437,455.157c-4.45,8.53-11.36,15.34-17.23,19.28-1.75,1.17-4.02,2.39-6.87,3.38-16.87,5.84-53.96,3.44-121.8-66.43-8.81-9.08-16.55-17.41-23.32-25.07-38.64-43.7-45.71-65.3-40.15-75.64,3.1-5.76,10.13-8.02,17.81-8.65,14.52-1.2,31.38,3.42,28.34,1.15,4.15,.46,8.06,1.49,11.71,3.15,8.56,3.88,15.67,11.23,20.96,22.98,5.27,13.64-49.61,12.39,14.24,79.23,28.56,29.89,47.69,36.89,60.15,33.15,7.03-2.1,11.94-7.61,15.22-14.34,1.92-3.93,3.28-8.27,4.19-12.59,2.37-11.29,16.32-16.69,24.52-9.45,20.23,17.88,19.43,36.1,12.23,49.85Z"/><path class="cls-4" d="M447.287,384.057c-.71,1.25-4.62,.67-5.9-.89-9.84-11.97-24.27,5.32-30.87-21.21,0,0-7.71-6.23-9.03-1.85s20.85,33.9-18.78,26.57c0,0-50.54-86.51-44.74-115.37,5.8-28.87,37.84-13.61,45.97-8.61,18,11.06,88.46,77.24,63.35,121.36Z"/><path class="cls-4" d="M513.087,346.987c5.04,10.61,10.62,16.99,15.8,9.47,20.44-29.63-4.56-64.22-4.56-64.22,0,0,34.98-6.05,49.75,54.36,0,0-17.43,69.11-68.72,64.88-10.68-.88-22.84-4.94-36.61-13.48-1.91-1.17-3.85-2.44-5.82-3.8,0,0,1.38-4.17,2.65-11.25,3.34-18.64,5.87-57.46-19.7-93.54-21.51-30.35-62.92-58.76-140.49-71.58,0,0,3.84-24.6,10.91-36.35,4.28-7.09,9.73-9.51,16.22,1,8.56,13.83,55.59,17.4,100.78,47.23,23.63,15.59,46.75,38.35,63.61,73.51,1.68,.12,8.27,27.14,16.18,43.77Z"/><path class="cls-4" d="M365.837,589.837c.07,.1,.1,.15,.1,.15"/><path class="cls-4" d="M398.587,563.787v-.03c0-.58-.11-11.3-8.32-23.01-8.44-12.04,16.65-15.7,16.46,.22-.18,15.17,21.07-5.41,23.05-7.36l.15-.15"/><path class="cls-4" d="M175.837,214.197c-.04,.07-.08,.15-.12,.22"/><path class="cls-4" d="M217.987,241.857c3.29-.7,6.95-1.41,10.73-2,12.69-1.97,26.76-2.62,32.66,2.54,24.15,21.08,37.37,20.94,27.33,33.43-7.05,24.4,21.05,15.28,21.05,15.28"/><path class="cls-4" d="M235.267,428.687c-49.59,15.25-94.71-62.95-74.21-95.64,1.92-3.07,4.34-5.39,7.13-7.08,.78-.48,1.59-.9,2.43-1.28,.01-.01,.021-.01,.03-.02,24.03-10.85,69.46,16.55,69.46,16.55,.53,.34,1.06,.67,1.58,1.01,.01,.01,.03,.01,.04,.03,16.76,10.83,26.74,21.77,31.33,32.13,10.67,24.09-7.77,45.07-37.79,54.3Z"/></g></g></g></svg>