<?xml version="1.0" encoding="UTF-8"?><svg id="Layer_2" xmlns="http://www.w3.org/2000/svg" viewBox="0 0 336.929 534.291"><defs><style>.cls-1,.cls-2{fill:#b0c4a9;}.cls-3{fill:#a7a290;}.cls-3,.cls-2,.cls-4,.cls-5,.cls-6,.cls-7,.cls-8,.cls-9,.cls-10,.cls-11{stroke:#000;}.cls-3,.cls-2,.cls-4,.cls-5,.cls-6,.cls-7,.cls-9,.cls-11{stroke-width:3.5px;}.cls-3,.cls-2,.cls-4,.cls-5,.cls-7,.cls-8,.cls-9,.cls-10,.cls-11{stroke-miterlimit:10;}.cls-4,.cls-6{fill:#ccdfc6;}.cls-5,.cls-12{fill:#966700;}.cls-6{stroke-linejoin:round;}.cls-7{fill:#cbb380;}.cls-13,.cls-11{fill:#d72a46;}.cls-14,.cls-10{fill:#111;}.cls-15{fill:#004343;}.cls-16{fill:#937b61;}.cls-8{fill:#afafaf;}.cls-8,.cls-10{stroke-width:4px;}.cls-9{fill:#80a1a1;}.cls-17{fill:#4f4520;}.cls-18{fill:#f6fff3;}.cls-19{fill:#98bf8c;}.cls-20{fill:#877053;}</style></defs><g id="Layer_3"><g><g><g><g><path class="cls-4" d="M3.041,37.286s30.719,4.686,56.231-17.702C84.784-2.805,112.379-3.586,135.027,15.939c22.649,19.525,21.607,81.743,53.367,104.652l-9.667,9.897s-12.454-9.9-36.283,29.724c-23.829,39.623-36.714,22.444-36.714,22.444l-.97-44.888s-17.523-14.57-28.881-38.909c-11.358-24.339-39.754-14.874-50.572-20.824C14.49,72.084-3.174,60.643,3.041,37.286Z"/><path class="cls-6" d="M189.511,126.544s-16.937,14.293-26.593,21.784,18.312,53.271,18.312,53.271l35.559,5.933-12.94-16.33-.548-26.132,4.662,24.212,44.003,7.136,13.84,3.244s-4.943-16.264-6.192-21.67c-.53-2.296,9.074-10.078,23.921-12.567l-2.045-10.95s-16.156,.754-23.463,3.246c-2.691,.917-8.138-23.541-8.138-23.541,0,0,1.198-10.361,25.373-10.783l-1.551-6.343s-20.862,4.722-21.849,6.132-3.401-7.672-3.401-7.672l-27.481,11.327s-26.613,3.556-31.47-.298Z"/><path class="cls-2" d="M271.327,84.106s-25.484,5.533-24.705,12.313,7.092,22.289,7.092,22.289c0,0,19.015-6.468,22.289-3.195l-4.676-31.407Z"/><path class="cls-2" d="M277.473,125.553s-23.712-.602-23.938,8.657l5.646,21.002,21.454-2.559-3.162-27.1Z"/><path class="cls-2" d="M283.535,167.784c-8.043,.782-14.819,4.218-21.063,8.776,0,0,5.646,15.272,4.612,20.087l20.703,.688-4.252-29.551Z"/><polygon class="cls-2" points="261.304 199.822 269.988 219.075 292.947 221.362 289.942 207.447 282.288 207.93 280.72 201.503 261.304 199.822"/><path class="cls-7" d="M4.034,161.696s21.13,10.627,43.496,4.078c0,0,18.047-30.85,33.962-30.964v-4.424c0-5.956-5.688-10.483-11.395-8.782-3.915,1.167-7.852,.642-10.01-4.436-2.929-6.891-25.003,4.637-22.821,9.917-6.306-4.928,15.753-17.338,22.127-13.919,3.548,1.903,1.39-12.104,5.999-16.881,6.313-6.542-15.552-11.404-15.552-11.404l-6.315,14.37-2.932,3.226s.227-13.406,3.096-17.457-15.783-3.207-15.783-3.207l-4.558,15.192-3.554-.692,4.77-14.573-15.209,.909-5.322,79.048Z"/><path class="cls-4" d="M59.176,235.052l30.338-9.848c.205-.067,.381-.201,.495-.384,13.212-21.256,11.397-69.526,11.139-75.107-.015-.328-.207-.618-.503-.763l-7.786-3.822c-.417-.205-.92-.061-1.163,.335-3.184,5.193-23.077,37.689-22.806,38.407,5.297,14.023-8.633-6.659-14.255-20.804-.309-.777-1.398-.757-1.682,.029-4.45,12.32-37.092,6.191-46.43,4.163-.828-.18-1.418,.779-.89,1.442l52.561,66.056c.234,.294,.625,.412,.983,.296Z"/><path class="cls-5" d="M104.086,183.756s-15.715,46.263,39.024,115.658c0,0,16.867,21.64,34.76,20.071s50.576-29.552,85.861-34.824c0,0-52.338-52.301-46.94-77.128l-37.888-3.935s-29.941-31.183-24.922-48.385l24.747-24.725s-17.125-14.784-31.604,24.725c-21.647,59.069-37.136,56.619-43.038,28.544Z"/><path class="cls-9" d="M160.772,319.034l33.114,31.102,16.294-3.002s72.038,69.036,82.329,112.559l42.224-1.171-25.107-106.676-42.541-63.745c-1.792-1.674-36.746,4.892-66.758,28.542-3.497,2.756-19.461,5.023-23.879,5.578l-15.676-3.186Z"/><path class="cls-3" d="M166.171,329.484s-30.128,52.468-31.358,80.956l75.172,38.071s62.51,12.081,79.227,23.178c16.716,11.097-41.459-66.744-41.459-66.744l-49.744-13.65,22.036-23.349-29.337-5.746-24.536-32.715Z"/><path class="cls-11" d="M314.714,469.737s7.341,22.689-46.477,53.734c-3.129,6.895,26.732,24.508,64.382-21.91l-1.455-27.981-16.449-3.843Z"/></g><path class="cls-10" d="M84.319,41.567s-1.951-14.085,0-11.849c1.951,2.236,3.396,9.511,3.396,9.511l-3.396,2.338Z"/><path class="cls-8" d="M76.794,64.913s-28.447-7.073-25.218,6.766c3.229,13.839,13.07,3.537,29.062,15.992,15.992,12.455,7.996-18.606-3.844-22.757Z"/></g><g><g><path class="cls-19" d="M3.041,35.286s30.719,4.686,56.231-17.702c25.512-22.388,53.107-23.169,75.755-3.645,22.649,19.525,21.607,81.743,53.367,104.652l-9.667,9.897s-12.454-9.9-36.283,29.724c-23.829,39.623-36.714,22.444-36.714,22.444l-.97-44.888s-17.523-14.57-28.881-38.909c-11.358-24.339-39.754-14.874-50.572-20.824C14.49,70.084-3.174,58.643,3.041,35.286Z"/><path class="cls-19" d="M189.511,124.544s-16.937,14.293-26.593,21.784,18.312,53.271,18.312,53.271l35.559,5.933-12.94-16.33-.548-26.132,4.662,24.212,44.003,7.136,13.84,3.244s-4.943-16.264-6.192-21.67c-.53-2.296,9.074-10.078,23.921-12.567l-2.045-10.95s-16.156,.754-23.463,3.246c-2.691,.917-8.138-23.541-8.138-23.541,0,0,1.198-10.361,25.373-10.783l-1.551-6.343s-20.862,4.722-21.849,6.132-3.401-7.672-3.401-7.672l-27.481,11.327s-26.613,3.556-31.47-.298Z"/><path class="cls-1" d="M271.327,82.106s-25.484,5.533-24.705,12.313,7.092,22.289,7.092,22.289c0,0,19.015-6.468,22.289-3.195l-4.676-31.407Z"/><path class="cls-1" d="M277.473,123.553s-23.712-.602-23.938,8.657l5.646,21.002,21.454-2.559-3.162-27.1Z"/><path class="cls-1" d="M283.535,165.784c-8.043,.782-14.819,4.218-21.063,8.776,0,0,5.646,15.272,4.612,20.087l20.703,.688-4.252-29.551Z"/><polygon class="cls-1" points="261.304 197.822 269.988 217.075 292.947 219.362 289.942 205.447 282.288 205.93 280.72 199.503 261.304 197.822"/><path class="cls-13" d="M4.034,159.696s21.13,10.627,43.496,4.078c0,0,18.047-30.85,33.962-30.964v-4.424c0-5.956-5.688-10.483-11.395-8.782-3.915,1.167-7.852,.642-10.01-4.436-2.929-6.891-25.003,4.637-22.821,9.917-6.306-4.928,15.753-17.338,22.127-13.919,3.548,1.903,1.39-12.104,5.999-16.881,6.313-6.542-15.552-11.404-15.552-11.404l-6.315,14.37-2.932,3.226s.227-13.406,3.096-17.457-15.783-3.207-15.783-3.207l-4.558,15.192-3.554-.692,4.77-14.573-15.209,.909-5.322,79.048Z"/><path class="cls-19" d="M4.034,164.691s49.86,12.324,49.42-6.89c4.438,13.857,21.159,39.221,15.436,24.069-.295-.78,23.233-39.104,23.233-39.104l8.999,4.418s2.945,53.502-11.289,75.917l-31.25,10.144"/><path class="cls-12" d="M104.086,181.756s-15.715,46.263,39.024,115.658c0,0,16.867,21.64,34.76,20.071s50.576-29.552,85.861-34.824c0,0-52.338-52.301-46.94-77.128l-34.46-8.057s-24.071-32.483-19.052-49.685l36.161-23.417s-32.434-30.069-52.314,28.839c-20.116,59.608-37.136,56.619-43.038,28.544Z"/><path class="cls-15" d="M160.772,317.034l33.114,31.102,16.294-3.002s72.038,69.036,82.329,112.559l42.224-1.171-25.107-106.676-42.541-63.745c-1.792-1.674-36.746,4.892-66.758,28.542-3.497,2.756-19.461,5.023-23.879,5.578l-15.676-3.186Z"/><path class="cls-17" d="M166.171,327.484s-30.128,52.468-31.358,80.956l75.172,38.071s62.51,12.081,79.227,23.178c16.716,11.097-41.459-66.744-41.459-66.744l-49.744-13.65,22.036-23.349-29.337-5.746-24.536-32.715Z"/><path class="cls-13" d="M314.714,467.737s7.341,22.689-46.477,53.734c-3.129,6.895,26.732,24.508,64.382-21.91l-1.455-27.981-16.449-3.843Z"/></g><path class="cls-14" d="M84.319,39.567s-1.951-14.085,0-11.849c1.951,2.236,3.396,9.511,3.396,9.511l-3.396,2.338Z"/><path class="cls-18" d="M76.794,62.913s-28.447-7.073-25.218,6.766c3.229,13.839,13.07,3.537,29.062,15.992,15.992,12.455,7.996-18.606-3.844-22.757Z"/></g></g><path class="cls-16" d="M134.261,38.265c-1.374-2.057-15.551,41.052-48.677,25.022,0,0,39.86,24.555,45.461,8.182s3.216-33.204,3.216-33.204Z"/><path class="cls-20" d="M223.383,179.551c2.462-.241-28.855-33.083,.909-54.724,0,0-40.458,23.555-28.666,36.22,11.792,12.665,27.757,18.504,27.757,18.504Z"/><path class="cls-20" d="M246.843,177.546c2.462-.241-28.855-33.083,.909-54.724,0,0-40.458,23.555-28.666,36.22,11.792,12.665,27.757,18.504,27.757,18.504Z"/><path class="cls-16" d="M105.83,43.019c-.687-1.029-7.775,20.526-24.338,12.511,0,0,19.93,12.277,22.73,4.091,2.801-8.187,1.608-16.602,1.608-16.602Z"/><path class="cls-20" d="M85.549,152.189l-6.011,7.669s15.028,4.615,15.028,11.64,3.721-15.016-9.017-19.31Z"/><path class="cls-20" d="M79.103,165.486l-8.176,10.431s20.441,6.278,20.441,15.833,5.062-20.424-12.264-26.264Z"/></g></g></svg>