<?xml version="1.0" encoding="UTF-8"?><svg id="Layer_2" xmlns="http://www.w3.org/2000/svg" viewBox="0 0 588.191 232.966"><defs><style>.cls-1{fill:#eaa61f;opacity:.14;}.cls-2{fill:#3f1c01;}</style></defs><g id="Layer_2-2"><g><rect class="cls-1" y="50.096" width="588.191" height="182.87"/><g><path class="cls-2" d="M197.735,73.296c0,4.895-4.691,7.342-14.071,7.342-9.464,0-14.194-2.447-14.194-7.342v-20.435h-13.338v20.435c0,4.895-4.691,7.342-14.071,7.342-9.465,0-14.194-2.447-14.194-7.342V7.098c0-4.73,4.649-7.098,13.949-7.098,9.544,0,14.316,2.367,14.316,7.098v27.164h13.338V7.098c0-4.73,4.649-7.098,13.949-7.098,9.545,0,14.316,2.367,14.316,7.098V73.296Z"/><path class="cls-2" d="M251.576,80.638c-6.363,0-10.811-1.713-13.338-5.139-4.08,3.426-8.73,5.139-13.949,5.139-6.363,0-11.218-1.631-14.562-4.895-3.102-3.099-4.65-7.055-4.65-11.869,0-5.873,2.081-10.156,6.241-12.848,4.895-3.182,13.215-4.772,24.962-4.772l.122-6.24c0-3.671-1.917-5.507-5.751-5.507-1.958,0-4.487,.654-7.586,1.958-3.264,1.388-5.834,2.08-7.709,2.08-6.69,0-10.034-3.671-10.034-11.013,0-4.16,.734-7.422,2.202-9.789,8.076-3.751,16.52-5.629,25.33-5.629,9.951,0,17.089,1.713,21.413,5.14,4.895,3.915,7.342,10.768,7.342,20.557,0,1.796-.061,3.836-.184,6.118-.122,2.285-.348,4.814-.673,7.587-.327,2.774-.551,4.998-.673,6.669-.122,1.673-.184,2.835-.184,3.487,0,2.202,1.671,3.101,5.017,2.691,1.06,2.692,1.305,5.385,.734,8.076-1.061,5.467-5.751,8.198-14.071,8.198Zm-24.718-22.025c-.489,.898-.734,2.163-.734,3.794,0,3.019,1.631,4.527,4.895,4.527,1.631,0,3.1-.57,4.405-1.713v-.857c0-.814,.02-1.814,.062-2.997,.04-1.182,.101-2.549,.184-4.1-4.732,.489-7.669,.938-8.811,1.346Z"/><path class="cls-2" d="M270.663,18.722c0-4.405,4.283-6.607,12.849-6.607s12.849,2.202,12.849,6.607v3.427c1.793-6.688,6.77-10.034,14.928-10.034,13.867,0,20.802,11.135,20.802,33.405,0,11.667-2.773,20.64-8.32,26.92-4.895,5.467-11.218,8.198-18.967,8.198-3.59,0-6.404-.489-8.442-1.468v11.869c0,4.24-4.243,6.363-12.727,6.363-8.647,0-12.971-2.123-12.971-6.363V18.722Zm36.954,28.634c0-5.547-.693-9.38-2.08-11.503-1.388-1.875-3.468-2.814-6.24-2.814-1.224,0-2.203,.165-2.937,.49v31.692c3.588,.733,6.402-.774,8.442-4.528,1.876-3.506,2.814-7.953,2.814-13.337Z"/><path class="cls-2" d="M338.941,18.722c0-4.405,4.283-6.607,12.849-6.607s12.849,2.202,12.849,6.607v3.427c1.793-6.688,6.77-10.034,14.928-10.034,13.867,0,20.802,11.135,20.802,33.405,0,11.667-2.773,20.64-8.32,26.92-4.895,5.467-11.218,8.198-18.967,8.198-3.59,0-6.404-.489-8.442-1.468v11.869c0,4.24-4.243,6.363-12.727,6.363-8.647,0-12.971-2.123-12.971-6.363V18.722Zm36.954,28.634c0-5.547-.693-9.38-2.08-11.503-1.388-1.875-3.468-2.814-6.24-2.814-1.224,0-2.203,.165-2.937,.49v31.692c3.588,.733,6.402-.774,8.442-4.528,1.876-3.506,2.814-7.953,2.814-13.337Z"/><path class="cls-2" d="M463.631,20.435c0,5.794-7.587,30.021-22.76,72.685-2.692,2.854-7.098,4.283-13.216,4.283-7.669,0-11.502-3.347-11.502-10.034,0-4.405,1.958-8.156,5.873-11.258l-20.679-56.654c0-1.224,.489-2.447,1.468-3.671,1.958-2.447,5.384-3.671,10.278-3.671,6.688,0,11.258,2.856,13.705,8.565,2.365,5.549,4.812,18.6,7.342,39.156l5.629-42.827c1.713-3.262,5.547-4.895,11.502-4.895,4.73,0,7.994,.654,9.789,1.958,1.713,1.224,2.57,3.346,2.57,6.362Z"/></g><g><path d="M169.765,194.232h-3.174l-2.282-18.722-7.81,16.047h-2.816l-7.881-16.047-2.247,18.722h-3.174l2.996-24.569h2.924l8.772,18.222,8.736-18.222h2.924l3.031,24.569Z"/><path d="M185.452,177.579h3.352l-10.341,24.748h-3.281l3.495-8.594-6.704-16.154h3.352l5.028,12.268,5.1-12.268Z"/><path d="M216.328,184.604v9.628h-3.103v-9.45c0-2.781-1.712-4.564-4.029-4.564s-5.1,1.391-5.1,4.993v9.021h-3.103v-16.653h3.103v2.532c.998-2.033,3.709-2.96,5.527-2.96,4.137,0,6.739,2.781,6.704,7.453Z"/><path d="M234.618,177.579h3.103v16.653h-3.103v-2.96c-1.105,1.997-3.424,3.388-6.098,3.388-4.351,0-8.166-3.673-8.166-8.772,0-4.921,3.602-8.736,8.309-8.736,2.496,0,4.85,1.069,5.955,3.031v-2.604Zm0,8.309c0-3.423-2.889-5.812-5.67-5.812-3.031,0-5.456,2.675-5.456,5.812,0,3.174,2.425,5.849,5.491,5.849,2.96,0,5.635-2.461,5.635-5.849Z"/><path d="M269.347,184.604v9.628h-3.103v-9.45c0-2.781-1.533-4.636-3.958-4.636-2.96-.035-4.493,2.033-4.493,5.741v8.345h-3.103v-9.45c0-2.816-1.533-4.636-3.744-4.636-2.354,0-4.707,1.534-4.707,5.064v9.021h-3.103v-16.653h3.103v2.567c.82-1.818,2.995-2.995,5.349-2.995,2.425,0,4.529,1.284,5.492,3.566,1.533-2.996,4.137-3.566,5.812-3.566,4.172,0,6.454,2.781,6.454,7.453Z"/><path d="M290.167,187.243h-13.551c.463,2.96,2.603,4.493,5.455,4.493,2.033,0,3.888-.927,4.851-2.604l2.674,1.07c-1.426,2.888-4.422,4.457-7.631,4.457-4.743,0-8.559-3.53-8.559-8.808s3.815-8.701,8.559-8.701,8.273,3.424,8.273,8.701c0,.464-.036,.927-.071,1.391Zm-3.031-2.675c-.393-2.853-2.425-4.493-5.171-4.493-2.817,0-4.814,1.498-5.313,4.493h10.484Z"/><path d="M302.857,171.446c0-1.178,.998-2.068,2.175-2.068,1.213,0,2.211,.891,2.211,2.068s-.998,2.067-2.211,2.067c-1.177,0-2.175-.891-2.175-2.067Zm.642,22.786v-16.653h3.103v16.653h-3.103Z"/><path d="M310.665,189.347h2.889c.035,1.427,1.283,2.604,3.316,2.604,2.104,0,3.352-1.034,3.352-2.39,0-1.248-.963-1.89-2.282-2.175l-2.282-.535c-2.781-.749-4.386-2.104-4.386-4.778,0-2.746,2.354-4.921,5.705-4.921,2.817,0,5.741,1.498,5.741,4.85h-2.995c-.035-1.283-1.355-2.14-2.675-2.14-1.604,0-2.674,1.034-2.674,2.318,0,1.141,1.069,1.747,2.14,1.997l2.46,.605c3.459,.856,4.351,2.925,4.351,4.814,0,3.103-2.995,5.063-6.454,5.063-2.995,0-6.062-1.89-6.205-5.313Z"/><path d="M352.526,169.663h3.245v24.569h-3.245v-10.733h-12.054v10.733h-3.244v-24.569h3.244v10.876h12.054v-10.876Z"/><path d="M374.595,177.579h3.103v16.653h-3.103v-2.96c-1.105,1.997-3.424,3.388-6.098,3.388-4.351,0-8.166-3.673-8.166-8.772,0-4.921,3.602-8.736,8.309-8.736,2.496,0,4.85,1.069,5.955,3.031v-2.604Zm0,8.309c0-3.423-2.889-5.812-5.67-5.812-3.031,0-5.456,2.675-5.456,5.812,0,3.174,2.425,5.849,5.491,5.849,2.96,0,5.635-2.461,5.635-5.849Z"/><path d="M400.481,185.924c0,5.277-3.744,8.736-8.309,8.736-2.496,0-4.85-1.069-5.955-3.031v10.698h-3.103v-24.748h3.103v2.604c1.105-1.89,3.53-3.031,5.92-3.031,4.564,0,8.344,3.53,8.344,8.772Zm-3.138,.035c0-3.316-2.425-5.884-5.491-5.884-2.96,0-5.635,2.318-5.635,5.884,0,3.602,2.924,5.777,5.635,5.777,3.066,0,5.491-2.425,5.491-5.777Z"/><path d="M422.158,185.924c0,5.277-3.744,8.736-8.309,8.736-2.496,0-4.85-1.069-5.955-3.031v10.698h-3.103v-24.748h3.103v2.604c1.105-1.89,3.53-3.031,5.92-3.031,4.564,0,8.344,3.53,8.344,8.772Zm-3.138,.035c0-3.316-2.425-5.884-5.491-5.884-2.96,0-5.635,2.318-5.635,5.884,0,3.602,2.924,5.777,5.635,5.777,3.066,0,5.491-2.425,5.491-5.777Z"/><path d="M437.417,177.579h3.352l-10.341,24.748h-3.281l3.495-8.594-6.704-16.154h3.352l5.028,12.268,5.1-12.268Z"/><path d="M443.62,192.521c0-1.283,1.034-2.211,2.246-2.211,1.248,0,2.318,.928,2.318,2.211,0,1.248-1.07,2.14-2.318,2.14-1.212,0-2.246-.892-2.246-2.14Zm1.069-5.385l-.321-17.473h3.103l-.32,17.473h-2.461Z"/></g><g><path d="M78.769,128.624v2.675h-3.602v13.979h-3.103v-13.979h-2.996v-2.675h2.996v-6.276h3.103v6.276h3.602Z"/><path d="M80.729,136.933c0-5.277,3.958-8.736,8.7-8.736s8.737,3.459,8.737,8.736-3.994,8.772-8.737,8.772-8.7-3.494-8.7-8.772Zm14.335,0c0-3.423-2.567-5.812-5.635-5.812-3.03,0-5.562,2.39-5.562,5.812,0,3.459,2.532,5.849,5.562,5.849,3.067,0,5.635-2.39,5.635-5.849Z"/><path d="M137.707,135.649v9.628h-3.103v-9.45c0-2.781-1.533-4.636-3.958-4.636-2.96-.035-4.493,2.033-4.493,5.741v8.345h-3.103v-9.45c0-2.816-1.533-4.636-3.744-4.636-2.354,0-4.707,1.534-4.707,5.064v9.021h-3.103v-16.653h3.103v2.567c.82-1.818,2.995-2.995,5.349-2.995,2.425,0,4.529,1.284,5.492,3.566,1.533-2.996,4.137-3.566,5.812-3.566,4.172,0,6.454,2.781,6.454,7.453Z"/><path d="M155.996,128.624h3.103v16.653h-3.103v-2.96c-1.105,1.997-3.424,3.388-6.098,3.388-4.351,0-8.166-3.673-8.166-8.772,0-4.921,3.602-8.736,8.309-8.736,2.496,0,4.85,1.069,5.955,3.031v-2.604Zm0,8.309c0-3.423-2.889-5.812-5.67-5.812-3.031,0-5.456,2.675-5.456,5.812,0,3.174,2.425,5.849,5.491,5.849,2.96,0,5.635-2.461,5.635-5.849Z"/><path d="M179.456,145.277h-4.172l-7.667-8.131v8.131h-3.103v-25.711h3.103v14.941l5.777-5.884h4.314l-7.132,7.203,8.879,9.45Z"/><path d="M196.536,138.288h-13.551c.463,2.96,2.603,4.493,5.456,4.493,2.032,0,3.887-.927,4.85-2.604l2.674,1.07c-1.426,2.888-4.422,4.457-7.631,4.457-4.743,0-8.559-3.53-8.559-8.808s3.815-8.701,8.559-8.701,8.273,3.424,8.273,8.701c0,.464-.036,.927-.071,1.391Zm-3.031-2.675c-.393-2.853-2.425-4.493-5.171-4.493-2.817,0-4.814,1.498-5.313,4.493h10.484Z"/><path d="M221.243,128.624h3.352l-10.341,24.748h-3.281l3.495-8.594-6.704-16.154h3.352l5.028,12.268,5.1-12.268Z"/><path d="M226.197,136.933c0-5.277,3.958-8.736,8.701-8.736s8.736,3.459,8.736,8.736-3.994,8.772-8.736,8.772-8.701-3.494-8.701-8.772Zm14.335,0c0-3.423-2.567-5.812-5.634-5.812-3.031,0-5.563,2.39-5.563,5.812,0,3.459,2.532,5.849,5.563,5.849,3.066,0,5.634-2.39,5.634-5.849Z"/><path d="M259.962,128.624h3.103v16.653h-3.103v-2.604c-.998,2.104-3.673,3.031-5.527,3.031-4.172,0-6.739-2.781-6.704-7.453v-9.628h3.103v9.557c0,2.817,1.676,4.601,3.994,4.601s5.099-1.391,5.135-4.992v-9.165Z"/><path d="M279.144,128.838l-.499,2.925c-.892-.429-1.783-.571-2.425-.571-3.316,0-4.636,3.602-4.636,7.988v6.098h-3.139v-16.653h3.139v3.78c.855-2.924,2.46-4.208,4.671-4.208,1.177,0,2.39,.321,2.889,.642Z"/><path d="M303.461,128.624h3.103v16.653h-3.103v-2.96c-1.105,1.997-3.424,3.388-6.098,3.388-4.351,0-8.166-3.673-8.166-8.772,0-4.921,3.602-8.736,8.309-8.736,2.496,0,4.85,1.069,5.955,3.031v-2.604Zm0,8.309c0-3.423-2.889-5.812-5.67-5.812-3.031,0-5.456,2.675-5.456,5.812,0,3.174,2.425,5.849,5.491,5.849,2.96,0,5.635-2.461,5.635-5.849Z"/><path d="M310.803,136.933c0-5.277,4.173-8.736,8.951-8.736,2.603,0,4.885,1.034,6.347,2.639l-1.961,2.033c-1.034-1.07-2.532-1.748-4.279-1.748-3.28,0-5.919,2.39-5.919,5.812s2.639,5.849,5.919,5.849c1.747,0,3.245-.678,4.279-1.747l1.961,2.032c-1.462,1.641-3.744,2.639-6.347,2.639-4.778,0-8.951-3.494-8.951-8.772Z"/><path d="M342.751,128.624h3.103v24.748h-3.103v-10.698c-1.105,1.962-3.459,3.031-5.955,3.031-4.564,0-8.309-3.459-8.309-8.736,0-5.242,3.78-8.772,8.345-8.772,2.389,0,4.813,1.142,5.919,3.031v-2.604Zm0,8.38c0-3.565-2.674-5.884-5.67-5.884-3.03,0-5.455,2.567-5.455,5.884,0,3.353,2.425,5.777,5.455,5.777,2.746,0,5.67-2.176,5.67-5.777Z"/><path d="M363.289,128.624h3.103v16.653h-3.103v-2.604c-.998,2.104-3.673,3.031-5.527,3.031-4.172,0-6.739-2.781-6.704-7.453v-9.628h3.103v9.557c0,2.817,1.676,4.601,3.994,4.601s5.099-1.391,5.135-4.992v-9.165Z"/><path d="M384.895,128.624h3.103v16.653h-3.103v-2.96c-1.105,1.997-3.424,3.388-6.098,3.388-4.351,0-8.166-3.673-8.166-8.772,0-4.921,3.602-8.736,8.309-8.736,2.496,0,4.85,1.069,5.955,3.031v-2.604Zm0,8.309c0-3.423-2.889-5.812-5.67-5.812-3.031,0-5.456,2.675-5.456,5.812,0,3.174,2.425,5.849,5.491,5.849,2.96,0,5.635-2.461,5.635-5.849Z"/><path d="M392.772,122.491c0-1.178,.998-2.068,2.175-2.068,1.213,0,2.211,.891,2.211,2.068s-.998,2.067-2.211,2.067c-1.177,0-2.175-.891-2.175-2.067Zm.642,22.786v-16.653h3.103v16.653h-3.103Z"/><path d="M417.233,135.649v9.628h-3.103v-9.45c0-2.781-1.712-4.564-4.029-4.564s-5.1,1.391-5.1,4.993v9.021h-3.103v-16.653h3.103v2.532c.998-2.033,3.709-2.96,5.527-2.96,4.137,0,6.739,2.781,6.704,7.453Z"/><path d="M430.174,128.624v2.675h-3.602v13.979h-3.103v-13.979h-2.996v-2.675h2.996v-6.276h3.103v6.276h3.602Z"/><path d="M446.398,128.624h3.103v16.653h-3.103v-2.96c-1.105,1.997-3.424,3.388-6.098,3.388-4.351,0-8.166-3.673-8.166-8.772,0-4.921,3.602-8.736,8.309-8.736,2.496,0,4.85,1.069,5.955,3.031v-2.604Zm0,8.309c0-3.423-2.889-5.812-5.67-5.812-3.031,0-5.456,2.675-5.456,5.812,0,3.174,2.425,5.849,5.491,5.849,2.96,0,5.635-2.461,5.635-5.849Z"/><path d="M470.25,135.649v9.628h-3.103v-9.45c0-2.781-1.712-4.564-4.029-4.564s-5.1,1.391-5.1,4.993v9.021h-3.103v-16.653h3.103v2.532c.998-2.033,3.709-2.96,5.527-2.96,4.137,0,6.739,2.781,6.704,7.453Z"/><path d="M474.242,136.933c0-5.277,4.172-8.736,8.951-8.736,2.603,0,4.885,1.034,6.347,2.639l-1.961,2.033c-1.034-1.07-2.532-1.748-4.279-1.748-3.28,0-5.919,2.39-5.919,5.812s2.639,5.849,5.919,5.849c1.747,0,3.245-.678,4.279-1.747l1.961,2.032c-1.462,1.641-3.744,2.639-6.347,2.639-4.779,0-8.951-3.494-8.951-8.772Z"/><path d="M508.687,138.288h-13.551c.463,2.96,2.603,4.493,5.455,4.493,2.033,0,3.888-.927,4.851-2.604l2.674,1.07c-1.426,2.888-4.422,4.457-7.631,4.457-4.743,0-8.559-3.53-8.559-8.808s3.815-8.701,8.559-8.701,8.273,3.424,8.273,8.701c0,.464-.036,.927-.071,1.391Zm-3.031-2.675c-.393-2.853-2.425-4.493-5.171-4.493-2.817,0-4.814,1.498-5.313,4.493h10.484Z"/><path d="M512.321,143.494c0-1.283,1.034-2.211,2.246-2.211,1.248,0,2.318,.928,2.318,2.211,0,1.248-1.07,2.14-2.318,2.14-1.212,0-2.246-.892-2.246-2.14Z"/></g></g></g></svg>