<?xml version="1.0" encoding="UTF-8"?><svg id="Layer_2" xmlns="http://www.w3.org/2000/svg" viewBox="0 0 588.191 239.941"><defs><style>.cls-1{fill:#eaa61f;opacity:.14;}.cls-2{fill:#3f1c01;}</style></defs><g id="Layer_2-2"><g><rect class="cls-1" y="57.071" width="588.191" height="182.87"/><g><path class="cls-2" d="M195.275,3.427c-1.184,.489-1.979,1.428-2.386,2.813-.409,1.389-.612,3.631-.612,6.73v60.692c0,3.102,.225,5.344,.674,6.73,.447,1.388,1.242,2.324,2.386,2.814,1.142,.489,3.017,.816,5.629,.979v2.447c-4.405-.245-11.258-.367-20.558-.367-9.382,0-16.601,.122-21.658,.367v-2.447c2.61-.162,4.507-.489,5.69-.979,1.182-.49,1.977-1.427,2.386-2.814,.407-1.387,.611-3.629,.611-6.73v-29.367h-27.531v29.367c0,3.102,.224,5.344,.673,6.73,.447,1.388,1.243,2.324,2.386,2.814,1.142,.489,3.018,.816,5.629,.979v2.447c-4.731-.245-11.544-.367-20.435-.367-9.871,0-17.131,.122-21.781,.367v-2.447c2.61-.162,4.507-.489,5.69-.979,1.182-.49,1.977-1.427,2.386-2.814,.407-1.387,.612-3.629,.612-6.73V12.971c0-3.1-.226-5.342-.673-6.73-.449-1.386-1.245-2.324-2.387-2.813-1.144-.49-3.019-.814-5.629-.979V0c4.65,.245,11.91,.367,21.781,.367,8.811,0,15.62-.122,20.435-.367V2.447c-2.611,.165-4.508,.489-5.689,.979-1.184,.489-1.979,1.428-2.387,2.813-.409,1.389-.611,3.631-.611,6.73v28.878h27.531V12.971c0-3.1-.226-5.342-.673-6.73-.449-1.386-1.244-2.324-2.386-2.813-1.144-.49-3.019-.814-5.629-.979V0c5.058,.245,12.276,.367,21.658,.367,9.3,0,16.152-.122,20.558-.367V2.447c-2.612,.165-4.509,.489-5.69,.979Z"/><path class="cls-2" d="M210.205,83.269c-2.652-2.814-3.977-6.342-3.977-10.584,0-3.671,.957-6.709,2.875-9.116,1.916-2.405,4.18-4.262,6.791-5.567,2.61-1.305,5.996-2.65,10.156-4.038,4.405-1.469,7.627-2.814,9.667-4.038,2.038-1.224,3.06-2.937,3.06-5.14v-10.891c0-2.609-.654-4.935-1.958-6.975-1.306-2.038-3.549-3.059-6.73-3.059-2.529,0-4.814,.693-6.853,2.08,2.772,.979,4.834,2.428,6.18,4.344,1.346,1.918,2.02,4.06,2.02,6.424,0,3.182-1.123,5.732-3.365,7.648-2.245,1.917-4.956,2.875-8.138,2.875s-5.689-.998-7.525-2.998c-1.835-1.998-2.753-4.546-2.753-7.647,0-2.447,.612-4.567,1.836-6.363,1.224-1.793,3.139-3.426,5.751-4.895,4.567-2.609,11.093-3.915,19.578-3.915,4.485,0,8.36,.428,11.624,1.284,3.262,.857,6.036,2.469,8.321,4.834,1.631,1.713,2.711,3.854,3.242,6.424,.53,2.569,.796,6.14,.796,10.707v32.793c0,2.04,.142,3.427,.428,4.161,.285,.733,.796,1.101,1.53,1.101,.569,0,1.181-.184,1.835-.55,.652-.367,1.264-.796,1.836-1.285l1.224,2.08c-3.509,3.019-8.525,4.527-15.051,4.527-4.895,0-8.321-.837-10.279-2.509-1.957-1.671-3.019-3.935-3.182-6.791-3.835,6.2-9.544,9.3-17.131,9.3-5.221,0-9.158-1.407-11.808-4.222Zm28.572-7.647v-25.819c-.734,1.225-2.081,2.814-4.038,4.772-2.203,2.122-3.876,4.182-5.018,6.18-1.143,2-1.713,4.711-1.713,8.137,0,5.874,2.08,8.811,6.24,8.811,1.714,0,3.222-.692,4.528-2.08Z"/><path class="cls-2" d="M333.607,29.245c3.916,5.222,5.873,12.849,5.873,22.882,0,12.971-2.611,22.251-7.831,27.838-5.222,5.589-12.114,8.382-20.68,8.382-4.731,0-8.525-.776-11.38-2.325v10.156c0,3.752,.876,6.363,2.631,7.832,1.754,1.468,4.385,2.202,7.893,2.202v2.569l-3.548-.122c-9.79-.244-16.112-.367-18.967-.367-2.447,0-8.076,.163-16.887,.489v-2.569c2.528,0,4.303-.633,5.323-1.896,1.02-1.266,1.529-3.569,1.529-6.914V36.587c0-3.751-.51-6.485-1.529-8.198-1.021-1.713-2.795-2.569-5.323-2.569v-2.57c2.528,.245,5.058,.367,7.587,.367,8.483,0,15.58-.569,21.291-1.713v8.688c3.752-6.118,9.952-9.177,18.6-9.177,6.363,0,11.502,2.611,15.418,7.831Zm-20.007,48.15c1.998-4.853,2.998-12.338,2.998-22.454,0-10.034-.734-17.069-2.202-21.107-1.469-4.038-3.469-6.058-5.996-6.058-2.367,0-4.426,.838-6.18,2.509-1.755,1.673-2.631,3.774-2.631,6.302v47.11c1.06,.653,2.487,.979,4.283,.979,4.485,0,7.728-2.426,9.728-7.28Z"/><path class="cls-2" d="M408.494,29.245c3.916,5.222,5.873,12.849,5.873,22.882,0,12.971-2.611,22.251-7.831,27.838-5.222,5.589-12.114,8.382-20.68,8.382-4.731,0-8.525-.776-11.38-2.325v10.156c0,3.752,.876,6.363,2.631,7.832,1.754,1.468,4.385,2.202,7.893,2.202v2.569l-3.548-.122c-9.79-.244-16.112-.367-18.967-.367-2.447,0-8.076,.163-16.887,.489v-2.569c2.528,0,4.303-.633,5.323-1.896,1.02-1.266,1.529-3.569,1.529-6.914V36.587c0-3.751-.51-6.485-1.529-8.198-1.021-1.713-2.795-2.569-5.323-2.569v-2.57c2.528,.245,5.058,.367,7.587,.367,8.483,0,15.58-.569,21.291-1.713v8.688c3.752-6.118,9.952-9.177,18.6-9.177,6.363,0,11.502,2.611,15.418,7.831Zm-20.007,48.15c1.998-4.853,2.998-12.338,2.998-22.454,0-10.034-.734-17.069-2.202-21.107-1.469-4.038-3.469-6.058-5.996-6.058-2.367,0-4.426,.838-6.18,2.509-1.755,1.673-2.631,3.774-2.631,6.302v47.11c1.06,.653,2.487,.979,4.283,.979,4.485,0,7.728-2.426,9.728-7.28Z"/><path class="cls-2" d="M480.444,23.127v2.569c-1.713,.572-3.285,1.756-4.711,3.549-1.429,1.795-2.753,4.569-3.977,8.32l-15.296,45.52-5.14,14.807c-1.468,4.24-3.264,7.177-5.384,8.81-2.529,1.958-6.322,2.938-11.38,2.938-4.08,0-7.873-.96-11.38-2.876-3.508-1.918-5.262-4.793-5.262-8.627,0-2.856,1.102-5.139,3.304-6.853,2.203-1.713,5.098-2.569,8.688-2.569,3.426,0,6.118,.774,8.076,2.325,1.957,1.549,2.937,3.793,2.937,6.729,0,1.958-.673,3.812-2.02,5.568-1.346,1.753-3.324,3.038-5.935,3.854,.814,.162,2.203,.244,4.16,.244,5.629,0,9.503-3.264,11.625-9.789l.611-2.08-28.511-63.018c-1.224-2.772-2.428-4.607-3.609-5.506-1.182-.897-2.344-1.347-3.487-1.347v-2.569c6.525,.489,13.173,.734,19.945,.734,5.302,0,11.216-.245,17.743-.734v2.569c-2.367,0-4.182,.165-5.445,.489-1.266,.327-1.896,1.062-1.896,2.203,0,.653,.162,1.306,.489,1.958l15.051,35.853,5.139-15.663c1.549-4.729,2.325-8.891,2.325-12.48,0-3.834-.816-6.811-2.447-8.933-1.633-2.121-3.793-3.262-6.485-3.427v-2.569c3.018,.327,7.3,.489,12.849,.489,4.649,0,7.789-.162,9.422-.489Z"/></g><g><path d="M129.583,189.289h4.515l5.332,15.092c.688,1.979,1.29,3.784,1.892,5.892h.172c.646-2.107,1.161-3.913,1.85-5.892l5.332-15.092h4.515v28.207h-3.397v-15.565c0-2.494,.302-5.978,.517-8.428h-.172l-2.193,6.578-5.289,14.577h-2.623l-5.245-14.577-2.236-6.578h-.172c.215,2.45,.516,5.934,.516,8.428v15.565h-3.311v-28.207Z"/><path d="M158.435,226.053l.774-2.795c.516,.172,1.031,.258,1.548,.258,2.321,0,3.827-1.849,4.687-4.429l.473-1.548-8.385-20.94h3.698l4.214,11.523c.688,1.806,1.376,3.956,2.064,5.891h.172c.559-1.892,1.161-4.041,1.72-5.891l3.741-11.523h3.482l-7.868,22.617c-1.463,4.128-3.655,7.268-7.826,7.268-.989,0-1.806-.173-2.494-.431Z"/><path d="M189.265,196.599h2.924l.301,3.01h.129c1.978-1.978,4.128-3.526,7.009-3.526,4.429,0,6.407,2.838,6.407,8.17v13.244h-3.569v-12.771c0-3.913-1.204-5.547-3.956-5.547-2.106,0-3.611,1.074-5.676,3.182v15.136h-3.568v-20.897Z"/><path d="M211.497,212.078c0-4.644,3.869-6.88,12.813-7.869-.043-2.623-.903-5.159-4.3-5.159-2.408,0-4.602,1.074-6.235,2.149l-1.376-2.408c1.936-1.29,4.859-2.709,8.213-2.709,5.074,0,7.268,3.397,7.268,8.558v12.856h-2.925l-.344-2.494h-.129c-1.978,1.677-4.257,3.01-6.88,3.01-3.482,0-6.105-2.149-6.105-5.934Zm12.813,.344v-5.676c-7.052,.817-9.331,2.408-9.331,5.117,0,2.322,1.591,3.225,3.612,3.225s3.697-.902,5.719-2.666Z"/><path d="M234.459,196.599h2.924l.301,3.01h.129c1.849-1.978,3.999-3.526,6.493-3.526,3.225,0,4.944,1.506,5.805,3.956,2.15-2.321,4.343-3.956,6.88-3.956,4.3,0,6.364,2.838,6.364,8.17v13.244h-3.569v-12.771c0-3.913-1.247-5.547-3.87-5.547-1.634,0-3.311,1.031-5.246,3.182v15.136h-3.568v-12.771c0-3.913-1.204-5.547-3.87-5.547-1.548,0-3.268,1.031-5.203,3.182v15.136h-3.568v-20.897Z"/><path d="M268.556,207.047c0-6.794,4.602-10.965,9.374-10.965,5.332,0,8.385,3.784,8.385,9.805,0,.773-.043,1.419-.172,2.106h-14.061c.301,4.3,2.924,7.138,6.88,7.138,2.021,0,3.784-.559,5.246-1.548l1.247,2.279c-1.807,1.29-4.042,2.149-6.923,2.149-5.59,0-9.977-4.042-9.977-10.965Zm14.577-1.806c0-4.128-1.935-6.321-5.117-6.321-2.924,0-5.504,2.322-5.934,6.321h11.051Z"/><path d="M299.473,189.977c0-1.376,.989-2.322,2.365-2.322s2.365,.946,2.365,2.322c0,1.419-.989,2.322-2.365,2.322s-2.365-.903-2.365-2.322Zm.56,6.622h3.568v20.897h-3.568v-20.897Z"/><path d="M308.331,215.002l1.634-2.063c1.806,1.505,3.698,2.278,6.278,2.278,2.752,0,4.085-1.419,4.085-3.225,0-2.15-2.322-3.053-4.688-3.913-3.139-1.118-6.148-2.623-6.148-6.062,0-3.354,2.666-5.935,7.224-5.935,2.623,0,4.859,.989,6.493,2.365l-1.634,2.064c-1.463-1.075-2.968-1.678-4.816-1.678-2.666,0-3.827,1.463-3.827,3.011,0,1.892,1.807,2.666,4.429,3.568,3.269,1.161,6.407,2.58,6.407,6.364,0,3.396-2.709,6.234-7.653,6.234-3.054,0-5.849-1.117-7.783-3.01Z"/><path d="M337.614,189.289h3.611v11.781h13.072v-11.781h3.612v28.207h-3.612v-13.244h-13.072v13.244h-3.611v-28.207Z"/><path d="M364.015,212.078c0-4.644,3.869-6.88,12.813-7.869-.043-2.623-.903-5.159-4.3-5.159-2.408,0-4.602,1.074-6.235,2.149l-1.376-2.408c1.936-1.29,4.859-2.709,8.213-2.709,5.074,0,7.268,3.397,7.268,8.558v12.856h-2.925l-.344-2.494h-.129c-1.978,1.677-4.257,3.01-6.88,3.01-3.482,0-6.105-2.149-6.105-5.934Zm12.813,.344v-5.676c-7.052,.817-9.331,2.408-9.331,5.117,0,2.322,1.591,3.225,3.612,3.225s3.697-.902,5.719-2.666Z"/><path d="M386.977,196.599h2.924l.301,2.408h.129c1.892-1.592,4.257-2.925,6.665-2.925,5.375,0,8.299,4.171,8.299,10.664,0,7.095-4.3,11.266-9.073,11.266-1.892,0-3.87-.902-5.762-2.407l.086,3.654v7.052h-3.568v-29.712Zm14.619,10.147c0-4.601-1.591-7.653-5.504-7.653-1.763,0-3.525,.945-5.547,2.838v10.922c1.893,1.591,3.698,2.149,5.074,2.149,3.439,0,5.977-3.096,5.977-8.256Z"/><path d="M410.843,196.599h2.924l.301,2.408h.129c1.892-1.592,4.257-2.925,6.665-2.925,5.375,0,8.299,4.171,8.299,10.664,0,7.095-4.3,11.266-9.073,11.266-1.892,0-3.87-.902-5.762-2.407l.086,3.654v7.052h-3.568v-29.712Zm14.619,10.147c0-4.601-1.591-7.653-5.504-7.653-1.763,0-3.525,.945-5.547,2.838v10.922c1.893,1.591,3.698,2.149,5.074,2.149,3.439,0,5.977-3.096,5.977-8.256Z"/><path d="M432.428,226.053l.774-2.795c.516,.172,1.031,.258,1.548,.258,2.321,0,3.827-1.849,4.687-4.429l.473-1.548-8.385-20.94h3.698l4.214,11.523c.688,1.806,1.376,3.956,2.064,5.891h.172c.559-1.892,1.161-4.041,1.72-5.891l3.741-11.523h3.482l-7.868,22.617c-1.463,4.128-3.655,7.268-7.826,7.268-.989,0-1.806-.173-2.494-.431Z"/><path d="M454.787,215.303c0-1.634,1.161-2.752,2.58-2.752s2.579,1.118,2.579,2.752c0,1.592-1.16,2.709-2.579,2.709s-2.58-1.117-2.58-2.709Zm.859-22.574l-.086-4.042h3.612l-.086,4.042-.517,16.211h-2.45l-.474-16.211Z"/></g><g><path d="M49.168,151.962v-11.523h-3.096v-2.666l3.268-.215,.43-6.708h2.968v6.708h5.676v2.881h-5.676v11.609c0,2.537,.859,3.999,3.225,3.999,.773,0,1.548-.129,2.408-.516l.73,2.537c-1.118,.516-2.537,.902-3.956,.902-4.472,0-5.977-2.838-5.977-7.009Z"/><path d="M60.992,148.049c0-7.009,4.559-11.008,9.675-11.008s9.719,3.999,9.719,11.008c0,6.923-4.602,10.922-9.719,10.922s-9.675-3.999-9.675-10.922Zm15.695,0c0-4.815-2.408-8.04-6.021-8.04-3.568,0-5.977,3.225-5.977,8.04,0,4.773,2.408,7.955,5.977,7.955,3.612,0,6.021-3.182,6.021-7.955Z"/><path d="M94.447,137.558h2.924l.301,3.01h.129c1.849-1.978,3.999-3.526,6.493-3.526,3.225,0,4.944,1.506,5.805,3.956,2.15-2.321,4.343-3.956,6.88-3.956,4.3,0,6.364,2.838,6.364,8.17v13.244h-3.569v-12.771c0-3.913-1.247-5.547-3.87-5.547-1.634,0-3.311,1.031-5.246,3.182v15.136h-3.568v-12.771c0-3.913-1.204-5.547-3.87-5.547-1.548,0-3.268,1.031-5.203,3.182v15.136h-3.568v-20.897Z"/><path d="M128.803,153.037c0-4.644,3.869-6.88,12.813-7.869-.043-2.623-.903-5.159-4.3-5.159-2.408,0-4.602,1.074-6.235,2.149l-1.376-2.408c1.936-1.29,4.859-2.709,8.213-2.709,5.074,0,7.268,3.397,7.268,8.558v12.856h-2.925l-.344-2.494h-.129c-1.978,1.677-4.257,3.01-6.88,3.01-3.482,0-6.105-2.149-6.105-5.934Zm12.813,.344v-5.676c-7.052,.817-9.331,2.408-9.331,5.117,0,2.322,1.591,3.225,3.612,3.225s3.697-.902,5.719-2.666Z"/><path d="M151.765,127.84h3.525v20.64h.129l8.815-10.922h3.999l-6.967,8.428,7.869,12.47h-3.87l-6.105-10.019-3.87,4.515v5.504h-3.525v-30.615Z"/><path d="M170.727,148.006c0-6.794,4.602-10.965,9.374-10.965,5.332,0,8.385,3.784,8.385,9.805,0,.773-.043,1.419-.172,2.106h-14.061c.301,4.3,2.924,7.138,6.88,7.138,2.021,0,3.784-.559,5.246-1.548l1.247,2.279c-1.807,1.29-4.042,2.149-6.923,2.149-5.59,0-9.977-4.042-9.977-10.965Zm14.577-1.806c0-4.128-1.935-6.321-5.117-6.321-2.924,0-5.504,2.322-5.934,6.321h11.051Z"/><path d="M200.096,167.012l.774-2.795c.516,.172,1.031,.258,1.548,.258,2.321,0,3.826-1.849,4.687-4.429l.473-1.548-8.385-20.94h3.698l4.214,11.523c.688,1.806,1.376,3.956,2.064,5.891h.172c.559-1.892,1.161-4.041,1.72-5.891l3.741-11.523h3.482l-7.868,22.617c-1.463,4.128-3.655,7.268-7.826,7.268-.989,0-1.806-.173-2.494-.431Z"/><path d="M220.606,148.049c0-7.009,4.559-11.008,9.675-11.008s9.719,3.999,9.719,11.008c0,6.923-4.602,10.922-9.719,10.922s-9.675-3.999-9.675-10.922Zm15.695,0c0-4.815-2.408-8.04-6.021-8.04-3.568,0-5.977,3.225-5.977,8.04,0,4.773,2.408,7.955,5.977,7.955,3.612,0,6.021-3.182,6.021-7.955Z"/><path d="M245.159,150.801v-13.243h3.569v12.771c0,3.87,1.204,5.547,3.956,5.547,2.106,0,3.611-1.075,5.547-3.525v-14.792h3.568v20.897h-2.924l-.301-3.268h-.129c-1.935,2.278-3.999,3.783-6.88,3.783-4.429,0-6.407-2.838-6.407-8.17Z"/><path d="M268.852,137.558h2.924l.301,3.784h.129c1.462-2.623,3.612-4.301,5.934-4.301,.946,0,1.591,.13,2.236,.431l-.774,3.053c-.602-.172-1.074-.258-1.892-.258-1.763,0-3.87,1.247-5.289,4.772v13.416h-3.568v-20.897Z"/><path d="M291.126,153.037c0-4.644,3.869-6.88,12.813-7.869-.043-2.623-.903-5.159-4.3-5.159-2.408,0-4.602,1.074-6.235,2.149l-1.376-2.408c1.936-1.29,4.859-2.709,8.213-2.709,5.074,0,7.268,3.397,7.268,8.558v12.856h-2.925l-.344-2.494h-.129c-1.978,1.677-4.257,3.01-6.88,3.01-3.482,0-6.105-2.149-6.105-5.934Zm12.813,.344v-5.676c-7.052,.817-9.331,2.408-9.331,5.117,0,2.322,1.591,3.225,3.612,3.225s3.697-.902,5.719-2.666Z"/><path d="M312.539,148.049c0-7.009,4.688-11.008,10.062-11.008,2.752,0,4.644,1.075,6.105,2.451l-1.763,2.236c-1.161-1.075-2.494-1.72-4.171-1.72-3.784,0-6.536,3.225-6.536,8.04,0,4.773,2.58,7.955,6.407,7.955,1.935,0,3.654-.859,4.901-1.978l1.548,2.278c-1.892,1.721-4.257,2.666-6.75,2.666-5.547,0-9.805-3.999-9.805-10.922Z"/><path d="M346.036,159.831l.172-3.784c-1.677,1.634-3.869,2.924-6.277,2.924-5.246,0-8.644-3.955-8.644-10.922,0-6.793,4.301-11.008,9.073-11.008,2.408,0,4.085,.86,5.934,2.494h.129l.345-1.978h2.838v29.712h-3.569v-7.438Zm0-6.708v-10.922c-1.763-1.591-3.354-2.149-5.074-2.149-3.311,0-5.977,3.182-5.977,7.954,0,4.988,2.064,7.955,5.719,7.955,1.936,0,3.612-.945,5.332-2.838Z"/><path d="M356.356,150.801v-13.243h3.569v12.771c0,3.87,1.204,5.547,3.956,5.547,2.106,0,3.611-1.075,5.547-3.525v-14.792h3.568v20.897h-2.924l-.301-3.268h-.129c-1.935,2.278-3.999,3.783-6.88,3.783-4.429,0-6.407-2.838-6.407-8.17Z"/><path d="M378.76,153.037c0-4.644,3.869-6.88,12.813-7.869-.043-2.623-.903-5.159-4.3-5.159-2.408,0-4.602,1.074-6.235,2.149l-1.376-2.408c1.936-1.29,4.859-2.709,8.213-2.709,5.074,0,7.268,3.397,7.268,8.558v12.856h-2.925l-.344-2.494h-.129c-1.978,1.677-4.257,3.01-6.88,3.01-3.482,0-6.105-2.149-6.105-5.934Zm12.813,.344v-5.676c-7.052,.817-9.331,2.408-9.331,5.117,0,2.322,1.591,3.225,3.612,3.225s3.697-.902,5.719-2.666Z"/><path d="M401.162,130.936c0-1.376,.989-2.322,2.365-2.322s2.365,.946,2.365,2.322c0,1.419-.989,2.322-2.365,2.322s-2.365-.903-2.365-2.322Zm.56,6.622h3.568v20.897h-3.568v-20.897Z"/><path d="M412.342,137.558h2.924l.301,3.01h.129c1.978-1.978,4.128-3.526,7.009-3.526,4.429,0,6.407,2.838,6.407,8.17v13.244h-3.569v-12.771c0-3.913-1.204-5.547-3.956-5.547-2.106,0-3.611,1.074-5.676,3.182v15.136h-3.568v-20.897Z"/><path d="M436.465,151.962v-11.523h-3.096v-2.666l3.268-.215,.43-6.708h2.968v6.708h5.676v2.881h-5.676v11.609c0,2.537,.859,3.999,3.225,3.999,.773,0,1.548-.129,2.408-.516l.73,2.537c-1.118,.516-2.537,.902-3.956,.902-4.472,0-5.977-2.838-5.977-7.009Z"/><path d="M448.247,153.037c0-4.644,3.869-6.88,12.813-7.869-.043-2.623-.903-5.159-4.3-5.159-2.408,0-4.602,1.074-6.235,2.149l-1.376-2.408c1.936-1.29,4.859-2.709,8.213-2.709,5.074,0,7.268,3.397,7.268,8.558v12.856h-2.925l-.344-2.494h-.129c-1.978,1.677-4.257,3.01-6.88,3.01-3.482,0-6.105-2.149-6.105-5.934Zm12.813,.344v-5.676c-7.052,.817-9.331,2.408-9.331,5.117,0,2.322,1.591,3.225,3.612,3.225s3.697-.902,5.719-2.666Z"/><path d="M471.209,137.558h2.924l.301,3.01h.129c1.978-1.978,4.128-3.526,7.009-3.526,4.429,0,6.407,2.838,6.407,8.17v13.244h-3.569v-12.771c0-3.913-1.204-5.547-3.956-5.547-2.106,0-3.611,1.074-5.676,3.182v15.136h-3.568v-20.897Z"/><path d="M493.18,148.049c0-7.009,4.688-11.008,10.062-11.008,2.752,0,4.644,1.075,6.105,2.451l-1.763,2.236c-1.161-1.075-2.494-1.72-4.171-1.72-3.784,0-6.536,3.225-6.536,8.04,0,4.773,2.58,7.955,6.407,7.955,1.935,0,3.654-.859,4.901-1.978l1.548,2.278c-1.892,1.721-4.257,2.666-6.75,2.666-5.547,0-9.805-3.999-9.805-10.922Z"/><path d="M511.886,148.006c0-6.794,4.602-10.965,9.374-10.965,5.332,0,8.385,3.784,8.385,9.805,0,.773-.043,1.419-.172,2.106h-14.061c.301,4.3,2.924,7.138,6.88,7.138,2.021,0,3.784-.559,5.246-1.548l1.247,2.279c-1.807,1.29-4.042,2.149-6.923,2.149-5.59,0-9.977-4.042-9.977-10.965Zm14.577-1.806c0-4.128-1.935-6.321-5.117-6.321-2.924,0-5.504,2.322-5.934,6.321h11.051Z"/><path d="M534.03,156.262c0-1.634,1.161-2.752,2.58-2.752s2.58,1.118,2.58,2.752c0,1.592-1.161,2.709-2.58,2.709s-2.58-1.117-2.58-2.709Z"/></g></g></g></svg>