<?xml version="1.0" encoding="UTF-8"?><svg id="Layer_2" xmlns="http://www.w3.org/2000/svg" viewBox="0 0 333.145 372.915"><defs><style>.cls-1{fill:#fff;}.cls-2{fill:#ff6700;stroke:#000;}.cls-2,.cls-3,.cls-4{stroke-miterlimit:10;}.cls-3{fill:#1b94de;}.cls-3,.cls-4{stroke:#4f1b14;stroke-width:2px;}.cls-5{fill:#0c64c5;}.cls-6{fill:#ee0036;}.cls-4{fill:none;}.cls-7{fill:#d30033;}</style></defs><g id="Layer_2-2"><g><g><g><path class="cls-6" d="M282.151,307.2c-13.475,18.787-30.368,33.659-49.225,44.389,27.768-20.202,43.12-44.953,40.873-67.78-.209-2.094-.566-4.221-1.064-6.375,11.788-3.876,22.496-11.394,30.283-22.25,2.127-2.966,3.954-6.062,5.478-9.251-4.08,21.44-12.782,42.358-26.345,61.267Z"/><path class="cls-5" d="M273.799,283.808c2.247,22.827-13.105,47.578-40.873,67.78-13.059,7.432-27.068,12.878-41.519,16.246-34.668-.942-77.137-10.309-70.861-41.914,3.562-17.886,5.924-19.121,3.12-27.617-3.83-11.595-17.168-17.346-27.877-11.491-11.479,6.276-18.171,21.08-21.507,30.981-5.668-20.974-6.754-43.104-2.984-64.729,6.837-16.189,21.835-39.212,48.19-22.082,22.424,14.582,27.107,27.355,27.11,35.466-.003,8.034,4.382,17.997,11.948,22.032,16.849,8.971,39.035-3.088,43.788-16.133,2.632-7.994,2.555-10.031,3.954-14.676,.429-1.439,1.012-3.126,1.847-5.321,4.705-12.291,12.43-17.125,23.811-18.117,17.11-1.499,35.825,21.72,40.788,43.197,.498,2.154,.855,4.281,1.064,6.375Z"/><path class="cls-5" d="M308.496,245.932c-1.524,3.189-3.351,6.285-5.478,9.251-7.786,10.856-18.495,18.374-30.283,22.25-4.963-21.477-23.678-44.696-40.788-43.197-11.381,.993-19.106,5.826-23.811,18.117-.835,2.194-1.418,3.881-1.847,5.321-1.399,4.645-1.322,6.682-3.954,14.676-4.753,13.044-26.939,25.104-43.788,16.133-7.566-4.036-11.951-13.999-11.948-22.032-.003-8.112-4.686-20.885-27.11-35.466-26.355-17.13-41.354,5.892-48.19,22.082,1.486-8.558,3.732-17.025,6.758-25.328l.006-.008c2.72-7.464,6.064-14.787,10.054-21.893,2.692-4.8,5.687-9.507,8.974-14.09,4.29-5.981,8.94-11.555,13.911-16.702,18.651-19.382,41.686-32.814,66.404-39.858-1.699,6.264-4.526,12.333-8.53,17.916-.245,.341-.49,.683-.745,1.004-7.699,10.254-18.283,17.135-29.822,20.304-9.415,17.245-4.707,39.215,11.666,50.959,13.262,9.512,30.408,9.626,43.523,1.669,4.41-2.683,8.368-6.28,11.568-10.741,4.453-6.208,6.845-13.267,7.316-20.375,1.183-17.881,13.888-33.073,31.573-35.957,15.29-2.496,31.539,.826,45.125,10.571,.536,.385,1.061,.786,1.586,1.186,12.826,9.827,20.11,25.203,20.512,41.354,.272,10.963-.61,21.972-2.681,32.855Z"/><path class="cls-6" d="M191.406,367.835c-32.767,7.646-67.858,4.653-99.663-9.889-7.827-12.542-13.677-26.09-17.461-40.151,3.336-9.901,10.028-24.705,21.507-30.981,10.71-5.856,24.047-.104,27.877,11.491,2.804,8.496,.441,9.731-3.12,27.617-6.276,31.605,36.193,40.972,70.861,41.914Z"/><path class="cls-7" d="M91.743,357.946c-8.981-4.104-17.693-9.133-26.022-15.107-17.755-12.735-32.023-28.53-42.599-46.145,1.258,.853,2.466,1.572,3.623,2.155,9.622,4.858,20.991-2.432,20.302-13.19-.248-3.858-1.562-8.443-4.778-13.739-8.627-14.223,19.694-33.155,35.787-44.183-3.026,8.302-5.272,16.77-6.758,25.328-3.77,21.625-2.684,43.755,2.984,64.729,3.784,14.061,9.634,27.609,17.461,40.151Z"/><path class="cls-6" d="M47.047,285.66c.689,10.758-10.68,18.048-20.302,13.19-1.157-.583-2.364-1.302-3.623-2.155l-.024-.017C2.345,262.041-4.151,220.414,5.142,181.067c0,0-.002-.014,.004-.022,8.175-16.288,22.763-37.624,47.953-32.183,36.561,7.911,43.57,35.852,35.016,56.975-3.989,7.107-7.334,14.43-10.054,21.893l-.006,.008c-16.093,11.027-44.414,29.959-35.787,44.183,3.216,5.297,4.53,9.882,4.778,13.739Z"/><path class="cls-6" d="M156.031,75.112c19.502,13.988,27.316,38.199,21.373,60.074-24.718,7.044-47.753,20.476-66.404,39.858-7.724-1.774-15.204-5.207-21.919-10.429-23.247-18.101-28.358-51.707-11.57-75.921,2.931-4.223,6.335-7.923,10.094-11.072,1.087-.537,2.184-1.055,3.284-1.558,.844-.404,1.698-.788,2.554-1.159,.079-.042,.166-.078,.248-.105,.8-.361,1.603-.708,2.416-1.036,1.36-.575,2.739-1.125,4.128-1.654,.726-.292,1.468-.571,2.213-.837,2.378-.879,4.773-1.696,7.18-2.444,.755-.246,1.512-.478,2.272-.697,.067-.025,.137-.037,.205-.062l.185-.052c13.738-4.004,28.63-2.393,40.75,5.107,.348,.201,.693,.423,1.032,.654,.101,.048,.182,.106,.272,.17,.055,.027,.103,.062,.152,.097,.098,.07,.201,.132,.298,.202,.241,.161,.485,.336,.729,.511,.168,.108,.339,.231,.51,.353Z"/><path class="cls-7" d="M111,175.044c-4.971,5.147-9.622,10.721-13.911,16.702-3.287,4.583-6.281,9.29-8.974,14.09,8.554-21.123,1.545-49.064-35.016-56.975-25.19-5.44-39.778,15.895-47.953,32.183,4.528-19.113,12.778-37.685,24.935-54.636,15.421-21.501,35.333-37.887,57.524-48.787-3.76,3.149-7.164,6.848-10.094,11.072-16.788,24.213-11.677,57.82,11.57,75.921,6.715,5.222,14.196,8.655,21.919,10.429Z"/></g><g><path class="cls-4" d="M5.142,181.067c-9.294,39.347-2.797,80.974,17.955,115.61"/><path class="cls-4" d="M87.605,77.623c-22.191,10.899-42.102,27.285-57.524,48.787-12.158,16.951-20.408,35.523-24.935,54.636"/><path class="cls-4" d="M155.521,74.759c-.244-.175-.488-.35-.729-.511"/><path class="cls-4" d="M91.743,357.946c-8.981-4.104-17.693-9.133-26.022-15.107-17.755-12.735-32.023-28.53-42.599-46.145,1.258,.853,2.466,1.572,3.623,2.155,9.622,4.858,20.991-2.432,20.302-13.19-.248-3.858-1.562-8.443-4.778-13.739-8.627-14.223,19.694-33.155,35.787-44.183"/><path class="cls-4" d="M111,175.044c-7.724-1.774-15.204-5.207-21.919-10.429-23.247-18.101-28.358-51.707-11.57-75.921,2.931-4.223,6.335-7.923,10.094-11.072,1.087-.537,2.184-1.055,3.284-1.558,.844-.404,1.698-.788,2.554-1.159,.079-.042,.166-.078,.248-.105,.8-.361,1.603-.708,2.416-1.036,1.36-.575,2.739-1.125,4.128-1.654,.726-.292,1.468-.571,2.213-.837,2.378-.879,4.773-1.696,7.18-2.444,.755-.246,1.512-.478,2.272-.697,.067-.025,.137-.037,.205-.062l.185-.052c13.738-4.004,28.63-2.393,40.75,5.107,.348,.201,.693,.423,1.032,.654,.101,.048,.182,.106,.272,.17,.055,.027,.103,.062,.152,.097,.098,.07,.201,.132,.298,.202,.241,.161,.485,.336,.729,.511,.168,.108,.339,.231,.51,.353,19.502,13.988,27.316,38.199,21.373,60.074"/><path class="cls-4" d="M74.282,317.795c3.784,14.061,9.634,27.609,17.461,40.151,31.805,14.542,66.897,17.535,99.663,9.889"/><path class="cls-4" d="M232.926,351.589c18.858-10.73,35.751-25.602,49.225-44.389,13.562-18.909,22.264-39.827,26.345-61.267"/><path class="cls-4" d="M272.735,277.433c.498,2.154,.855,4.281,1.064,6.375,2.247,22.827-13.105,47.578-40.873,67.78-13.059,7.432-27.068,12.878-41.519,16.246-34.668-.942-77.137-10.309-70.861-41.914,3.562-17.886,5.924-19.121,3.12-27.617-3.83-11.595-17.168-17.346-27.877-11.491-11.479,6.276-18.171,21.08-21.507,30.981-5.668-20.974-6.754-43.104-2.984-64.729"/><path class="cls-4" d="M308.496,245.932c-1.524,3.189-3.351,6.285-5.478,9.251-7.786,10.856-18.495,18.374-30.283,22.25-4.963-21.477-23.678-44.696-40.788-43.197-11.381,.993-19.106,5.826-23.811,18.117-.835,2.194-1.418,3.881-1.847,5.321-1.399,4.645-1.322,6.682-3.954,14.676-4.753,13.044-26.939,25.104-43.788,16.133-7.566-4.036-11.951-13.999-11.948-22.032-.003-8.112-4.686-20.885-27.11-35.466-26.355-17.13-41.354,5.892-48.19,22.082,1.486-8.558,3.732-17.025,6.758-25.328l.006-.008c2.72-7.464,6.064-14.787,10.054-21.893,2.692-4.8,5.687-9.507,8.974-14.09,4.29-5.981,8.94-11.555,13.911-16.702,18.651-19.382,41.686-32.814,66.404-39.858-1.699,6.264-4.526,12.333-8.53,17.916-.245,.341-.49,.683-.745,1.004-7.699,10.254-18.283,17.135-29.822,20.304-9.415,17.245-4.707,39.215,11.666,50.959,13.262,9.512,30.408,9.626,43.523,1.669,4.41-2.683,8.368-6.28,11.568-10.741,4.453-6.208,6.845-13.267,7.316-20.375,1.183-17.881,13.888-33.073,31.573-35.957,15.29-2.496,31.539,.826,45.125,10.571,.536,.385,1.061,.786,1.586,1.186,12.826,9.827,20.11,25.203,20.512,41.354,.272,10.963-.61,21.972-2.681,32.855Z"/><path class="cls-4" d="M23.122,296.695l-.024-.017"/><path class="cls-4" d="M88.115,205.837c8.554-21.123,1.545-49.064-35.016-56.975-25.19-5.44-39.778,15.895-47.953,32.183-.006,.008-.004,.022-.004,.022"/></g></g><path class="cls-3" d="M187.012,305.89c-100.343-31.3-113.405,29.707-114.48,7.981-1.007-20.341-25.991-79.6,29.151-128.534,34.868-30.943,84.514-52.049,117.786-19.396,33.656,33.03,57.841,168.116-32.458,139.949Z"/><path class="cls-1" d="M210.252,241.261c-1.641-.341-3.255-.793-4.835-1.352,2.804-.641,5.463-1.854,7.801-3.592,.524-.39,.753-1.063,.575-1.691-.178-.628-.726-1.081-1.377-1.138-3.959-.345-7.805-1.31-11.444-2.871-.947-5.363-3.983-10.206-8.428-13.394-9.381-6.728-22.487-4.57-29.215,4.81-.53,.739-1.01,1.507-1.437,2.298-10.908-9.371-17.626-22.855-18.52-37.301-.032-.515-.314-.983-.756-1.249-.441-.267-.986-.301-1.457-.09-3.362,1.505-6.281,3.892-8.439,6.902-2.94,4.099-4.266,9.038-3.86,13.932-.591-.836-1.11-1.723-1.548-2.65-.235-.498-.714-.837-1.262-.893-.548-.056-1.086,.179-1.417,.619-.056,.074-.11,.15-.165,.226-4.389,6.119-5.046,13.99-2.165,20.603-.402-.353-.789-.726-1.16-1.116-.382-.402-.949-.574-1.489-.45-.541,.123-.977,.522-1.148,1.051-2.309,7.155-.581,14.876,4.284,20.341-6.972-.437-13.606-2.805-19.381-6.947-1.205-.864-2.366-1.804-3.452-2.796-.539-.493-1.352-.549-1.955-.132-.603,.417-.838,1.194-.568,1.875,4.008,10.079,10.783,18.746,19.594,25.066,17.321,12.423,34.015,12.027,44.969,9.506,13.659-3.142,26.09-11.353,34.104-22.527,.335-.467,.666-.943,.988-1.423,4.577-.108,9.078-.982,13.394-2.603,.655-.246,1.069-.896,1.015-1.594-.053-.698-.562-1.276-1.248-1.419Z"/><path class="cls-2" d="M297.78,27.543s-73.96-16.449-49.016,24.93c24.945,41.379,26.852-10.784,26.852-10.784l-8.271,7.724-5.386-13.053s28.548-4.77,31.577,.145-4.82,56.223-4.82,56.223c0,0-49.23,7.713-58.145,1.865-8.915-5.848-22.836-62.262-22.836-62.262l19.848-16.24c23.358-19.111,56.438-20.823,81.628-4.201,11.075,7.309,20.008,13.325,20.173,13.823,.439,1.323,6.861,48.726,.384,59.28-6.477,10.554-31.216,37.054-31.216,37.054,0,0-45.71,9.275-55.198,5.748s-31.965,10.94-31.965,10.94l20.192,19.944-9.943,7.91s-9.487-19.661-20.581-19.424-21.154-.97-21.154-.97l5.037-42.817s20.866-42.789,35.72-7.154c15.142,36.326,123.91,16.809,77.118-68.683Z"/></g></g></svg>