<?xml version="1.0" encoding="UTF-8"?><svg id="Layer_2" xmlns="http://www.w3.org/2000/svg" viewBox="0 0 3203.676 664.176"><defs><style>.cls-1{stroke-width:.75px;}.cls-1,.cls-2,.cls-3{fill:none;stroke:#6b8e70;stroke-miterlimit:10;}.cls-4{fill:#6b8e70;}.cls-2{stroke-width:.5px;}</style></defs><g id="Layer_4"><path class="cls-3" d="M.029,143.625c126.207,7.231,327.569,24.517,570.055,72.619,691.275,137.128,930.722,368.773,1379.75,432.08,251.613,35.474,634.096,27.263,1140.109-221.486"/><path class="cls-1" d="M3165.411,150.28c-38.371,60.172-94.828,132.128-176.563,197.783-25.221,20.259-50.135,37.738-74.084,52.838"/><path class="cls-4" d="M3125.397,118.012l-5.103,9.498c-5.103,9.498,7.655,15.878,7.655,15.878,0,0,12.226-12.949,1.754-22.364-4.217-3.791-4.306-3.011-4.306-3.011Z"/><path class="cls-4" d="M3199.651,93.947l-21.86,9.753c-21.86,9.753-8.115,38.28-8.115,38.28,0,0,39.055-6.142,33.448-36.897-2.258-12.384-3.473-11.136-3.473-11.136Z"/><path class="cls-4" d="M2893.442,38.097l10.54-2.273c10.54-2.273,7.125-16.122,7.125-16.122,0,0-17.785-.912-18.164,13.164-.153,5.668,.499,5.231,.499,5.231Z"/><path class="cls-2" d="M3010.782,140.581c32.35-21.152,51.444-54.679,45.799-82.439-7.965-39.174-66.559-73.577-131.674-50.38"/></g></svg>