<?xml version="1.0" encoding="UTF-8"?><svg id="Layer_2" xmlns="http://www.w3.org/2000/svg" viewBox="0 0 354.686 526.452"><defs><style>.cls-1{fill:#518b91;}.cls-1,.cls-2,.cls-3,.cls-4,.cls-5,.cls-6,.cls-7,.cls-8,.cls-9,.cls-10,.cls-11{stroke-miterlimit:10;}.cls-1,.cls-2,.cls-3,.cls-4,.cls-6,.cls-7,.cls-8,.cls-9,.cls-10,.cls-11{stroke:#3d2b07;stroke-width:4px;}.cls-2,.cls-12{fill:#645a52;}.cls-3,.cls-13{fill:#a4aaac;}.cls-4,.cls-14{fill:#645950;}.cls-15,.cls-9{fill:#7c696a;}.cls-16,.cls-6{fill:#6d4044;}.cls-17{fill:#7db2b5;}.cls-5{fill:none;stroke:#000;stroke-width:2px;}.cls-7,.cls-18{fill:#d5d5d5;}.cls-8,.cls-19{fill:#b0b0b1;}.cls-20,.cls-11{fill:#afafaf;}.cls-21{fill:#e7dfd2;}.cls-22{fill:#dd7c7c;}.cls-10,.cls-23{fill:#61848a;}</style></defs><g id="Layer_3"><g><g><g><polygon class="cls-3" points="170.179 143.277 209.518 132.529 219.175 167.222 175.899 166.777 170.179 143.277"/><path class="cls-2" d="M221.598,271.724l-58.103,50.714s113.711,170.336,114.251,171.146,34.017-29.968,34.017-29.968l-7.829-8.144-82.335-183.749Z"/><path class="cls-6" d="M306.344,472.834c3.172-.27,8.623,12.552,10.203,12.17,12.955-3.129,40.167-3.937,32.27,.703l-46.96,37.985s-19.731-22.339-19.362-26.273,23.849-24.586,23.849-24.586Z"/><path class="cls-9" d="M166.287,349.83l-29.055,49.155-68.061-3.582-23.218-13.201s-12.869,38.209-11.41,62.488c0,0,24.677-18.574,28.259-17.645,3.582,.929,55.854,21.758,102.288,20.564l19.321-22.414,14.284-41.57-32.408-33.795Z"/><path class="cls-10" d="M142.676,142.124s-63.712,35.685-57.903,51.384c5.809,15.698,58.088,60.509,58.088,60.509-8.627,24.847-3.297,47.272,4.382,73.603l74.355-55.896,22.498,35.362,1.35-36.987-62.947-65.799-8.306-68.776-31.517,6.6Z"/><path class="cls-1" d="M144.774,153.575s68.559,27.073,77.993,20.142c9.434-6.931-9.113,61.115-36.522,57.606l-66.406-53.652s-15.677-22.123,24.935-24.096Z"/><path class="cls-4" d="M35.646,117.66L2.843,85.531l2.022-2.022v-2.247s31.005-8.987,39.992-5.168"/><polygon class="cls-11" points="41.023 69.438 41.023 45.235 67.716 48.969 41.023 69.438"/><path class="cls-8" d="M107.077,102.178l-19.363,25.418c-.087,.114-.054,.279,.07,.351l21.76,12.635c.082,.048,.129,.14,.117,.235l-2.77,23.191c-.007,.06-.037,.115-.082,.154l-13.995,11.913c-.101,.086-.253,.073-.338-.028l-11.045-13.167c-.061-.072-.158-.102-.249-.076l-35.975,10.367c-.164,.047-.324-.088-.303-.258l3.829-32.096c.011-.095-.035-.187-.117-.235l-21.76-12.635c-.124-.072-.157-.237-.07-.351l19.353-25.418c.028-.037,.045-.081,.048-.128l2.324-32.465c.006-.088,.059-.165,.14-.201,2.577-1.135,42.639-19.552,39.796-66.593-.017-.279,.368-.362,.46-.098,1.994,5.747,7.788,26.591-5.595,44.357,1.183-1.443,19.274-23.642,20.912-33.152,.045-.263,.419-.256,.465,.007,.978,5.541,2.027,18.23-6.877,25.595-11.62,9.62,.01,7.97,.01,7.97,0,0,10.717-2.411,23.314,14.701,.079,.108,.055,.266-.053,.345-5.94,4.345-10.679,6.506-11.504,6.869-.081,.036-.131,.111-.138,.2l-2.315,32.465c-.003,.046-.02,.091-.048,.128Z"/><path class="cls-7" d="M181.36,79.261l-40.62,56.03-33.86,28.81,2.8-23.44-22.13-12.85,19.57-25.69,2.33-32.68s5.19-2.18,11.83-7.07c1.27,1.72,2.54,3.64,3.83,5.77,0,0,27.22-18.45,40.96-19.6,2.73,1.05,6.06,2.97,9.73,6.44,5.07,9.56,5.56,24.28,5.56,24.28Z"/><path class="cls-11" d="M154.791,85.788s-3.116,8.139-11.578,12.715c-5.136,2.778-9.143,22.515,6.108,18.883,0,0,2.782-17.642,5.47-31.598Z"/><path class="cls-8" d="M225.204,196.761s65.065,27.236,66.261,29.737c0,0,13.269-25.806,13.944-33.457,.675-7.651,9.113,16.011,4.888,26.619-4.225,10.609,40.751-10.381,40.751-10.381l1.465,12.9s-35.406,11.366-27.968,20.465c7.438,9.1,10.641-1.847,25.234,17.645l-9.586,10.159s-22.601-10.868-23.775-6.067,11.521,14.111,14.123,18.376l-8.49,4.434s-17.437-17.819-20.798-16.097-28.805-7.189-28.805-7.189l-18.441-12.428-49.149-25.668s20.863-26.279,20.346-29.05Z"/></g><g><polygon class="cls-13" points="170.33 142.116 209.669 131.368 219.326 166.061 176.05 165.617 170.33 142.116"/><path class="cls-12" d="M221.749,270.563l-58.103,50.714s113.711,170.336,114.251,171.146,34.017-29.968,34.017-29.968l-7.829-8.144-82.335-183.749Z"/><path class="cls-16" d="M306.495,471.673c3.172-.27,8.623,12.552,10.203,12.17,12.955-3.129,40.167-3.937,32.27,.703l-46.96,37.985s-19.731-22.339-19.362-26.273,23.849-24.586,23.849-24.586Z"/><path class="cls-15" d="M166.438,348.67l-29.055,49.155-68.061-3.582-23.218-13.201s-12.869,38.209-11.41,62.488c0,0,24.677-18.574,28.259-17.645,3.582,.929,55.854,21.758,102.288,20.564l19.321-22.414,14.284-41.57-32.408-33.795Z"/><path class="cls-23" d="M142.826,140.963s-63.712,35.685-57.903,51.384c5.809,15.698,58.088,60.509,58.088,60.509-8.627,24.847-3.297,47.272,4.382,73.603l74.355-55.896,22.498,35.362,1.35-36.987-62.947-65.799-8.306-68.776-31.517,6.6Z"/><path class="cls-17" d="M144.925,152.414s68.559,27.073,77.993,20.142c9.434-6.931-9.113,61.115-36.522,57.606l-66.406-53.652s-15.677-22.123,24.935-24.096Z"/><path class="cls-14" d="M35.797,116.499L2.994,84.37l2.022-2.022v-2.247s31.005-8.987,39.992-5.168"/><polygon class="cls-20" points="41.174 68.278 41.174 44.074 67.867 47.809 41.174 68.278"/><path class="cls-19" d="M107.271,100.96l-19.57,25.69,22.13,12.85-2.8,23.44-14.25,12.13-11.3-13.47-36.47,10.51,3.89-32.61-22.13-12.85,19.56-25.69,2.34-32.68S92.491,49.83,88.481,0c0,0,10.67,25.06-5.021,45.89,1.271-1.55,22.06-27.06,20.99-35.05,.86,3.7,3.69,19.08-6.49,27.5-11.62,9.62,.01,7.97,.01,7.97,0,0,10.8-2.43,23.46,14.9-6.64,4.89-11.83,7.07-11.83,7.07l-2.33,32.68Z"/><path class="cls-18" d="M181.511,78.1l-40.62,56.03-33.86,28.81,2.8-23.44-22.13-12.85,19.57-25.69,2.33-32.68s5.19-2.18,11.83-7.07c1.27,1.72,2.54,3.64,3.83,5.77,0,0,27.22-18.45,40.96-19.6,2.73,1.05,6.06,2.97,9.73,6.44,5.07,9.56,5.56,24.28,5.56,24.28Z"/><path class="cls-22" d="M154.942,84.627s-3.116,8.139-11.578,12.715c-5.136,2.778-9.143,22.515,6.108,18.883,0,0,2.782-17.642,5.47-31.598Z"/><path class="cls-19" d="M225.355,195.6s65.065,27.236,66.261,29.737c0,0,13.269-25.806,13.944-33.457,.675-7.651,9.113,16.011,4.888,26.619-4.225,10.609,40.751-10.381,40.751-10.381l1.465,12.9s-35.406,11.366-27.968,20.465c7.438,9.1,10.641-1.847,25.234,17.645l-9.586,10.159s-22.601-10.868-23.775-6.067,11.521,14.111,14.123,18.376l-8.49,4.434s-17.437-17.819-20.798-16.097-28.805-7.189-28.805-7.189l-18.441-12.428-49.149-25.668s20.863-26.279,20.346-29.05Z"/></g></g><polygon class="cls-21" points="73.466 87.335 70.419 88.836 90.114 71.922 77.834 98.336 73.466 87.335"/><line class="cls-5" x1="93.975" y1="79.851" x2="99.128" y2="86.696"/></g></g></svg>