<?xml version="1.0" encoding="UTF-8"?><svg id="Layer_2" xmlns="http://www.w3.org/2000/svg" viewBox="0 0 312.2 344.422"><defs><style>.cls-1{fill:#fff;}.cls-2{fill:#ff6700;stroke:#000;}.cls-2,.cls-3,.cls-4{stroke-miterlimit:10;}.cls-5{fill:#819900;}.cls-6,.cls-3{fill:#536422;}.cls-3,.cls-4{stroke:#4f1b14;stroke-width:2px;}.cls-7{fill:#697a13;}.cls-4{fill:none;}.cls-8{fill:red;}</style></defs><g id="Layer_2-2"><g><g><g><path class="cls-6" d="M311.2,188.322c0,23.12-5.06,45.05-14.13,64.76,10.79-32.6,8.84-61.66-6.29-78.9-1.39-1.58-2.92-3.1-4.58-4.56,7.32-10.02,11.64-22.37,11.64-35.73,0-3.65-.32-7.23-.94-10.71,9.18,19.8,14.3,41.87,14.3,65.14Z"/><path class="cls-7" d="M290.78,174.182c15.13,17.24,17.08,46.3,6.29,78.9-6.28,13.65-14.49,26.24-24.27,37.4-28.72,19.44-68.69,36.58-82.01,7.24-7.53-16.61-6.33-18.99-13.56-24.26-9.87-7.19-24.06-4.09-29.35,6.91-5.67,11.79-2.48,27.72,.58,37.71-16.83-13.74-30.61-31.09-40.15-50.86-3.88-17.14-5.11-44.59,26.29-46.03,26.72-1.22,37.97,6.43,42.7,13.02,4.68,6.53,14.05,12.07,22.55,10.94,18.92-2.53,29.92-25.26,26.18-38.63-2.52-8.03-3.77-9.64-5.34-14.23-.49-1.42-1-3.13-1.6-5.4-3.34-12.73,.12-21.16,8.79-28.6,13.03-11.19,41.77-3.23,58.32,11.33,1.66,1.46,3.19,2.98,4.58,4.56Z"/><path class="cls-5" d="M296.9,123.182c.62,3.48,.94,7.06,.94,10.71,0,13.36-4.32,25.71-11.64,35.73-16.55-14.56-45.29-22.52-58.32-11.33-8.67,7.44-12.13,15.87-8.79,28.6,.6,2.27,1.11,3.98,1.6,5.4,1.57,4.59,2.82,6.2,5.34,14.23,3.74,13.37-7.26,36.1-26.18,38.63-8.5,1.13-17.87-4.41-22.55-10.94-4.73-6.59-15.98-14.24-42.7-13.02-31.4,1.44-30.17,28.89-26.29,46.03-3.78-7.82-6.89-16.01-9.27-24.52v-.01c-2.14-7.65-3.69-15.55-4.59-23.65-.61-5.47-.92-11.04-.92-16.68,0-7.36,.53-14.6,1.57-21.68,3.86-26.62,14.75-50.96,30.73-71.09,2.27,6.08,3.51,12.66,3.51,19.53,0,.42,0,.84-.02,1.25-.28,12.82-4.87,24.58-12.4,33.88,2.4,19.5,19.03,34.61,39.18,34.61,16.32,0,30.32-9.9,36.34-24.01,2.02-4.75,3.14-9.98,3.14-15.47,0-7.64-2.17-14.77-5.93-20.82-9.46-15.22-7.99-34.97,4.7-47.62,10.97-10.94,26.11-17.71,42.83-17.71,.66,0,1.32,.02,1.98,.04,16.15,.51,31.03,8.76,40.77,21.65,6.61,8.75,12.31,18.21,16.97,28.26Z"/><path class="cls-6" d="M272.8,290.482c-22.17,25.31-52.43,43.33-86.75,50.05-13.67-5.63-26.32-13.23-37.59-22.45-3.06-9.99-6.25-25.92-.58-37.71,5.29-11,19.48-14.1,29.35-6.91,7.23,5.27,6.03,7.65,13.56,24.26,13.32,29.34,53.29,12.2,82.01-7.24Z"/><path class="cls-7" d="M186.05,340.532c-9.69,1.9-19.7,2.89-29.95,2.89-21.85,0-42.65-4.52-61.51-12.67,1.52-.04,2.92-.16,4.2-.36,10.65-1.66,15.64-14.21,8.81-22.55-2.45-2.99-6.19-5.95-11.89-8.38-15.3-6.53-3.32-38.42,3.33-56.76,2.38,8.51,5.49,16.7,9.27,24.52,9.54,19.77,23.32,37.12,40.15,50.86,11.27,9.22,23.92,16.82,37.59,22.45Z"/><path class="cls-5" d="M107.6,307.842c6.83,8.34,1.84,20.89-8.81,22.55-1.28,.2-2.68,.32-4.2,.36h-.03c-37.05-16.05-66.59-46.09-81.97-83.48,0,0-.01-.01-.01-.02-2.85-18-3.43-43.84,20.21-54.1,34.32-14.88,56.3,3.74,61.66,25.89,.9,8.1,2.45,16,4.59,23.65v.01c-6.65,18.34-18.63,50.23-3.33,56.76,5.7,2.43,9.44,5.39,11.89,8.38Z"/><path class="cls-5" d="M73.45,73.232c24,0,44.46,15.12,52.38,36.36-15.98,20.13-26.87,44.47-30.73,71.09-7.31,3.06-15.39,4.63-23.89,4.3-29.44-1.16-53.18-25.49-53.65-54.95-.08-5.14,.53-10.13,1.75-14.88,.57-1.07,1.16-2.13,1.76-3.18,.45-.82,.92-1.63,1.4-2.43,.04-.08,.09-.16,.14-.23,.44-.76,.89-1.51,1.36-2.25,.77-1.26,1.57-2.51,2.39-3.75,.42-.66,.86-1.32,1.31-1.97,1.42-2.1,2.89-4.16,4.41-6.17,.47-.64,.95-1.27,1.44-1.89,.04-.06,.09-.11,.13-.17l.12-.15c8.83-11.26,21.87-18.63,36.09-19.6,.4-.04,.81-.06,1.22-.07,.11-.02,.21-.02,.32-.02,.06-.01,.12-.01,.18-.01,.12,0,.24-.01,.36-.01,.29-.01,.59-.01,.89-.01,.2-.01,.41-.01,.62-.01Z"/><path class="cls-6" d="M95.1,180.682c-1.04,7.08-1.57,14.32-1.57,21.68,0,5.64,.31,11.21,.92,16.68-5.36-22.15-27.34-40.77-61.66-25.89-23.64,10.26-23.06,36.1-20.21,54.1-7.46-18.17-11.58-38.07-11.58-58.93,0-26.46,6.63-51.38,18.31-73.17-1.22,4.75-1.83,9.74-1.75,14.88,.47,29.46,24.21,53.79,53.65,54.95,8.5,.33,16.58-1.24,23.89-4.3Z"/></g><g><path class="cls-4" d="M12.59,247.272c15.38,37.39,44.92,67.43,81.97,83.48"/><path class="cls-4" d="M19.31,115.152C7.63,136.942,1,161.862,1,188.322c0,20.86,4.12,40.76,11.58,58.93"/><path class="cls-4" d="M72.83,73.242c-.3,0-.6,0-.89,.01"/><path class="cls-4" d="M186.05,340.532c-9.69,1.9-19.7,2.89-29.95,2.89-21.85,0-42.65-4.52-61.51-12.67,1.52-.04,2.92-.16,4.2-.36,10.65-1.66,15.64-14.21,8.81-22.55-2.45-2.99-6.19-5.95-11.89-8.38-15.3-6.53-3.32-38.42,3.33-56.76"/><path class="cls-4" d="M95.1,180.682c-7.31,3.06-15.39,4.63-23.89,4.3-29.44-1.16-53.18-25.49-53.65-54.95-.08-5.14,.53-10.13,1.75-14.88,.57-1.07,1.16-2.13,1.76-3.18,.45-.82,.92-1.63,1.4-2.43,.04-.08,.09-.16,.14-.23,.44-.76,.89-1.51,1.36-2.25,.77-1.26,1.57-2.51,2.39-3.75,.42-.66,.86-1.32,1.31-1.97,1.42-2.1,2.89-4.16,4.41-6.17,.47-.64,.95-1.27,1.44-1.89,.04-.06,.09-.11,.13-.17l.12-.15c8.83-11.26,21.87-18.63,36.09-19.6,.4-.04,.81-.06,1.22-.07,.11-.02,.21-.02,.32-.02,.06-.01,.12-.01,.18-.01,.12,0,.24-.01,.36-.01,.29-.01,.59-.01,.89-.01,.2-.01,.41-.01,.62-.01,24,0,44.46,15.12,52.38,36.36"/><path class="cls-4" d="M148.46,318.082c11.27,9.22,23.92,16.82,37.59,22.45,34.32-6.72,64.58-24.74,86.75-50.05"/><path class="cls-4" d="M297.07,253.082c9.07-19.71,14.13-41.64,14.13-64.76,0-23.27-5.12-45.34-14.3-65.14"/><path class="cls-4" d="M286.2,169.622c1.66,1.46,3.19,2.98,4.58,4.56,15.13,17.24,17.08,46.3,6.29,78.9-6.28,13.65-14.49,26.24-24.27,37.4-28.72,19.44-68.69,36.58-82.01,7.24-7.53-16.61-6.33-18.99-13.56-24.26-9.87-7.19-24.06-4.09-29.35,6.91-5.67,11.79-2.48,27.72,.58,37.71-16.83-13.74-30.61-31.09-40.15-50.86"/><path class="cls-4" d="M296.9,123.182c.62,3.48,.94,7.06,.94,10.71,0,13.36-4.32,25.71-11.64,35.73-16.55-14.56-45.29-22.52-58.32-11.33-8.67,7.44-12.13,15.87-8.79,28.6,.6,2.27,1.11,3.98,1.6,5.4,1.57,4.59,2.82,6.2,5.34,14.23,3.74,13.37-7.26,36.1-26.18,38.63-8.5,1.13-17.87-4.41-22.55-10.94-4.73-6.59-15.98-14.24-42.7-13.02-31.4,1.44-30.17,28.89-26.29,46.03-3.78-7.82-6.89-16.01-9.27-24.52v-.01c-2.14-7.65-3.69-15.55-4.59-23.65-.61-5.47-.92-11.04-.92-16.68,0-7.36,.53-14.6,1.57-21.68,3.86-26.62,14.75-50.96,30.73-71.09,2.27,6.08,3.51,12.66,3.51,19.53,0,.42,0,.84-.02,1.25-.28,12.82-4.87,24.58-12.4,33.88,2.4,19.5,19.03,34.61,39.18,34.61,16.32,0,30.32-9.9,36.34-24.01,2.02-4.75,3.14-9.98,3.14-15.47,0-7.64-2.17-14.77-5.93-20.82-9.46-15.22-7.99-34.97,4.7-47.62,10.97-10.94,26.11-17.71,42.83-17.71,.66,0,1.32,.02,1.98,.04,16.15,.51,31.03,8.76,40.77,21.65,6.61,8.75,12.31,18.21,16.97,28.26Z"/><path class="cls-4" d="M94.59,330.752h-.03"/><path class="cls-4" d="M94.45,219.042c-5.36-22.15-27.34-40.77-61.66-25.89-23.64,10.26-23.06,36.1-20.21,54.1,0,.01,.01,.02,.01,.02"/></g></g><path class="cls-3" d="M186.075,250.206c-161.253-29.734-80.033,88.437-91.46,74.465-12.894-15.765-69.065-68.031-52.776-139.933,10.3-45.466,43.555-77.458,64.97-83.641,100.812-29.11,186.081,168.806,79.266,149.11Z"/><g><path class="cls-8" d="M237.659,139.794c-1.953-7.298-7.689-13.033-14.987-14.987-13.214-3.544-66.226-3.544-66.226-3.544,0,0-53.011,0-66.226,3.544-7.298,1.954-13.033,7.689-14.987,14.987-3.544,13.214-3.544,40.802-3.544,40.802,0,0,0,27.587,3.544,40.802,1.954,7.298,7.689,13.033,14.987,14.986,13.214,3.545,66.226,3.545,66.226,3.545,0,0,53.012,0,66.226-3.545,7.298-1.953,13.034-7.688,14.987-14.986,3.545-13.215,3.545-40.802,3.545-40.802,0,0-.014-27.587-3.545-40.802Z"/><path class="cls-1" d="M131.72,216.347l58.462-33.75-58.462-33.751v67.501Z"/></g><path class="cls-2" d="M215.033,.706s-36.068,36.068-35.581,56.437,30.555,16.162,30.555,16.162c-19.028-.474-33.603,29.631-33.603,29.631-7.165-12.822-50.576-9.955-50.576-9.955,3.028-8.001-40.632-31.203-40.632-31.203l75.755,4.86V8.392L215.033,.706Z"/></g></g></svg>